%TF.GenerationSoftware,KiCad,Pcbnew,(5.0.0)*%
%TF.CreationDate,2020-03-23T14:11:06+01:00*%
%TF.ProjectId,Schaltplan_Mainboard,536368616C74706C616E5F4D61696E62,rev?*%
%TF.SameCoordinates,Original*%
%TF.FileFunction,Legend,Top*%
%TF.FilePolarity,Positive*%
%FSLAX46Y46*%
G04 Gerber Fmt 4.6, Leading zero omitted, Abs format (unit mm)*
G04 Created by KiCad (PCBNEW (5.0.0)) date 03/23/20 14:11:06*
%MOMM*%
%LPD*%
G01*
G04 APERTURE LIST*
%ADD10C,0.150000*%
%ADD11C,0.100000*%
%ADD12C,0.300000*%
%ADD13C,0.200000*%
%ADD14C,0.120000*%
%ADD15C,0.010000*%
%ADD16C,0.254000*%
G04 APERTURE END LIST*
D10*
X174922309Y-80767880D02*
X174922309Y-79767880D01*
X175303261Y-79767880D01*
X175398500Y-79815500D01*
X175446119Y-79863119D01*
X175493738Y-79958357D01*
X175493738Y-80101214D01*
X175446119Y-80196452D01*
X175398500Y-80244071D01*
X175303261Y-80291690D01*
X174922309Y-80291690D01*
X176065166Y-80767880D02*
X175969928Y-80720261D01*
X175922309Y-80672642D01*
X175874690Y-80577404D01*
X175874690Y-80291690D01*
X175922309Y-80196452D01*
X175969928Y-80148833D01*
X176065166Y-80101214D01*
X176208023Y-80101214D01*
X176303261Y-80148833D01*
X176350880Y-80196452D01*
X176398500Y-80291690D01*
X176398500Y-80577404D01*
X176350880Y-80672642D01*
X176303261Y-80720261D01*
X176208023Y-80767880D01*
X176065166Y-80767880D01*
X176731833Y-80101214D02*
X176922309Y-80767880D01*
X177112785Y-80291690D01*
X177303261Y-80767880D01*
X177493738Y-80101214D01*
X178255642Y-80720261D02*
X178160404Y-80767880D01*
X177969928Y-80767880D01*
X177874690Y-80720261D01*
X177827071Y-80625023D01*
X177827071Y-80244071D01*
X177874690Y-80148833D01*
X177969928Y-80101214D01*
X178160404Y-80101214D01*
X178255642Y-80148833D01*
X178303261Y-80244071D01*
X178303261Y-80339309D01*
X177827071Y-80434547D01*
X178731833Y-80767880D02*
X178731833Y-80101214D01*
X178731833Y-80291690D02*
X178779452Y-80196452D01*
X178827071Y-80148833D01*
X178922309Y-80101214D01*
X179017547Y-80101214D01*
X176255642Y-82417880D02*
X175779452Y-82417880D01*
X175779452Y-81417880D01*
X176588976Y-81894071D02*
X176922309Y-81894071D01*
X177065166Y-82417880D02*
X176588976Y-82417880D01*
X176588976Y-81417880D01*
X177065166Y-81417880D01*
X177493738Y-82417880D02*
X177493738Y-81417880D01*
X177731833Y-81417880D01*
X177874690Y-81465500D01*
X177969928Y-81560738D01*
X178017547Y-81655976D01*
X178065166Y-81846452D01*
X178065166Y-81989309D01*
X178017547Y-82179785D01*
X177969928Y-82275023D01*
X177874690Y-82370261D01*
X177731833Y-82417880D01*
X177493738Y-82417880D01*
X170104023Y-71258380D02*
X169627833Y-71258380D01*
X169580214Y-71734571D01*
X169627833Y-71686952D01*
X169723071Y-71639333D01*
X169961166Y-71639333D01*
X170056404Y-71686952D01*
X170104023Y-71734571D01*
X170151642Y-71829809D01*
X170151642Y-72067904D01*
X170104023Y-72163142D01*
X170056404Y-72210761D01*
X169961166Y-72258380D01*
X169723071Y-72258380D01*
X169627833Y-72210761D01*
X169580214Y-72163142D01*
X170437357Y-71258380D02*
X170770690Y-72258380D01*
X171104023Y-71258380D01*
X180581595Y-71369500D02*
X180486357Y-71321880D01*
X180343500Y-71321880D01*
X180200642Y-71369500D01*
X180105404Y-71464738D01*
X180057785Y-71559976D01*
X180010166Y-71750452D01*
X180010166Y-71893309D01*
X180057785Y-72083785D01*
X180105404Y-72179023D01*
X180200642Y-72274261D01*
X180343500Y-72321880D01*
X180438738Y-72321880D01*
X180581595Y-72274261D01*
X180629214Y-72226642D01*
X180629214Y-71893309D01*
X180438738Y-71893309D01*
X181057785Y-72321880D02*
X181057785Y-71321880D01*
X181629214Y-72321880D01*
X181629214Y-71321880D01*
X182105404Y-72321880D02*
X182105404Y-71321880D01*
X182343500Y-71321880D01*
X182486357Y-71369500D01*
X182581595Y-71464738D01*
X182629214Y-71559976D01*
X182676833Y-71750452D01*
X182676833Y-71893309D01*
X182629214Y-72083785D01*
X182581595Y-72179023D01*
X182486357Y-72274261D01*
X182343500Y-72321880D01*
X182105404Y-72321880D01*
X174342809Y-71258380D02*
X174961857Y-71258380D01*
X174628523Y-71639333D01*
X174771380Y-71639333D01*
X174866619Y-71686952D01*
X174914238Y-71734571D01*
X174961857Y-71829809D01*
X174961857Y-72067904D01*
X174914238Y-72163142D01*
X174866619Y-72210761D01*
X174771380Y-72258380D01*
X174485666Y-72258380D01*
X174390428Y-72210761D01*
X174342809Y-72163142D01*
X175438047Y-72210761D02*
X175438047Y-72258380D01*
X175390428Y-72353619D01*
X175342809Y-72401238D01*
X175771380Y-71258380D02*
X176390428Y-71258380D01*
X176057095Y-71639333D01*
X176199952Y-71639333D01*
X176295190Y-71686952D01*
X176342809Y-71734571D01*
X176390428Y-71829809D01*
X176390428Y-72067904D01*
X176342809Y-72163142D01*
X176295190Y-72210761D01*
X176199952Y-72258380D01*
X175914238Y-72258380D01*
X175819000Y-72210761D01*
X175771380Y-72163142D01*
X176676142Y-71258380D02*
X177009476Y-72258380D01*
X177342809Y-71258380D01*
D11*
X172400000Y-64440000D02*
X205400000Y-64440000D01*
X172400000Y-56440000D02*
X159200000Y-56440000D01*
X172400000Y-64440000D02*
X172400000Y-56440000D01*
X125400000Y-64440000D02*
X159200000Y-64440000D01*
X159200000Y-64440000D02*
X159200000Y-56440000D01*
D12*
X129384857Y-81882571D02*
X128884857Y-81168285D01*
X128527714Y-81882571D02*
X128527714Y-80382571D01*
X129099142Y-80382571D01*
X129242000Y-80454000D01*
X129313428Y-80525428D01*
X129384857Y-80668285D01*
X129384857Y-80882571D01*
X129313428Y-81025428D01*
X129242000Y-81096857D01*
X129099142Y-81168285D01*
X128527714Y-81168285D01*
X130599142Y-81811142D02*
X130456285Y-81882571D01*
X130170571Y-81882571D01*
X130027714Y-81811142D01*
X129956285Y-81668285D01*
X129956285Y-81096857D01*
X130027714Y-80954000D01*
X130170571Y-80882571D01*
X130456285Y-80882571D01*
X130599142Y-80954000D01*
X130670571Y-81096857D01*
X130670571Y-81239714D01*
X129956285Y-81382571D01*
X131242000Y-81811142D02*
X131384857Y-81882571D01*
X131670571Y-81882571D01*
X131813428Y-81811142D01*
X131884857Y-81668285D01*
X131884857Y-81596857D01*
X131813428Y-81454000D01*
X131670571Y-81382571D01*
X131456285Y-81382571D01*
X131313428Y-81311142D01*
X131242000Y-81168285D01*
X131242000Y-81096857D01*
X131313428Y-80954000D01*
X131456285Y-80882571D01*
X131670571Y-80882571D01*
X131813428Y-80954000D01*
X133099142Y-81811142D02*
X132956285Y-81882571D01*
X132670571Y-81882571D01*
X132527714Y-81811142D01*
X132456285Y-81668285D01*
X132456285Y-81096857D01*
X132527714Y-80954000D01*
X132670571Y-80882571D01*
X132956285Y-80882571D01*
X133099142Y-80954000D01*
X133170571Y-81096857D01*
X133170571Y-81239714D01*
X132456285Y-81382571D01*
X133599142Y-80882571D02*
X134170571Y-80882571D01*
X133813428Y-80382571D02*
X133813428Y-81668285D01*
X133884857Y-81811142D01*
X134027714Y-81882571D01*
X134170571Y-81882571D01*
X129563428Y-92272857D02*
X129777714Y-92344285D01*
X129849142Y-92415714D01*
X129920571Y-92558571D01*
X129920571Y-92772857D01*
X129849142Y-92915714D01*
X129777714Y-92987142D01*
X129634857Y-93058571D01*
X129063428Y-93058571D01*
X129063428Y-91558571D01*
X129563428Y-91558571D01*
X129706285Y-91630000D01*
X129777714Y-91701428D01*
X129849142Y-91844285D01*
X129849142Y-91987142D01*
X129777714Y-92130000D01*
X129706285Y-92201428D01*
X129563428Y-92272857D01*
X129063428Y-92272857D01*
X130777714Y-93058571D02*
X130634857Y-92987142D01*
X130563428Y-92915714D01*
X130492000Y-92772857D01*
X130492000Y-92344285D01*
X130563428Y-92201428D01*
X130634857Y-92130000D01*
X130777714Y-92058571D01*
X130992000Y-92058571D01*
X131134857Y-92130000D01*
X131206285Y-92201428D01*
X131277714Y-92344285D01*
X131277714Y-92772857D01*
X131206285Y-92915714D01*
X131134857Y-92987142D01*
X130992000Y-93058571D01*
X130777714Y-93058571D01*
X132134857Y-93058571D02*
X131992000Y-92987142D01*
X131920571Y-92915714D01*
X131849142Y-92772857D01*
X131849142Y-92344285D01*
X131920571Y-92201428D01*
X131992000Y-92130000D01*
X132134857Y-92058571D01*
X132349142Y-92058571D01*
X132492000Y-92130000D01*
X132563428Y-92201428D01*
X132634857Y-92344285D01*
X132634857Y-92772857D01*
X132563428Y-92915714D01*
X132492000Y-92987142D01*
X132349142Y-93058571D01*
X132134857Y-93058571D01*
X133063428Y-92058571D02*
X133634857Y-92058571D01*
X133277714Y-91558571D02*
X133277714Y-92844285D01*
X133349142Y-92987142D01*
X133492000Y-93058571D01*
X133634857Y-93058571D01*
D11*
X129400000Y-141450000D02*
G75*
G03X129400000Y-141450000I-1000000J0D01*
G01*
D12*
X183479714Y-66891571D02*
X183479714Y-65391571D01*
X183479714Y-66105857D02*
X184336857Y-66105857D01*
X184336857Y-66891571D02*
X184336857Y-65391571D01*
X184836857Y-65391571D02*
X185694000Y-65391571D01*
X185265428Y-66891571D02*
X185265428Y-65391571D01*
X186908285Y-66891571D02*
X186194000Y-66891571D01*
X186194000Y-65391571D01*
X187408285Y-66320142D02*
X188551142Y-66320142D01*
X189122571Y-65391571D02*
X189479714Y-66891571D01*
X189765428Y-65820142D01*
X190051142Y-66891571D01*
X190408285Y-65391571D01*
X191622571Y-66891571D02*
X191622571Y-66105857D01*
X191551142Y-65963000D01*
X191408285Y-65891571D01*
X191122571Y-65891571D01*
X190979714Y-65963000D01*
X191622571Y-66820142D02*
X191479714Y-66891571D01*
X191122571Y-66891571D01*
X190979714Y-66820142D01*
X190908285Y-66677285D01*
X190908285Y-66534428D01*
X190979714Y-66391571D01*
X191122571Y-66320142D01*
X191479714Y-66320142D01*
X191622571Y-66248714D01*
X192336857Y-66891571D02*
X192336857Y-65891571D01*
X192336857Y-65391571D02*
X192265428Y-65463000D01*
X192336857Y-65534428D01*
X192408285Y-65463000D01*
X192336857Y-65391571D01*
X192336857Y-65534428D01*
X193694000Y-66891571D02*
X193694000Y-65391571D01*
X193694000Y-66820142D02*
X193551142Y-66891571D01*
X193265428Y-66891571D01*
X193122571Y-66820142D01*
X193051142Y-66748714D01*
X192979714Y-66605857D01*
X192979714Y-66177285D01*
X193051142Y-66034428D01*
X193122571Y-65963000D01*
X193265428Y-65891571D01*
X193551142Y-65891571D01*
X193694000Y-65963000D01*
X194408285Y-66891571D02*
X194408285Y-65391571D01*
X195051142Y-66891571D02*
X195051142Y-66105857D01*
X194979714Y-65963000D01*
X194836857Y-65891571D01*
X194622571Y-65891571D01*
X194479714Y-65963000D01*
X194408285Y-66034428D01*
X195979714Y-66891571D02*
X195836857Y-66820142D01*
X195765428Y-66748714D01*
X195694000Y-66605857D01*
X195694000Y-66177285D01*
X195765428Y-66034428D01*
X195836857Y-65963000D01*
X195979714Y-65891571D01*
X196194000Y-65891571D01*
X196336857Y-65963000D01*
X196408285Y-66034428D01*
X196479714Y-66177285D01*
X196479714Y-66605857D01*
X196408285Y-66748714D01*
X196336857Y-66820142D01*
X196194000Y-66891571D01*
X195979714Y-66891571D01*
X196908285Y-65891571D02*
X197479714Y-65891571D01*
X197122571Y-66891571D02*
X197122571Y-65605857D01*
X197194000Y-65463000D01*
X197336857Y-65391571D01*
X197479714Y-65391571D01*
X198551142Y-66820142D02*
X198408285Y-66891571D01*
X198122571Y-66891571D01*
X197979714Y-66820142D01*
X197908285Y-66677285D01*
X197908285Y-66105857D01*
X197979714Y-65963000D01*
X198122571Y-65891571D01*
X198408285Y-65891571D01*
X198551142Y-65963000D01*
X198622571Y-66105857D01*
X198622571Y-66248714D01*
X197908285Y-66391571D01*
X199265428Y-65891571D02*
X199265428Y-66891571D01*
X199265428Y-66034428D02*
X199336857Y-65963000D01*
X199479714Y-65891571D01*
X199694000Y-65891571D01*
X199836857Y-65963000D01*
X199908285Y-66105857D01*
X199908285Y-66891571D01*
D11*
X203410000Y-67440000D02*
G75*
G03X203410000Y-67440000I-1000000J0D01*
G01*
X129400000Y-67440000D02*
G75*
G03X129400000Y-67440000I-1000000J0D01*
G01*
X203410000Y-141450000D02*
G75*
G03X203410000Y-141450000I-1000000J0D01*
G01*
X125400000Y-64440000D02*
X125400000Y-144440000D01*
X125400000Y-144440000D02*
X205400000Y-144440000D01*
X205400000Y-64440000D02*
X205400000Y-144440000D01*
D13*
%TO.C,J5*%
X204372000Y-109652000D02*
X204372000Y-94362000D01*
X204372000Y-94362000D02*
X195422000Y-94362000D01*
X195422000Y-94362000D02*
X195422000Y-114982000D01*
X195422000Y-114982000D02*
X201092000Y-114982000D01*
%TO.C,J3*%
X166298000Y-134462000D02*
X166298000Y-140132000D01*
X186918000Y-134462000D02*
X166298000Y-134462000D01*
X186918000Y-143412000D02*
X186918000Y-134462000D01*
X171628000Y-143412000D02*
X186918000Y-143412000D01*
D14*
%TO.C,TP1*%
X132325000Y-67618500D02*
X132325000Y-70278500D01*
X134925000Y-67618500D02*
X132325000Y-67618500D01*
X134925000Y-70278500D02*
X132325000Y-70278500D01*
X134925000Y-67618500D02*
X134925000Y-70278500D01*
X136195000Y-67618500D02*
X137525000Y-67618500D01*
X137525000Y-67618500D02*
X137525000Y-68948500D01*
%TO.C,D3*%
X172271000Y-79728000D02*
X172271000Y-83613000D01*
X172271000Y-83613000D02*
X174541000Y-83613000D01*
X174541000Y-83613000D02*
X174541000Y-79728000D01*
%TO.C,R34*%
X175109000Y-121023078D02*
X175109000Y-120505922D01*
X176529000Y-121023078D02*
X176529000Y-120505922D01*
%TO.C,R35*%
X171616500Y-120569422D02*
X171616500Y-121086578D01*
X173036500Y-120569422D02*
X173036500Y-121086578D01*
%TO.C,R36*%
X174116000Y-75928922D02*
X174116000Y-76446078D01*
X172696000Y-75928922D02*
X172696000Y-76446078D01*
%TO.C,TP2*%
X174682500Y-68256500D02*
X177082500Y-68256500D01*
X177082500Y-68256500D02*
X177082500Y-70656500D01*
X177082500Y-70656500D02*
X174682500Y-70656500D01*
X174682500Y-70656500D02*
X174682500Y-68256500D01*
%TO.C,TP3*%
X169158000Y-70656500D02*
X169158000Y-68256500D01*
X171558000Y-70656500D02*
X169158000Y-70656500D01*
X171558000Y-68256500D02*
X171558000Y-70656500D01*
X169158000Y-68256500D02*
X171558000Y-68256500D01*
%TO.C,TP4*%
X180143500Y-68256500D02*
X182543500Y-68256500D01*
X182543500Y-68256500D02*
X182543500Y-70656500D01*
X182543500Y-70656500D02*
X180143500Y-70656500D01*
X180143500Y-70656500D02*
X180143500Y-68256500D01*
%TO.C,C32*%
X141294578Y-69976000D02*
X140777422Y-69976000D01*
X141294578Y-68556000D02*
X140777422Y-68556000D01*
%TO.C,C33*%
X145086578Y-81764000D02*
X144569422Y-81764000D01*
X145086578Y-83184000D02*
X144569422Y-83184000D01*
%TO.C,C11*%
X154154000Y-93019578D02*
X154154000Y-92502422D01*
X155574000Y-93019578D02*
X155574000Y-92502422D01*
%TO.C,C4*%
X150090000Y-92502422D02*
X150090000Y-93019578D01*
X151510000Y-92502422D02*
X151510000Y-93019578D01*
%TO.C,C2*%
X152516671Y-78817079D02*
X151999515Y-78817079D01*
X152516671Y-80237079D02*
X151999515Y-80237079D01*
%TO.C,C14*%
X179554000Y-93146578D02*
X179554000Y-92629422D01*
X180974000Y-93146578D02*
X180974000Y-92629422D01*
%TO.C,C13*%
X172614000Y-92787922D02*
X172614000Y-93305078D01*
X174034000Y-92787922D02*
X174034000Y-93305078D01*
%TO.C,C1*%
X157088671Y-80237079D02*
X156571515Y-80237079D01*
X157088671Y-78817079D02*
X156571515Y-78817079D01*
%TO.C,D2*%
X143344000Y-68266000D02*
X143344000Y-70266000D01*
X143344000Y-70266000D02*
X147244000Y-70266000D01*
X143344000Y-68266000D02*
X147244000Y-68266000D01*
%TO.C,U1*%
X164151000Y-84936000D02*
X163676000Y-84936000D01*
X167896000Y-89156000D02*
X167896000Y-88681000D01*
X167421000Y-89156000D02*
X167896000Y-89156000D01*
X163676000Y-89156000D02*
X163676000Y-88681000D01*
X164151000Y-89156000D02*
X163676000Y-89156000D01*
X167896000Y-84936000D02*
X167896000Y-85411000D01*
X167421000Y-84936000D02*
X167896000Y-84936000D01*
%TO.C,D1*%
X154934000Y-71070000D02*
X157334000Y-71070000D01*
X157334000Y-67970000D02*
X154384000Y-67970000D01*
%TO.C,Q2*%
X170033000Y-75237000D02*
X170033000Y-76697000D01*
X166873000Y-75237000D02*
X166873000Y-77397000D01*
X166873000Y-75237000D02*
X167803000Y-75237000D01*
X170033000Y-75237000D02*
X169103000Y-75237000D01*
%TO.C,Q1*%
X165080000Y-75237000D02*
X164150000Y-75237000D01*
X161920000Y-75237000D02*
X162850000Y-75237000D01*
X161920000Y-75237000D02*
X161920000Y-77397000D01*
X165080000Y-75237000D02*
X165080000Y-76697000D01*
%TO.C,R3*%
X139111422Y-93852000D02*
X139628578Y-93852000D01*
X139111422Y-92432000D02*
X139628578Y-92432000D01*
%TO.C,R33*%
X168194422Y-78716000D02*
X168711578Y-78716000D01*
X168194422Y-80136000D02*
X168711578Y-80136000D01*
%TO.C,R2*%
X152310093Y-75966501D02*
X152310093Y-76483657D01*
X153730093Y-75966501D02*
X153730093Y-76483657D01*
%TO.C,R1*%
X158302093Y-75966501D02*
X158302093Y-76483657D01*
X156882093Y-75966501D02*
X156882093Y-76483657D01*
%TO.C,R4*%
X163241422Y-80136000D02*
X163758578Y-80136000D01*
X163241422Y-78716000D02*
X163758578Y-78716000D01*
%TO.C,R13*%
X168860000Y-93351078D02*
X168860000Y-92833922D01*
X170280000Y-93351078D02*
X170280000Y-92833922D01*
%TO.C,R14*%
X163067000Y-93400578D02*
X163067000Y-92883422D01*
X161647000Y-93400578D02*
X161647000Y-92883422D01*
%TO.C,R15*%
X166750000Y-92834922D02*
X166750000Y-93352078D01*
X165330000Y-92834922D02*
X165330000Y-93352078D01*
%TO.C,R16*%
X176170000Y-92709422D02*
X176170000Y-93226578D01*
X177590000Y-92709422D02*
X177590000Y-93226578D01*
%TO.C,R17*%
X180974000Y-88819422D02*
X180974000Y-89336578D01*
X179554000Y-88819422D02*
X179554000Y-89336578D01*
%TO.C,S1*%
X127922000Y-86398000D02*
X127922000Y-88898000D01*
X134422000Y-86398000D02*
X134422000Y-88898000D01*
X127922000Y-84248000D02*
X127922000Y-84898000D01*
X134422000Y-84248000D02*
X127922000Y-84248000D01*
X134422000Y-84898000D02*
X134422000Y-84248000D01*
X127922000Y-91048000D02*
X127922000Y-90398000D01*
X134422000Y-91048000D02*
X127922000Y-91048000D01*
X134422000Y-90398000D02*
X134422000Y-91048000D01*
%TO.C,U3*%
X142818000Y-78288000D02*
X144078000Y-78288000D01*
X149638000Y-78288000D02*
X148378000Y-78288000D01*
X142818000Y-74528000D02*
X142818000Y-78288000D01*
X149638000Y-72278000D02*
X149638000Y-78288000D01*
D10*
%TO.C,J1*%
X164200000Y-62640000D02*
X163475000Y-62640000D01*
X167800000Y-62640000D02*
X168525000Y-62640000D01*
X167800000Y-63065000D02*
X167800000Y-62640000D01*
X167075000Y-63065000D02*
X167800000Y-63065000D01*
X161850000Y-59490000D02*
X161850000Y-60890000D01*
X161850000Y-56940000D02*
X161850000Y-57090000D01*
X162150000Y-56940000D02*
X161850000Y-56940000D01*
X162150000Y-56490000D02*
X162150000Y-56940000D01*
X169850000Y-56940000D02*
X169850000Y-56490000D01*
X170150000Y-56940000D02*
X169850000Y-56940000D01*
X170150000Y-57090000D02*
X170150000Y-56940000D01*
X170150000Y-60890000D02*
X170150000Y-59490000D01*
D14*
%TO.C,C5*%
X137136000Y-75865422D02*
X137136000Y-76382578D01*
X138556000Y-75865422D02*
X138556000Y-76382578D01*
%TO.C,S2*%
X134492000Y-78874000D02*
X134492000Y-79524000D01*
X134492000Y-79524000D02*
X127992000Y-79524000D01*
X127992000Y-79524000D02*
X127992000Y-78874000D01*
X134492000Y-73374000D02*
X134492000Y-72724000D01*
X134492000Y-72724000D02*
X127992000Y-72724000D01*
X127992000Y-72724000D02*
X127992000Y-73374000D01*
X134492000Y-74874000D02*
X134492000Y-77374000D01*
X127992000Y-74874000D02*
X127992000Y-77374000D01*
D13*
%TO.C,J2*%
X149520862Y-143375843D02*
X164810862Y-143375843D01*
X164810862Y-143375843D02*
X164810862Y-134425843D01*
X164810862Y-134425843D02*
X144190862Y-134425843D01*
X144190862Y-134425843D02*
X144190862Y-140095843D01*
%TO.C,J7*%
X135134000Y-94162000D02*
X129464000Y-94162000D01*
X135134000Y-114782000D02*
X135134000Y-94162000D01*
X126184000Y-114782000D02*
X135134000Y-114782000D01*
X126184000Y-99492000D02*
X126184000Y-114782000D01*
%TO.C,J4*%
X195422000Y-137334000D02*
X201092000Y-137334000D01*
X195422000Y-116714000D02*
X195422000Y-137334000D01*
X204372000Y-116714000D02*
X195422000Y-116714000D01*
X204372000Y-132004000D02*
X204372000Y-116714000D01*
%TO.C,J6*%
X135134000Y-116514000D02*
X129464000Y-116514000D01*
X135134000Y-137134000D02*
X135134000Y-116514000D01*
X126184000Y-137134000D02*
X135134000Y-137134000D01*
X126184000Y-121844000D02*
X126184000Y-137134000D01*
D14*
%TO.C,U2*%
X155848000Y-115426000D02*
X155848000Y-116046000D01*
X155848000Y-116046000D02*
X156848000Y-116046000D01*
X174088000Y-115426000D02*
X174088000Y-116046000D01*
X174088000Y-116046000D02*
X173088000Y-116046000D01*
X155848000Y-96606000D02*
X174088000Y-96606000D01*
X174088000Y-96606000D02*
X174088000Y-97026000D01*
X155848000Y-96606000D02*
X155848000Y-97026000D01*
X155848000Y-97026000D02*
X155468000Y-97026000D01*
%TO.C,C17*%
X143426922Y-103834000D02*
X143944078Y-103834000D01*
X143426922Y-102414000D02*
X143944078Y-102414000D01*
%TO.C,C3*%
X137136000Y-87549422D02*
X137136000Y-88066578D01*
X138556000Y-87549422D02*
X138556000Y-88066578D01*
%TO.C,C19*%
X143426922Y-97230000D02*
X143944078Y-97230000D01*
X143426922Y-95810000D02*
X143944078Y-95810000D01*
%TO.C,C20*%
X143426922Y-100532000D02*
X143944078Y-100532000D01*
X143426922Y-99112000D02*
X143944078Y-99112000D01*
%TO.C,C21*%
X143505422Y-113740000D02*
X144022578Y-113740000D01*
X143505422Y-112320000D02*
X144022578Y-112320000D01*
%TO.C,C22*%
X143651217Y-116955292D02*
X144168373Y-116955292D01*
X143651217Y-115535292D02*
X144168373Y-115535292D01*
%TO.C,C23*%
X143651217Y-120003292D02*
X144168373Y-120003292D01*
X143651217Y-118583292D02*
X144168373Y-118583292D01*
%TO.C,C24*%
X169620000Y-121241078D02*
X169620000Y-120723922D01*
X168200000Y-121241078D02*
X168200000Y-120723922D01*
%TO.C,C25*%
X159460000Y-121241078D02*
X159460000Y-120723922D01*
X158040000Y-121241078D02*
X158040000Y-120723922D01*
%TO.C,C26*%
X143505422Y-110438000D02*
X144022578Y-110438000D01*
X143505422Y-109018000D02*
X144022578Y-109018000D01*
%TO.C,C27*%
X187891422Y-127964000D02*
X188408578Y-127964000D01*
X187891422Y-126544000D02*
X188408578Y-126544000D01*
%TO.C,C28*%
X187779922Y-124662000D02*
X188297078Y-124662000D01*
X187779922Y-123242000D02*
X188297078Y-123242000D01*
%TO.C,C29*%
X187701422Y-121360000D02*
X188218578Y-121360000D01*
X187701422Y-119940000D02*
X188218578Y-119940000D01*
%TO.C,C16*%
X143680922Y-123646000D02*
X144198078Y-123646000D01*
X143680922Y-122226000D02*
X144198078Y-122226000D01*
%TO.C,C7*%
X187880922Y-111454000D02*
X188398078Y-111454000D01*
X187880922Y-110034000D02*
X188398078Y-110034000D01*
%TO.C,C15*%
X143680922Y-126948000D02*
X144198078Y-126948000D01*
X143680922Y-125528000D02*
X144198078Y-125528000D01*
%TO.C,C10*%
X187787922Y-104850000D02*
X188305078Y-104850000D01*
X187787922Y-103430000D02*
X188305078Y-103430000D01*
%TO.C,C9*%
X183649078Y-95226000D02*
X183131922Y-95226000D01*
X183649078Y-96646000D02*
X183131922Y-96646000D01*
%TO.C,C8*%
X183129422Y-114756000D02*
X183646578Y-114756000D01*
X183129422Y-113336000D02*
X183646578Y-113336000D01*
%TO.C,C18*%
X143426922Y-107136000D02*
X143944078Y-107136000D01*
X143426922Y-105716000D02*
X143944078Y-105716000D01*
%TO.C,C6*%
X187836422Y-100151000D02*
X188353578Y-100151000D01*
X187836422Y-98731000D02*
X188353578Y-98731000D01*
%TO.C,C30*%
X187703922Y-118058000D02*
X188221078Y-118058000D01*
X187703922Y-116638000D02*
X188221078Y-116638000D01*
%TO.C,R8*%
X183050922Y-118058000D02*
X183568078Y-118058000D01*
X183050922Y-116638000D02*
X183568078Y-116638000D01*
%TO.C,R20*%
X139450578Y-102414000D02*
X138933422Y-102414000D01*
X139450578Y-103834000D02*
X138933422Y-103834000D01*
%TO.C,R21*%
X139450578Y-105716000D02*
X138933422Y-105716000D01*
X139450578Y-107136000D02*
X138933422Y-107136000D01*
%TO.C,R22*%
X139529078Y-95810000D02*
X139011922Y-95810000D01*
X139529078Y-97230000D02*
X139011922Y-97230000D01*
%TO.C,R23*%
X139529078Y-99112000D02*
X139011922Y-99112000D01*
X139529078Y-100532000D02*
X139011922Y-100532000D01*
%TO.C,R24*%
X139450578Y-112320000D02*
X138933422Y-112320000D01*
X139450578Y-113740000D02*
X138933422Y-113740000D01*
%TO.C,R26*%
X138825217Y-120003292D02*
X139342373Y-120003292D01*
X138825217Y-118583292D02*
X139342373Y-118583292D01*
%TO.C,R27*%
X168291637Y-124963422D02*
X168291637Y-125480578D01*
X169711637Y-124963422D02*
X169711637Y-125480578D01*
%TO.C,R28*%
X158040000Y-124963422D02*
X158040000Y-125480578D01*
X159460000Y-124963422D02*
X159460000Y-125480578D01*
%TO.C,R29*%
X139450578Y-109018000D02*
X138933422Y-109018000D01*
X139450578Y-110438000D02*
X138933422Y-110438000D01*
%TO.C,R30*%
X183129422Y-127964000D02*
X183646578Y-127964000D01*
X183129422Y-126544000D02*
X183646578Y-126544000D01*
%TO.C,R31*%
X183129422Y-124662000D02*
X183646578Y-124662000D01*
X183129422Y-123242000D02*
X183646578Y-123242000D01*
%TO.C,R32*%
X183129422Y-121360000D02*
X183646578Y-121360000D01*
X183129422Y-119940000D02*
X183646578Y-119940000D01*
%TO.C,R18*%
X139529078Y-125528000D02*
X139011922Y-125528000D01*
X139529078Y-126948000D02*
X139011922Y-126948000D01*
%TO.C,R25*%
X138903717Y-116955292D02*
X139420873Y-116955292D01*
X138903717Y-115535292D02*
X139420873Y-115535292D01*
%TO.C,R5*%
X183078922Y-100150000D02*
X183596078Y-100150000D01*
X183078922Y-98730000D02*
X183596078Y-98730000D01*
%TO.C,R6*%
X187880922Y-108152000D02*
X188398078Y-108152000D01*
X187880922Y-106732000D02*
X188398078Y-106732000D01*
%TO.C,R7*%
X183207922Y-111454000D02*
X183725078Y-111454000D01*
X183207922Y-110034000D02*
X183725078Y-110034000D01*
%TO.C,R19*%
X138933422Y-123646000D02*
X139450578Y-123646000D01*
X138933422Y-122226000D02*
X139450578Y-122226000D01*
%TO.C,R9*%
X187967422Y-96595000D02*
X188484578Y-96595000D01*
X187967422Y-95175000D02*
X188484578Y-95175000D01*
%TO.C,R10*%
X192273422Y-102056000D02*
X192790578Y-102056000D01*
X192273422Y-100636000D02*
X192790578Y-100636000D01*
%TO.C,R11*%
X183141422Y-104850000D02*
X183658578Y-104850000D01*
X183141422Y-103430000D02*
X183658578Y-103430000D01*
%TO.C,R12*%
X183078922Y-108150000D02*
X183596078Y-108150000D01*
X183078922Y-106730000D02*
X183596078Y-106730000D01*
D15*
%TO.C,G\002A\002A\002A*%
G36*
X192710804Y-67528479D02*
X193013774Y-67553217D01*
X193357668Y-67581197D01*
X193727147Y-67611177D01*
X194106869Y-67641917D01*
X194481492Y-67672172D01*
X194835677Y-67700703D01*
X195129777Y-67724318D01*
X195413692Y-67747094D01*
X195699757Y-67770081D01*
X195978853Y-67792545D01*
X196241861Y-67813750D01*
X196479663Y-67832961D01*
X196683141Y-67849443D01*
X196843174Y-67862459D01*
X196893666Y-67866586D01*
X197209816Y-67892374D01*
X197525712Y-67917932D01*
X197835352Y-67942788D01*
X198132733Y-67966472D01*
X198411852Y-67988512D01*
X198666706Y-68008437D01*
X198891292Y-68025777D01*
X199079607Y-68040060D01*
X199225649Y-68050816D01*
X199323414Y-68057574D01*
X199344007Y-68058843D01*
X199464091Y-68071937D01*
X199548322Y-68093809D01*
X199577711Y-68111172D01*
X199583388Y-68122416D01*
X199587358Y-68145127D01*
X199589402Y-68182146D01*
X199589304Y-68236316D01*
X199586845Y-68310481D01*
X199581809Y-68407483D01*
X199573977Y-68530165D01*
X199563133Y-68681370D01*
X199549059Y-68863940D01*
X199531537Y-69080719D01*
X199510350Y-69334548D01*
X199485281Y-69628271D01*
X199456111Y-69964731D01*
X199422624Y-70346771D01*
X199384603Y-70777232D01*
X199341828Y-71258959D01*
X199306999Y-71649990D01*
X199264533Y-72126418D01*
X199221281Y-72611942D01*
X199177756Y-73100770D01*
X199134474Y-73587112D01*
X199091949Y-74065179D01*
X199050696Y-74529180D01*
X199011229Y-74973324D01*
X198974063Y-75391823D01*
X198939713Y-75778884D01*
X198908693Y-76128719D01*
X198881518Y-76435536D01*
X198858702Y-76693547D01*
X198853158Y-76756334D01*
X198826614Y-77053446D01*
X198800862Y-77334792D01*
X198776421Y-77595153D01*
X198753810Y-77829307D01*
X198733549Y-78032035D01*
X198716156Y-78198115D01*
X198702152Y-78322327D01*
X198692054Y-78399450D01*
X198687346Y-78423281D01*
X198658867Y-78446855D01*
X198581634Y-78497981D01*
X198456028Y-78576432D01*
X198282433Y-78681984D01*
X198061231Y-78814409D01*
X197792804Y-78973483D01*
X197477533Y-79158980D01*
X197115802Y-79370674D01*
X196707992Y-79608338D01*
X196254486Y-79871748D01*
X195755667Y-80160677D01*
X195323261Y-80410609D01*
X194919230Y-80643980D01*
X194526235Y-80871052D01*
X194147307Y-81090069D01*
X193785475Y-81299277D01*
X193443771Y-81496922D01*
X193125224Y-81681248D01*
X192832864Y-81850501D01*
X192569723Y-82002927D01*
X192338830Y-82136772D01*
X192143215Y-82250280D01*
X191985909Y-82341697D01*
X191869942Y-82409269D01*
X191798345Y-82451241D01*
X191780363Y-82461939D01*
X191667430Y-82528099D01*
X191589382Y-82566243D01*
X191533914Y-82579319D01*
X191488721Y-82570279D01*
X191442686Y-82542908D01*
X191409701Y-82522742D01*
X191331538Y-82476509D01*
X191211900Y-82406365D01*
X191054493Y-82314464D01*
X190863021Y-82202960D01*
X190641189Y-82074007D01*
X190392701Y-81929760D01*
X190121263Y-81772373D01*
X189830579Y-81603999D01*
X189524354Y-81426794D01*
X189326795Y-81312558D01*
X188968510Y-81105442D01*
X188590896Y-80887150D01*
X188201697Y-80662158D01*
X187808654Y-80434942D01*
X187419511Y-80209978D01*
X187042010Y-79991742D01*
X186683894Y-79784710D01*
X186352905Y-79593359D01*
X186056787Y-79422163D01*
X185848331Y-79301645D01*
X185521031Y-79111647D01*
X185232586Y-78942604D01*
X184984529Y-78795451D01*
X184778394Y-78671120D01*
X184615714Y-78570546D01*
X184498021Y-78494660D01*
X184426848Y-78444397D01*
X184404020Y-78422385D01*
X184397641Y-78384879D01*
X184386914Y-78296033D01*
X184372316Y-78160745D01*
X184354325Y-77983914D01*
X184333419Y-77770438D01*
X184310075Y-77525214D01*
X184284770Y-77253141D01*
X184257983Y-76959118D01*
X184230191Y-76648041D01*
X184222314Y-76558778D01*
X184191132Y-76204815D01*
X184158587Y-75836040D01*
X184125499Y-75461707D01*
X184092688Y-75091070D01*
X184060975Y-74733382D01*
X184031179Y-74397898D01*
X184004121Y-74093870D01*
X183980622Y-73830554D01*
X183967151Y-73680112D01*
X183908393Y-73025130D01*
X183854485Y-72424036D01*
X183805236Y-71874497D01*
X183760456Y-71374181D01*
X183719955Y-70920757D01*
X183683543Y-70511893D01*
X183651031Y-70145256D01*
X183622228Y-69818516D01*
X183596945Y-69529339D01*
X183574991Y-69275394D01*
X183556177Y-69054350D01*
X183540312Y-68863874D01*
X183527207Y-68701634D01*
X183516672Y-68565299D01*
X183508517Y-68452536D01*
X183506727Y-68425061D01*
X183823087Y-68425061D01*
X183823189Y-68454683D01*
X183828017Y-68535190D01*
X183837143Y-68661260D01*
X183850138Y-68827571D01*
X183866572Y-69028799D01*
X183886017Y-69259621D01*
X183908045Y-69514715D01*
X183932225Y-69788758D01*
X183939784Y-69873299D01*
X183975299Y-70269634D01*
X184015261Y-70716125D01*
X184059127Y-71206703D01*
X184106356Y-71735301D01*
X184156407Y-72295850D01*
X184208737Y-72882283D01*
X184262804Y-73488531D01*
X184318068Y-74108526D01*
X184373986Y-74736201D01*
X184419421Y-75246445D01*
X184465589Y-75764642D01*
X184506991Y-76228455D01*
X184543796Y-76639726D01*
X184576170Y-77000300D01*
X184604282Y-77312019D01*
X184628301Y-77576727D01*
X184648393Y-77796268D01*
X184664727Y-77972484D01*
X184677471Y-78107221D01*
X184686793Y-78202321D01*
X184692861Y-78259627D01*
X184695843Y-78280983D01*
X184695978Y-78281213D01*
X184721117Y-78295631D01*
X184785193Y-78332691D01*
X184878342Y-78386681D01*
X184983889Y-78447934D01*
X185051025Y-78486885D01*
X185162875Y-78551737D01*
X185315312Y-78640099D01*
X185504209Y-78749579D01*
X185725437Y-78877786D01*
X185974870Y-79022327D01*
X186248380Y-79180812D01*
X186541840Y-79350848D01*
X186851123Y-79530043D01*
X187172101Y-79716006D01*
X187411000Y-79854410D01*
X187756329Y-80054490D01*
X188106298Y-80257294D01*
X188455199Y-80459515D01*
X188797330Y-80657844D01*
X189126985Y-80848973D01*
X189438459Y-81029595D01*
X189726049Y-81196401D01*
X189984048Y-81346085D01*
X190206753Y-81475337D01*
X190388459Y-81580849D01*
X190444889Y-81613636D01*
X190649320Y-81731923D01*
X190839099Y-81840748D01*
X191008540Y-81936925D01*
X191151961Y-82017269D01*
X191263675Y-82078597D01*
X191338000Y-82117724D01*
X191369166Y-82131463D01*
X191375107Y-82121295D01*
X191380385Y-82088538D01*
X191385036Y-82030455D01*
X191389092Y-81944310D01*
X191392588Y-81827365D01*
X191395557Y-81676884D01*
X191398033Y-81490129D01*
X191400050Y-81264364D01*
X191401642Y-80996853D01*
X191402841Y-80684857D01*
X191403683Y-80325641D01*
X191404200Y-79916468D01*
X191404427Y-79454600D01*
X191404444Y-79269777D01*
X191404381Y-79156632D01*
X191685714Y-79156632D01*
X191686023Y-79504967D01*
X191686708Y-79850111D01*
X191687765Y-80187495D01*
X191689193Y-80512549D01*
X191690986Y-80820705D01*
X191693143Y-81107391D01*
X191695660Y-81368040D01*
X191698533Y-81598083D01*
X191701760Y-81792949D01*
X191705338Y-81948069D01*
X191709263Y-82058875D01*
X191713531Y-82120796D01*
X191716509Y-82132667D01*
X191746624Y-82118946D01*
X191820219Y-82079764D01*
X191932014Y-82018090D01*
X192076728Y-81936897D01*
X192249080Y-81839155D01*
X192443790Y-81727834D01*
X192655578Y-81605906D01*
X192753676Y-81549163D01*
X192939555Y-81441488D01*
X193168144Y-81309067D01*
X193433315Y-81155450D01*
X193728939Y-80984189D01*
X194048886Y-80798833D01*
X194387030Y-80602934D01*
X194737240Y-80400041D01*
X195093387Y-80193707D01*
X195449344Y-79987481D01*
X195798981Y-79784913D01*
X195877666Y-79739325D01*
X196200050Y-79552549D01*
X196512045Y-79371800D01*
X196809687Y-79199373D01*
X197089015Y-79037563D01*
X197346068Y-78888664D01*
X197576884Y-78754971D01*
X197777500Y-78638780D01*
X197943955Y-78542384D01*
X198072287Y-78468079D01*
X198158534Y-78418160D01*
X198191889Y-78398872D01*
X198284276Y-78345472D01*
X198355332Y-78304341D01*
X198393030Y-78282442D01*
X198396010Y-78280681D01*
X198400247Y-78252676D01*
X198408553Y-78176346D01*
X198420153Y-78059604D01*
X198434276Y-77910363D01*
X198450146Y-77736534D01*
X198459689Y-77629360D01*
X198480766Y-77390579D01*
X198500400Y-77168367D01*
X198519162Y-76956295D01*
X198537625Y-76747931D01*
X198556362Y-76536844D01*
X198575945Y-76316604D01*
X198596946Y-76080780D01*
X198619938Y-75822941D01*
X198645493Y-75536655D01*
X198674184Y-75215493D01*
X198706582Y-74853022D01*
X198743261Y-74442812D01*
X198755943Y-74301000D01*
X198784997Y-73976096D01*
X198813688Y-73655186D01*
X198841425Y-73344888D01*
X198867616Y-73051819D01*
X198891670Y-72782597D01*
X198912997Y-72543841D01*
X198931003Y-72342167D01*
X198945100Y-72184194D01*
X198953891Y-72085556D01*
X198964379Y-71967760D01*
X198979237Y-71800891D01*
X198997827Y-71592099D01*
X199019514Y-71348534D01*
X199043660Y-71077345D01*
X199069629Y-70785681D01*
X199096785Y-70480693D01*
X199124491Y-70169529D01*
X199137102Y-70027890D01*
X199163048Y-69734162D01*
X199187077Y-69457600D01*
X199208777Y-69203250D01*
X199227738Y-68976158D01*
X199243547Y-68781372D01*
X199255793Y-68623937D01*
X199264066Y-68508901D01*
X199267953Y-68441308D01*
X199267769Y-68424807D01*
X199237117Y-68424106D01*
X199162174Y-68430543D01*
X199054481Y-68442938D01*
X198935954Y-68458656D01*
X198760582Y-68483102D01*
X198553373Y-68511781D01*
X198322374Y-68543598D01*
X198075631Y-68577458D01*
X197821191Y-68612263D01*
X197567100Y-68646919D01*
X197321404Y-68680329D01*
X197092152Y-68711397D01*
X196887388Y-68739027D01*
X196715159Y-68762123D01*
X196583513Y-68779589D01*
X196506047Y-68789631D01*
X196388209Y-68805182D01*
X196314889Y-68818975D01*
X196274595Y-68836245D01*
X196255835Y-68862226D01*
X196247119Y-68902154D01*
X196246224Y-68907991D01*
X196241716Y-68956575D01*
X196235069Y-69054201D01*
X196226695Y-69193525D01*
X196217010Y-69367204D01*
X196206427Y-69567892D01*
X196195360Y-69788246D01*
X196188002Y-69940667D01*
X196178361Y-70142678D01*
X196168603Y-70344986D01*
X196158489Y-70552308D01*
X196147780Y-70769362D01*
X196136237Y-71000865D01*
X196123620Y-71251534D01*
X196109690Y-71526087D01*
X196094208Y-71829240D01*
X196076934Y-72165712D01*
X196057630Y-72540219D01*
X196036056Y-72957478D01*
X196011973Y-73422207D01*
X195988347Y-73877416D01*
X195976325Y-74095647D01*
X195963924Y-74296916D01*
X195951693Y-74473968D01*
X195940182Y-74619548D01*
X195929941Y-74726402D01*
X195921521Y-74787277D01*
X195918571Y-74797559D01*
X195883603Y-74824491D01*
X195806567Y-74863938D01*
X195698933Y-74910543D01*
X195575497Y-74957756D01*
X195389621Y-75025146D01*
X195151477Y-75112343D01*
X194861582Y-75219156D01*
X194520452Y-75345394D01*
X194128604Y-75490867D01*
X193686552Y-75655383D01*
X193194813Y-75838752D01*
X193154222Y-75853902D01*
X192928356Y-75938095D01*
X192707056Y-76020375D01*
X192499084Y-76097500D01*
X192313201Y-76166229D01*
X192158167Y-76223319D01*
X192042743Y-76265529D01*
X192001770Y-76280347D01*
X191887072Y-76322181D01*
X191791980Y-76358057D01*
X191729344Y-76383064D01*
X191712493Y-76390926D01*
X191708041Y-76421149D01*
X191704004Y-76503013D01*
X191700377Y-76631948D01*
X191697159Y-76803385D01*
X191694345Y-77012754D01*
X191691933Y-77255487D01*
X191689920Y-77527014D01*
X191688301Y-77822765D01*
X191687074Y-78138172D01*
X191686236Y-78468665D01*
X191685784Y-78809675D01*
X191685714Y-79156632D01*
X191404381Y-79156632D01*
X191404193Y-78823398D01*
X191403456Y-78405719D01*
X191402258Y-78019489D01*
X191400623Y-77667455D01*
X191398576Y-77352363D01*
X191396142Y-77076961D01*
X191393346Y-76843996D01*
X191390211Y-76656216D01*
X191386763Y-76516367D01*
X191383026Y-76427197D01*
X191379025Y-76391452D01*
X191378618Y-76390926D01*
X191342361Y-76375065D01*
X191265731Y-76345324D01*
X191161579Y-76306610D01*
X191089340Y-76280441D01*
X191001600Y-76248579D01*
X190868936Y-76199892D01*
X190699295Y-76137320D01*
X190500624Y-76063806D01*
X190280870Y-75982288D01*
X190047980Y-75895707D01*
X189824000Y-75812263D01*
X189379086Y-75646412D01*
X188985037Y-75499695D01*
X188639879Y-75371385D01*
X188341641Y-75260755D01*
X188088354Y-75167078D01*
X187878044Y-75089626D01*
X187708741Y-75027671D01*
X187578473Y-74980487D01*
X187485270Y-74947347D01*
X187427159Y-74927522D01*
X187418021Y-74924604D01*
X187358076Y-74904624D01*
X187311120Y-74881996D01*
X187275224Y-74849916D01*
X187248458Y-74801581D01*
X187228894Y-74730188D01*
X187214600Y-74628932D01*
X187203649Y-74491011D01*
X187194109Y-74309620D01*
X187185131Y-74103445D01*
X187178902Y-73961707D01*
X187170796Y-73786900D01*
X187160648Y-73575709D01*
X187148293Y-73324818D01*
X187133567Y-73030912D01*
X187116304Y-72690676D01*
X187096340Y-72300794D01*
X187073510Y-71857952D01*
X187072875Y-71845667D01*
X187067656Y-71743852D01*
X187060128Y-71595821D01*
X187050805Y-71411731D01*
X187040201Y-71201739D01*
X187028829Y-70976003D01*
X187017203Y-70744680D01*
X187015094Y-70702667D01*
X186995870Y-70321316D01*
X186979103Y-69992887D01*
X186964589Y-69713922D01*
X186952127Y-69480962D01*
X186941513Y-69290548D01*
X186932545Y-69139220D01*
X186925019Y-69023521D01*
X186918734Y-68939991D01*
X186913633Y-68886714D01*
X187257459Y-68886714D01*
X187259464Y-68968851D01*
X187264073Y-69099631D01*
X187271105Y-69275192D01*
X187280380Y-69491673D01*
X187291716Y-69745211D01*
X187304934Y-70031944D01*
X187319853Y-70348012D01*
X187336291Y-70689553D01*
X187354069Y-71052703D01*
X187373006Y-71433603D01*
X187392921Y-71828389D01*
X187413634Y-72233201D01*
X187434963Y-72644176D01*
X187438961Y-72720556D01*
X187450769Y-72949025D01*
X187462570Y-73183130D01*
X187473717Y-73409632D01*
X187483564Y-73615292D01*
X187491466Y-73786871D01*
X187495414Y-73877667D01*
X187505491Y-74096416D01*
X187515588Y-74263949D01*
X187526352Y-74385495D01*
X187538429Y-74466277D01*
X187552468Y-74511524D01*
X187569117Y-74526461D01*
X187575677Y-74525496D01*
X187609668Y-74515344D01*
X187691598Y-74491752D01*
X187815062Y-74456538D01*
X187973657Y-74411521D01*
X188160978Y-74358518D01*
X188370621Y-74299349D01*
X188568111Y-74243728D01*
X188852278Y-74163803D01*
X189172934Y-74073667D01*
X189512236Y-73978332D01*
X189852341Y-73882811D01*
X190175408Y-73792115D01*
X190463592Y-73711256D01*
X190487222Y-73704629D01*
X190709945Y-73642003D01*
X190914838Y-73584077D01*
X191095704Y-73532627D01*
X191246347Y-73489430D01*
X191360570Y-73456261D01*
X191432177Y-73434897D01*
X191455060Y-73427236D01*
X191456423Y-73398436D01*
X191457993Y-73317222D01*
X191459735Y-73187623D01*
X191461618Y-73013669D01*
X191463606Y-72799389D01*
X191465668Y-72548812D01*
X191467769Y-72265969D01*
X191469877Y-71954888D01*
X191471958Y-71619600D01*
X191473980Y-71264133D01*
X191475793Y-70915611D01*
X191475796Y-70914939D01*
X191771333Y-70914939D01*
X191771333Y-73413210D01*
X191834833Y-73439837D01*
X191872274Y-73451792D01*
X191959461Y-73477537D01*
X192091756Y-73515757D01*
X192264518Y-73565136D01*
X192473108Y-73624359D01*
X192712887Y-73692110D01*
X192979216Y-73767075D01*
X193267454Y-73847937D01*
X193572964Y-73933381D01*
X193732777Y-73977977D01*
X194043552Y-74064753D01*
X194338102Y-74147231D01*
X194611958Y-74224146D01*
X194860649Y-74294230D01*
X195079706Y-74356217D01*
X195264658Y-74408840D01*
X195411034Y-74450833D01*
X195514365Y-74480929D01*
X195570179Y-74497862D01*
X195578981Y-74501079D01*
X195601069Y-74511584D01*
X195617906Y-74489327D01*
X195630918Y-74428122D01*
X195641532Y-74321782D01*
X195649522Y-74195167D01*
X195680068Y-73628080D01*
X195712650Y-73010023D01*
X195746992Y-72346421D01*
X195782815Y-71642702D01*
X195819840Y-70904292D01*
X195857790Y-70136617D01*
X195863249Y-70025334D01*
X195873215Y-69825485D01*
X195883677Y-69621830D01*
X195893829Y-69429607D01*
X195902868Y-69264054D01*
X195909689Y-69145398D01*
X195927779Y-68844017D01*
X195832167Y-68827620D01*
X195770312Y-68819083D01*
X195665091Y-68806732D01*
X195529342Y-68791989D01*
X195375900Y-68776277D01*
X195313222Y-68770115D01*
X195141501Y-68753264D01*
X194932917Y-68732521D01*
X194706750Y-68709821D01*
X194482283Y-68687095D01*
X194325444Y-68671075D01*
X194019405Y-68639647D01*
X193710805Y-68607926D01*
X193407218Y-68576690D01*
X193116217Y-68546722D01*
X192845373Y-68518802D01*
X192602260Y-68493710D01*
X192394451Y-68472226D01*
X192229518Y-68455132D01*
X192138222Y-68445631D01*
X192016117Y-68433357D01*
X191911558Y-68423708D01*
X191839866Y-68418057D01*
X191820722Y-68417156D01*
X191812161Y-68419392D01*
X191804648Y-68428577D01*
X191798114Y-68448153D01*
X191792492Y-68481565D01*
X191787714Y-68532258D01*
X191783710Y-68603673D01*
X191780415Y-68699256D01*
X191777758Y-68822450D01*
X191775672Y-68976699D01*
X191774090Y-69165446D01*
X191772942Y-69392137D01*
X191772161Y-69660213D01*
X191771679Y-69973119D01*
X191771427Y-70334299D01*
X191771338Y-70747197D01*
X191771333Y-70914939D01*
X191475796Y-70914939D01*
X191488244Y-68412267D01*
X191298177Y-68430488D01*
X191189953Y-68441067D01*
X191035497Y-68456446D01*
X190844721Y-68475620D01*
X190627539Y-68497584D01*
X190393864Y-68521332D01*
X190153609Y-68545857D01*
X189916686Y-68570154D01*
X189693008Y-68593218D01*
X189626444Y-68600112D01*
X189457937Y-68617542D01*
X189252688Y-68638710D01*
X189030105Y-68661616D01*
X188809599Y-68684262D01*
X188666889Y-68698889D01*
X188317377Y-68734876D01*
X188021840Y-68765754D01*
X187778062Y-68791774D01*
X187583826Y-68813183D01*
X187436917Y-68830231D01*
X187335120Y-68843166D01*
X187276219Y-68852237D01*
X187258239Y-68857082D01*
X187257459Y-68886714D01*
X186913633Y-68886714D01*
X186913485Y-68885170D01*
X186909072Y-68855601D01*
X186906366Y-68848071D01*
X186876022Y-68841038D01*
X186796116Y-68827422D01*
X186673028Y-68808138D01*
X186513141Y-68784104D01*
X186322835Y-68756235D01*
X186108491Y-68725449D01*
X185876491Y-68692662D01*
X185633217Y-68658790D01*
X185385049Y-68624751D01*
X185138370Y-68591460D01*
X184899559Y-68559834D01*
X184899222Y-68559790D01*
X184714286Y-68535310D01*
X184519300Y-68509069D01*
X184334268Y-68483785D01*
X184179197Y-68462177D01*
X184141423Y-68456805D01*
X184016707Y-68440137D01*
X183914150Y-68428667D01*
X183845625Y-68423577D01*
X183823087Y-68425061D01*
X183506727Y-68425061D01*
X183502552Y-68361014D01*
X183498586Y-68288401D01*
X183496431Y-68232365D01*
X183495895Y-68190575D01*
X183496790Y-68160697D01*
X183498925Y-68140401D01*
X183502110Y-68127354D01*
X183506155Y-68119225D01*
X183510871Y-68113681D01*
X183513529Y-68111043D01*
X183567902Y-68085188D01*
X183665901Y-68066185D01*
X183747104Y-68058843D01*
X183827672Y-68053504D01*
X183958492Y-68044012D01*
X184133561Y-68030837D01*
X184346876Y-68014451D01*
X184592434Y-67995324D01*
X184864232Y-67973928D01*
X185156267Y-67950733D01*
X185462536Y-67926211D01*
X185777036Y-67900832D01*
X186093765Y-67875068D01*
X186197444Y-67866586D01*
X186337235Y-67855189D01*
X186524172Y-67840031D01*
X186749137Y-67821849D01*
X187003011Y-67801375D01*
X187276675Y-67779347D01*
X187561011Y-67756498D01*
X187846899Y-67733564D01*
X187961333Y-67724397D01*
X188283379Y-67698554D01*
X188640073Y-67669839D01*
X189016049Y-67639494D01*
X189395941Y-67608763D01*
X189764383Y-67578888D01*
X190106009Y-67551112D01*
X190382471Y-67528558D01*
X191547720Y-67433292D01*
X192710804Y-67528479D01*
X192710804Y-67528479D01*
G37*
X192710804Y-67528479D02*
X193013774Y-67553217D01*
X193357668Y-67581197D01*
X193727147Y-67611177D01*
X194106869Y-67641917D01*
X194481492Y-67672172D01*
X194835677Y-67700703D01*
X195129777Y-67724318D01*
X195413692Y-67747094D01*
X195699757Y-67770081D01*
X195978853Y-67792545D01*
X196241861Y-67813750D01*
X196479663Y-67832961D01*
X196683141Y-67849443D01*
X196843174Y-67862459D01*
X196893666Y-67866586D01*
X197209816Y-67892374D01*
X197525712Y-67917932D01*
X197835352Y-67942788D01*
X198132733Y-67966472D01*
X198411852Y-67988512D01*
X198666706Y-68008437D01*
X198891292Y-68025777D01*
X199079607Y-68040060D01*
X199225649Y-68050816D01*
X199323414Y-68057574D01*
X199344007Y-68058843D01*
X199464091Y-68071937D01*
X199548322Y-68093809D01*
X199577711Y-68111172D01*
X199583388Y-68122416D01*
X199587358Y-68145127D01*
X199589402Y-68182146D01*
X199589304Y-68236316D01*
X199586845Y-68310481D01*
X199581809Y-68407483D01*
X199573977Y-68530165D01*
X199563133Y-68681370D01*
X199549059Y-68863940D01*
X199531537Y-69080719D01*
X199510350Y-69334548D01*
X199485281Y-69628271D01*
X199456111Y-69964731D01*
X199422624Y-70346771D01*
X199384603Y-70777232D01*
X199341828Y-71258959D01*
X199306999Y-71649990D01*
X199264533Y-72126418D01*
X199221281Y-72611942D01*
X199177756Y-73100770D01*
X199134474Y-73587112D01*
X199091949Y-74065179D01*
X199050696Y-74529180D01*
X199011229Y-74973324D01*
X198974063Y-75391823D01*
X198939713Y-75778884D01*
X198908693Y-76128719D01*
X198881518Y-76435536D01*
X198858702Y-76693547D01*
X198853158Y-76756334D01*
X198826614Y-77053446D01*
X198800862Y-77334792D01*
X198776421Y-77595153D01*
X198753810Y-77829307D01*
X198733549Y-78032035D01*
X198716156Y-78198115D01*
X198702152Y-78322327D01*
X198692054Y-78399450D01*
X198687346Y-78423281D01*
X198658867Y-78446855D01*
X198581634Y-78497981D01*
X198456028Y-78576432D01*
X198282433Y-78681984D01*
X198061231Y-78814409D01*
X197792804Y-78973483D01*
X197477533Y-79158980D01*
X197115802Y-79370674D01*
X196707992Y-79608338D01*
X196254486Y-79871748D01*
X195755667Y-80160677D01*
X195323261Y-80410609D01*
X194919230Y-80643980D01*
X194526235Y-80871052D01*
X194147307Y-81090069D01*
X193785475Y-81299277D01*
X193443771Y-81496922D01*
X193125224Y-81681248D01*
X192832864Y-81850501D01*
X192569723Y-82002927D01*
X192338830Y-82136772D01*
X192143215Y-82250280D01*
X191985909Y-82341697D01*
X191869942Y-82409269D01*
X191798345Y-82451241D01*
X191780363Y-82461939D01*
X191667430Y-82528099D01*
X191589382Y-82566243D01*
X191533914Y-82579319D01*
X191488721Y-82570279D01*
X191442686Y-82542908D01*
X191409701Y-82522742D01*
X191331538Y-82476509D01*
X191211900Y-82406365D01*
X191054493Y-82314464D01*
X190863021Y-82202960D01*
X190641189Y-82074007D01*
X190392701Y-81929760D01*
X190121263Y-81772373D01*
X189830579Y-81603999D01*
X189524354Y-81426794D01*
X189326795Y-81312558D01*
X188968510Y-81105442D01*
X188590896Y-80887150D01*
X188201697Y-80662158D01*
X187808654Y-80434942D01*
X187419511Y-80209978D01*
X187042010Y-79991742D01*
X186683894Y-79784710D01*
X186352905Y-79593359D01*
X186056787Y-79422163D01*
X185848331Y-79301645D01*
X185521031Y-79111647D01*
X185232586Y-78942604D01*
X184984529Y-78795451D01*
X184778394Y-78671120D01*
X184615714Y-78570546D01*
X184498021Y-78494660D01*
X184426848Y-78444397D01*
X184404020Y-78422385D01*
X184397641Y-78384879D01*
X184386914Y-78296033D01*
X184372316Y-78160745D01*
X184354325Y-77983914D01*
X184333419Y-77770438D01*
X184310075Y-77525214D01*
X184284770Y-77253141D01*
X184257983Y-76959118D01*
X184230191Y-76648041D01*
X184222314Y-76558778D01*
X184191132Y-76204815D01*
X184158587Y-75836040D01*
X184125499Y-75461707D01*
X184092688Y-75091070D01*
X184060975Y-74733382D01*
X184031179Y-74397898D01*
X184004121Y-74093870D01*
X183980622Y-73830554D01*
X183967151Y-73680112D01*
X183908393Y-73025130D01*
X183854485Y-72424036D01*
X183805236Y-71874497D01*
X183760456Y-71374181D01*
X183719955Y-70920757D01*
X183683543Y-70511893D01*
X183651031Y-70145256D01*
X183622228Y-69818516D01*
X183596945Y-69529339D01*
X183574991Y-69275394D01*
X183556177Y-69054350D01*
X183540312Y-68863874D01*
X183527207Y-68701634D01*
X183516672Y-68565299D01*
X183508517Y-68452536D01*
X183506727Y-68425061D01*
X183823087Y-68425061D01*
X183823189Y-68454683D01*
X183828017Y-68535190D01*
X183837143Y-68661260D01*
X183850138Y-68827571D01*
X183866572Y-69028799D01*
X183886017Y-69259621D01*
X183908045Y-69514715D01*
X183932225Y-69788758D01*
X183939784Y-69873299D01*
X183975299Y-70269634D01*
X184015261Y-70716125D01*
X184059127Y-71206703D01*
X184106356Y-71735301D01*
X184156407Y-72295850D01*
X184208737Y-72882283D01*
X184262804Y-73488531D01*
X184318068Y-74108526D01*
X184373986Y-74736201D01*
X184419421Y-75246445D01*
X184465589Y-75764642D01*
X184506991Y-76228455D01*
X184543796Y-76639726D01*
X184576170Y-77000300D01*
X184604282Y-77312019D01*
X184628301Y-77576727D01*
X184648393Y-77796268D01*
X184664727Y-77972484D01*
X184677471Y-78107221D01*
X184686793Y-78202321D01*
X184692861Y-78259627D01*
X184695843Y-78280983D01*
X184695978Y-78281213D01*
X184721117Y-78295631D01*
X184785193Y-78332691D01*
X184878342Y-78386681D01*
X184983889Y-78447934D01*
X185051025Y-78486885D01*
X185162875Y-78551737D01*
X185315312Y-78640099D01*
X185504209Y-78749579D01*
X185725437Y-78877786D01*
X185974870Y-79022327D01*
X186248380Y-79180812D01*
X186541840Y-79350848D01*
X186851123Y-79530043D01*
X187172101Y-79716006D01*
X187411000Y-79854410D01*
X187756329Y-80054490D01*
X188106298Y-80257294D01*
X188455199Y-80459515D01*
X188797330Y-80657844D01*
X189126985Y-80848973D01*
X189438459Y-81029595D01*
X189726049Y-81196401D01*
X189984048Y-81346085D01*
X190206753Y-81475337D01*
X190388459Y-81580849D01*
X190444889Y-81613636D01*
X190649320Y-81731923D01*
X190839099Y-81840748D01*
X191008540Y-81936925D01*
X191151961Y-82017269D01*
X191263675Y-82078597D01*
X191338000Y-82117724D01*
X191369166Y-82131463D01*
X191375107Y-82121295D01*
X191380385Y-82088538D01*
X191385036Y-82030455D01*
X191389092Y-81944310D01*
X191392588Y-81827365D01*
X191395557Y-81676884D01*
X191398033Y-81490129D01*
X191400050Y-81264364D01*
X191401642Y-80996853D01*
X191402841Y-80684857D01*
X191403683Y-80325641D01*
X191404200Y-79916468D01*
X191404427Y-79454600D01*
X191404444Y-79269777D01*
X191404381Y-79156632D01*
X191685714Y-79156632D01*
X191686023Y-79504967D01*
X191686708Y-79850111D01*
X191687765Y-80187495D01*
X191689193Y-80512549D01*
X191690986Y-80820705D01*
X191693143Y-81107391D01*
X191695660Y-81368040D01*
X191698533Y-81598083D01*
X191701760Y-81792949D01*
X191705338Y-81948069D01*
X191709263Y-82058875D01*
X191713531Y-82120796D01*
X191716509Y-82132667D01*
X191746624Y-82118946D01*
X191820219Y-82079764D01*
X191932014Y-82018090D01*
X192076728Y-81936897D01*
X192249080Y-81839155D01*
X192443790Y-81727834D01*
X192655578Y-81605906D01*
X192753676Y-81549163D01*
X192939555Y-81441488D01*
X193168144Y-81309067D01*
X193433315Y-81155450D01*
X193728939Y-80984189D01*
X194048886Y-80798833D01*
X194387030Y-80602934D01*
X194737240Y-80400041D01*
X195093387Y-80193707D01*
X195449344Y-79987481D01*
X195798981Y-79784913D01*
X195877666Y-79739325D01*
X196200050Y-79552549D01*
X196512045Y-79371800D01*
X196809687Y-79199373D01*
X197089015Y-79037563D01*
X197346068Y-78888664D01*
X197576884Y-78754971D01*
X197777500Y-78638780D01*
X197943955Y-78542384D01*
X198072287Y-78468079D01*
X198158534Y-78418160D01*
X198191889Y-78398872D01*
X198284276Y-78345472D01*
X198355332Y-78304341D01*
X198393030Y-78282442D01*
X198396010Y-78280681D01*
X198400247Y-78252676D01*
X198408553Y-78176346D01*
X198420153Y-78059604D01*
X198434276Y-77910363D01*
X198450146Y-77736534D01*
X198459689Y-77629360D01*
X198480766Y-77390579D01*
X198500400Y-77168367D01*
X198519162Y-76956295D01*
X198537625Y-76747931D01*
X198556362Y-76536844D01*
X198575945Y-76316604D01*
X198596946Y-76080780D01*
X198619938Y-75822941D01*
X198645493Y-75536655D01*
X198674184Y-75215493D01*
X198706582Y-74853022D01*
X198743261Y-74442812D01*
X198755943Y-74301000D01*
X198784997Y-73976096D01*
X198813688Y-73655186D01*
X198841425Y-73344888D01*
X198867616Y-73051819D01*
X198891670Y-72782597D01*
X198912997Y-72543841D01*
X198931003Y-72342167D01*
X198945100Y-72184194D01*
X198953891Y-72085556D01*
X198964379Y-71967760D01*
X198979237Y-71800891D01*
X198997827Y-71592099D01*
X199019514Y-71348534D01*
X199043660Y-71077345D01*
X199069629Y-70785681D01*
X199096785Y-70480693D01*
X199124491Y-70169529D01*
X199137102Y-70027890D01*
X199163048Y-69734162D01*
X199187077Y-69457600D01*
X199208777Y-69203250D01*
X199227738Y-68976158D01*
X199243547Y-68781372D01*
X199255793Y-68623937D01*
X199264066Y-68508901D01*
X199267953Y-68441308D01*
X199267769Y-68424807D01*
X199237117Y-68424106D01*
X199162174Y-68430543D01*
X199054481Y-68442938D01*
X198935954Y-68458656D01*
X198760582Y-68483102D01*
X198553373Y-68511781D01*
X198322374Y-68543598D01*
X198075631Y-68577458D01*
X197821191Y-68612263D01*
X197567100Y-68646919D01*
X197321404Y-68680329D01*
X197092152Y-68711397D01*
X196887388Y-68739027D01*
X196715159Y-68762123D01*
X196583513Y-68779589D01*
X196506047Y-68789631D01*
X196388209Y-68805182D01*
X196314889Y-68818975D01*
X196274595Y-68836245D01*
X196255835Y-68862226D01*
X196247119Y-68902154D01*
X196246224Y-68907991D01*
X196241716Y-68956575D01*
X196235069Y-69054201D01*
X196226695Y-69193525D01*
X196217010Y-69367204D01*
X196206427Y-69567892D01*
X196195360Y-69788246D01*
X196188002Y-69940667D01*
X196178361Y-70142678D01*
X196168603Y-70344986D01*
X196158489Y-70552308D01*
X196147780Y-70769362D01*
X196136237Y-71000865D01*
X196123620Y-71251534D01*
X196109690Y-71526087D01*
X196094208Y-71829240D01*
X196076934Y-72165712D01*
X196057630Y-72540219D01*
X196036056Y-72957478D01*
X196011973Y-73422207D01*
X195988347Y-73877416D01*
X195976325Y-74095647D01*
X195963924Y-74296916D01*
X195951693Y-74473968D01*
X195940182Y-74619548D01*
X195929941Y-74726402D01*
X195921521Y-74787277D01*
X195918571Y-74797559D01*
X195883603Y-74824491D01*
X195806567Y-74863938D01*
X195698933Y-74910543D01*
X195575497Y-74957756D01*
X195389621Y-75025146D01*
X195151477Y-75112343D01*
X194861582Y-75219156D01*
X194520452Y-75345394D01*
X194128604Y-75490867D01*
X193686552Y-75655383D01*
X193194813Y-75838752D01*
X193154222Y-75853902D01*
X192928356Y-75938095D01*
X192707056Y-76020375D01*
X192499084Y-76097500D01*
X192313201Y-76166229D01*
X192158167Y-76223319D01*
X192042743Y-76265529D01*
X192001770Y-76280347D01*
X191887072Y-76322181D01*
X191791980Y-76358057D01*
X191729344Y-76383064D01*
X191712493Y-76390926D01*
X191708041Y-76421149D01*
X191704004Y-76503013D01*
X191700377Y-76631948D01*
X191697159Y-76803385D01*
X191694345Y-77012754D01*
X191691933Y-77255487D01*
X191689920Y-77527014D01*
X191688301Y-77822765D01*
X191687074Y-78138172D01*
X191686236Y-78468665D01*
X191685784Y-78809675D01*
X191685714Y-79156632D01*
X191404381Y-79156632D01*
X191404193Y-78823398D01*
X191403456Y-78405719D01*
X191402258Y-78019489D01*
X191400623Y-77667455D01*
X191398576Y-77352363D01*
X191396142Y-77076961D01*
X191393346Y-76843996D01*
X191390211Y-76656216D01*
X191386763Y-76516367D01*
X191383026Y-76427197D01*
X191379025Y-76391452D01*
X191378618Y-76390926D01*
X191342361Y-76375065D01*
X191265731Y-76345324D01*
X191161579Y-76306610D01*
X191089340Y-76280441D01*
X191001600Y-76248579D01*
X190868936Y-76199892D01*
X190699295Y-76137320D01*
X190500624Y-76063806D01*
X190280870Y-75982288D01*
X190047980Y-75895707D01*
X189824000Y-75812263D01*
X189379086Y-75646412D01*
X188985037Y-75499695D01*
X188639879Y-75371385D01*
X188341641Y-75260755D01*
X188088354Y-75167078D01*
X187878044Y-75089626D01*
X187708741Y-75027671D01*
X187578473Y-74980487D01*
X187485270Y-74947347D01*
X187427159Y-74927522D01*
X187418021Y-74924604D01*
X187358076Y-74904624D01*
X187311120Y-74881996D01*
X187275224Y-74849916D01*
X187248458Y-74801581D01*
X187228894Y-74730188D01*
X187214600Y-74628932D01*
X187203649Y-74491011D01*
X187194109Y-74309620D01*
X187185131Y-74103445D01*
X187178902Y-73961707D01*
X187170796Y-73786900D01*
X187160648Y-73575709D01*
X187148293Y-73324818D01*
X187133567Y-73030912D01*
X187116304Y-72690676D01*
X187096340Y-72300794D01*
X187073510Y-71857952D01*
X187072875Y-71845667D01*
X187067656Y-71743852D01*
X187060128Y-71595821D01*
X187050805Y-71411731D01*
X187040201Y-71201739D01*
X187028829Y-70976003D01*
X187017203Y-70744680D01*
X187015094Y-70702667D01*
X186995870Y-70321316D01*
X186979103Y-69992887D01*
X186964589Y-69713922D01*
X186952127Y-69480962D01*
X186941513Y-69290548D01*
X186932545Y-69139220D01*
X186925019Y-69023521D01*
X186918734Y-68939991D01*
X186913633Y-68886714D01*
X187257459Y-68886714D01*
X187259464Y-68968851D01*
X187264073Y-69099631D01*
X187271105Y-69275192D01*
X187280380Y-69491673D01*
X187291716Y-69745211D01*
X187304934Y-70031944D01*
X187319853Y-70348012D01*
X187336291Y-70689553D01*
X187354069Y-71052703D01*
X187373006Y-71433603D01*
X187392921Y-71828389D01*
X187413634Y-72233201D01*
X187434963Y-72644176D01*
X187438961Y-72720556D01*
X187450769Y-72949025D01*
X187462570Y-73183130D01*
X187473717Y-73409632D01*
X187483564Y-73615292D01*
X187491466Y-73786871D01*
X187495414Y-73877667D01*
X187505491Y-74096416D01*
X187515588Y-74263949D01*
X187526352Y-74385495D01*
X187538429Y-74466277D01*
X187552468Y-74511524D01*
X187569117Y-74526461D01*
X187575677Y-74525496D01*
X187609668Y-74515344D01*
X187691598Y-74491752D01*
X187815062Y-74456538D01*
X187973657Y-74411521D01*
X188160978Y-74358518D01*
X188370621Y-74299349D01*
X188568111Y-74243728D01*
X188852278Y-74163803D01*
X189172934Y-74073667D01*
X189512236Y-73978332D01*
X189852341Y-73882811D01*
X190175408Y-73792115D01*
X190463592Y-73711256D01*
X190487222Y-73704629D01*
X190709945Y-73642003D01*
X190914838Y-73584077D01*
X191095704Y-73532627D01*
X191246347Y-73489430D01*
X191360570Y-73456261D01*
X191432177Y-73434897D01*
X191455060Y-73427236D01*
X191456423Y-73398436D01*
X191457993Y-73317222D01*
X191459735Y-73187623D01*
X191461618Y-73013669D01*
X191463606Y-72799389D01*
X191465668Y-72548812D01*
X191467769Y-72265969D01*
X191469877Y-71954888D01*
X191471958Y-71619600D01*
X191473980Y-71264133D01*
X191475793Y-70915611D01*
X191475796Y-70914939D01*
X191771333Y-70914939D01*
X191771333Y-73413210D01*
X191834833Y-73439837D01*
X191872274Y-73451792D01*
X191959461Y-73477537D01*
X192091756Y-73515757D01*
X192264518Y-73565136D01*
X192473108Y-73624359D01*
X192712887Y-73692110D01*
X192979216Y-73767075D01*
X193267454Y-73847937D01*
X193572964Y-73933381D01*
X193732777Y-73977977D01*
X194043552Y-74064753D01*
X194338102Y-74147231D01*
X194611958Y-74224146D01*
X194860649Y-74294230D01*
X195079706Y-74356217D01*
X195264658Y-74408840D01*
X195411034Y-74450833D01*
X195514365Y-74480929D01*
X195570179Y-74497862D01*
X195578981Y-74501079D01*
X195601069Y-74511584D01*
X195617906Y-74489327D01*
X195630918Y-74428122D01*
X195641532Y-74321782D01*
X195649522Y-74195167D01*
X195680068Y-73628080D01*
X195712650Y-73010023D01*
X195746992Y-72346421D01*
X195782815Y-71642702D01*
X195819840Y-70904292D01*
X195857790Y-70136617D01*
X195863249Y-70025334D01*
X195873215Y-69825485D01*
X195883677Y-69621830D01*
X195893829Y-69429607D01*
X195902868Y-69264054D01*
X195909689Y-69145398D01*
X195927779Y-68844017D01*
X195832167Y-68827620D01*
X195770312Y-68819083D01*
X195665091Y-68806732D01*
X195529342Y-68791989D01*
X195375900Y-68776277D01*
X195313222Y-68770115D01*
X195141501Y-68753264D01*
X194932917Y-68732521D01*
X194706750Y-68709821D01*
X194482283Y-68687095D01*
X194325444Y-68671075D01*
X194019405Y-68639647D01*
X193710805Y-68607926D01*
X193407218Y-68576690D01*
X193116217Y-68546722D01*
X192845373Y-68518802D01*
X192602260Y-68493710D01*
X192394451Y-68472226D01*
X192229518Y-68455132D01*
X192138222Y-68445631D01*
X192016117Y-68433357D01*
X191911558Y-68423708D01*
X191839866Y-68418057D01*
X191820722Y-68417156D01*
X191812161Y-68419392D01*
X191804648Y-68428577D01*
X191798114Y-68448153D01*
X191792492Y-68481565D01*
X191787714Y-68532258D01*
X191783710Y-68603673D01*
X191780415Y-68699256D01*
X191777758Y-68822450D01*
X191775672Y-68976699D01*
X191774090Y-69165446D01*
X191772942Y-69392137D01*
X191772161Y-69660213D01*
X191771679Y-69973119D01*
X191771427Y-70334299D01*
X191771338Y-70747197D01*
X191771333Y-70914939D01*
X191475796Y-70914939D01*
X191488244Y-68412267D01*
X191298177Y-68430488D01*
X191189953Y-68441067D01*
X191035497Y-68456446D01*
X190844721Y-68475620D01*
X190627539Y-68497584D01*
X190393864Y-68521332D01*
X190153609Y-68545857D01*
X189916686Y-68570154D01*
X189693008Y-68593218D01*
X189626444Y-68600112D01*
X189457937Y-68617542D01*
X189252688Y-68638710D01*
X189030105Y-68661616D01*
X188809599Y-68684262D01*
X188666889Y-68698889D01*
X188317377Y-68734876D01*
X188021840Y-68765754D01*
X187778062Y-68791774D01*
X187583826Y-68813183D01*
X187436917Y-68830231D01*
X187335120Y-68843166D01*
X187276219Y-68852237D01*
X187258239Y-68857082D01*
X187257459Y-68886714D01*
X186913633Y-68886714D01*
X186913485Y-68885170D01*
X186909072Y-68855601D01*
X186906366Y-68848071D01*
X186876022Y-68841038D01*
X186796116Y-68827422D01*
X186673028Y-68808138D01*
X186513141Y-68784104D01*
X186322835Y-68756235D01*
X186108491Y-68725449D01*
X185876491Y-68692662D01*
X185633217Y-68658790D01*
X185385049Y-68624751D01*
X185138370Y-68591460D01*
X184899559Y-68559834D01*
X184899222Y-68559790D01*
X184714286Y-68535310D01*
X184519300Y-68509069D01*
X184334268Y-68483785D01*
X184179197Y-68462177D01*
X184141423Y-68456805D01*
X184016707Y-68440137D01*
X183914150Y-68428667D01*
X183845625Y-68423577D01*
X183823087Y-68425061D01*
X183506727Y-68425061D01*
X183502552Y-68361014D01*
X183498586Y-68288401D01*
X183496431Y-68232365D01*
X183495895Y-68190575D01*
X183496790Y-68160697D01*
X183498925Y-68140401D01*
X183502110Y-68127354D01*
X183506155Y-68119225D01*
X183510871Y-68113681D01*
X183513529Y-68111043D01*
X183567902Y-68085188D01*
X183665901Y-68066185D01*
X183747104Y-68058843D01*
X183827672Y-68053504D01*
X183958492Y-68044012D01*
X184133561Y-68030837D01*
X184346876Y-68014451D01*
X184592434Y-67995324D01*
X184864232Y-67973928D01*
X185156267Y-67950733D01*
X185462536Y-67926211D01*
X185777036Y-67900832D01*
X186093765Y-67875068D01*
X186197444Y-67866586D01*
X186337235Y-67855189D01*
X186524172Y-67840031D01*
X186749137Y-67821849D01*
X187003011Y-67801375D01*
X187276675Y-67779347D01*
X187561011Y-67756498D01*
X187846899Y-67733564D01*
X187961333Y-67724397D01*
X188283379Y-67698554D01*
X188640073Y-67669839D01*
X189016049Y-67639494D01*
X189395941Y-67608763D01*
X189764383Y-67578888D01*
X190106009Y-67551112D01*
X190382471Y-67528558D01*
X191547720Y-67433292D01*
X192710804Y-67528479D01*
G36*
X195961590Y-82714601D02*
X196086957Y-82714667D01*
X197067359Y-82714667D01*
X197047333Y-82778167D01*
X197024383Y-82837946D01*
X196986001Y-82926095D01*
X196953115Y-82996889D01*
X196901534Y-83088343D01*
X196841913Y-83151352D01*
X196762973Y-83190994D01*
X196653435Y-83212349D01*
X196502021Y-83220498D01*
X196455366Y-83221074D01*
X196330513Y-83226222D01*
X196239578Y-83238706D01*
X196194311Y-83256534D01*
X196187690Y-83276685D01*
X196181909Y-83324929D01*
X196176923Y-83404114D01*
X196172688Y-83517088D01*
X196169163Y-83666700D01*
X196166302Y-83855798D01*
X196164062Y-84087231D01*
X196162400Y-84363846D01*
X196161272Y-84688492D01*
X196160635Y-85064018D01*
X196160444Y-85471978D01*
X196160444Y-87653556D01*
X195969944Y-87652698D01*
X195864933Y-87648136D01*
X195777709Y-87637065D01*
X195730055Y-87623073D01*
X195720934Y-87615176D01*
X195713006Y-87600348D01*
X195706189Y-87574860D01*
X195700398Y-87534981D01*
X195695551Y-87476981D01*
X195691565Y-87397128D01*
X195688356Y-87291692D01*
X195685841Y-87156943D01*
X195683937Y-86989150D01*
X195682561Y-86784582D01*
X195681629Y-86539510D01*
X195681059Y-86250201D01*
X195680767Y-85912926D01*
X195680670Y-85523953D01*
X195680666Y-85408487D01*
X195680666Y-83222667D01*
X195003333Y-83222667D01*
X195003333Y-83015374D01*
X195002537Y-82938748D01*
X195003635Y-82876332D01*
X195011856Y-82826675D01*
X195032429Y-82788325D01*
X195070585Y-82759833D01*
X195131552Y-82739745D01*
X195220561Y-82726612D01*
X195342839Y-82718983D01*
X195503617Y-82715405D01*
X195708124Y-82714428D01*
X195961590Y-82714601D01*
X195961590Y-82714601D01*
G37*
X195961590Y-82714601D02*
X196086957Y-82714667D01*
X197067359Y-82714667D01*
X197047333Y-82778167D01*
X197024383Y-82837946D01*
X196986001Y-82926095D01*
X196953115Y-82996889D01*
X196901534Y-83088343D01*
X196841913Y-83151352D01*
X196762973Y-83190994D01*
X196653435Y-83212349D01*
X196502021Y-83220498D01*
X196455366Y-83221074D01*
X196330513Y-83226222D01*
X196239578Y-83238706D01*
X196194311Y-83256534D01*
X196187690Y-83276685D01*
X196181909Y-83324929D01*
X196176923Y-83404114D01*
X196172688Y-83517088D01*
X196169163Y-83666700D01*
X196166302Y-83855798D01*
X196164062Y-84087231D01*
X196162400Y-84363846D01*
X196161272Y-84688492D01*
X196160635Y-85064018D01*
X196160444Y-85471978D01*
X196160444Y-87653556D01*
X195969944Y-87652698D01*
X195864933Y-87648136D01*
X195777709Y-87637065D01*
X195730055Y-87623073D01*
X195720934Y-87615176D01*
X195713006Y-87600348D01*
X195706189Y-87574860D01*
X195700398Y-87534981D01*
X195695551Y-87476981D01*
X195691565Y-87397128D01*
X195688356Y-87291692D01*
X195685841Y-87156943D01*
X195683937Y-86989150D01*
X195682561Y-86784582D01*
X195681629Y-86539510D01*
X195681059Y-86250201D01*
X195680767Y-85912926D01*
X195680670Y-85523953D01*
X195680666Y-85408487D01*
X195680666Y-83222667D01*
X195003333Y-83222667D01*
X195003333Y-83015374D01*
X195002537Y-82938748D01*
X195003635Y-82876332D01*
X195011856Y-82826675D01*
X195032429Y-82788325D01*
X195070585Y-82759833D01*
X195131552Y-82739745D01*
X195220561Y-82726612D01*
X195342839Y-82718983D01*
X195503617Y-82715405D01*
X195708124Y-82714428D01*
X195961590Y-82714601D01*
G36*
X193710733Y-82716539D02*
X193877055Y-82723526D01*
X194005369Y-82737687D01*
X194104849Y-82761080D01*
X194184674Y-82795765D01*
X194254018Y-82843799D01*
X194312458Y-82897542D01*
X194359439Y-82946774D01*
X194397613Y-82995258D01*
X194427890Y-83049244D01*
X194451183Y-83114981D01*
X194468404Y-83198719D01*
X194480463Y-83306709D01*
X194488274Y-83445200D01*
X194492747Y-83620443D01*
X194494794Y-83838687D01*
X194495327Y-84106183D01*
X194495333Y-84151126D01*
X194494722Y-84428857D01*
X194492482Y-84655560D01*
X194487999Y-84836640D01*
X194480664Y-84977504D01*
X194469862Y-85083559D01*
X194454983Y-85160211D01*
X194435415Y-85212867D01*
X194410546Y-85246932D01*
X194379763Y-85267814D01*
X194368389Y-85272662D01*
X194338787Y-85291062D01*
X194351800Y-85320454D01*
X194366038Y-85336798D01*
X194398312Y-85375125D01*
X194424732Y-85415749D01*
X194445881Y-85464467D01*
X194462342Y-85527074D01*
X194474698Y-85609367D01*
X194483532Y-85717143D01*
X194489427Y-85856198D01*
X194492966Y-86032328D01*
X194494731Y-86251330D01*
X194495305Y-86519000D01*
X194495333Y-86622538D01*
X194495333Y-87653556D01*
X194015555Y-87653556D01*
X194015555Y-85710553D01*
X193942491Y-85623721D01*
X193897548Y-85576025D01*
X193852231Y-85549948D01*
X193787702Y-85539050D01*
X193688491Y-85536889D01*
X193507555Y-85536889D01*
X193507555Y-87653556D01*
X193027777Y-87653556D01*
X193027777Y-83194445D01*
X193507555Y-83194445D01*
X193507555Y-85057112D01*
X193692282Y-85057112D01*
X193798833Y-85054009D01*
X193867664Y-85041330D01*
X193917318Y-85014017D01*
X193946282Y-84987839D01*
X194015555Y-84918566D01*
X194015555Y-83332990D01*
X193946282Y-83263718D01*
X193899216Y-83224924D01*
X193844348Y-83203868D01*
X193763135Y-83195490D01*
X193692282Y-83194445D01*
X193507555Y-83194445D01*
X193027777Y-83194445D01*
X193027777Y-82714667D01*
X193497225Y-82714667D01*
X193710733Y-82716539D01*
X193710733Y-82716539D01*
G37*
X193710733Y-82716539D02*
X193877055Y-82723526D01*
X194005369Y-82737687D01*
X194104849Y-82761080D01*
X194184674Y-82795765D01*
X194254018Y-82843799D01*
X194312458Y-82897542D01*
X194359439Y-82946774D01*
X194397613Y-82995258D01*
X194427890Y-83049244D01*
X194451183Y-83114981D01*
X194468404Y-83198719D01*
X194480463Y-83306709D01*
X194488274Y-83445200D01*
X194492747Y-83620443D01*
X194494794Y-83838687D01*
X194495327Y-84106183D01*
X194495333Y-84151126D01*
X194494722Y-84428857D01*
X194492482Y-84655560D01*
X194487999Y-84836640D01*
X194480664Y-84977504D01*
X194469862Y-85083559D01*
X194454983Y-85160211D01*
X194435415Y-85212867D01*
X194410546Y-85246932D01*
X194379763Y-85267814D01*
X194368389Y-85272662D01*
X194338787Y-85291062D01*
X194351800Y-85320454D01*
X194366038Y-85336798D01*
X194398312Y-85375125D01*
X194424732Y-85415749D01*
X194445881Y-85464467D01*
X194462342Y-85527074D01*
X194474698Y-85609367D01*
X194483532Y-85717143D01*
X194489427Y-85856198D01*
X194492966Y-86032328D01*
X194494731Y-86251330D01*
X194495305Y-86519000D01*
X194495333Y-86622538D01*
X194495333Y-87653556D01*
X194015555Y-87653556D01*
X194015555Y-85710553D01*
X193942491Y-85623721D01*
X193897548Y-85576025D01*
X193852231Y-85549948D01*
X193787702Y-85539050D01*
X193688491Y-85536889D01*
X193507555Y-85536889D01*
X193507555Y-87653556D01*
X193027777Y-87653556D01*
X193027777Y-83194445D01*
X193507555Y-83194445D01*
X193507555Y-85057112D01*
X193692282Y-85057112D01*
X193798833Y-85054009D01*
X193867664Y-85041330D01*
X193917318Y-85014017D01*
X193946282Y-84987839D01*
X194015555Y-84918566D01*
X194015555Y-83332990D01*
X193946282Y-83263718D01*
X193899216Y-83224924D01*
X193844348Y-83203868D01*
X193763135Y-83195490D01*
X193692282Y-83194445D01*
X193507555Y-83194445D01*
X193027777Y-83194445D01*
X193027777Y-82714667D01*
X193497225Y-82714667D01*
X193710733Y-82716539D01*
G36*
X191610035Y-82729085D02*
X191713150Y-82772341D01*
X191776369Y-82852060D01*
X191796510Y-82918783D01*
X191802448Y-82956515D01*
X191815718Y-83044357D01*
X191835587Y-83177321D01*
X191861321Y-83350419D01*
X191892187Y-83558664D01*
X191927450Y-83797068D01*
X191966379Y-84060642D01*
X192008238Y-84344400D01*
X192052296Y-84643353D01*
X192097818Y-84952513D01*
X192144070Y-85266893D01*
X192190320Y-85581505D01*
X192235834Y-85891361D01*
X192279879Y-86191473D01*
X192321720Y-86476854D01*
X192360625Y-86742515D01*
X192395860Y-86983470D01*
X192426692Y-87194729D01*
X192452387Y-87371306D01*
X192472212Y-87508212D01*
X192485433Y-87600459D01*
X192491316Y-87643061D01*
X192491555Y-87645348D01*
X192465396Y-87648905D01*
X192395165Y-87651685D01*
X192293237Y-87653302D01*
X192228362Y-87653556D01*
X191965169Y-87653556D01*
X191755951Y-85972979D01*
X191718271Y-85673658D01*
X191682134Y-85393037D01*
X191648193Y-85135767D01*
X191617101Y-84906496D01*
X191589511Y-84709876D01*
X191566075Y-84550556D01*
X191547447Y-84433187D01*
X191534280Y-84362419D01*
X191527225Y-84342902D01*
X191527119Y-84343146D01*
X191520060Y-84380086D01*
X191506931Y-84467748D01*
X191488428Y-84600819D01*
X191465249Y-84773984D01*
X191438092Y-84981928D01*
X191407654Y-85219337D01*
X191374633Y-85480897D01*
X191339726Y-85761292D01*
X191320433Y-85917889D01*
X191284728Y-86208327D01*
X191250673Y-86484505D01*
X191218961Y-86740857D01*
X191190286Y-86971816D01*
X191165341Y-87171816D01*
X191144819Y-87335290D01*
X191129414Y-87456673D01*
X191119819Y-87530399D01*
X191117407Y-87547723D01*
X191101452Y-87653556D01*
X190575993Y-87653556D01*
X190590417Y-87561834D01*
X190596603Y-87520417D01*
X190610277Y-87427413D01*
X190630819Y-87287091D01*
X190657604Y-87103722D01*
X190690012Y-86881577D01*
X190727419Y-86624926D01*
X190769202Y-86338040D01*
X190814740Y-86025189D01*
X190863410Y-85690644D01*
X190914589Y-85338676D01*
X190949360Y-85099445D01*
X191293879Y-82728778D01*
X191464042Y-82720515D01*
X191610035Y-82729085D01*
X191610035Y-82729085D01*
G37*
X191610035Y-82729085D02*
X191713150Y-82772341D01*
X191776369Y-82852060D01*
X191796510Y-82918783D01*
X191802448Y-82956515D01*
X191815718Y-83044357D01*
X191835587Y-83177321D01*
X191861321Y-83350419D01*
X191892187Y-83558664D01*
X191927450Y-83797068D01*
X191966379Y-84060642D01*
X192008238Y-84344400D01*
X192052296Y-84643353D01*
X192097818Y-84952513D01*
X192144070Y-85266893D01*
X192190320Y-85581505D01*
X192235834Y-85891361D01*
X192279879Y-86191473D01*
X192321720Y-86476854D01*
X192360625Y-86742515D01*
X192395860Y-86983470D01*
X192426692Y-87194729D01*
X192452387Y-87371306D01*
X192472212Y-87508212D01*
X192485433Y-87600459D01*
X192491316Y-87643061D01*
X192491555Y-87645348D01*
X192465396Y-87648905D01*
X192395165Y-87651685D01*
X192293237Y-87653302D01*
X192228362Y-87653556D01*
X191965169Y-87653556D01*
X191755951Y-85972979D01*
X191718271Y-85673658D01*
X191682134Y-85393037D01*
X191648193Y-85135767D01*
X191617101Y-84906496D01*
X191589511Y-84709876D01*
X191566075Y-84550556D01*
X191547447Y-84433187D01*
X191534280Y-84362419D01*
X191527225Y-84342902D01*
X191527119Y-84343146D01*
X191520060Y-84380086D01*
X191506931Y-84467748D01*
X191488428Y-84600819D01*
X191465249Y-84773984D01*
X191438092Y-84981928D01*
X191407654Y-85219337D01*
X191374633Y-85480897D01*
X191339726Y-85761292D01*
X191320433Y-85917889D01*
X191284728Y-86208327D01*
X191250673Y-86484505D01*
X191218961Y-86740857D01*
X191190286Y-86971816D01*
X191165341Y-87171816D01*
X191144819Y-87335290D01*
X191129414Y-87456673D01*
X191119819Y-87530399D01*
X191117407Y-87547723D01*
X191101452Y-87653556D01*
X190575993Y-87653556D01*
X190590417Y-87561834D01*
X190596603Y-87520417D01*
X190610277Y-87427413D01*
X190630819Y-87287091D01*
X190657604Y-87103722D01*
X190690012Y-86881577D01*
X190727419Y-86624926D01*
X190769202Y-86338040D01*
X190814740Y-86025189D01*
X190863410Y-85690644D01*
X190914589Y-85338676D01*
X190949360Y-85099445D01*
X191293879Y-82728778D01*
X191464042Y-82720515D01*
X191610035Y-82729085D01*
G36*
X188444246Y-82714569D02*
X188489093Y-82720819D01*
X188527948Y-82736936D01*
X188562438Y-82767167D01*
X188594192Y-82815761D01*
X188624837Y-82886968D01*
X188656002Y-82985038D01*
X188689316Y-83114218D01*
X188726405Y-83278759D01*
X188768899Y-83482909D01*
X188818425Y-83730918D01*
X188876611Y-84027034D01*
X188922508Y-84260849D01*
X188976763Y-84535214D01*
X189028139Y-84792080D01*
X189075558Y-85026260D01*
X189117941Y-85232569D01*
X189154212Y-85405820D01*
X189183291Y-85540827D01*
X189204101Y-85632404D01*
X189215564Y-85675365D01*
X189217051Y-85678000D01*
X189225209Y-85651132D01*
X189242513Y-85574083D01*
X189267907Y-85452186D01*
X189300335Y-85290774D01*
X189338739Y-85095182D01*
X189382062Y-84870742D01*
X189429247Y-84622787D01*
X189479238Y-84356652D01*
X189484137Y-84330389D01*
X189534881Y-84059017D01*
X189583201Y-83802187D01*
X189627980Y-83565720D01*
X189668102Y-83355439D01*
X189702452Y-83177164D01*
X189729913Y-83036718D01*
X189749369Y-82939920D01*
X189759705Y-82892594D01*
X189759892Y-82891888D01*
X189799783Y-82803945D01*
X189868308Y-82748418D01*
X189974355Y-82720460D01*
X190084835Y-82714667D01*
X190262000Y-82714667D01*
X190262000Y-87653556D01*
X189782222Y-87653556D01*
X189779938Y-86390612D01*
X189777655Y-85127667D01*
X189639613Y-85762667D01*
X189596892Y-85959067D01*
X189555248Y-86150297D01*
X189517177Y-86324915D01*
X189485174Y-86471476D01*
X189461735Y-86578537D01*
X189455756Y-86605745D01*
X189409940Y-86813822D01*
X189280414Y-86796069D01*
X189148057Y-86764671D01*
X189055734Y-86707442D01*
X188989567Y-86615269D01*
X188982146Y-86600209D01*
X188963158Y-86545747D01*
X188934599Y-86444972D01*
X188898724Y-86306760D01*
X188857787Y-86139991D01*
X188814043Y-85953541D01*
X188782705Y-85814928D01*
X188629778Y-85127667D01*
X188627444Y-86390612D01*
X188625111Y-87653556D01*
X188145333Y-87653556D01*
X188145333Y-82714667D01*
X188330060Y-82714667D01*
X188391777Y-82713934D01*
X188444246Y-82714569D01*
X188444246Y-82714569D01*
G37*
X188444246Y-82714569D02*
X188489093Y-82720819D01*
X188527948Y-82736936D01*
X188562438Y-82767167D01*
X188594192Y-82815761D01*
X188624837Y-82886968D01*
X188656002Y-82985038D01*
X188689316Y-83114218D01*
X188726405Y-83278759D01*
X188768899Y-83482909D01*
X188818425Y-83730918D01*
X188876611Y-84027034D01*
X188922508Y-84260849D01*
X188976763Y-84535214D01*
X189028139Y-84792080D01*
X189075558Y-85026260D01*
X189117941Y-85232569D01*
X189154212Y-85405820D01*
X189183291Y-85540827D01*
X189204101Y-85632404D01*
X189215564Y-85675365D01*
X189217051Y-85678000D01*
X189225209Y-85651132D01*
X189242513Y-85574083D01*
X189267907Y-85452186D01*
X189300335Y-85290774D01*
X189338739Y-85095182D01*
X189382062Y-84870742D01*
X189429247Y-84622787D01*
X189479238Y-84356652D01*
X189484137Y-84330389D01*
X189534881Y-84059017D01*
X189583201Y-83802187D01*
X189627980Y-83565720D01*
X189668102Y-83355439D01*
X189702452Y-83177164D01*
X189729913Y-83036718D01*
X189749369Y-82939920D01*
X189759705Y-82892594D01*
X189759892Y-82891888D01*
X189799783Y-82803945D01*
X189868308Y-82748418D01*
X189974355Y-82720460D01*
X190084835Y-82714667D01*
X190262000Y-82714667D01*
X190262000Y-87653556D01*
X189782222Y-87653556D01*
X189779938Y-86390612D01*
X189777655Y-85127667D01*
X189639613Y-85762667D01*
X189596892Y-85959067D01*
X189555248Y-86150297D01*
X189517177Y-86324915D01*
X189485174Y-86471476D01*
X189461735Y-86578537D01*
X189455756Y-86605745D01*
X189409940Y-86813822D01*
X189280414Y-86796069D01*
X189148057Y-86764671D01*
X189055734Y-86707442D01*
X188989567Y-86615269D01*
X188982146Y-86600209D01*
X188963158Y-86545747D01*
X188934599Y-86444972D01*
X188898724Y-86306760D01*
X188857787Y-86139991D01*
X188814043Y-85953541D01*
X188782705Y-85814928D01*
X188629778Y-85127667D01*
X188627444Y-86390612D01*
X188625111Y-87653556D01*
X188145333Y-87653556D01*
X188145333Y-82714667D01*
X188330060Y-82714667D01*
X188391777Y-82713934D01*
X188444246Y-82714569D01*
G36*
X186884459Y-82667381D02*
X187086940Y-82707745D01*
X187253049Y-82790692D01*
X187381140Y-82914310D01*
X187469567Y-83076686D01*
X187516685Y-83275907D01*
X187524444Y-83411503D01*
X187511749Y-83568232D01*
X187469846Y-83684543D01*
X187393007Y-83771348D01*
X187307801Y-83824261D01*
X187190955Y-83882585D01*
X187115032Y-83912735D01*
X187071236Y-83908958D01*
X187050771Y-83865498D01*
X187044843Y-83776602D01*
X187044666Y-83652114D01*
X187041623Y-83521548D01*
X187033458Y-83403110D01*
X187021618Y-83314301D01*
X187014332Y-83285185D01*
X186954135Y-83185667D01*
X186865419Y-83126772D01*
X186761715Y-83111470D01*
X186656554Y-83142729D01*
X186590940Y-83192274D01*
X186556639Y-83228184D01*
X186533471Y-83262355D01*
X186519253Y-83306236D01*
X186511798Y-83371273D01*
X186508924Y-83468916D01*
X186508444Y-83610613D01*
X186508444Y-83624596D01*
X186514172Y-83852020D01*
X186531513Y-84026837D01*
X186553054Y-84127711D01*
X186577223Y-84191756D01*
X186623793Y-84298048D01*
X186689064Y-84438787D01*
X186769337Y-84606175D01*
X186860910Y-84792412D01*
X186960083Y-84989699D01*
X186987971Y-85044413D01*
X187116382Y-85296205D01*
X187221385Y-85505150D01*
X187305440Y-85678569D01*
X187371005Y-85823784D01*
X187420541Y-85948116D01*
X187456505Y-86058888D01*
X187481357Y-86163419D01*
X187497555Y-86269033D01*
X187507559Y-86383051D01*
X187513828Y-86512794D01*
X187517434Y-86620879D01*
X187521675Y-86848814D01*
X187517600Y-87029440D01*
X187503790Y-87171469D01*
X187478825Y-87283615D01*
X187441284Y-87374591D01*
X187389749Y-87453109D01*
X187379800Y-87465474D01*
X187268718Y-87573486D01*
X187138311Y-87645183D01*
X186976643Y-87685662D01*
X186834361Y-87698330D01*
X186709257Y-87699407D01*
X186590436Y-87693331D01*
X186501547Y-87681398D01*
X186494387Y-87679727D01*
X186325926Y-87609722D01*
X186188427Y-87494359D01*
X186100156Y-87362602D01*
X186071021Y-87300008D01*
X186051110Y-87241504D01*
X186038729Y-87174434D01*
X186032180Y-87086142D01*
X186029767Y-86963972D01*
X186029666Y-86836626D01*
X186032928Y-86645023D01*
X186041751Y-86506369D01*
X186056410Y-86417416D01*
X186067862Y-86387015D01*
X186114431Y-86339124D01*
X186200720Y-86281598D01*
X186306751Y-86226496D01*
X186508444Y-86133074D01*
X186508444Y-87093453D01*
X186590940Y-87175949D01*
X186689040Y-87241048D01*
X186793166Y-87256659D01*
X186891714Y-87226916D01*
X186973084Y-87155953D01*
X187025672Y-87047902D01*
X187032397Y-87018662D01*
X187039017Y-86948904D01*
X187042166Y-86838491D01*
X187041654Y-86703115D01*
X187037831Y-86571096D01*
X187031905Y-86452087D01*
X187023072Y-86348137D01*
X187008688Y-86251933D01*
X186986112Y-86156165D01*
X186952699Y-86053522D01*
X186905808Y-85936691D01*
X186842795Y-85798361D01*
X186761017Y-85631221D01*
X186657832Y-85427959D01*
X186546668Y-85212334D01*
X186417563Y-84962323D01*
X186311954Y-84755085D01*
X186227480Y-84583223D01*
X186161779Y-84439338D01*
X186112486Y-84316030D01*
X186077239Y-84205903D01*
X186053676Y-84101557D01*
X186039434Y-83995595D01*
X186032150Y-83880617D01*
X186029460Y-83749225D01*
X186029003Y-83594022D01*
X186029001Y-83591411D01*
X186029676Y-83419766D01*
X186032772Y-83293587D01*
X186039444Y-83201908D01*
X186050843Y-83133765D01*
X186068122Y-83078193D01*
X186087592Y-83034097D01*
X186192218Y-82878058D01*
X186334199Y-82763833D01*
X186512411Y-82691938D01*
X186725732Y-82662892D01*
X186884459Y-82667381D01*
X186884459Y-82667381D01*
G37*
X186884459Y-82667381D02*
X187086940Y-82707745D01*
X187253049Y-82790692D01*
X187381140Y-82914310D01*
X187469567Y-83076686D01*
X187516685Y-83275907D01*
X187524444Y-83411503D01*
X187511749Y-83568232D01*
X187469846Y-83684543D01*
X187393007Y-83771348D01*
X187307801Y-83824261D01*
X187190955Y-83882585D01*
X187115032Y-83912735D01*
X187071236Y-83908958D01*
X187050771Y-83865498D01*
X187044843Y-83776602D01*
X187044666Y-83652114D01*
X187041623Y-83521548D01*
X187033458Y-83403110D01*
X187021618Y-83314301D01*
X187014332Y-83285185D01*
X186954135Y-83185667D01*
X186865419Y-83126772D01*
X186761715Y-83111470D01*
X186656554Y-83142729D01*
X186590940Y-83192274D01*
X186556639Y-83228184D01*
X186533471Y-83262355D01*
X186519253Y-83306236D01*
X186511798Y-83371273D01*
X186508924Y-83468916D01*
X186508444Y-83610613D01*
X186508444Y-83624596D01*
X186514172Y-83852020D01*
X186531513Y-84026837D01*
X186553054Y-84127711D01*
X186577223Y-84191756D01*
X186623793Y-84298048D01*
X186689064Y-84438787D01*
X186769337Y-84606175D01*
X186860910Y-84792412D01*
X186960083Y-84989699D01*
X186987971Y-85044413D01*
X187116382Y-85296205D01*
X187221385Y-85505150D01*
X187305440Y-85678569D01*
X187371005Y-85823784D01*
X187420541Y-85948116D01*
X187456505Y-86058888D01*
X187481357Y-86163419D01*
X187497555Y-86269033D01*
X187507559Y-86383051D01*
X187513828Y-86512794D01*
X187517434Y-86620879D01*
X187521675Y-86848814D01*
X187517600Y-87029440D01*
X187503790Y-87171469D01*
X187478825Y-87283615D01*
X187441284Y-87374591D01*
X187389749Y-87453109D01*
X187379800Y-87465474D01*
X187268718Y-87573486D01*
X187138311Y-87645183D01*
X186976643Y-87685662D01*
X186834361Y-87698330D01*
X186709257Y-87699407D01*
X186590436Y-87693331D01*
X186501547Y-87681398D01*
X186494387Y-87679727D01*
X186325926Y-87609722D01*
X186188427Y-87494359D01*
X186100156Y-87362602D01*
X186071021Y-87300008D01*
X186051110Y-87241504D01*
X186038729Y-87174434D01*
X186032180Y-87086142D01*
X186029767Y-86963972D01*
X186029666Y-86836626D01*
X186032928Y-86645023D01*
X186041751Y-86506369D01*
X186056410Y-86417416D01*
X186067862Y-86387015D01*
X186114431Y-86339124D01*
X186200720Y-86281598D01*
X186306751Y-86226496D01*
X186508444Y-86133074D01*
X186508444Y-87093453D01*
X186590940Y-87175949D01*
X186689040Y-87241048D01*
X186793166Y-87256659D01*
X186891714Y-87226916D01*
X186973084Y-87155953D01*
X187025672Y-87047902D01*
X187032397Y-87018662D01*
X187039017Y-86948904D01*
X187042166Y-86838491D01*
X187041654Y-86703115D01*
X187037831Y-86571096D01*
X187031905Y-86452087D01*
X187023072Y-86348137D01*
X187008688Y-86251933D01*
X186986112Y-86156165D01*
X186952699Y-86053522D01*
X186905808Y-85936691D01*
X186842795Y-85798361D01*
X186761017Y-85631221D01*
X186657832Y-85427959D01*
X186546668Y-85212334D01*
X186417563Y-84962323D01*
X186311954Y-84755085D01*
X186227480Y-84583223D01*
X186161779Y-84439338D01*
X186112486Y-84316030D01*
X186077239Y-84205903D01*
X186053676Y-84101557D01*
X186039434Y-83995595D01*
X186032150Y-83880617D01*
X186029460Y-83749225D01*
X186029003Y-83594022D01*
X186029001Y-83591411D01*
X186029676Y-83419766D01*
X186032772Y-83293587D01*
X186039444Y-83201908D01*
X186050843Y-83133765D01*
X186068122Y-83078193D01*
X186087592Y-83034097D01*
X186192218Y-82878058D01*
X186334199Y-82763833D01*
X186512411Y-82691938D01*
X186725732Y-82662892D01*
X186884459Y-82667381D01*
G36*
X191698998Y-87822928D02*
X192277577Y-87823056D01*
X192804428Y-87823294D01*
X193281909Y-87823662D01*
X193712379Y-87824179D01*
X194098195Y-87824864D01*
X194441716Y-87825738D01*
X194745301Y-87826821D01*
X195011307Y-87828131D01*
X195242092Y-87829689D01*
X195440015Y-87831514D01*
X195607435Y-87833627D01*
X195746708Y-87836046D01*
X195860194Y-87838792D01*
X195950251Y-87841884D01*
X196019237Y-87845342D01*
X196069510Y-87849185D01*
X196103428Y-87853434D01*
X196123350Y-87858108D01*
X196131634Y-87863226D01*
X196132222Y-87865223D01*
X196127622Y-87870510D01*
X196112251Y-87875344D01*
X196083750Y-87879747D01*
X196039761Y-87883737D01*
X195977925Y-87887334D01*
X195895885Y-87890559D01*
X195791283Y-87893429D01*
X195661759Y-87895966D01*
X195504956Y-87898189D01*
X195318516Y-87900118D01*
X195100081Y-87901771D01*
X194847291Y-87903171D01*
X194557789Y-87904334D01*
X194229218Y-87905283D01*
X193859217Y-87906035D01*
X193445430Y-87906612D01*
X192985498Y-87907032D01*
X192477063Y-87907315D01*
X191917767Y-87907482D01*
X191305250Y-87907551D01*
X191066333Y-87907556D01*
X190433668Y-87907518D01*
X189855089Y-87907389D01*
X189328238Y-87907151D01*
X188850757Y-87906783D01*
X188420287Y-87906267D01*
X188034471Y-87905581D01*
X187690950Y-87904707D01*
X187387365Y-87903625D01*
X187121359Y-87902314D01*
X186890574Y-87900756D01*
X186692651Y-87898931D01*
X186525231Y-87896818D01*
X186385958Y-87894399D01*
X186272471Y-87891653D01*
X186182415Y-87888561D01*
X186113429Y-87885104D01*
X186063156Y-87881260D01*
X186029237Y-87877011D01*
X186009315Y-87872338D01*
X186001032Y-87867219D01*
X186000444Y-87865223D01*
X186005044Y-87859936D01*
X186020415Y-87855101D01*
X186048916Y-87850698D01*
X186092905Y-87846708D01*
X186154741Y-87843111D01*
X186236781Y-87839887D01*
X186341383Y-87837016D01*
X186470907Y-87834479D01*
X186627710Y-87832256D01*
X186814150Y-87830328D01*
X187032585Y-87828674D01*
X187285375Y-87827275D01*
X187574876Y-87826111D01*
X187903448Y-87825162D01*
X188273449Y-87824410D01*
X188687236Y-87823833D01*
X189147168Y-87823413D01*
X189655603Y-87823130D01*
X190214899Y-87822963D01*
X190827415Y-87822894D01*
X191066333Y-87822889D01*
X191698998Y-87822928D01*
X191698998Y-87822928D01*
G37*
X191698998Y-87822928D02*
X192277577Y-87823056D01*
X192804428Y-87823294D01*
X193281909Y-87823662D01*
X193712379Y-87824179D01*
X194098195Y-87824864D01*
X194441716Y-87825738D01*
X194745301Y-87826821D01*
X195011307Y-87828131D01*
X195242092Y-87829689D01*
X195440015Y-87831514D01*
X195607435Y-87833627D01*
X195746708Y-87836046D01*
X195860194Y-87838792D01*
X195950251Y-87841884D01*
X196019237Y-87845342D01*
X196069510Y-87849185D01*
X196103428Y-87853434D01*
X196123350Y-87858108D01*
X196131634Y-87863226D01*
X196132222Y-87865223D01*
X196127622Y-87870510D01*
X196112251Y-87875344D01*
X196083750Y-87879747D01*
X196039761Y-87883737D01*
X195977925Y-87887334D01*
X195895885Y-87890559D01*
X195791283Y-87893429D01*
X195661759Y-87895966D01*
X195504956Y-87898189D01*
X195318516Y-87900118D01*
X195100081Y-87901771D01*
X194847291Y-87903171D01*
X194557789Y-87904334D01*
X194229218Y-87905283D01*
X193859217Y-87906035D01*
X193445430Y-87906612D01*
X192985498Y-87907032D01*
X192477063Y-87907315D01*
X191917767Y-87907482D01*
X191305250Y-87907551D01*
X191066333Y-87907556D01*
X190433668Y-87907518D01*
X189855089Y-87907389D01*
X189328238Y-87907151D01*
X188850757Y-87906783D01*
X188420287Y-87906267D01*
X188034471Y-87905581D01*
X187690950Y-87904707D01*
X187387365Y-87903625D01*
X187121359Y-87902314D01*
X186890574Y-87900756D01*
X186692651Y-87898931D01*
X186525231Y-87896818D01*
X186385958Y-87894399D01*
X186272471Y-87891653D01*
X186182415Y-87888561D01*
X186113429Y-87885104D01*
X186063156Y-87881260D01*
X186029237Y-87877011D01*
X186009315Y-87872338D01*
X186001032Y-87867219D01*
X186000444Y-87865223D01*
X186005044Y-87859936D01*
X186020415Y-87855101D01*
X186048916Y-87850698D01*
X186092905Y-87846708D01*
X186154741Y-87843111D01*
X186236781Y-87839887D01*
X186341383Y-87837016D01*
X186470907Y-87834479D01*
X186627710Y-87832256D01*
X186814150Y-87830328D01*
X187032585Y-87828674D01*
X187285375Y-87827275D01*
X187574876Y-87826111D01*
X187903448Y-87825162D01*
X188273449Y-87824410D01*
X188687236Y-87823833D01*
X189147168Y-87823413D01*
X189655603Y-87823130D01*
X190214899Y-87822963D01*
X190827415Y-87822894D01*
X191066333Y-87822889D01*
X191698998Y-87822928D01*
G36*
X195681978Y-88071532D02*
X195726842Y-88074913D01*
X195777918Y-88076887D01*
X195779444Y-88076889D01*
X195962889Y-88076889D01*
X195965117Y-88972945D01*
X195967345Y-89869000D01*
X196560259Y-88105112D01*
X197059976Y-88105112D01*
X196980013Y-88337945D01*
X196950843Y-88422779D01*
X196906260Y-88552306D01*
X196849252Y-88717854D01*
X196782804Y-88910755D01*
X196709902Y-89122338D01*
X196633532Y-89343934D01*
X196599136Y-89443722D01*
X196298223Y-90316665D01*
X196695506Y-91622899D01*
X196775157Y-91884557D01*
X196850158Y-92130497D01*
X196918842Y-92355289D01*
X196979544Y-92553501D01*
X197030599Y-92719702D01*
X197070340Y-92848462D01*
X197097102Y-92934350D01*
X197109219Y-92971933D01*
X197109414Y-92972455D01*
X197109934Y-92993234D01*
X197085856Y-93006207D01*
X197027800Y-93013093D01*
X196926385Y-93015610D01*
X196872896Y-93015778D01*
X196619753Y-93015778D01*
X196433787Y-92387834D01*
X196369865Y-92171843D01*
X196301283Y-91939846D01*
X196233064Y-91708858D01*
X196170233Y-91495894D01*
X196117815Y-91317969D01*
X196112410Y-91299600D01*
X195977000Y-90839310D01*
X195962226Y-93015778D01*
X195483111Y-93015778D01*
X195483111Y-90602778D01*
X195482889Y-90165886D01*
X195482492Y-89782032D01*
X195482317Y-89447815D01*
X195482765Y-89159830D01*
X195484234Y-88914675D01*
X195487123Y-88708947D01*
X195491832Y-88539243D01*
X195498761Y-88402161D01*
X195508307Y-88294298D01*
X195520871Y-88212250D01*
X195536852Y-88152615D01*
X195556648Y-88111990D01*
X195580660Y-88086972D01*
X195609286Y-88074158D01*
X195642925Y-88070146D01*
X195681978Y-88071532D01*
X195681978Y-88071532D01*
G37*
X195681978Y-88071532D02*
X195726842Y-88074913D01*
X195777918Y-88076887D01*
X195779444Y-88076889D01*
X195962889Y-88076889D01*
X195965117Y-88972945D01*
X195967345Y-89869000D01*
X196560259Y-88105112D01*
X197059976Y-88105112D01*
X196980013Y-88337945D01*
X196950843Y-88422779D01*
X196906260Y-88552306D01*
X196849252Y-88717854D01*
X196782804Y-88910755D01*
X196709902Y-89122338D01*
X196633532Y-89343934D01*
X196599136Y-89443722D01*
X196298223Y-90316665D01*
X196695506Y-91622899D01*
X196775157Y-91884557D01*
X196850158Y-92130497D01*
X196918842Y-92355289D01*
X196979544Y-92553501D01*
X197030599Y-92719702D01*
X197070340Y-92848462D01*
X197097102Y-92934350D01*
X197109219Y-92971933D01*
X197109414Y-92972455D01*
X197109934Y-92993234D01*
X197085856Y-93006207D01*
X197027800Y-93013093D01*
X196926385Y-93015610D01*
X196872896Y-93015778D01*
X196619753Y-93015778D01*
X196433787Y-92387834D01*
X196369865Y-92171843D01*
X196301283Y-91939846D01*
X196233064Y-91708858D01*
X196170233Y-91495894D01*
X196117815Y-91317969D01*
X196112410Y-91299600D01*
X195977000Y-90839310D01*
X195962226Y-93015778D01*
X195483111Y-93015778D01*
X195483111Y-90602778D01*
X195482889Y-90165886D01*
X195482492Y-89782032D01*
X195482317Y-89447815D01*
X195482765Y-89159830D01*
X195484234Y-88914675D01*
X195487123Y-88708947D01*
X195491832Y-88539243D01*
X195498761Y-88402161D01*
X195508307Y-88294298D01*
X195520871Y-88212250D01*
X195536852Y-88152615D01*
X195556648Y-88111990D01*
X195580660Y-88086972D01*
X195609286Y-88074158D01*
X195642925Y-88070146D01*
X195681978Y-88071532D01*
G36*
X189097329Y-88077315D02*
X189126408Y-88092517D01*
X189150468Y-88120939D01*
X189169976Y-88166174D01*
X189185401Y-88231811D01*
X189197212Y-88321442D01*
X189205876Y-88438658D01*
X189211863Y-88587050D01*
X189215640Y-88770209D01*
X189217676Y-88991726D01*
X189218439Y-89255193D01*
X189218398Y-89564200D01*
X189218022Y-89922338D01*
X189217778Y-90333200D01*
X189217777Y-90348778D01*
X189217777Y-92507778D01*
X190296341Y-92507778D01*
X190280009Y-92572851D01*
X190244530Y-92679368D01*
X190193659Y-92791423D01*
X190137778Y-92888490D01*
X190090790Y-92946977D01*
X190067351Y-92964684D01*
X190036154Y-92978309D01*
X189989753Y-92988520D01*
X189920702Y-92995983D01*
X189821553Y-93001364D01*
X189684861Y-93005329D01*
X189503177Y-93008544D01*
X189384210Y-93010197D01*
X188738000Y-93018728D01*
X188738000Y-88076889D01*
X188921444Y-88076889D01*
X188975287Y-88075120D01*
X189022237Y-88072207D01*
X189062761Y-88071742D01*
X189097329Y-88077315D01*
X189097329Y-88077315D01*
G37*
X189097329Y-88077315D02*
X189126408Y-88092517D01*
X189150468Y-88120939D01*
X189169976Y-88166174D01*
X189185401Y-88231811D01*
X189197212Y-88321442D01*
X189205876Y-88438658D01*
X189211863Y-88587050D01*
X189215640Y-88770209D01*
X189217676Y-88991726D01*
X189218439Y-89255193D01*
X189218398Y-89564200D01*
X189218022Y-89922338D01*
X189217778Y-90333200D01*
X189217777Y-90348778D01*
X189217777Y-92507778D01*
X190296341Y-92507778D01*
X190280009Y-92572851D01*
X190244530Y-92679368D01*
X190193659Y-92791423D01*
X190137778Y-92888490D01*
X190090790Y-92946977D01*
X190067351Y-92964684D01*
X190036154Y-92978309D01*
X189989753Y-92988520D01*
X189920702Y-92995983D01*
X189821553Y-93001364D01*
X189684861Y-93005329D01*
X189503177Y-93008544D01*
X189384210Y-93010197D01*
X188738000Y-93018728D01*
X188738000Y-88076889D01*
X188921444Y-88076889D01*
X188975287Y-88075120D01*
X189022237Y-88072207D01*
X189062761Y-88071742D01*
X189097329Y-88077315D01*
G36*
X186684833Y-88077047D02*
X186848487Y-88078832D01*
X186999801Y-88083656D01*
X187126411Y-88090890D01*
X187215952Y-88099904D01*
X187245542Y-88105564D01*
X187408432Y-88175998D01*
X187535815Y-88288784D01*
X187616166Y-88413590D01*
X187693777Y-88566788D01*
X187693777Y-89395190D01*
X187693369Y-89653472D01*
X187691487Y-89861728D01*
X187687140Y-90026374D01*
X187679342Y-90153826D01*
X187667102Y-90250502D01*
X187649434Y-90322816D01*
X187625347Y-90377185D01*
X187593853Y-90420026D01*
X187553964Y-90457755D01*
X187526662Y-90479769D01*
X187437394Y-90549631D01*
X187511699Y-90589398D01*
X187572841Y-90640576D01*
X187629967Y-90716795D01*
X187639891Y-90734792D01*
X187655382Y-90768955D01*
X187667603Y-90808298D01*
X187676936Y-90859564D01*
X187683765Y-90929496D01*
X187688472Y-91024840D01*
X187691441Y-91152337D01*
X187693056Y-91318733D01*
X187693699Y-91530771D01*
X187693777Y-91683149D01*
X187693777Y-92525879D01*
X187616166Y-92679077D01*
X187513818Y-92829083D01*
X187379986Y-92933393D01*
X187245542Y-92987103D01*
X187182493Y-92996848D01*
X187075371Y-93005168D01*
X186936537Y-93011434D01*
X186778357Y-93015019D01*
X186684833Y-93015621D01*
X186226222Y-93015778D01*
X186226222Y-92507778D01*
X186706000Y-92507778D01*
X186890727Y-92507778D01*
X186997278Y-92504676D01*
X187066108Y-92491996D01*
X187115762Y-92464683D01*
X187144727Y-92438505D01*
X187214000Y-92369233D01*
X187214000Y-91649857D01*
X187213886Y-91430021D01*
X187213147Y-91259473D01*
X187211181Y-91131056D01*
X187207390Y-91037613D01*
X187201175Y-90971987D01*
X187191936Y-90927023D01*
X187179073Y-90895562D01*
X187161987Y-90870449D01*
X187147246Y-90852876D01*
X187102209Y-90809256D01*
X187049163Y-90783595D01*
X186969969Y-90769502D01*
X186893246Y-90763348D01*
X186706000Y-90751425D01*
X186706000Y-92507778D01*
X186226222Y-92507778D01*
X186226222Y-88584889D01*
X186706000Y-88584889D01*
X186706000Y-90306445D01*
X186890727Y-90306445D01*
X186997278Y-90303342D01*
X187066108Y-90290663D01*
X187115762Y-90263350D01*
X187144727Y-90237172D01*
X187214000Y-90167899D01*
X187214000Y-88723435D01*
X187144727Y-88654162D01*
X187097660Y-88615369D01*
X187042792Y-88594312D01*
X186961580Y-88585934D01*
X186890727Y-88584889D01*
X186706000Y-88584889D01*
X186226222Y-88584889D01*
X186226222Y-88076889D01*
X186684833Y-88077047D01*
X186684833Y-88077047D01*
G37*
X186684833Y-88077047D02*
X186848487Y-88078832D01*
X186999801Y-88083656D01*
X187126411Y-88090890D01*
X187215952Y-88099904D01*
X187245542Y-88105564D01*
X187408432Y-88175998D01*
X187535815Y-88288784D01*
X187616166Y-88413590D01*
X187693777Y-88566788D01*
X187693777Y-89395190D01*
X187693369Y-89653472D01*
X187691487Y-89861728D01*
X187687140Y-90026374D01*
X187679342Y-90153826D01*
X187667102Y-90250502D01*
X187649434Y-90322816D01*
X187625347Y-90377185D01*
X187593853Y-90420026D01*
X187553964Y-90457755D01*
X187526662Y-90479769D01*
X187437394Y-90549631D01*
X187511699Y-90589398D01*
X187572841Y-90640576D01*
X187629967Y-90716795D01*
X187639891Y-90734792D01*
X187655382Y-90768955D01*
X187667603Y-90808298D01*
X187676936Y-90859564D01*
X187683765Y-90929496D01*
X187688472Y-91024840D01*
X187691441Y-91152337D01*
X187693056Y-91318733D01*
X187693699Y-91530771D01*
X187693777Y-91683149D01*
X187693777Y-92525879D01*
X187616166Y-92679077D01*
X187513818Y-92829083D01*
X187379986Y-92933393D01*
X187245542Y-92987103D01*
X187182493Y-92996848D01*
X187075371Y-93005168D01*
X186936537Y-93011434D01*
X186778357Y-93015019D01*
X186684833Y-93015621D01*
X186226222Y-93015778D01*
X186226222Y-92507778D01*
X186706000Y-92507778D01*
X186890727Y-92507778D01*
X186997278Y-92504676D01*
X187066108Y-92491996D01*
X187115762Y-92464683D01*
X187144727Y-92438505D01*
X187214000Y-92369233D01*
X187214000Y-91649857D01*
X187213886Y-91430021D01*
X187213147Y-91259473D01*
X187211181Y-91131056D01*
X187207390Y-91037613D01*
X187201175Y-90971987D01*
X187191936Y-90927023D01*
X187179073Y-90895562D01*
X187161987Y-90870449D01*
X187147246Y-90852876D01*
X187102209Y-90809256D01*
X187049163Y-90783595D01*
X186969969Y-90769502D01*
X186893246Y-90763348D01*
X186706000Y-90751425D01*
X186706000Y-92507778D01*
X186226222Y-92507778D01*
X186226222Y-88584889D01*
X186706000Y-88584889D01*
X186706000Y-90306445D01*
X186890727Y-90306445D01*
X186997278Y-90303342D01*
X187066108Y-90290663D01*
X187115762Y-90263350D01*
X187144727Y-90237172D01*
X187214000Y-90167899D01*
X187214000Y-88723435D01*
X187144727Y-88654162D01*
X187097660Y-88615369D01*
X187042792Y-88594312D01*
X186961580Y-88585934D01*
X186890727Y-88584889D01*
X186706000Y-88584889D01*
X186226222Y-88584889D01*
X186226222Y-88076889D01*
X186684833Y-88077047D01*
G36*
X193984541Y-88044846D02*
X194001444Y-88048138D01*
X194106876Y-88075427D01*
X194186166Y-88114707D01*
X194264170Y-88179949D01*
X194300266Y-88216123D01*
X194365673Y-88290019D01*
X194414886Y-88365123D01*
X194450113Y-88450873D01*
X194473560Y-88556708D01*
X194487434Y-88692065D01*
X194493943Y-88866383D01*
X194495333Y-89050344D01*
X194494131Y-89244180D01*
X194488171Y-89390532D01*
X194473927Y-89498348D01*
X194447869Y-89576575D01*
X194406470Y-89634159D01*
X194346201Y-89680047D01*
X194263534Y-89723188D01*
X194222561Y-89742063D01*
X194130345Y-89783285D01*
X194060505Y-89813395D01*
X194026717Y-89826514D01*
X194025763Y-89826667D01*
X194022736Y-89799817D01*
X194020067Y-89724752D01*
X194017895Y-89609704D01*
X194016361Y-89462902D01*
X194015608Y-89292576D01*
X194015555Y-89231829D01*
X194015555Y-88636992D01*
X193933059Y-88554496D01*
X193830916Y-88486587D01*
X193720169Y-88472247D01*
X193610657Y-88511868D01*
X193572629Y-88540103D01*
X193493444Y-88608205D01*
X193485795Y-90494268D01*
X193484444Y-90901101D01*
X193483940Y-91254172D01*
X193484318Y-91556157D01*
X193485610Y-91809732D01*
X193487852Y-92017574D01*
X193491078Y-92182359D01*
X193495321Y-92306764D01*
X193500615Y-92393465D01*
X193506996Y-92445139D01*
X193510851Y-92459290D01*
X193577165Y-92556608D01*
X193669598Y-92610895D01*
X193775035Y-92619699D01*
X193880363Y-92580573D01*
X193933059Y-92538171D01*
X194015555Y-92455676D01*
X194015971Y-92023116D01*
X194018807Y-91812457D01*
X194026894Y-91657193D01*
X194040290Y-91556515D01*
X194051852Y-91520000D01*
X194098256Y-91466968D01*
X194181067Y-91404999D01*
X194283678Y-91344523D01*
X194389478Y-91295973D01*
X194431833Y-91281356D01*
X194495333Y-91262197D01*
X194495333Y-91872490D01*
X194494342Y-92111536D01*
X194490352Y-92301918D01*
X194481834Y-92451398D01*
X194467262Y-92567736D01*
X194445107Y-92658695D01*
X194413844Y-92732034D01*
X194371944Y-92795517D01*
X194317880Y-92856903D01*
X194297535Y-92877597D01*
X194203422Y-92961541D01*
X194116170Y-93011762D01*
X194018854Y-93040656D01*
X193860336Y-93063007D01*
X193691698Y-93067899D01*
X193539794Y-93055068D01*
X193493444Y-93045833D01*
X193324984Y-92978833D01*
X193183956Y-92871095D01*
X193080010Y-92731807D01*
X193030270Y-92604764D01*
X193024073Y-92551569D01*
X193018543Y-92447698D01*
X193013680Y-92298911D01*
X193009483Y-92110974D01*
X193005953Y-91889649D01*
X193003090Y-91640698D01*
X193000894Y-91369885D01*
X192999365Y-91082974D01*
X192998502Y-90785726D01*
X192998307Y-90483906D01*
X192998778Y-90183275D01*
X192999916Y-89889599D01*
X193001721Y-89608638D01*
X193004192Y-89346157D01*
X193007330Y-89107919D01*
X193011136Y-88899687D01*
X193015608Y-88727223D01*
X193020746Y-88596290D01*
X193026552Y-88512653D01*
X193030270Y-88487904D01*
X193093449Y-88340802D01*
X193198483Y-88208579D01*
X193330859Y-88109096D01*
X193343458Y-88102440D01*
X193473195Y-88057359D01*
X193636583Y-88031635D01*
X193813679Y-88026916D01*
X193984541Y-88044846D01*
X193984541Y-88044846D01*
G37*
X193984541Y-88044846D02*
X194001444Y-88048138D01*
X194106876Y-88075427D01*
X194186166Y-88114707D01*
X194264170Y-88179949D01*
X194300266Y-88216123D01*
X194365673Y-88290019D01*
X194414886Y-88365123D01*
X194450113Y-88450873D01*
X194473560Y-88556708D01*
X194487434Y-88692065D01*
X194493943Y-88866383D01*
X194495333Y-89050344D01*
X194494131Y-89244180D01*
X194488171Y-89390532D01*
X194473927Y-89498348D01*
X194447869Y-89576575D01*
X194406470Y-89634159D01*
X194346201Y-89680047D01*
X194263534Y-89723188D01*
X194222561Y-89742063D01*
X194130345Y-89783285D01*
X194060505Y-89813395D01*
X194026717Y-89826514D01*
X194025763Y-89826667D01*
X194022736Y-89799817D01*
X194020067Y-89724752D01*
X194017895Y-89609704D01*
X194016361Y-89462902D01*
X194015608Y-89292576D01*
X194015555Y-89231829D01*
X194015555Y-88636992D01*
X193933059Y-88554496D01*
X193830916Y-88486587D01*
X193720169Y-88472247D01*
X193610657Y-88511868D01*
X193572629Y-88540103D01*
X193493444Y-88608205D01*
X193485795Y-90494268D01*
X193484444Y-90901101D01*
X193483940Y-91254172D01*
X193484318Y-91556157D01*
X193485610Y-91809732D01*
X193487852Y-92017574D01*
X193491078Y-92182359D01*
X193495321Y-92306764D01*
X193500615Y-92393465D01*
X193506996Y-92445139D01*
X193510851Y-92459290D01*
X193577165Y-92556608D01*
X193669598Y-92610895D01*
X193775035Y-92619699D01*
X193880363Y-92580573D01*
X193933059Y-92538171D01*
X194015555Y-92455676D01*
X194015971Y-92023116D01*
X194018807Y-91812457D01*
X194026894Y-91657193D01*
X194040290Y-91556515D01*
X194051852Y-91520000D01*
X194098256Y-91466968D01*
X194181067Y-91404999D01*
X194283678Y-91344523D01*
X194389478Y-91295973D01*
X194431833Y-91281356D01*
X194495333Y-91262197D01*
X194495333Y-91872490D01*
X194494342Y-92111536D01*
X194490352Y-92301918D01*
X194481834Y-92451398D01*
X194467262Y-92567736D01*
X194445107Y-92658695D01*
X194413844Y-92732034D01*
X194371944Y-92795517D01*
X194317880Y-92856903D01*
X194297535Y-92877597D01*
X194203422Y-92961541D01*
X194116170Y-93011762D01*
X194018854Y-93040656D01*
X193860336Y-93063007D01*
X193691698Y-93067899D01*
X193539794Y-93055068D01*
X193493444Y-93045833D01*
X193324984Y-92978833D01*
X193183956Y-92871095D01*
X193080010Y-92731807D01*
X193030270Y-92604764D01*
X193024073Y-92551569D01*
X193018543Y-92447698D01*
X193013680Y-92298911D01*
X193009483Y-92110974D01*
X193005953Y-91889649D01*
X193003090Y-91640698D01*
X193000894Y-91369885D01*
X192999365Y-91082974D01*
X192998502Y-90785726D01*
X192998307Y-90483906D01*
X192998778Y-90183275D01*
X192999916Y-89889599D01*
X193001721Y-89608638D01*
X193004192Y-89346157D01*
X193007330Y-89107919D01*
X193011136Y-88899687D01*
X193015608Y-88727223D01*
X193020746Y-88596290D01*
X193026552Y-88512653D01*
X193030270Y-88487904D01*
X193093449Y-88340802D01*
X193198483Y-88208579D01*
X193330859Y-88109096D01*
X193343458Y-88102440D01*
X193473195Y-88057359D01*
X193636583Y-88031635D01*
X193813679Y-88026916D01*
X193984541Y-88044846D01*
G36*
X191515764Y-88036754D02*
X191625246Y-88043256D01*
X191703855Y-88056058D01*
X191764333Y-88076737D01*
X191786000Y-88087407D01*
X191931153Y-88184537D01*
X192038123Y-88306532D01*
X192078024Y-88373223D01*
X192089527Y-88395303D01*
X192099478Y-88418454D01*
X192107990Y-88446698D01*
X192115174Y-88484061D01*
X192121143Y-88534566D01*
X192126010Y-88602237D01*
X192129888Y-88691098D01*
X192132888Y-88805172D01*
X192135124Y-88948484D01*
X192136707Y-89125059D01*
X192137751Y-89338918D01*
X192138367Y-89594088D01*
X192138669Y-89894590D01*
X192138768Y-90244451D01*
X192138777Y-90546334D01*
X192138757Y-90936462D01*
X192138619Y-91274171D01*
X192138253Y-91563482D01*
X192137545Y-91808421D01*
X192136382Y-92013012D01*
X192134653Y-92181277D01*
X192132246Y-92317242D01*
X192129046Y-92424930D01*
X192124942Y-92508365D01*
X192119822Y-92571571D01*
X192113573Y-92618572D01*
X192106082Y-92653392D01*
X192097237Y-92680054D01*
X192086926Y-92702583D01*
X192078024Y-92719445D01*
X191989097Y-92853797D01*
X191882706Y-92950390D01*
X191749406Y-93014129D01*
X191579750Y-93049916D01*
X191419111Y-93061488D01*
X191291253Y-93062901D01*
X191175675Y-93059542D01*
X191090328Y-93052119D01*
X191066333Y-93047579D01*
X190891832Y-92978100D01*
X190753391Y-92868582D01*
X190643290Y-92712839D01*
X190639245Y-92705334D01*
X190629028Y-92683765D01*
X190620183Y-92657372D01*
X190612590Y-92622067D01*
X190606128Y-92573765D01*
X190600675Y-92508381D01*
X190596110Y-92421829D01*
X190592312Y-92310023D01*
X190589159Y-92168878D01*
X190586531Y-91994308D01*
X190584306Y-91782227D01*
X190582362Y-91528550D01*
X190580580Y-91229191D01*
X190578837Y-90880065D01*
X190577696Y-90631000D01*
X190577394Y-90546334D01*
X191052222Y-90546334D01*
X191052577Y-90959019D01*
X191053663Y-91317204D01*
X191055512Y-91622828D01*
X191058156Y-91877830D01*
X191061627Y-92084150D01*
X191065958Y-92243727D01*
X191071179Y-92358501D01*
X191077323Y-92430412D01*
X191083747Y-92460245D01*
X191158834Y-92550098D01*
X191265002Y-92606035D01*
X191385300Y-92623786D01*
X191502775Y-92599078D01*
X191544992Y-92576472D01*
X191603168Y-92517495D01*
X191642777Y-92445260D01*
X191649048Y-92399043D01*
X191654626Y-92302293D01*
X191659511Y-92160916D01*
X191663704Y-91980821D01*
X191667205Y-91767913D01*
X191670013Y-91528100D01*
X191672129Y-91267288D01*
X191673552Y-90991385D01*
X191674282Y-90706298D01*
X191674320Y-90417934D01*
X191673666Y-90132199D01*
X191672318Y-89855001D01*
X191670279Y-89592246D01*
X191667547Y-89349842D01*
X191664122Y-89133696D01*
X191660005Y-88949714D01*
X191655195Y-88803804D01*
X191649693Y-88701873D01*
X191643498Y-88649827D01*
X191642777Y-88647407D01*
X191583755Y-88552892D01*
X191493743Y-88493443D01*
X191386266Y-88469424D01*
X191274848Y-88481197D01*
X191173015Y-88529125D01*
X191094290Y-88613570D01*
X191083747Y-88632423D01*
X191076735Y-88666988D01*
X191070675Y-88742650D01*
X191065535Y-88861350D01*
X191061283Y-89025025D01*
X191057887Y-89235617D01*
X191055315Y-89495064D01*
X191053535Y-89805306D01*
X191052516Y-90168283D01*
X191052222Y-90546334D01*
X190577394Y-90546334D01*
X190576101Y-90184083D01*
X190575581Y-89792448D01*
X190576149Y-89454942D01*
X190577818Y-89170412D01*
X190580598Y-88937706D01*
X190584502Y-88755671D01*
X190589542Y-88623155D01*
X190595729Y-88539004D01*
X190599666Y-88512734D01*
X190662620Y-88349411D01*
X190771654Y-88207515D01*
X190917119Y-88099521D01*
X190920896Y-88097492D01*
X190980615Y-88069571D01*
X191043534Y-88051317D01*
X191123481Y-88040772D01*
X191234282Y-88035982D01*
X191362666Y-88034972D01*
X191515764Y-88036754D01*
X191515764Y-88036754D01*
G37*
X191515764Y-88036754D02*
X191625246Y-88043256D01*
X191703855Y-88056058D01*
X191764333Y-88076737D01*
X191786000Y-88087407D01*
X191931153Y-88184537D01*
X192038123Y-88306532D01*
X192078024Y-88373223D01*
X192089527Y-88395303D01*
X192099478Y-88418454D01*
X192107990Y-88446698D01*
X192115174Y-88484061D01*
X192121143Y-88534566D01*
X192126010Y-88602237D01*
X192129888Y-88691098D01*
X192132888Y-88805172D01*
X192135124Y-88948484D01*
X192136707Y-89125059D01*
X192137751Y-89338918D01*
X192138367Y-89594088D01*
X192138669Y-89894590D01*
X192138768Y-90244451D01*
X192138777Y-90546334D01*
X192138757Y-90936462D01*
X192138619Y-91274171D01*
X192138253Y-91563482D01*
X192137545Y-91808421D01*
X192136382Y-92013012D01*
X192134653Y-92181277D01*
X192132246Y-92317242D01*
X192129046Y-92424930D01*
X192124942Y-92508365D01*
X192119822Y-92571571D01*
X192113573Y-92618572D01*
X192106082Y-92653392D01*
X192097237Y-92680054D01*
X192086926Y-92702583D01*
X192078024Y-92719445D01*
X191989097Y-92853797D01*
X191882706Y-92950390D01*
X191749406Y-93014129D01*
X191579750Y-93049916D01*
X191419111Y-93061488D01*
X191291253Y-93062901D01*
X191175675Y-93059542D01*
X191090328Y-93052119D01*
X191066333Y-93047579D01*
X190891832Y-92978100D01*
X190753391Y-92868582D01*
X190643290Y-92712839D01*
X190639245Y-92705334D01*
X190629028Y-92683765D01*
X190620183Y-92657372D01*
X190612590Y-92622067D01*
X190606128Y-92573765D01*
X190600675Y-92508381D01*
X190596110Y-92421829D01*
X190592312Y-92310023D01*
X190589159Y-92168878D01*
X190586531Y-91994308D01*
X190584306Y-91782227D01*
X190582362Y-91528550D01*
X190580580Y-91229191D01*
X190578837Y-90880065D01*
X190577696Y-90631000D01*
X190577394Y-90546334D01*
X191052222Y-90546334D01*
X191052577Y-90959019D01*
X191053663Y-91317204D01*
X191055512Y-91622828D01*
X191058156Y-91877830D01*
X191061627Y-92084150D01*
X191065958Y-92243727D01*
X191071179Y-92358501D01*
X191077323Y-92430412D01*
X191083747Y-92460245D01*
X191158834Y-92550098D01*
X191265002Y-92606035D01*
X191385300Y-92623786D01*
X191502775Y-92599078D01*
X191544992Y-92576472D01*
X191603168Y-92517495D01*
X191642777Y-92445260D01*
X191649048Y-92399043D01*
X191654626Y-92302293D01*
X191659511Y-92160916D01*
X191663704Y-91980821D01*
X191667205Y-91767913D01*
X191670013Y-91528100D01*
X191672129Y-91267288D01*
X191673552Y-90991385D01*
X191674282Y-90706298D01*
X191674320Y-90417934D01*
X191673666Y-90132199D01*
X191672318Y-89855001D01*
X191670279Y-89592246D01*
X191667547Y-89349842D01*
X191664122Y-89133696D01*
X191660005Y-88949714D01*
X191655195Y-88803804D01*
X191649693Y-88701873D01*
X191643498Y-88649827D01*
X191642777Y-88647407D01*
X191583755Y-88552892D01*
X191493743Y-88493443D01*
X191386266Y-88469424D01*
X191274848Y-88481197D01*
X191173015Y-88529125D01*
X191094290Y-88613570D01*
X191083747Y-88632423D01*
X191076735Y-88666988D01*
X191070675Y-88742650D01*
X191065535Y-88861350D01*
X191061283Y-89025025D01*
X191057887Y-89235617D01*
X191055315Y-89495064D01*
X191053535Y-89805306D01*
X191052516Y-90168283D01*
X191052222Y-90546334D01*
X190577394Y-90546334D01*
X190576101Y-90184083D01*
X190575581Y-89792448D01*
X190576149Y-89454942D01*
X190577818Y-89170412D01*
X190580598Y-88937706D01*
X190584502Y-88755671D01*
X190589542Y-88623155D01*
X190595729Y-88539004D01*
X190599666Y-88512734D01*
X190662620Y-88349411D01*
X190771654Y-88207515D01*
X190917119Y-88099521D01*
X190920896Y-88097492D01*
X190980615Y-88069571D01*
X191043534Y-88051317D01*
X191123481Y-88040772D01*
X191234282Y-88035982D01*
X191362666Y-88034972D01*
X191515764Y-88036754D01*
G36*
X192268218Y-93185141D02*
X192935959Y-93185237D01*
X193551411Y-93185415D01*
X194116651Y-93185687D01*
X194633758Y-93186067D01*
X195104810Y-93186568D01*
X195531883Y-93187204D01*
X195917055Y-93187988D01*
X196262405Y-93188934D01*
X196570011Y-93190055D01*
X196841949Y-93191365D01*
X197080297Y-93192877D01*
X197287134Y-93194604D01*
X197464537Y-93196560D01*
X197614583Y-93198759D01*
X197739351Y-93201214D01*
X197840918Y-93203938D01*
X197921361Y-93206945D01*
X197982760Y-93210249D01*
X198027190Y-93213862D01*
X198056731Y-93217798D01*
X198073460Y-93222071D01*
X198079453Y-93226695D01*
X198079555Y-93227445D01*
X198075042Y-93232124D01*
X198060116Y-93236450D01*
X198032702Y-93240438D01*
X197990719Y-93244101D01*
X197932092Y-93247451D01*
X197854742Y-93250503D01*
X197756591Y-93253271D01*
X197635562Y-93255766D01*
X197489577Y-93258004D01*
X197316559Y-93259997D01*
X197114429Y-93261759D01*
X196881109Y-93263303D01*
X196614523Y-93264644D01*
X196312593Y-93265793D01*
X195973240Y-93266765D01*
X195594387Y-93267574D01*
X195173956Y-93268232D01*
X194709870Y-93268753D01*
X194200051Y-93269151D01*
X193642421Y-93269439D01*
X193034902Y-93269630D01*
X192375417Y-93269739D01*
X191661888Y-93269778D01*
X191546111Y-93269778D01*
X190824003Y-93269749D01*
X190156262Y-93269652D01*
X189540811Y-93269475D01*
X188975570Y-93269203D01*
X188458463Y-93268823D01*
X187987412Y-93268321D01*
X187560339Y-93267686D01*
X187175166Y-93266901D01*
X186829816Y-93265955D01*
X186522211Y-93264834D01*
X186250273Y-93263525D01*
X186011924Y-93262013D01*
X185805088Y-93260286D01*
X185627685Y-93258329D01*
X185477638Y-93256130D01*
X185352871Y-93253676D01*
X185251304Y-93250951D01*
X185170860Y-93247944D01*
X185109462Y-93244641D01*
X185065031Y-93241028D01*
X185035490Y-93237091D01*
X185018762Y-93232818D01*
X185012768Y-93228195D01*
X185012666Y-93227445D01*
X185017180Y-93222766D01*
X185032105Y-93218439D01*
X185059520Y-93214452D01*
X185101502Y-93210789D01*
X185160130Y-93207438D01*
X185237480Y-93204386D01*
X185335630Y-93201619D01*
X185456659Y-93199123D01*
X185602644Y-93196886D01*
X185775663Y-93194893D01*
X185977793Y-93193131D01*
X186211112Y-93191586D01*
X186477698Y-93190246D01*
X186779629Y-93189097D01*
X187118981Y-93188124D01*
X187497834Y-93187316D01*
X187918265Y-93186658D01*
X188382351Y-93186137D01*
X188892170Y-93185739D01*
X189449801Y-93185451D01*
X190057319Y-93185259D01*
X190716805Y-93185151D01*
X191430334Y-93185112D01*
X191546111Y-93185112D01*
X192268218Y-93185141D01*
X192268218Y-93185141D01*
G37*
X192268218Y-93185141D02*
X192935959Y-93185237D01*
X193551411Y-93185415D01*
X194116651Y-93185687D01*
X194633758Y-93186067D01*
X195104810Y-93186568D01*
X195531883Y-93187204D01*
X195917055Y-93187988D01*
X196262405Y-93188934D01*
X196570011Y-93190055D01*
X196841949Y-93191365D01*
X197080297Y-93192877D01*
X197287134Y-93194604D01*
X197464537Y-93196560D01*
X197614583Y-93198759D01*
X197739351Y-93201214D01*
X197840918Y-93203938D01*
X197921361Y-93206945D01*
X197982760Y-93210249D01*
X198027190Y-93213862D01*
X198056731Y-93217798D01*
X198073460Y-93222071D01*
X198079453Y-93226695D01*
X198079555Y-93227445D01*
X198075042Y-93232124D01*
X198060116Y-93236450D01*
X198032702Y-93240438D01*
X197990719Y-93244101D01*
X197932092Y-93247451D01*
X197854742Y-93250503D01*
X197756591Y-93253271D01*
X197635562Y-93255766D01*
X197489577Y-93258004D01*
X197316559Y-93259997D01*
X197114429Y-93261759D01*
X196881109Y-93263303D01*
X196614523Y-93264644D01*
X196312593Y-93265793D01*
X195973240Y-93266765D01*
X195594387Y-93267574D01*
X195173956Y-93268232D01*
X194709870Y-93268753D01*
X194200051Y-93269151D01*
X193642421Y-93269439D01*
X193034902Y-93269630D01*
X192375417Y-93269739D01*
X191661888Y-93269778D01*
X191546111Y-93269778D01*
X190824003Y-93269749D01*
X190156262Y-93269652D01*
X189540811Y-93269475D01*
X188975570Y-93269203D01*
X188458463Y-93268823D01*
X187987412Y-93268321D01*
X187560339Y-93267686D01*
X187175166Y-93266901D01*
X186829816Y-93265955D01*
X186522211Y-93264834D01*
X186250273Y-93263525D01*
X186011924Y-93262013D01*
X185805088Y-93260286D01*
X185627685Y-93258329D01*
X185477638Y-93256130D01*
X185352871Y-93253676D01*
X185251304Y-93250951D01*
X185170860Y-93247944D01*
X185109462Y-93244641D01*
X185065031Y-93241028D01*
X185035490Y-93237091D01*
X185018762Y-93232818D01*
X185012768Y-93228195D01*
X185012666Y-93227445D01*
X185017180Y-93222766D01*
X185032105Y-93218439D01*
X185059520Y-93214452D01*
X185101502Y-93210789D01*
X185160130Y-93207438D01*
X185237480Y-93204386D01*
X185335630Y-93201619D01*
X185456659Y-93199123D01*
X185602644Y-93196886D01*
X185775663Y-93194893D01*
X185977793Y-93193131D01*
X186211112Y-93191586D01*
X186477698Y-93190246D01*
X186779629Y-93189097D01*
X187118981Y-93188124D01*
X187497834Y-93187316D01*
X187918265Y-93186658D01*
X188382351Y-93186137D01*
X188892170Y-93185739D01*
X189449801Y-93185451D01*
X190057319Y-93185259D01*
X190716805Y-93185151D01*
X191430334Y-93185112D01*
X191546111Y-93185112D01*
X192268218Y-93185141D01*
%TD*%
%TO.C,J5*%
D16*
X202556523Y-114127333D02*
X203463666Y-114127333D01*
X203645095Y-114187809D01*
X203766047Y-114308761D01*
X203826523Y-114490190D01*
X203826523Y-114611142D01*
X202556523Y-112917809D02*
X202556523Y-113522571D01*
X203161285Y-113583047D01*
X203100809Y-113522571D01*
X203040333Y-113401619D01*
X203040333Y-113099238D01*
X203100809Y-112978285D01*
X203161285Y-112917809D01*
X203282238Y-112857333D01*
X203584619Y-112857333D01*
X203705571Y-112917809D01*
X203766047Y-112978285D01*
X203826523Y-113099238D01*
X203826523Y-113401619D01*
X203766047Y-113522571D01*
X203705571Y-113583047D01*
%TO.C,J3*%
X184920666Y-135372523D02*
X184920666Y-136279666D01*
X184860190Y-136461095D01*
X184739238Y-136582047D01*
X184557809Y-136642523D01*
X184436857Y-136642523D01*
X185404476Y-135372523D02*
X186190666Y-135372523D01*
X185767333Y-135856333D01*
X185948761Y-135856333D01*
X186069714Y-135916809D01*
X186130190Y-135977285D01*
X186190666Y-136098238D01*
X186190666Y-136400619D01*
X186130190Y-136521571D01*
X186069714Y-136582047D01*
X185948761Y-136642523D01*
X185585904Y-136642523D01*
X185464952Y-136582047D01*
X185404476Y-136521571D01*
%TO.C,TP1*%
D10*
X133472595Y-65860880D02*
X134044023Y-65860880D01*
X133758309Y-66860880D02*
X133758309Y-65860880D01*
X134377357Y-66860880D02*
X134377357Y-65860880D01*
X134758309Y-65860880D01*
X134853547Y-65908500D01*
X134901166Y-65956119D01*
X134948785Y-66051357D01*
X134948785Y-66194214D01*
X134901166Y-66289452D01*
X134853547Y-66337071D01*
X134758309Y-66384690D01*
X134377357Y-66384690D01*
X135901166Y-66860880D02*
X135329738Y-66860880D01*
X135615452Y-66860880D02*
X135615452Y-65860880D01*
X135520214Y-66003738D01*
X135424976Y-66098976D01*
X135329738Y-66146595D01*
%TO.C,D3*%
X172038380Y-82066095D02*
X171038380Y-82066095D01*
X171038380Y-81828000D01*
X171086000Y-81685142D01*
X171181238Y-81589904D01*
X171276476Y-81542285D01*
X171466952Y-81494666D01*
X171609809Y-81494666D01*
X171800285Y-81542285D01*
X171895523Y-81589904D01*
X171990761Y-81685142D01*
X172038380Y-81828000D01*
X172038380Y-82066095D01*
X171038380Y-81161333D02*
X171038380Y-80542285D01*
X171419333Y-80875619D01*
X171419333Y-80732761D01*
X171466952Y-80637523D01*
X171514571Y-80589904D01*
X171609809Y-80542285D01*
X171847904Y-80542285D01*
X171943142Y-80589904D01*
X171990761Y-80637523D01*
X172038380Y-80732761D01*
X172038380Y-81018476D01*
X171990761Y-81113714D01*
X171943142Y-81161333D01*
%TO.C,R34*%
X174621380Y-121407357D02*
X174145190Y-121740690D01*
X174621380Y-121978785D02*
X173621380Y-121978785D01*
X173621380Y-121597833D01*
X173669000Y-121502595D01*
X173716619Y-121454976D01*
X173811857Y-121407357D01*
X173954714Y-121407357D01*
X174049952Y-121454976D01*
X174097571Y-121502595D01*
X174145190Y-121597833D01*
X174145190Y-121978785D01*
X173621380Y-121074023D02*
X173621380Y-120454976D01*
X174002333Y-120788309D01*
X174002333Y-120645452D01*
X174049952Y-120550214D01*
X174097571Y-120502595D01*
X174192809Y-120454976D01*
X174430904Y-120454976D01*
X174526142Y-120502595D01*
X174573761Y-120550214D01*
X174621380Y-120645452D01*
X174621380Y-120931166D01*
X174573761Y-121026404D01*
X174526142Y-121074023D01*
X173954714Y-119597833D02*
X174621380Y-119597833D01*
X173573761Y-119835928D02*
X174288047Y-120074023D01*
X174288047Y-119454976D01*
%TO.C,R35*%
X171127880Y-121724857D02*
X170651690Y-122058190D01*
X171127880Y-122296285D02*
X170127880Y-122296285D01*
X170127880Y-121915333D01*
X170175500Y-121820095D01*
X170223119Y-121772476D01*
X170318357Y-121724857D01*
X170461214Y-121724857D01*
X170556452Y-121772476D01*
X170604071Y-121820095D01*
X170651690Y-121915333D01*
X170651690Y-122296285D01*
X170127880Y-121391523D02*
X170127880Y-120772476D01*
X170508833Y-121105809D01*
X170508833Y-120962952D01*
X170556452Y-120867714D01*
X170604071Y-120820095D01*
X170699309Y-120772476D01*
X170937404Y-120772476D01*
X171032642Y-120820095D01*
X171080261Y-120867714D01*
X171127880Y-120962952D01*
X171127880Y-121248666D01*
X171080261Y-121343904D01*
X171032642Y-121391523D01*
X170127880Y-119867714D02*
X170127880Y-120343904D01*
X170604071Y-120391523D01*
X170556452Y-120343904D01*
X170508833Y-120248666D01*
X170508833Y-120010571D01*
X170556452Y-119915333D01*
X170604071Y-119867714D01*
X170699309Y-119820095D01*
X170937404Y-119820095D01*
X171032642Y-119867714D01*
X171080261Y-119915333D01*
X171127880Y-120010571D01*
X171127880Y-120248666D01*
X171080261Y-120343904D01*
X171032642Y-120391523D01*
%TO.C,R36*%
X172143880Y-76703357D02*
X171667690Y-77036690D01*
X172143880Y-77274785D02*
X171143880Y-77274785D01*
X171143880Y-76893833D01*
X171191500Y-76798595D01*
X171239119Y-76750976D01*
X171334357Y-76703357D01*
X171477214Y-76703357D01*
X171572452Y-76750976D01*
X171620071Y-76798595D01*
X171667690Y-76893833D01*
X171667690Y-77274785D01*
X171143880Y-76370023D02*
X171143880Y-75750976D01*
X171524833Y-76084309D01*
X171524833Y-75941452D01*
X171572452Y-75846214D01*
X171620071Y-75798595D01*
X171715309Y-75750976D01*
X171953404Y-75750976D01*
X172048642Y-75798595D01*
X172096261Y-75846214D01*
X172143880Y-75941452D01*
X172143880Y-76227166D01*
X172096261Y-76322404D01*
X172048642Y-76370023D01*
X171143880Y-74893833D02*
X171143880Y-75084309D01*
X171191500Y-75179547D01*
X171239119Y-75227166D01*
X171381976Y-75322404D01*
X171572452Y-75370023D01*
X171953404Y-75370023D01*
X172048642Y-75322404D01*
X172096261Y-75274785D01*
X172143880Y-75179547D01*
X172143880Y-74989071D01*
X172096261Y-74893833D01*
X172048642Y-74846214D01*
X171953404Y-74798595D01*
X171715309Y-74798595D01*
X171620071Y-74846214D01*
X171572452Y-74893833D01*
X171524833Y-74989071D01*
X171524833Y-75179547D01*
X171572452Y-75274785D01*
X171620071Y-75322404D01*
X171715309Y-75370023D01*
%TO.C,TP2*%
X174620595Y-66910880D02*
X175192023Y-66910880D01*
X174906309Y-67910880D02*
X174906309Y-66910880D01*
X175525357Y-67910880D02*
X175525357Y-66910880D01*
X175906309Y-66910880D01*
X176001547Y-66958500D01*
X176049166Y-67006119D01*
X176096785Y-67101357D01*
X176096785Y-67244214D01*
X176049166Y-67339452D01*
X176001547Y-67387071D01*
X175906309Y-67434690D01*
X175525357Y-67434690D01*
X176477738Y-67006119D02*
X176525357Y-66958500D01*
X176620595Y-66910880D01*
X176858690Y-66910880D01*
X176953928Y-66958500D01*
X177001547Y-67006119D01*
X177049166Y-67101357D01*
X177049166Y-67196595D01*
X177001547Y-67339452D01*
X176430119Y-67910880D01*
X177049166Y-67910880D01*
%TO.C,TP3*%
X169096095Y-66910880D02*
X169667523Y-66910880D01*
X169381809Y-67910880D02*
X169381809Y-66910880D01*
X170000857Y-67910880D02*
X170000857Y-66910880D01*
X170381809Y-66910880D01*
X170477047Y-66958500D01*
X170524666Y-67006119D01*
X170572285Y-67101357D01*
X170572285Y-67244214D01*
X170524666Y-67339452D01*
X170477047Y-67387071D01*
X170381809Y-67434690D01*
X170000857Y-67434690D01*
X170905619Y-66910880D02*
X171524666Y-66910880D01*
X171191333Y-67291833D01*
X171334190Y-67291833D01*
X171429428Y-67339452D01*
X171477047Y-67387071D01*
X171524666Y-67482309D01*
X171524666Y-67720404D01*
X171477047Y-67815642D01*
X171429428Y-67863261D01*
X171334190Y-67910880D01*
X171048476Y-67910880D01*
X170953238Y-67863261D01*
X170905619Y-67815642D01*
%TO.C,TP4*%
X180081595Y-66910880D02*
X180653023Y-66910880D01*
X180367309Y-67910880D02*
X180367309Y-66910880D01*
X180986357Y-67910880D02*
X180986357Y-66910880D01*
X181367309Y-66910880D01*
X181462547Y-66958500D01*
X181510166Y-67006119D01*
X181557785Y-67101357D01*
X181557785Y-67244214D01*
X181510166Y-67339452D01*
X181462547Y-67387071D01*
X181367309Y-67434690D01*
X180986357Y-67434690D01*
X182414928Y-67244214D02*
X182414928Y-67910880D01*
X182176833Y-66863261D02*
X181938738Y-67577547D01*
X182557785Y-67577547D01*
%TO.C,C32*%
X140441642Y-67845142D02*
X140394023Y-67892761D01*
X140251166Y-67940380D01*
X140155928Y-67940380D01*
X140013071Y-67892761D01*
X139917833Y-67797523D01*
X139870214Y-67702285D01*
X139822595Y-67511809D01*
X139822595Y-67368952D01*
X139870214Y-67178476D01*
X139917833Y-67083238D01*
X140013071Y-66988000D01*
X140155928Y-66940380D01*
X140251166Y-66940380D01*
X140394023Y-66988000D01*
X140441642Y-67035619D01*
X140774976Y-66940380D02*
X141394023Y-66940380D01*
X141060690Y-67321333D01*
X141203547Y-67321333D01*
X141298785Y-67368952D01*
X141346404Y-67416571D01*
X141394023Y-67511809D01*
X141394023Y-67749904D01*
X141346404Y-67845142D01*
X141298785Y-67892761D01*
X141203547Y-67940380D01*
X140917833Y-67940380D01*
X140822595Y-67892761D01*
X140774976Y-67845142D01*
X141774976Y-67035619D02*
X141822595Y-66988000D01*
X141917833Y-66940380D01*
X142155928Y-66940380D01*
X142251166Y-66988000D01*
X142298785Y-67035619D01*
X142346404Y-67130857D01*
X142346404Y-67226095D01*
X142298785Y-67368952D01*
X141727357Y-67940380D01*
X142346404Y-67940380D01*
%TO.C,C33*%
X144185142Y-84481142D02*
X144137523Y-84528761D01*
X143994666Y-84576380D01*
X143899428Y-84576380D01*
X143756571Y-84528761D01*
X143661333Y-84433523D01*
X143613714Y-84338285D01*
X143566095Y-84147809D01*
X143566095Y-84004952D01*
X143613714Y-83814476D01*
X143661333Y-83719238D01*
X143756571Y-83624000D01*
X143899428Y-83576380D01*
X143994666Y-83576380D01*
X144137523Y-83624000D01*
X144185142Y-83671619D01*
X144518476Y-83576380D02*
X145137523Y-83576380D01*
X144804190Y-83957333D01*
X144947047Y-83957333D01*
X145042285Y-84004952D01*
X145089904Y-84052571D01*
X145137523Y-84147809D01*
X145137523Y-84385904D01*
X145089904Y-84481142D01*
X145042285Y-84528761D01*
X144947047Y-84576380D01*
X144661333Y-84576380D01*
X144566095Y-84528761D01*
X144518476Y-84481142D01*
X145470857Y-83576380D02*
X146089904Y-83576380D01*
X145756571Y-83957333D01*
X145899428Y-83957333D01*
X145994666Y-84004952D01*
X146042285Y-84052571D01*
X146089904Y-84147809D01*
X146089904Y-84385904D01*
X146042285Y-84481142D01*
X145994666Y-84528761D01*
X145899428Y-84576380D01*
X145613714Y-84576380D01*
X145518476Y-84528761D01*
X145470857Y-84481142D01*
%TO.C,C11*%
X153571142Y-93403857D02*
X153618761Y-93451476D01*
X153666380Y-93594333D01*
X153666380Y-93689571D01*
X153618761Y-93832428D01*
X153523523Y-93927666D01*
X153428285Y-93975285D01*
X153237809Y-94022904D01*
X153094952Y-94022904D01*
X152904476Y-93975285D01*
X152809238Y-93927666D01*
X152714000Y-93832428D01*
X152666380Y-93689571D01*
X152666380Y-93594333D01*
X152714000Y-93451476D01*
X152761619Y-93403857D01*
X153666380Y-92451476D02*
X153666380Y-93022904D01*
X153666380Y-92737190D02*
X152666380Y-92737190D01*
X152809238Y-92832428D01*
X152904476Y-92927666D01*
X152952095Y-93022904D01*
X153666380Y-91499095D02*
X153666380Y-92070523D01*
X153666380Y-91784809D02*
X152666380Y-91784809D01*
X152809238Y-91880047D01*
X152904476Y-91975285D01*
X152952095Y-92070523D01*
%TO.C,C4*%
X152807142Y-92927666D02*
X152854761Y-92975285D01*
X152902380Y-93118142D01*
X152902380Y-93213380D01*
X152854761Y-93356238D01*
X152759523Y-93451476D01*
X152664285Y-93499095D01*
X152473809Y-93546714D01*
X152330952Y-93546714D01*
X152140476Y-93499095D01*
X152045238Y-93451476D01*
X151950000Y-93356238D01*
X151902380Y-93213380D01*
X151902380Y-93118142D01*
X151950000Y-92975285D01*
X151997619Y-92927666D01*
X152235714Y-92070523D02*
X152902380Y-92070523D01*
X151854761Y-92308619D02*
X152569047Y-92546714D01*
X152569047Y-91927666D01*
%TO.C,C2*%
X152091426Y-81534221D02*
X152043807Y-81581840D01*
X151900950Y-81629459D01*
X151805712Y-81629459D01*
X151662854Y-81581840D01*
X151567616Y-81486602D01*
X151519997Y-81391364D01*
X151472378Y-81200888D01*
X151472378Y-81058031D01*
X151519997Y-80867555D01*
X151567616Y-80772317D01*
X151662854Y-80677079D01*
X151805712Y-80629459D01*
X151900950Y-80629459D01*
X152043807Y-80677079D01*
X152091426Y-80724698D01*
X152472378Y-80724698D02*
X152519997Y-80677079D01*
X152615235Y-80629459D01*
X152853331Y-80629459D01*
X152948569Y-80677079D01*
X152996188Y-80724698D01*
X153043807Y-80819936D01*
X153043807Y-80915174D01*
X152996188Y-81058031D01*
X152424759Y-81629459D01*
X153043807Y-81629459D01*
%TO.C,C14*%
X179097142Y-93530857D02*
X179144761Y-93578476D01*
X179192380Y-93721333D01*
X179192380Y-93816571D01*
X179144761Y-93959428D01*
X179049523Y-94054666D01*
X178954285Y-94102285D01*
X178763809Y-94149904D01*
X178620952Y-94149904D01*
X178430476Y-94102285D01*
X178335238Y-94054666D01*
X178240000Y-93959428D01*
X178192380Y-93816571D01*
X178192380Y-93721333D01*
X178240000Y-93578476D01*
X178287619Y-93530857D01*
X179192380Y-92578476D02*
X179192380Y-93149904D01*
X179192380Y-92864190D02*
X178192380Y-92864190D01*
X178335238Y-92959428D01*
X178430476Y-93054666D01*
X178478095Y-93149904D01*
X178525714Y-91721333D02*
X179192380Y-91721333D01*
X178144761Y-91959428D02*
X178859047Y-92197523D01*
X178859047Y-91578476D01*
%TO.C,C13*%
X171903142Y-93435357D02*
X171950761Y-93482976D01*
X171998380Y-93625833D01*
X171998380Y-93721071D01*
X171950761Y-93863928D01*
X171855523Y-93959166D01*
X171760285Y-94006785D01*
X171569809Y-94054404D01*
X171426952Y-94054404D01*
X171236476Y-94006785D01*
X171141238Y-93959166D01*
X171046000Y-93863928D01*
X170998380Y-93721071D01*
X170998380Y-93625833D01*
X171046000Y-93482976D01*
X171093619Y-93435357D01*
X171998380Y-92482976D02*
X171998380Y-93054404D01*
X171998380Y-92768690D02*
X170998380Y-92768690D01*
X171141238Y-92863928D01*
X171236476Y-92959166D01*
X171284095Y-93054404D01*
X170998380Y-92149642D02*
X170998380Y-91530595D01*
X171379333Y-91863928D01*
X171379333Y-91721071D01*
X171426952Y-91625833D01*
X171474571Y-91578214D01*
X171569809Y-91530595D01*
X171807904Y-91530595D01*
X171903142Y-91578214D01*
X171950761Y-91625833D01*
X171998380Y-91721071D01*
X171998380Y-92006785D01*
X171950761Y-92102023D01*
X171903142Y-92149642D01*
%TO.C,C1*%
X156663426Y-81534221D02*
X156615807Y-81581840D01*
X156472950Y-81629459D01*
X156377712Y-81629459D01*
X156234854Y-81581840D01*
X156139616Y-81486602D01*
X156091997Y-81391364D01*
X156044378Y-81200888D01*
X156044378Y-81058031D01*
X156091997Y-80867555D01*
X156139616Y-80772317D01*
X156234854Y-80677079D01*
X156377712Y-80629459D01*
X156472950Y-80629459D01*
X156615807Y-80677079D01*
X156663426Y-80724698D01*
X157615807Y-81629459D02*
X157044378Y-81629459D01*
X157330093Y-81629459D02*
X157330093Y-80629459D01*
X157234854Y-80772317D01*
X157139616Y-80867555D01*
X157044378Y-80915174D01*
%TO.C,D2*%
X144855904Y-67718380D02*
X144855904Y-66718380D01*
X145094000Y-66718380D01*
X145236857Y-66766000D01*
X145332095Y-66861238D01*
X145379714Y-66956476D01*
X145427333Y-67146952D01*
X145427333Y-67289809D01*
X145379714Y-67480285D01*
X145332095Y-67575523D01*
X145236857Y-67670761D01*
X145094000Y-67718380D01*
X144855904Y-67718380D01*
X145808285Y-66813619D02*
X145855904Y-66766000D01*
X145951142Y-66718380D01*
X146189238Y-66718380D01*
X146284476Y-66766000D01*
X146332095Y-66813619D01*
X146379714Y-66908857D01*
X146379714Y-67004095D01*
X146332095Y-67146952D01*
X145760666Y-67718380D01*
X146379714Y-67718380D01*
%TO.C,U1*%
X162992095Y-83069380D02*
X162992095Y-83878904D01*
X163039714Y-83974142D01*
X163087333Y-84021761D01*
X163182571Y-84069380D01*
X163373047Y-84069380D01*
X163468285Y-84021761D01*
X163515904Y-83974142D01*
X163563523Y-83878904D01*
X163563523Y-83069380D01*
X164563523Y-84069380D02*
X163992095Y-84069380D01*
X164277809Y-84069380D02*
X164277809Y-83069380D01*
X164182571Y-83212238D01*
X164087333Y-83307476D01*
X163992095Y-83355095D01*
%TO.C,D1*%
X155415904Y-67592380D02*
X155415904Y-66592380D01*
X155654000Y-66592380D01*
X155796857Y-66640000D01*
X155892095Y-66735238D01*
X155939714Y-66830476D01*
X155987333Y-67020952D01*
X155987333Y-67163809D01*
X155939714Y-67354285D01*
X155892095Y-67449523D01*
X155796857Y-67544761D01*
X155654000Y-67592380D01*
X155415904Y-67592380D01*
X156939714Y-67592380D02*
X156368285Y-67592380D01*
X156654000Y-67592380D02*
X156654000Y-66592380D01*
X156558761Y-66735238D01*
X156463523Y-66830476D01*
X156368285Y-66878095D01*
%TO.C,Q2*%
X166500619Y-76092238D02*
X166453000Y-76187476D01*
X166357761Y-76282714D01*
X166214904Y-76425571D01*
X166167285Y-76520809D01*
X166167285Y-76616047D01*
X166405380Y-76568428D02*
X166357761Y-76663666D01*
X166262523Y-76758904D01*
X166072047Y-76806523D01*
X165738714Y-76806523D01*
X165548238Y-76758904D01*
X165453000Y-76663666D01*
X165405380Y-76568428D01*
X165405380Y-76377952D01*
X165453000Y-76282714D01*
X165548238Y-76187476D01*
X165738714Y-76139857D01*
X166072047Y-76139857D01*
X166262523Y-76187476D01*
X166357761Y-76282714D01*
X166405380Y-76377952D01*
X166405380Y-76568428D01*
X165500619Y-75758904D02*
X165453000Y-75711285D01*
X165405380Y-75616047D01*
X165405380Y-75377952D01*
X165453000Y-75282714D01*
X165500619Y-75235095D01*
X165595857Y-75187476D01*
X165691095Y-75187476D01*
X165833952Y-75235095D01*
X166405380Y-75806523D01*
X166405380Y-75187476D01*
%TO.C,Q1*%
X161547619Y-76092238D02*
X161500000Y-76187476D01*
X161404761Y-76282714D01*
X161261904Y-76425571D01*
X161214285Y-76520809D01*
X161214285Y-76616047D01*
X161452380Y-76568428D02*
X161404761Y-76663666D01*
X161309523Y-76758904D01*
X161119047Y-76806523D01*
X160785714Y-76806523D01*
X160595238Y-76758904D01*
X160500000Y-76663666D01*
X160452380Y-76568428D01*
X160452380Y-76377952D01*
X160500000Y-76282714D01*
X160595238Y-76187476D01*
X160785714Y-76139857D01*
X161119047Y-76139857D01*
X161309523Y-76187476D01*
X161404761Y-76282714D01*
X161452380Y-76377952D01*
X161452380Y-76568428D01*
X161452380Y-75187476D02*
X161452380Y-75758904D01*
X161452380Y-75473190D02*
X160452380Y-75473190D01*
X160595238Y-75568428D01*
X160690476Y-75663666D01*
X160738095Y-75758904D01*
%TO.C,R3*%
X139203333Y-91944380D02*
X138870000Y-91468190D01*
X138631904Y-91944380D02*
X138631904Y-90944380D01*
X139012857Y-90944380D01*
X139108095Y-90992000D01*
X139155714Y-91039619D01*
X139203333Y-91134857D01*
X139203333Y-91277714D01*
X139155714Y-91372952D01*
X139108095Y-91420571D01*
X139012857Y-91468190D01*
X138631904Y-91468190D01*
X139536666Y-90944380D02*
X140155714Y-90944380D01*
X139822380Y-91325333D01*
X139965238Y-91325333D01*
X140060476Y-91372952D01*
X140108095Y-91420571D01*
X140155714Y-91515809D01*
X140155714Y-91753904D01*
X140108095Y-91849142D01*
X140060476Y-91896761D01*
X139965238Y-91944380D01*
X139679523Y-91944380D01*
X139584285Y-91896761D01*
X139536666Y-91849142D01*
%TO.C,R33*%
X167556142Y-82291380D02*
X167222809Y-81815190D01*
X166984714Y-82291380D02*
X166984714Y-81291380D01*
X167365666Y-81291380D01*
X167460904Y-81339000D01*
X167508523Y-81386619D01*
X167556142Y-81481857D01*
X167556142Y-81624714D01*
X167508523Y-81719952D01*
X167460904Y-81767571D01*
X167365666Y-81815190D01*
X166984714Y-81815190D01*
X167889476Y-81291380D02*
X168508523Y-81291380D01*
X168175190Y-81672333D01*
X168318047Y-81672333D01*
X168413285Y-81719952D01*
X168460904Y-81767571D01*
X168508523Y-81862809D01*
X168508523Y-82100904D01*
X168460904Y-82196142D01*
X168413285Y-82243761D01*
X168318047Y-82291380D01*
X168032333Y-82291380D01*
X167937095Y-82243761D01*
X167889476Y-82196142D01*
X168841857Y-81291380D02*
X169460904Y-81291380D01*
X169127571Y-81672333D01*
X169270428Y-81672333D01*
X169365666Y-81719952D01*
X169413285Y-81767571D01*
X169460904Y-81862809D01*
X169460904Y-82100904D01*
X169413285Y-82196142D01*
X169365666Y-82243761D01*
X169270428Y-82291380D01*
X168984714Y-82291380D01*
X168889476Y-82243761D01*
X168841857Y-82196142D01*
%TO.C,R2*%
X155122473Y-76391745D02*
X154646283Y-76725079D01*
X155122473Y-76963174D02*
X154122473Y-76963174D01*
X154122473Y-76582221D01*
X154170093Y-76486983D01*
X154217712Y-76439364D01*
X154312950Y-76391745D01*
X154455807Y-76391745D01*
X154551045Y-76439364D01*
X154598664Y-76486983D01*
X154646283Y-76582221D01*
X154646283Y-76963174D01*
X154217712Y-76010793D02*
X154170093Y-75963174D01*
X154122473Y-75867936D01*
X154122473Y-75629840D01*
X154170093Y-75534602D01*
X154217712Y-75486983D01*
X154312950Y-75439364D01*
X154408188Y-75439364D01*
X154551045Y-75486983D01*
X155122473Y-76058412D01*
X155122473Y-75439364D01*
%TO.C,R1*%
X159694473Y-76391745D02*
X159218283Y-76725079D01*
X159694473Y-76963174D02*
X158694473Y-76963174D01*
X158694473Y-76582221D01*
X158742093Y-76486983D01*
X158789712Y-76439364D01*
X158884950Y-76391745D01*
X159027807Y-76391745D01*
X159123045Y-76439364D01*
X159170664Y-76486983D01*
X159218283Y-76582221D01*
X159218283Y-76963174D01*
X159694473Y-75439364D02*
X159694473Y-76010793D01*
X159694473Y-75725079D02*
X158694473Y-75725079D01*
X158837331Y-75820317D01*
X158932569Y-75915555D01*
X158980188Y-76010793D01*
%TO.C,R4*%
X163013332Y-81529380D02*
X162679999Y-81053190D01*
X162441903Y-81529380D02*
X162441903Y-80529380D01*
X162822856Y-80529380D01*
X162918094Y-80577000D01*
X162965713Y-80624619D01*
X163013332Y-80719857D01*
X163013332Y-80862714D01*
X162965713Y-80957952D01*
X162918094Y-81005571D01*
X162822856Y-81053190D01*
X162441903Y-81053190D01*
X163870475Y-80862714D02*
X163870475Y-81529380D01*
X163632379Y-80481761D02*
X163394284Y-81196047D01*
X164013332Y-81196047D01*
%TO.C,R13*%
X168372380Y-93735357D02*
X167896190Y-94068690D01*
X168372380Y-94306785D02*
X167372380Y-94306785D01*
X167372380Y-93925833D01*
X167420000Y-93830595D01*
X167467619Y-93782976D01*
X167562857Y-93735357D01*
X167705714Y-93735357D01*
X167800952Y-93782976D01*
X167848571Y-93830595D01*
X167896190Y-93925833D01*
X167896190Y-94306785D01*
X168372380Y-92782976D02*
X168372380Y-93354404D01*
X168372380Y-93068690D02*
X167372380Y-93068690D01*
X167515238Y-93163928D01*
X167610476Y-93259166D01*
X167658095Y-93354404D01*
X167372380Y-92449642D02*
X167372380Y-91830595D01*
X167753333Y-92163928D01*
X167753333Y-92021071D01*
X167800952Y-91925833D01*
X167848571Y-91878214D01*
X167943809Y-91830595D01*
X168181904Y-91830595D01*
X168277142Y-91878214D01*
X168324761Y-91925833D01*
X168372380Y-92021071D01*
X168372380Y-92306785D01*
X168324761Y-92402023D01*
X168277142Y-92449642D01*
%TO.C,R14*%
X161159380Y-93784857D02*
X160683190Y-94118190D01*
X161159380Y-94356285D02*
X160159380Y-94356285D01*
X160159380Y-93975333D01*
X160207000Y-93880095D01*
X160254619Y-93832476D01*
X160349857Y-93784857D01*
X160492714Y-93784857D01*
X160587952Y-93832476D01*
X160635571Y-93880095D01*
X160683190Y-93975333D01*
X160683190Y-94356285D01*
X161159380Y-92832476D02*
X161159380Y-93403904D01*
X161159380Y-93118190D02*
X160159380Y-93118190D01*
X160302238Y-93213428D01*
X160397476Y-93308666D01*
X160445095Y-93403904D01*
X160492714Y-91975333D02*
X161159380Y-91975333D01*
X160111761Y-92213428D02*
X160826047Y-92451523D01*
X160826047Y-91832476D01*
%TO.C,R15*%
X164714380Y-93657857D02*
X164238190Y-93991190D01*
X164714380Y-94229285D02*
X163714380Y-94229285D01*
X163714380Y-93848333D01*
X163762000Y-93753095D01*
X163809619Y-93705476D01*
X163904857Y-93657857D01*
X164047714Y-93657857D01*
X164142952Y-93705476D01*
X164190571Y-93753095D01*
X164238190Y-93848333D01*
X164238190Y-94229285D01*
X164714380Y-92705476D02*
X164714380Y-93276904D01*
X164714380Y-92991190D02*
X163714380Y-92991190D01*
X163857238Y-93086428D01*
X163952476Y-93181666D01*
X164000095Y-93276904D01*
X163714380Y-91800714D02*
X163714380Y-92276904D01*
X164190571Y-92324523D01*
X164142952Y-92276904D01*
X164095333Y-92181666D01*
X164095333Y-91943571D01*
X164142952Y-91848333D01*
X164190571Y-91800714D01*
X164285809Y-91753095D01*
X164523904Y-91753095D01*
X164619142Y-91800714D01*
X164666761Y-91848333D01*
X164714380Y-91943571D01*
X164714380Y-92181666D01*
X164666761Y-92276904D01*
X164619142Y-92324523D01*
%TO.C,R16*%
X175554380Y-93610857D02*
X175078190Y-93944190D01*
X175554380Y-94182285D02*
X174554380Y-94182285D01*
X174554380Y-93801333D01*
X174602000Y-93706095D01*
X174649619Y-93658476D01*
X174744857Y-93610857D01*
X174887714Y-93610857D01*
X174982952Y-93658476D01*
X175030571Y-93706095D01*
X175078190Y-93801333D01*
X175078190Y-94182285D01*
X175554380Y-92658476D02*
X175554380Y-93229904D01*
X175554380Y-92944190D02*
X174554380Y-92944190D01*
X174697238Y-93039428D01*
X174792476Y-93134666D01*
X174840095Y-93229904D01*
X174554380Y-91801333D02*
X174554380Y-91991809D01*
X174602000Y-92087047D01*
X174649619Y-92134666D01*
X174792476Y-92229904D01*
X174982952Y-92277523D01*
X175363904Y-92277523D01*
X175459142Y-92229904D01*
X175506761Y-92182285D01*
X175554380Y-92087047D01*
X175554380Y-91896571D01*
X175506761Y-91801333D01*
X175459142Y-91753714D01*
X175363904Y-91706095D01*
X175125809Y-91706095D01*
X175030571Y-91753714D01*
X174982952Y-91801333D01*
X174935333Y-91896571D01*
X174935333Y-92087047D01*
X174982952Y-92182285D01*
X175030571Y-92229904D01*
X175125809Y-92277523D01*
%TO.C,R17*%
X178938380Y-89642357D02*
X178462190Y-89975690D01*
X178938380Y-90213785D02*
X177938380Y-90213785D01*
X177938380Y-89832833D01*
X177986000Y-89737595D01*
X178033619Y-89689976D01*
X178128857Y-89642357D01*
X178271714Y-89642357D01*
X178366952Y-89689976D01*
X178414571Y-89737595D01*
X178462190Y-89832833D01*
X178462190Y-90213785D01*
X178938380Y-88689976D02*
X178938380Y-89261404D01*
X178938380Y-88975690D02*
X177938380Y-88975690D01*
X178081238Y-89070928D01*
X178176476Y-89166166D01*
X178224095Y-89261404D01*
X177938380Y-88356642D02*
X177938380Y-87689976D01*
X178938380Y-88118547D01*
%TO.C,S1*%
X130410095Y-83552761D02*
X130552952Y-83600380D01*
X130791047Y-83600380D01*
X130886285Y-83552761D01*
X130933904Y-83505142D01*
X130981523Y-83409904D01*
X130981523Y-83314666D01*
X130933904Y-83219428D01*
X130886285Y-83171809D01*
X130791047Y-83124190D01*
X130600571Y-83076571D01*
X130505333Y-83028952D01*
X130457714Y-82981333D01*
X130410095Y-82886095D01*
X130410095Y-82790857D01*
X130457714Y-82695619D01*
X130505333Y-82648000D01*
X130600571Y-82600380D01*
X130838666Y-82600380D01*
X130981523Y-82648000D01*
X131933904Y-83600380D02*
X131362476Y-83600380D01*
X131648190Y-83600380D02*
X131648190Y-82600380D01*
X131552952Y-82743238D01*
X131457714Y-82838476D01*
X131362476Y-82886095D01*
%TO.C,U3*%
X141362380Y-77139904D02*
X142171904Y-77139904D01*
X142267142Y-77092285D01*
X142314761Y-77044666D01*
X142362380Y-76949428D01*
X142362380Y-76758952D01*
X142314761Y-76663714D01*
X142267142Y-76616095D01*
X142171904Y-76568476D01*
X141362380Y-76568476D01*
X141362380Y-76187523D02*
X141362380Y-75568476D01*
X141743333Y-75901809D01*
X141743333Y-75758952D01*
X141790952Y-75663714D01*
X141838571Y-75616095D01*
X141933809Y-75568476D01*
X142171904Y-75568476D01*
X142267142Y-75616095D01*
X142314761Y-75663714D01*
X142362380Y-75758952D01*
X142362380Y-76044666D01*
X142314761Y-76139904D01*
X142267142Y-76187523D01*
%TO.C,J1*%
X165666666Y-58494380D02*
X165666666Y-59208666D01*
X165619047Y-59351523D01*
X165523809Y-59446761D01*
X165380952Y-59494380D01*
X165285714Y-59494380D01*
X166666666Y-59494380D02*
X166095238Y-59494380D01*
X166380952Y-59494380D02*
X166380952Y-58494380D01*
X166285714Y-58637238D01*
X166190476Y-58732476D01*
X166095238Y-58780095D01*
%TO.C,C5*%
X139853142Y-76290666D02*
X139900761Y-76338285D01*
X139948380Y-76481142D01*
X139948380Y-76576380D01*
X139900761Y-76719238D01*
X139805523Y-76814476D01*
X139710285Y-76862095D01*
X139519809Y-76909714D01*
X139376952Y-76909714D01*
X139186476Y-76862095D01*
X139091238Y-76814476D01*
X138996000Y-76719238D01*
X138948380Y-76576380D01*
X138948380Y-76481142D01*
X138996000Y-76338285D01*
X139043619Y-76290666D01*
X138948380Y-75385904D02*
X138948380Y-75862095D01*
X139424571Y-75909714D01*
X139376952Y-75862095D01*
X139329333Y-75766857D01*
X139329333Y-75528761D01*
X139376952Y-75433523D01*
X139424571Y-75385904D01*
X139519809Y-75338285D01*
X139757904Y-75338285D01*
X139853142Y-75385904D01*
X139900761Y-75433523D01*
X139948380Y-75528761D01*
X139948380Y-75766857D01*
X139900761Y-75862095D01*
X139853142Y-75909714D01*
%TO.C,S2*%
X130480095Y-72028761D02*
X130622952Y-72076380D01*
X130861047Y-72076380D01*
X130956285Y-72028761D01*
X131003904Y-71981142D01*
X131051523Y-71885904D01*
X131051523Y-71790666D01*
X131003904Y-71695428D01*
X130956285Y-71647809D01*
X130861047Y-71600190D01*
X130670571Y-71552571D01*
X130575333Y-71504952D01*
X130527714Y-71457333D01*
X130480095Y-71362095D01*
X130480095Y-71266857D01*
X130527714Y-71171619D01*
X130575333Y-71124000D01*
X130670571Y-71076380D01*
X130908666Y-71076380D01*
X131051523Y-71124000D01*
X131432476Y-71171619D02*
X131480095Y-71124000D01*
X131575333Y-71076380D01*
X131813428Y-71076380D01*
X131908666Y-71124000D01*
X131956285Y-71171619D01*
X132003904Y-71266857D01*
X132003904Y-71362095D01*
X131956285Y-71504952D01*
X131384857Y-72076380D01*
X132003904Y-72076380D01*
%TO.C,J2*%
D16*
X162568666Y-135372523D02*
X162568666Y-136279666D01*
X162508190Y-136461095D01*
X162387238Y-136582047D01*
X162205809Y-136642523D01*
X162084857Y-136642523D01*
X163112952Y-135493476D02*
X163173428Y-135433000D01*
X163294380Y-135372523D01*
X163596761Y-135372523D01*
X163717714Y-135433000D01*
X163778190Y-135493476D01*
X163838666Y-135614428D01*
X163838666Y-135735380D01*
X163778190Y-135916809D01*
X163052476Y-136642523D01*
X163838666Y-136642523D01*
%TO.C,J7*%
X126609523Y-95470333D02*
X127516666Y-95470333D01*
X127698095Y-95530809D01*
X127819047Y-95651761D01*
X127879523Y-95833190D01*
X127879523Y-95954142D01*
X126609523Y-94986523D02*
X126609523Y-94139857D01*
X127879523Y-94684142D01*
%TO.C,J4*%
X196332523Y-135983333D02*
X197239666Y-135983333D01*
X197421095Y-136043809D01*
X197542047Y-136164761D01*
X197602523Y-136346190D01*
X197602523Y-136467142D01*
X196755857Y-134834285D02*
X197602523Y-134834285D01*
X196272047Y-135136666D02*
X197179190Y-135439047D01*
X197179190Y-134652857D01*
%TO.C,J6*%
X126704523Y-118203333D02*
X127611666Y-118203333D01*
X127793095Y-118263809D01*
X127914047Y-118384761D01*
X127974523Y-118566190D01*
X127974523Y-118687142D01*
X126704523Y-117054285D02*
X126704523Y-117296190D01*
X126765000Y-117417142D01*
X126825476Y-117477619D01*
X127006904Y-117598571D01*
X127248809Y-117659047D01*
X127732619Y-117659047D01*
X127853571Y-117598571D01*
X127914047Y-117538095D01*
X127974523Y-117417142D01*
X127974523Y-117175238D01*
X127914047Y-117054285D01*
X127853571Y-116993809D01*
X127732619Y-116933333D01*
X127430238Y-116933333D01*
X127309285Y-116993809D01*
X127248809Y-117054285D01*
X127188333Y-117175238D01*
X127188333Y-117417142D01*
X127248809Y-117538095D01*
X127309285Y-117598571D01*
X127430238Y-117659047D01*
%TO.C,U2*%
D10*
X156134095Y-95388380D02*
X156134095Y-96197904D01*
X156181714Y-96293142D01*
X156229333Y-96340761D01*
X156324571Y-96388380D01*
X156515047Y-96388380D01*
X156610285Y-96340761D01*
X156657904Y-96293142D01*
X156705523Y-96197904D01*
X156705523Y-95388380D01*
X157134095Y-95483619D02*
X157181714Y-95436000D01*
X157276952Y-95388380D01*
X157515047Y-95388380D01*
X157610285Y-95436000D01*
X157657904Y-95483619D01*
X157705523Y-95578857D01*
X157705523Y-95674095D01*
X157657904Y-95816952D01*
X157086476Y-96388380D01*
X157705523Y-96388380D01*
%TO.C,C17*%
X143042642Y-101831142D02*
X142995023Y-101878761D01*
X142852166Y-101926380D01*
X142756928Y-101926380D01*
X142614071Y-101878761D01*
X142518833Y-101783523D01*
X142471214Y-101688285D01*
X142423595Y-101497809D01*
X142423595Y-101354952D01*
X142471214Y-101164476D01*
X142518833Y-101069238D01*
X142614071Y-100974000D01*
X142756928Y-100926380D01*
X142852166Y-100926380D01*
X142995023Y-100974000D01*
X143042642Y-101021619D01*
X143995023Y-101926380D02*
X143423595Y-101926380D01*
X143709309Y-101926380D02*
X143709309Y-100926380D01*
X143614071Y-101069238D01*
X143518833Y-101164476D01*
X143423595Y-101212095D01*
X144328357Y-100926380D02*
X144995023Y-100926380D01*
X144566452Y-101926380D01*
%TO.C,C3*%
X139853142Y-87974666D02*
X139900761Y-88022285D01*
X139948380Y-88165142D01*
X139948380Y-88260380D01*
X139900761Y-88403238D01*
X139805523Y-88498476D01*
X139710285Y-88546095D01*
X139519809Y-88593714D01*
X139376952Y-88593714D01*
X139186476Y-88546095D01*
X139091238Y-88498476D01*
X138996000Y-88403238D01*
X138948380Y-88260380D01*
X138948380Y-88165142D01*
X138996000Y-88022285D01*
X139043619Y-87974666D01*
X138948380Y-87641333D02*
X138948380Y-87022285D01*
X139329333Y-87355619D01*
X139329333Y-87212761D01*
X139376952Y-87117523D01*
X139424571Y-87069904D01*
X139519809Y-87022285D01*
X139757904Y-87022285D01*
X139853142Y-87069904D01*
X139900761Y-87117523D01*
X139948380Y-87212761D01*
X139948380Y-87498476D01*
X139900761Y-87593714D01*
X139853142Y-87641333D01*
%TO.C,C19*%
X143042642Y-95227142D02*
X142995023Y-95274761D01*
X142852166Y-95322380D01*
X142756928Y-95322380D01*
X142614071Y-95274761D01*
X142518833Y-95179523D01*
X142471214Y-95084285D01*
X142423595Y-94893809D01*
X142423595Y-94750952D01*
X142471214Y-94560476D01*
X142518833Y-94465238D01*
X142614071Y-94370000D01*
X142756928Y-94322380D01*
X142852166Y-94322380D01*
X142995023Y-94370000D01*
X143042642Y-94417619D01*
X143995023Y-95322380D02*
X143423595Y-95322380D01*
X143709309Y-95322380D02*
X143709309Y-94322380D01*
X143614071Y-94465238D01*
X143518833Y-94560476D01*
X143423595Y-94608095D01*
X144471214Y-95322380D02*
X144661690Y-95322380D01*
X144756928Y-95274761D01*
X144804547Y-95227142D01*
X144899785Y-95084285D01*
X144947404Y-94893809D01*
X144947404Y-94512857D01*
X144899785Y-94417619D01*
X144852166Y-94370000D01*
X144756928Y-94322380D01*
X144566452Y-94322380D01*
X144471214Y-94370000D01*
X144423595Y-94417619D01*
X144375976Y-94512857D01*
X144375976Y-94750952D01*
X144423595Y-94846190D01*
X144471214Y-94893809D01*
X144566452Y-94941428D01*
X144756928Y-94941428D01*
X144852166Y-94893809D01*
X144899785Y-94846190D01*
X144947404Y-94750952D01*
%TO.C,C20*%
X143042642Y-98529142D02*
X142995023Y-98576761D01*
X142852166Y-98624380D01*
X142756928Y-98624380D01*
X142614071Y-98576761D01*
X142518833Y-98481523D01*
X142471214Y-98386285D01*
X142423595Y-98195809D01*
X142423595Y-98052952D01*
X142471214Y-97862476D01*
X142518833Y-97767238D01*
X142614071Y-97672000D01*
X142756928Y-97624380D01*
X142852166Y-97624380D01*
X142995023Y-97672000D01*
X143042642Y-97719619D01*
X143423595Y-97719619D02*
X143471214Y-97672000D01*
X143566452Y-97624380D01*
X143804547Y-97624380D01*
X143899785Y-97672000D01*
X143947404Y-97719619D01*
X143995023Y-97814857D01*
X143995023Y-97910095D01*
X143947404Y-98052952D01*
X143375976Y-98624380D01*
X143995023Y-98624380D01*
X144614071Y-97624380D02*
X144709309Y-97624380D01*
X144804547Y-97672000D01*
X144852166Y-97719619D01*
X144899785Y-97814857D01*
X144947404Y-98005333D01*
X144947404Y-98243428D01*
X144899785Y-98433904D01*
X144852166Y-98529142D01*
X144804547Y-98576761D01*
X144709309Y-98624380D01*
X144614071Y-98624380D01*
X144518833Y-98576761D01*
X144471214Y-98529142D01*
X144423595Y-98433904D01*
X144375976Y-98243428D01*
X144375976Y-98005333D01*
X144423595Y-97814857D01*
X144471214Y-97719619D01*
X144518833Y-97672000D01*
X144614071Y-97624380D01*
%TO.C,C21*%
X143121142Y-111737142D02*
X143073523Y-111784761D01*
X142930666Y-111832380D01*
X142835428Y-111832380D01*
X142692571Y-111784761D01*
X142597333Y-111689523D01*
X142549714Y-111594285D01*
X142502095Y-111403809D01*
X142502095Y-111260952D01*
X142549714Y-111070476D01*
X142597333Y-110975238D01*
X142692571Y-110880000D01*
X142835428Y-110832380D01*
X142930666Y-110832380D01*
X143073523Y-110880000D01*
X143121142Y-110927619D01*
X143502095Y-110927619D02*
X143549714Y-110880000D01*
X143644952Y-110832380D01*
X143883047Y-110832380D01*
X143978285Y-110880000D01*
X144025904Y-110927619D01*
X144073523Y-111022857D01*
X144073523Y-111118095D01*
X144025904Y-111260952D01*
X143454476Y-111832380D01*
X144073523Y-111832380D01*
X145025904Y-111832380D02*
X144454476Y-111832380D01*
X144740190Y-111832380D02*
X144740190Y-110832380D01*
X144644952Y-110975238D01*
X144549714Y-111070476D01*
X144454476Y-111118095D01*
%TO.C,C22*%
X143121142Y-115165142D02*
X143073523Y-115212761D01*
X142930666Y-115260380D01*
X142835428Y-115260380D01*
X142692571Y-115212761D01*
X142597333Y-115117523D01*
X142549714Y-115022285D01*
X142502095Y-114831809D01*
X142502095Y-114688952D01*
X142549714Y-114498476D01*
X142597333Y-114403238D01*
X142692571Y-114308000D01*
X142835428Y-114260380D01*
X142930666Y-114260380D01*
X143073523Y-114308000D01*
X143121142Y-114355619D01*
X143502095Y-114355619D02*
X143549714Y-114308000D01*
X143644952Y-114260380D01*
X143883047Y-114260380D01*
X143978285Y-114308000D01*
X144025904Y-114355619D01*
X144073523Y-114450857D01*
X144073523Y-114546095D01*
X144025904Y-114688952D01*
X143454476Y-115260380D01*
X144073523Y-115260380D01*
X144454476Y-114355619D02*
X144502095Y-114308000D01*
X144597333Y-114260380D01*
X144835428Y-114260380D01*
X144930666Y-114308000D01*
X144978285Y-114355619D01*
X145025904Y-114450857D01*
X145025904Y-114546095D01*
X144978285Y-114688952D01*
X144406857Y-115260380D01*
X145025904Y-115260380D01*
%TO.C,C23*%
X143121142Y-118213142D02*
X143073523Y-118260761D01*
X142930666Y-118308380D01*
X142835428Y-118308380D01*
X142692571Y-118260761D01*
X142597333Y-118165523D01*
X142549714Y-118070285D01*
X142502095Y-117879809D01*
X142502095Y-117736952D01*
X142549714Y-117546476D01*
X142597333Y-117451238D01*
X142692571Y-117356000D01*
X142835428Y-117308380D01*
X142930666Y-117308380D01*
X143073523Y-117356000D01*
X143121142Y-117403619D01*
X143502095Y-117403619D02*
X143549714Y-117356000D01*
X143644952Y-117308380D01*
X143883047Y-117308380D01*
X143978285Y-117356000D01*
X144025904Y-117403619D01*
X144073523Y-117498857D01*
X144073523Y-117594095D01*
X144025904Y-117736952D01*
X143454476Y-118308380D01*
X144073523Y-118308380D01*
X144406857Y-117308380D02*
X145025904Y-117308380D01*
X144692571Y-117689333D01*
X144835428Y-117689333D01*
X144930666Y-117736952D01*
X144978285Y-117784571D01*
X145025904Y-117879809D01*
X145025904Y-118117904D01*
X144978285Y-118213142D01*
X144930666Y-118260761D01*
X144835428Y-118308380D01*
X144549714Y-118308380D01*
X144454476Y-118260761D01*
X144406857Y-118213142D01*
%TO.C,C24*%
X167617142Y-121625357D02*
X167664761Y-121672976D01*
X167712380Y-121815833D01*
X167712380Y-121911071D01*
X167664761Y-122053928D01*
X167569523Y-122149166D01*
X167474285Y-122196785D01*
X167283809Y-122244404D01*
X167140952Y-122244404D01*
X166950476Y-122196785D01*
X166855238Y-122149166D01*
X166760000Y-122053928D01*
X166712380Y-121911071D01*
X166712380Y-121815833D01*
X166760000Y-121672976D01*
X166807619Y-121625357D01*
X166807619Y-121244404D02*
X166760000Y-121196785D01*
X166712380Y-121101547D01*
X166712380Y-120863452D01*
X166760000Y-120768214D01*
X166807619Y-120720595D01*
X166902857Y-120672976D01*
X166998095Y-120672976D01*
X167140952Y-120720595D01*
X167712380Y-121292023D01*
X167712380Y-120672976D01*
X167045714Y-119815833D02*
X167712380Y-119815833D01*
X166664761Y-120053928D02*
X167379047Y-120292023D01*
X167379047Y-119672976D01*
%TO.C,C25*%
X157457142Y-121625357D02*
X157504761Y-121672976D01*
X157552380Y-121815833D01*
X157552380Y-121911071D01*
X157504761Y-122053928D01*
X157409523Y-122149166D01*
X157314285Y-122196785D01*
X157123809Y-122244404D01*
X156980952Y-122244404D01*
X156790476Y-122196785D01*
X156695238Y-122149166D01*
X156600000Y-122053928D01*
X156552380Y-121911071D01*
X156552380Y-121815833D01*
X156600000Y-121672976D01*
X156647619Y-121625357D01*
X156647619Y-121244404D02*
X156600000Y-121196785D01*
X156552380Y-121101547D01*
X156552380Y-120863452D01*
X156600000Y-120768214D01*
X156647619Y-120720595D01*
X156742857Y-120672976D01*
X156838095Y-120672976D01*
X156980952Y-120720595D01*
X157552380Y-121292023D01*
X157552380Y-120672976D01*
X156552380Y-119768214D02*
X156552380Y-120244404D01*
X157028571Y-120292023D01*
X156980952Y-120244404D01*
X156933333Y-120149166D01*
X156933333Y-119911071D01*
X156980952Y-119815833D01*
X157028571Y-119768214D01*
X157123809Y-119720595D01*
X157361904Y-119720595D01*
X157457142Y-119768214D01*
X157504761Y-119815833D01*
X157552380Y-119911071D01*
X157552380Y-120149166D01*
X157504761Y-120244404D01*
X157457142Y-120292023D01*
%TO.C,C26*%
X143121142Y-108435142D02*
X143073523Y-108482761D01*
X142930666Y-108530380D01*
X142835428Y-108530380D01*
X142692571Y-108482761D01*
X142597333Y-108387523D01*
X142549714Y-108292285D01*
X142502095Y-108101809D01*
X142502095Y-107958952D01*
X142549714Y-107768476D01*
X142597333Y-107673238D01*
X142692571Y-107578000D01*
X142835428Y-107530380D01*
X142930666Y-107530380D01*
X143073523Y-107578000D01*
X143121142Y-107625619D01*
X143502095Y-107625619D02*
X143549714Y-107578000D01*
X143644952Y-107530380D01*
X143883047Y-107530380D01*
X143978285Y-107578000D01*
X144025904Y-107625619D01*
X144073523Y-107720857D01*
X144073523Y-107816095D01*
X144025904Y-107958952D01*
X143454476Y-108530380D01*
X144073523Y-108530380D01*
X144930666Y-107530380D02*
X144740190Y-107530380D01*
X144644952Y-107578000D01*
X144597333Y-107625619D01*
X144502095Y-107768476D01*
X144454476Y-107958952D01*
X144454476Y-108339904D01*
X144502095Y-108435142D01*
X144549714Y-108482761D01*
X144644952Y-108530380D01*
X144835428Y-108530380D01*
X144930666Y-108482761D01*
X144978285Y-108435142D01*
X145025904Y-108339904D01*
X145025904Y-108101809D01*
X144978285Y-108006571D01*
X144930666Y-107958952D01*
X144835428Y-107911333D01*
X144644952Y-107911333D01*
X144549714Y-107958952D01*
X144502095Y-108006571D01*
X144454476Y-108101809D01*
%TO.C,C27*%
X187507142Y-125961142D02*
X187459523Y-126008761D01*
X187316666Y-126056380D01*
X187221428Y-126056380D01*
X187078571Y-126008761D01*
X186983333Y-125913523D01*
X186935714Y-125818285D01*
X186888095Y-125627809D01*
X186888095Y-125484952D01*
X186935714Y-125294476D01*
X186983333Y-125199238D01*
X187078571Y-125104000D01*
X187221428Y-125056380D01*
X187316666Y-125056380D01*
X187459523Y-125104000D01*
X187507142Y-125151619D01*
X187888095Y-125151619D02*
X187935714Y-125104000D01*
X188030952Y-125056380D01*
X188269047Y-125056380D01*
X188364285Y-125104000D01*
X188411904Y-125151619D01*
X188459523Y-125246857D01*
X188459523Y-125342095D01*
X188411904Y-125484952D01*
X187840476Y-126056380D01*
X188459523Y-126056380D01*
X188792857Y-125056380D02*
X189459523Y-125056380D01*
X189030952Y-126056380D01*
%TO.C,C28*%
X187395642Y-122659142D02*
X187348023Y-122706761D01*
X187205166Y-122754380D01*
X187109928Y-122754380D01*
X186967071Y-122706761D01*
X186871833Y-122611523D01*
X186824214Y-122516285D01*
X186776595Y-122325809D01*
X186776595Y-122182952D01*
X186824214Y-121992476D01*
X186871833Y-121897238D01*
X186967071Y-121802000D01*
X187109928Y-121754380D01*
X187205166Y-121754380D01*
X187348023Y-121802000D01*
X187395642Y-121849619D01*
X187776595Y-121849619D02*
X187824214Y-121802000D01*
X187919452Y-121754380D01*
X188157547Y-121754380D01*
X188252785Y-121802000D01*
X188300404Y-121849619D01*
X188348023Y-121944857D01*
X188348023Y-122040095D01*
X188300404Y-122182952D01*
X187728976Y-122754380D01*
X188348023Y-122754380D01*
X188919452Y-122182952D02*
X188824214Y-122135333D01*
X188776595Y-122087714D01*
X188728976Y-121992476D01*
X188728976Y-121944857D01*
X188776595Y-121849619D01*
X188824214Y-121802000D01*
X188919452Y-121754380D01*
X189109928Y-121754380D01*
X189205166Y-121802000D01*
X189252785Y-121849619D01*
X189300404Y-121944857D01*
X189300404Y-121992476D01*
X189252785Y-122087714D01*
X189205166Y-122135333D01*
X189109928Y-122182952D01*
X188919452Y-122182952D01*
X188824214Y-122230571D01*
X188776595Y-122278190D01*
X188728976Y-122373428D01*
X188728976Y-122563904D01*
X188776595Y-122659142D01*
X188824214Y-122706761D01*
X188919452Y-122754380D01*
X189109928Y-122754380D01*
X189205166Y-122706761D01*
X189252785Y-122659142D01*
X189300404Y-122563904D01*
X189300404Y-122373428D01*
X189252785Y-122278190D01*
X189205166Y-122230571D01*
X189109928Y-122182952D01*
%TO.C,C29*%
X187317142Y-119357142D02*
X187269523Y-119404761D01*
X187126666Y-119452380D01*
X187031428Y-119452380D01*
X186888571Y-119404761D01*
X186793333Y-119309523D01*
X186745714Y-119214285D01*
X186698095Y-119023809D01*
X186698095Y-118880952D01*
X186745714Y-118690476D01*
X186793333Y-118595238D01*
X186888571Y-118500000D01*
X187031428Y-118452380D01*
X187126666Y-118452380D01*
X187269523Y-118500000D01*
X187317142Y-118547619D01*
X187698095Y-118547619D02*
X187745714Y-118500000D01*
X187840952Y-118452380D01*
X188079047Y-118452380D01*
X188174285Y-118500000D01*
X188221904Y-118547619D01*
X188269523Y-118642857D01*
X188269523Y-118738095D01*
X188221904Y-118880952D01*
X187650476Y-119452380D01*
X188269523Y-119452380D01*
X188745714Y-119452380D02*
X188936190Y-119452380D01*
X189031428Y-119404761D01*
X189079047Y-119357142D01*
X189174285Y-119214285D01*
X189221904Y-119023809D01*
X189221904Y-118642857D01*
X189174285Y-118547619D01*
X189126666Y-118500000D01*
X189031428Y-118452380D01*
X188840952Y-118452380D01*
X188745714Y-118500000D01*
X188698095Y-118547619D01*
X188650476Y-118642857D01*
X188650476Y-118880952D01*
X188698095Y-118976190D01*
X188745714Y-119023809D01*
X188840952Y-119071428D01*
X189031428Y-119071428D01*
X189126666Y-119023809D01*
X189174285Y-118976190D01*
X189221904Y-118880952D01*
%TO.C,C16*%
X143296642Y-121643142D02*
X143249023Y-121690761D01*
X143106166Y-121738380D01*
X143010928Y-121738380D01*
X142868071Y-121690761D01*
X142772833Y-121595523D01*
X142725214Y-121500285D01*
X142677595Y-121309809D01*
X142677595Y-121166952D01*
X142725214Y-120976476D01*
X142772833Y-120881238D01*
X142868071Y-120786000D01*
X143010928Y-120738380D01*
X143106166Y-120738380D01*
X143249023Y-120786000D01*
X143296642Y-120833619D01*
X144249023Y-121738380D02*
X143677595Y-121738380D01*
X143963309Y-121738380D02*
X143963309Y-120738380D01*
X143868071Y-120881238D01*
X143772833Y-120976476D01*
X143677595Y-121024095D01*
X145106166Y-120738380D02*
X144915690Y-120738380D01*
X144820452Y-120786000D01*
X144772833Y-120833619D01*
X144677595Y-120976476D01*
X144629976Y-121166952D01*
X144629976Y-121547904D01*
X144677595Y-121643142D01*
X144725214Y-121690761D01*
X144820452Y-121738380D01*
X145010928Y-121738380D01*
X145106166Y-121690761D01*
X145153785Y-121643142D01*
X145201404Y-121547904D01*
X145201404Y-121309809D01*
X145153785Y-121214571D01*
X145106166Y-121166952D01*
X145010928Y-121119333D01*
X144820452Y-121119333D01*
X144725214Y-121166952D01*
X144677595Y-121214571D01*
X144629976Y-121309809D01*
%TO.C,C7*%
X187972833Y-109451142D02*
X187925214Y-109498761D01*
X187782357Y-109546380D01*
X187687119Y-109546380D01*
X187544261Y-109498761D01*
X187449023Y-109403523D01*
X187401404Y-109308285D01*
X187353785Y-109117809D01*
X187353785Y-108974952D01*
X187401404Y-108784476D01*
X187449023Y-108689238D01*
X187544261Y-108594000D01*
X187687119Y-108546380D01*
X187782357Y-108546380D01*
X187925214Y-108594000D01*
X187972833Y-108641619D01*
X188306166Y-108546380D02*
X188972833Y-108546380D01*
X188544261Y-109546380D01*
%TO.C,C15*%
X143121142Y-125071142D02*
X143073523Y-125118761D01*
X142930666Y-125166380D01*
X142835428Y-125166380D01*
X142692571Y-125118761D01*
X142597333Y-125023523D01*
X142549714Y-124928285D01*
X142502095Y-124737809D01*
X142502095Y-124594952D01*
X142549714Y-124404476D01*
X142597333Y-124309238D01*
X142692571Y-124214000D01*
X142835428Y-124166380D01*
X142930666Y-124166380D01*
X143073523Y-124214000D01*
X143121142Y-124261619D01*
X144073523Y-125166380D02*
X143502095Y-125166380D01*
X143787809Y-125166380D02*
X143787809Y-124166380D01*
X143692571Y-124309238D01*
X143597333Y-124404476D01*
X143502095Y-124452095D01*
X144978285Y-124166380D02*
X144502095Y-124166380D01*
X144454476Y-124642571D01*
X144502095Y-124594952D01*
X144597333Y-124547333D01*
X144835428Y-124547333D01*
X144930666Y-124594952D01*
X144978285Y-124642571D01*
X145025904Y-124737809D01*
X145025904Y-124975904D01*
X144978285Y-125071142D01*
X144930666Y-125118761D01*
X144835428Y-125166380D01*
X144597333Y-125166380D01*
X144502095Y-125118761D01*
X144454476Y-125071142D01*
%TO.C,C10*%
X187403642Y-102847142D02*
X187356023Y-102894761D01*
X187213166Y-102942380D01*
X187117928Y-102942380D01*
X186975071Y-102894761D01*
X186879833Y-102799523D01*
X186832214Y-102704285D01*
X186784595Y-102513809D01*
X186784595Y-102370952D01*
X186832214Y-102180476D01*
X186879833Y-102085238D01*
X186975071Y-101990000D01*
X187117928Y-101942380D01*
X187213166Y-101942380D01*
X187356023Y-101990000D01*
X187403642Y-102037619D01*
X188356023Y-102942380D02*
X187784595Y-102942380D01*
X188070309Y-102942380D02*
X188070309Y-101942380D01*
X187975071Y-102085238D01*
X187879833Y-102180476D01*
X187784595Y-102228095D01*
X188975071Y-101942380D02*
X189070309Y-101942380D01*
X189165547Y-101990000D01*
X189213166Y-102037619D01*
X189260785Y-102132857D01*
X189308404Y-102323333D01*
X189308404Y-102561428D01*
X189260785Y-102751904D01*
X189213166Y-102847142D01*
X189165547Y-102894761D01*
X189070309Y-102942380D01*
X188975071Y-102942380D01*
X188879833Y-102894761D01*
X188832214Y-102847142D01*
X188784595Y-102751904D01*
X188736976Y-102561428D01*
X188736976Y-102323333D01*
X188784595Y-102132857D01*
X188832214Y-102037619D01*
X188879833Y-101990000D01*
X188975071Y-101942380D01*
%TO.C,C9*%
X183223833Y-94769142D02*
X183176214Y-94816761D01*
X183033357Y-94864380D01*
X182938119Y-94864380D01*
X182795261Y-94816761D01*
X182700023Y-94721523D01*
X182652404Y-94626285D01*
X182604785Y-94435809D01*
X182604785Y-94292952D01*
X182652404Y-94102476D01*
X182700023Y-94007238D01*
X182795261Y-93912000D01*
X182938119Y-93864380D01*
X183033357Y-93864380D01*
X183176214Y-93912000D01*
X183223833Y-93959619D01*
X183700023Y-94864380D02*
X183890500Y-94864380D01*
X183985738Y-94816761D01*
X184033357Y-94769142D01*
X184128595Y-94626285D01*
X184176214Y-94435809D01*
X184176214Y-94054857D01*
X184128595Y-93959619D01*
X184080976Y-93912000D01*
X183985738Y-93864380D01*
X183795261Y-93864380D01*
X183700023Y-93912000D01*
X183652404Y-93959619D01*
X183604785Y-94054857D01*
X183604785Y-94292952D01*
X183652404Y-94388190D01*
X183700023Y-94435809D01*
X183795261Y-94483428D01*
X183985738Y-94483428D01*
X184080976Y-94435809D01*
X184128595Y-94388190D01*
X184176214Y-94292952D01*
%TO.C,C8*%
X183221333Y-112753142D02*
X183173714Y-112800761D01*
X183030857Y-112848380D01*
X182935619Y-112848380D01*
X182792761Y-112800761D01*
X182697523Y-112705523D01*
X182649904Y-112610285D01*
X182602285Y-112419809D01*
X182602285Y-112276952D01*
X182649904Y-112086476D01*
X182697523Y-111991238D01*
X182792761Y-111896000D01*
X182935619Y-111848380D01*
X183030857Y-111848380D01*
X183173714Y-111896000D01*
X183221333Y-111943619D01*
X183792761Y-112276952D02*
X183697523Y-112229333D01*
X183649904Y-112181714D01*
X183602285Y-112086476D01*
X183602285Y-112038857D01*
X183649904Y-111943619D01*
X183697523Y-111896000D01*
X183792761Y-111848380D01*
X183983238Y-111848380D01*
X184078476Y-111896000D01*
X184126095Y-111943619D01*
X184173714Y-112038857D01*
X184173714Y-112086476D01*
X184126095Y-112181714D01*
X184078476Y-112229333D01*
X183983238Y-112276952D01*
X183792761Y-112276952D01*
X183697523Y-112324571D01*
X183649904Y-112372190D01*
X183602285Y-112467428D01*
X183602285Y-112657904D01*
X183649904Y-112753142D01*
X183697523Y-112800761D01*
X183792761Y-112848380D01*
X183983238Y-112848380D01*
X184078476Y-112800761D01*
X184126095Y-112753142D01*
X184173714Y-112657904D01*
X184173714Y-112467428D01*
X184126095Y-112372190D01*
X184078476Y-112324571D01*
X183983238Y-112276952D01*
%TO.C,C18*%
X143042642Y-105133142D02*
X142995023Y-105180761D01*
X142852166Y-105228380D01*
X142756928Y-105228380D01*
X142614071Y-105180761D01*
X142518833Y-105085523D01*
X142471214Y-104990285D01*
X142423595Y-104799809D01*
X142423595Y-104656952D01*
X142471214Y-104466476D01*
X142518833Y-104371238D01*
X142614071Y-104276000D01*
X142756928Y-104228380D01*
X142852166Y-104228380D01*
X142995023Y-104276000D01*
X143042642Y-104323619D01*
X143995023Y-105228380D02*
X143423595Y-105228380D01*
X143709309Y-105228380D02*
X143709309Y-104228380D01*
X143614071Y-104371238D01*
X143518833Y-104466476D01*
X143423595Y-104514095D01*
X144566452Y-104656952D02*
X144471214Y-104609333D01*
X144423595Y-104561714D01*
X144375976Y-104466476D01*
X144375976Y-104418857D01*
X144423595Y-104323619D01*
X144471214Y-104276000D01*
X144566452Y-104228380D01*
X144756928Y-104228380D01*
X144852166Y-104276000D01*
X144899785Y-104323619D01*
X144947404Y-104418857D01*
X144947404Y-104466476D01*
X144899785Y-104561714D01*
X144852166Y-104609333D01*
X144756928Y-104656952D01*
X144566452Y-104656952D01*
X144471214Y-104704571D01*
X144423595Y-104752190D01*
X144375976Y-104847428D01*
X144375976Y-105037904D01*
X144423595Y-105133142D01*
X144471214Y-105180761D01*
X144566452Y-105228380D01*
X144756928Y-105228380D01*
X144852166Y-105180761D01*
X144899785Y-105133142D01*
X144947404Y-105037904D01*
X144947404Y-104847428D01*
X144899785Y-104752190D01*
X144852166Y-104704571D01*
X144756928Y-104656952D01*
%TO.C,C6*%
X187928333Y-98148142D02*
X187880714Y-98195761D01*
X187737857Y-98243380D01*
X187642619Y-98243380D01*
X187499761Y-98195761D01*
X187404523Y-98100523D01*
X187356904Y-98005285D01*
X187309285Y-97814809D01*
X187309285Y-97671952D01*
X187356904Y-97481476D01*
X187404523Y-97386238D01*
X187499761Y-97291000D01*
X187642619Y-97243380D01*
X187737857Y-97243380D01*
X187880714Y-97291000D01*
X187928333Y-97338619D01*
X188785476Y-97243380D02*
X188595000Y-97243380D01*
X188499761Y-97291000D01*
X188452142Y-97338619D01*
X188356904Y-97481476D01*
X188309285Y-97671952D01*
X188309285Y-98052904D01*
X188356904Y-98148142D01*
X188404523Y-98195761D01*
X188499761Y-98243380D01*
X188690238Y-98243380D01*
X188785476Y-98195761D01*
X188833095Y-98148142D01*
X188880714Y-98052904D01*
X188880714Y-97814809D01*
X188833095Y-97719571D01*
X188785476Y-97671952D01*
X188690238Y-97624333D01*
X188499761Y-97624333D01*
X188404523Y-97671952D01*
X188356904Y-97719571D01*
X188309285Y-97814809D01*
%TO.C,C30*%
X187319642Y-116055142D02*
X187272023Y-116102761D01*
X187129166Y-116150380D01*
X187033928Y-116150380D01*
X186891071Y-116102761D01*
X186795833Y-116007523D01*
X186748214Y-115912285D01*
X186700595Y-115721809D01*
X186700595Y-115578952D01*
X186748214Y-115388476D01*
X186795833Y-115293238D01*
X186891071Y-115198000D01*
X187033928Y-115150380D01*
X187129166Y-115150380D01*
X187272023Y-115198000D01*
X187319642Y-115245619D01*
X187652976Y-115150380D02*
X188272023Y-115150380D01*
X187938690Y-115531333D01*
X188081547Y-115531333D01*
X188176785Y-115578952D01*
X188224404Y-115626571D01*
X188272023Y-115721809D01*
X188272023Y-115959904D01*
X188224404Y-116055142D01*
X188176785Y-116102761D01*
X188081547Y-116150380D01*
X187795833Y-116150380D01*
X187700595Y-116102761D01*
X187652976Y-116055142D01*
X188891071Y-115150380D02*
X188986309Y-115150380D01*
X189081547Y-115198000D01*
X189129166Y-115245619D01*
X189176785Y-115340857D01*
X189224404Y-115531333D01*
X189224404Y-115769428D01*
X189176785Y-115959904D01*
X189129166Y-116055142D01*
X189081547Y-116102761D01*
X188986309Y-116150380D01*
X188891071Y-116150380D01*
X188795833Y-116102761D01*
X188748214Y-116055142D01*
X188700595Y-115959904D01*
X188652976Y-115769428D01*
X188652976Y-115531333D01*
X188700595Y-115340857D01*
X188748214Y-115245619D01*
X188795833Y-115198000D01*
X188891071Y-115150380D01*
%TO.C,R8*%
X183142833Y-116150380D02*
X182809500Y-115674190D01*
X182571404Y-116150380D02*
X182571404Y-115150380D01*
X182952357Y-115150380D01*
X183047595Y-115198000D01*
X183095214Y-115245619D01*
X183142833Y-115340857D01*
X183142833Y-115483714D01*
X183095214Y-115578952D01*
X183047595Y-115626571D01*
X182952357Y-115674190D01*
X182571404Y-115674190D01*
X183714261Y-115578952D02*
X183619023Y-115531333D01*
X183571404Y-115483714D01*
X183523785Y-115388476D01*
X183523785Y-115340857D01*
X183571404Y-115245619D01*
X183619023Y-115198000D01*
X183714261Y-115150380D01*
X183904738Y-115150380D01*
X183999976Y-115198000D01*
X184047595Y-115245619D01*
X184095214Y-115340857D01*
X184095214Y-115388476D01*
X184047595Y-115483714D01*
X183999976Y-115531333D01*
X183904738Y-115578952D01*
X183714261Y-115578952D01*
X183619023Y-115626571D01*
X183571404Y-115674190D01*
X183523785Y-115769428D01*
X183523785Y-115959904D01*
X183571404Y-116055142D01*
X183619023Y-116102761D01*
X183714261Y-116150380D01*
X183904738Y-116150380D01*
X183999976Y-116102761D01*
X184047595Y-116055142D01*
X184095214Y-115959904D01*
X184095214Y-115769428D01*
X184047595Y-115674190D01*
X183999976Y-115626571D01*
X183904738Y-115578952D01*
%TO.C,R20*%
X138470642Y-102052380D02*
X138137309Y-101576190D01*
X137899214Y-102052380D02*
X137899214Y-101052380D01*
X138280166Y-101052380D01*
X138375404Y-101100000D01*
X138423023Y-101147619D01*
X138470642Y-101242857D01*
X138470642Y-101385714D01*
X138423023Y-101480952D01*
X138375404Y-101528571D01*
X138280166Y-101576190D01*
X137899214Y-101576190D01*
X138851595Y-101147619D02*
X138899214Y-101100000D01*
X138994452Y-101052380D01*
X139232547Y-101052380D01*
X139327785Y-101100000D01*
X139375404Y-101147619D01*
X139423023Y-101242857D01*
X139423023Y-101338095D01*
X139375404Y-101480952D01*
X138803976Y-102052380D01*
X139423023Y-102052380D01*
X140042071Y-101052380D02*
X140137309Y-101052380D01*
X140232547Y-101100000D01*
X140280166Y-101147619D01*
X140327785Y-101242857D01*
X140375404Y-101433333D01*
X140375404Y-101671428D01*
X140327785Y-101861904D01*
X140280166Y-101957142D01*
X140232547Y-102004761D01*
X140137309Y-102052380D01*
X140042071Y-102052380D01*
X139946833Y-102004761D01*
X139899214Y-101957142D01*
X139851595Y-101861904D01*
X139803976Y-101671428D01*
X139803976Y-101433333D01*
X139851595Y-101242857D01*
X139899214Y-101147619D01*
X139946833Y-101100000D01*
X140042071Y-101052380D01*
%TO.C,R21*%
X138549142Y-105354380D02*
X138215809Y-104878190D01*
X137977714Y-105354380D02*
X137977714Y-104354380D01*
X138358666Y-104354380D01*
X138453904Y-104402000D01*
X138501523Y-104449619D01*
X138549142Y-104544857D01*
X138549142Y-104687714D01*
X138501523Y-104782952D01*
X138453904Y-104830571D01*
X138358666Y-104878190D01*
X137977714Y-104878190D01*
X138930095Y-104449619D02*
X138977714Y-104402000D01*
X139072952Y-104354380D01*
X139311047Y-104354380D01*
X139406285Y-104402000D01*
X139453904Y-104449619D01*
X139501523Y-104544857D01*
X139501523Y-104640095D01*
X139453904Y-104782952D01*
X138882476Y-105354380D01*
X139501523Y-105354380D01*
X140453904Y-105354380D02*
X139882476Y-105354380D01*
X140168190Y-105354380D02*
X140168190Y-104354380D01*
X140072952Y-104497238D01*
X139977714Y-104592476D01*
X139882476Y-104640095D01*
%TO.C,R22*%
X138549142Y-95448380D02*
X138215809Y-94972190D01*
X137977714Y-95448380D02*
X137977714Y-94448380D01*
X138358666Y-94448380D01*
X138453904Y-94496000D01*
X138501523Y-94543619D01*
X138549142Y-94638857D01*
X138549142Y-94781714D01*
X138501523Y-94876952D01*
X138453904Y-94924571D01*
X138358666Y-94972190D01*
X137977714Y-94972190D01*
X138930095Y-94543619D02*
X138977714Y-94496000D01*
X139072952Y-94448380D01*
X139311047Y-94448380D01*
X139406285Y-94496000D01*
X139453904Y-94543619D01*
X139501523Y-94638857D01*
X139501523Y-94734095D01*
X139453904Y-94876952D01*
X138882476Y-95448380D01*
X139501523Y-95448380D01*
X139882476Y-94543619D02*
X139930095Y-94496000D01*
X140025333Y-94448380D01*
X140263428Y-94448380D01*
X140358666Y-94496000D01*
X140406285Y-94543619D01*
X140453904Y-94638857D01*
X140453904Y-94734095D01*
X140406285Y-94876952D01*
X139834857Y-95448380D01*
X140453904Y-95448380D01*
%TO.C,R23*%
X138627642Y-98750380D02*
X138294309Y-98274190D01*
X138056214Y-98750380D02*
X138056214Y-97750380D01*
X138437166Y-97750380D01*
X138532404Y-97798000D01*
X138580023Y-97845619D01*
X138627642Y-97940857D01*
X138627642Y-98083714D01*
X138580023Y-98178952D01*
X138532404Y-98226571D01*
X138437166Y-98274190D01*
X138056214Y-98274190D01*
X139008595Y-97845619D02*
X139056214Y-97798000D01*
X139151452Y-97750380D01*
X139389547Y-97750380D01*
X139484785Y-97798000D01*
X139532404Y-97845619D01*
X139580023Y-97940857D01*
X139580023Y-98036095D01*
X139532404Y-98178952D01*
X138960976Y-98750380D01*
X139580023Y-98750380D01*
X139913357Y-97750380D02*
X140532404Y-97750380D01*
X140199071Y-98131333D01*
X140341928Y-98131333D01*
X140437166Y-98178952D01*
X140484785Y-98226571D01*
X140532404Y-98321809D01*
X140532404Y-98559904D01*
X140484785Y-98655142D01*
X140437166Y-98702761D01*
X140341928Y-98750380D01*
X140056214Y-98750380D01*
X139960976Y-98702761D01*
X139913357Y-98655142D01*
%TO.C,R24*%
X138549142Y-111958380D02*
X138215809Y-111482190D01*
X137977714Y-111958380D02*
X137977714Y-110958380D01*
X138358666Y-110958380D01*
X138453904Y-111006000D01*
X138501523Y-111053619D01*
X138549142Y-111148857D01*
X138549142Y-111291714D01*
X138501523Y-111386952D01*
X138453904Y-111434571D01*
X138358666Y-111482190D01*
X137977714Y-111482190D01*
X138930095Y-111053619D02*
X138977714Y-111006000D01*
X139072952Y-110958380D01*
X139311047Y-110958380D01*
X139406285Y-111006000D01*
X139453904Y-111053619D01*
X139501523Y-111148857D01*
X139501523Y-111244095D01*
X139453904Y-111386952D01*
X138882476Y-111958380D01*
X139501523Y-111958380D01*
X140358666Y-111291714D02*
X140358666Y-111958380D01*
X140120571Y-110910761D02*
X139882476Y-111625047D01*
X140501523Y-111625047D01*
%TO.C,R26*%
X138549142Y-118308380D02*
X138215809Y-117832190D01*
X137977714Y-118308380D02*
X137977714Y-117308380D01*
X138358666Y-117308380D01*
X138453904Y-117356000D01*
X138501523Y-117403619D01*
X138549142Y-117498857D01*
X138549142Y-117641714D01*
X138501523Y-117736952D01*
X138453904Y-117784571D01*
X138358666Y-117832190D01*
X137977714Y-117832190D01*
X138930095Y-117403619D02*
X138977714Y-117356000D01*
X139072952Y-117308380D01*
X139311047Y-117308380D01*
X139406285Y-117356000D01*
X139453904Y-117403619D01*
X139501523Y-117498857D01*
X139501523Y-117594095D01*
X139453904Y-117736952D01*
X138882476Y-118308380D01*
X139501523Y-118308380D01*
X140358666Y-117308380D02*
X140168190Y-117308380D01*
X140072952Y-117356000D01*
X140025333Y-117403619D01*
X139930095Y-117546476D01*
X139882476Y-117736952D01*
X139882476Y-118117904D01*
X139930095Y-118213142D01*
X139977714Y-118260761D01*
X140072952Y-118308380D01*
X140263428Y-118308380D01*
X140358666Y-118260761D01*
X140406285Y-118213142D01*
X140453904Y-118117904D01*
X140453904Y-117879809D01*
X140406285Y-117784571D01*
X140358666Y-117736952D01*
X140263428Y-117689333D01*
X140072952Y-117689333D01*
X139977714Y-117736952D01*
X139930095Y-117784571D01*
X139882476Y-117879809D01*
%TO.C,R27*%
X167838380Y-125864857D02*
X167362190Y-126198190D01*
X167838380Y-126436285D02*
X166838380Y-126436285D01*
X166838380Y-126055333D01*
X166886000Y-125960095D01*
X166933619Y-125912476D01*
X167028857Y-125864857D01*
X167171714Y-125864857D01*
X167266952Y-125912476D01*
X167314571Y-125960095D01*
X167362190Y-126055333D01*
X167362190Y-126436285D01*
X166933619Y-125483904D02*
X166886000Y-125436285D01*
X166838380Y-125341047D01*
X166838380Y-125102952D01*
X166886000Y-125007714D01*
X166933619Y-124960095D01*
X167028857Y-124912476D01*
X167124095Y-124912476D01*
X167266952Y-124960095D01*
X167838380Y-125531523D01*
X167838380Y-124912476D01*
X166838380Y-124579142D02*
X166838380Y-123912476D01*
X167838380Y-124341047D01*
%TO.C,R28*%
X157678380Y-125610857D02*
X157202190Y-125944190D01*
X157678380Y-126182285D02*
X156678380Y-126182285D01*
X156678380Y-125801333D01*
X156726000Y-125706095D01*
X156773619Y-125658476D01*
X156868857Y-125610857D01*
X157011714Y-125610857D01*
X157106952Y-125658476D01*
X157154571Y-125706095D01*
X157202190Y-125801333D01*
X157202190Y-126182285D01*
X156773619Y-125229904D02*
X156726000Y-125182285D01*
X156678380Y-125087047D01*
X156678380Y-124848952D01*
X156726000Y-124753714D01*
X156773619Y-124706095D01*
X156868857Y-124658476D01*
X156964095Y-124658476D01*
X157106952Y-124706095D01*
X157678380Y-125277523D01*
X157678380Y-124658476D01*
X157106952Y-124087047D02*
X157059333Y-124182285D01*
X157011714Y-124229904D01*
X156916476Y-124277523D01*
X156868857Y-124277523D01*
X156773619Y-124229904D01*
X156726000Y-124182285D01*
X156678380Y-124087047D01*
X156678380Y-123896571D01*
X156726000Y-123801333D01*
X156773619Y-123753714D01*
X156868857Y-123706095D01*
X156916476Y-123706095D01*
X157011714Y-123753714D01*
X157059333Y-123801333D01*
X157106952Y-123896571D01*
X157106952Y-124087047D01*
X157154571Y-124182285D01*
X157202190Y-124229904D01*
X157297428Y-124277523D01*
X157487904Y-124277523D01*
X157583142Y-124229904D01*
X157630761Y-124182285D01*
X157678380Y-124087047D01*
X157678380Y-123896571D01*
X157630761Y-123801333D01*
X157583142Y-123753714D01*
X157487904Y-123706095D01*
X157297428Y-123706095D01*
X157202190Y-123753714D01*
X157154571Y-123801333D01*
X157106952Y-123896571D01*
%TO.C,R29*%
X138470642Y-108656380D02*
X138137309Y-108180190D01*
X137899214Y-108656380D02*
X137899214Y-107656380D01*
X138280166Y-107656380D01*
X138375404Y-107704000D01*
X138423023Y-107751619D01*
X138470642Y-107846857D01*
X138470642Y-107989714D01*
X138423023Y-108084952D01*
X138375404Y-108132571D01*
X138280166Y-108180190D01*
X137899214Y-108180190D01*
X138851595Y-107751619D02*
X138899214Y-107704000D01*
X138994452Y-107656380D01*
X139232547Y-107656380D01*
X139327785Y-107704000D01*
X139375404Y-107751619D01*
X139423023Y-107846857D01*
X139423023Y-107942095D01*
X139375404Y-108084952D01*
X138803976Y-108656380D01*
X139423023Y-108656380D01*
X139899214Y-108656380D02*
X140089690Y-108656380D01*
X140184928Y-108608761D01*
X140232547Y-108561142D01*
X140327785Y-108418285D01*
X140375404Y-108227809D01*
X140375404Y-107846857D01*
X140327785Y-107751619D01*
X140280166Y-107704000D01*
X140184928Y-107656380D01*
X139994452Y-107656380D01*
X139899214Y-107704000D01*
X139851595Y-107751619D01*
X139803976Y-107846857D01*
X139803976Y-108084952D01*
X139851595Y-108180190D01*
X139899214Y-108227809D01*
X139994452Y-108275428D01*
X140184928Y-108275428D01*
X140280166Y-108227809D01*
X140327785Y-108180190D01*
X140375404Y-108084952D01*
%TO.C,R30*%
X182745142Y-126056380D02*
X182411809Y-125580190D01*
X182173714Y-126056380D02*
X182173714Y-125056380D01*
X182554666Y-125056380D01*
X182649904Y-125104000D01*
X182697523Y-125151619D01*
X182745142Y-125246857D01*
X182745142Y-125389714D01*
X182697523Y-125484952D01*
X182649904Y-125532571D01*
X182554666Y-125580190D01*
X182173714Y-125580190D01*
X183078476Y-125056380D02*
X183697523Y-125056380D01*
X183364190Y-125437333D01*
X183507047Y-125437333D01*
X183602285Y-125484952D01*
X183649904Y-125532571D01*
X183697523Y-125627809D01*
X183697523Y-125865904D01*
X183649904Y-125961142D01*
X183602285Y-126008761D01*
X183507047Y-126056380D01*
X183221333Y-126056380D01*
X183126095Y-126008761D01*
X183078476Y-125961142D01*
X184316571Y-125056380D02*
X184411809Y-125056380D01*
X184507047Y-125104000D01*
X184554666Y-125151619D01*
X184602285Y-125246857D01*
X184649904Y-125437333D01*
X184649904Y-125675428D01*
X184602285Y-125865904D01*
X184554666Y-125961142D01*
X184507047Y-126008761D01*
X184411809Y-126056380D01*
X184316571Y-126056380D01*
X184221333Y-126008761D01*
X184173714Y-125961142D01*
X184126095Y-125865904D01*
X184078476Y-125675428D01*
X184078476Y-125437333D01*
X184126095Y-125246857D01*
X184173714Y-125151619D01*
X184221333Y-125104000D01*
X184316571Y-125056380D01*
%TO.C,R31*%
X182745142Y-122754380D02*
X182411809Y-122278190D01*
X182173714Y-122754380D02*
X182173714Y-121754380D01*
X182554666Y-121754380D01*
X182649904Y-121802000D01*
X182697523Y-121849619D01*
X182745142Y-121944857D01*
X182745142Y-122087714D01*
X182697523Y-122182952D01*
X182649904Y-122230571D01*
X182554666Y-122278190D01*
X182173714Y-122278190D01*
X183078476Y-121754380D02*
X183697523Y-121754380D01*
X183364190Y-122135333D01*
X183507047Y-122135333D01*
X183602285Y-122182952D01*
X183649904Y-122230571D01*
X183697523Y-122325809D01*
X183697523Y-122563904D01*
X183649904Y-122659142D01*
X183602285Y-122706761D01*
X183507047Y-122754380D01*
X183221333Y-122754380D01*
X183126095Y-122706761D01*
X183078476Y-122659142D01*
X184649904Y-122754380D02*
X184078476Y-122754380D01*
X184364190Y-122754380D02*
X184364190Y-121754380D01*
X184268952Y-121897238D01*
X184173714Y-121992476D01*
X184078476Y-122040095D01*
%TO.C,R32*%
X182745142Y-119452380D02*
X182411809Y-118976190D01*
X182173714Y-119452380D02*
X182173714Y-118452380D01*
X182554666Y-118452380D01*
X182649904Y-118500000D01*
X182697523Y-118547619D01*
X182745142Y-118642857D01*
X182745142Y-118785714D01*
X182697523Y-118880952D01*
X182649904Y-118928571D01*
X182554666Y-118976190D01*
X182173714Y-118976190D01*
X183078476Y-118452380D02*
X183697523Y-118452380D01*
X183364190Y-118833333D01*
X183507047Y-118833333D01*
X183602285Y-118880952D01*
X183649904Y-118928571D01*
X183697523Y-119023809D01*
X183697523Y-119261904D01*
X183649904Y-119357142D01*
X183602285Y-119404761D01*
X183507047Y-119452380D01*
X183221333Y-119452380D01*
X183126095Y-119404761D01*
X183078476Y-119357142D01*
X184078476Y-118547619D02*
X184126095Y-118500000D01*
X184221333Y-118452380D01*
X184459428Y-118452380D01*
X184554666Y-118500000D01*
X184602285Y-118547619D01*
X184649904Y-118642857D01*
X184649904Y-118738095D01*
X184602285Y-118880952D01*
X184030857Y-119452380D01*
X184649904Y-119452380D01*
%TO.C,R18*%
X138627642Y-125166380D02*
X138294309Y-124690190D01*
X138056214Y-125166380D02*
X138056214Y-124166380D01*
X138437166Y-124166380D01*
X138532404Y-124214000D01*
X138580023Y-124261619D01*
X138627642Y-124356857D01*
X138627642Y-124499714D01*
X138580023Y-124594952D01*
X138532404Y-124642571D01*
X138437166Y-124690190D01*
X138056214Y-124690190D01*
X139580023Y-125166380D02*
X139008595Y-125166380D01*
X139294309Y-125166380D02*
X139294309Y-124166380D01*
X139199071Y-124309238D01*
X139103833Y-124404476D01*
X139008595Y-124452095D01*
X140151452Y-124594952D02*
X140056214Y-124547333D01*
X140008595Y-124499714D01*
X139960976Y-124404476D01*
X139960976Y-124356857D01*
X140008595Y-124261619D01*
X140056214Y-124214000D01*
X140151452Y-124166380D01*
X140341928Y-124166380D01*
X140437166Y-124214000D01*
X140484785Y-124261619D01*
X140532404Y-124356857D01*
X140532404Y-124404476D01*
X140484785Y-124499714D01*
X140437166Y-124547333D01*
X140341928Y-124594952D01*
X140151452Y-124594952D01*
X140056214Y-124642571D01*
X140008595Y-124690190D01*
X139960976Y-124785428D01*
X139960976Y-124975904D01*
X140008595Y-125071142D01*
X140056214Y-125118761D01*
X140151452Y-125166380D01*
X140341928Y-125166380D01*
X140437166Y-125118761D01*
X140484785Y-125071142D01*
X140532404Y-124975904D01*
X140532404Y-124785428D01*
X140484785Y-124690190D01*
X140437166Y-124642571D01*
X140341928Y-124594952D01*
%TO.C,R25*%
X138549142Y-115260380D02*
X138215809Y-114784190D01*
X137977714Y-115260380D02*
X137977714Y-114260380D01*
X138358666Y-114260380D01*
X138453904Y-114308000D01*
X138501523Y-114355619D01*
X138549142Y-114450857D01*
X138549142Y-114593714D01*
X138501523Y-114688952D01*
X138453904Y-114736571D01*
X138358666Y-114784190D01*
X137977714Y-114784190D01*
X138930095Y-114355619D02*
X138977714Y-114308000D01*
X139072952Y-114260380D01*
X139311047Y-114260380D01*
X139406285Y-114308000D01*
X139453904Y-114355619D01*
X139501523Y-114450857D01*
X139501523Y-114546095D01*
X139453904Y-114688952D01*
X138882476Y-115260380D01*
X139501523Y-115260380D01*
X140406285Y-114260380D02*
X139930095Y-114260380D01*
X139882476Y-114736571D01*
X139930095Y-114688952D01*
X140025333Y-114641333D01*
X140263428Y-114641333D01*
X140358666Y-114688952D01*
X140406285Y-114736571D01*
X140453904Y-114831809D01*
X140453904Y-115069904D01*
X140406285Y-115165142D01*
X140358666Y-115212761D01*
X140263428Y-115260380D01*
X140025333Y-115260380D01*
X139930095Y-115212761D01*
X139882476Y-115165142D01*
%TO.C,R5*%
X183170833Y-98242380D02*
X182837500Y-97766190D01*
X182599404Y-98242380D02*
X182599404Y-97242380D01*
X182980357Y-97242380D01*
X183075595Y-97290000D01*
X183123214Y-97337619D01*
X183170833Y-97432857D01*
X183170833Y-97575714D01*
X183123214Y-97670952D01*
X183075595Y-97718571D01*
X182980357Y-97766190D01*
X182599404Y-97766190D01*
X184075595Y-97242380D02*
X183599404Y-97242380D01*
X183551785Y-97718571D01*
X183599404Y-97670952D01*
X183694642Y-97623333D01*
X183932738Y-97623333D01*
X184027976Y-97670952D01*
X184075595Y-97718571D01*
X184123214Y-97813809D01*
X184123214Y-98051904D01*
X184075595Y-98147142D01*
X184027976Y-98194761D01*
X183932738Y-98242380D01*
X183694642Y-98242380D01*
X183599404Y-98194761D01*
X183551785Y-98147142D01*
%TO.C,R6*%
X187972833Y-106244380D02*
X187639500Y-105768190D01*
X187401404Y-106244380D02*
X187401404Y-105244380D01*
X187782357Y-105244380D01*
X187877595Y-105292000D01*
X187925214Y-105339619D01*
X187972833Y-105434857D01*
X187972833Y-105577714D01*
X187925214Y-105672952D01*
X187877595Y-105720571D01*
X187782357Y-105768190D01*
X187401404Y-105768190D01*
X188829976Y-105244380D02*
X188639500Y-105244380D01*
X188544261Y-105292000D01*
X188496642Y-105339619D01*
X188401404Y-105482476D01*
X188353785Y-105672952D01*
X188353785Y-106053904D01*
X188401404Y-106149142D01*
X188449023Y-106196761D01*
X188544261Y-106244380D01*
X188734738Y-106244380D01*
X188829976Y-106196761D01*
X188877595Y-106149142D01*
X188925214Y-106053904D01*
X188925214Y-105815809D01*
X188877595Y-105720571D01*
X188829976Y-105672952D01*
X188734738Y-105625333D01*
X188544261Y-105625333D01*
X188449023Y-105672952D01*
X188401404Y-105720571D01*
X188353785Y-105815809D01*
%TO.C,R7*%
X183299833Y-109546380D02*
X182966500Y-109070190D01*
X182728404Y-109546380D02*
X182728404Y-108546380D01*
X183109357Y-108546380D01*
X183204595Y-108594000D01*
X183252214Y-108641619D01*
X183299833Y-108736857D01*
X183299833Y-108879714D01*
X183252214Y-108974952D01*
X183204595Y-109022571D01*
X183109357Y-109070190D01*
X182728404Y-109070190D01*
X183633166Y-108546380D02*
X184299833Y-108546380D01*
X183871261Y-109546380D01*
%TO.C,R19*%
X138549142Y-121738380D02*
X138215809Y-121262190D01*
X137977714Y-121738380D02*
X137977714Y-120738380D01*
X138358666Y-120738380D01*
X138453904Y-120786000D01*
X138501523Y-120833619D01*
X138549142Y-120928857D01*
X138549142Y-121071714D01*
X138501523Y-121166952D01*
X138453904Y-121214571D01*
X138358666Y-121262190D01*
X137977714Y-121262190D01*
X139501523Y-121738380D02*
X138930095Y-121738380D01*
X139215809Y-121738380D02*
X139215809Y-120738380D01*
X139120571Y-120881238D01*
X139025333Y-120976476D01*
X138930095Y-121024095D01*
X139977714Y-121738380D02*
X140168190Y-121738380D01*
X140263428Y-121690761D01*
X140311047Y-121643142D01*
X140406285Y-121500285D01*
X140453904Y-121309809D01*
X140453904Y-120928857D01*
X140406285Y-120833619D01*
X140358666Y-120786000D01*
X140263428Y-120738380D01*
X140072952Y-120738380D01*
X139977714Y-120786000D01*
X139930095Y-120833619D01*
X139882476Y-120928857D01*
X139882476Y-121166952D01*
X139930095Y-121262190D01*
X139977714Y-121309809D01*
X140072952Y-121357428D01*
X140263428Y-121357428D01*
X140358666Y-121309809D01*
X140406285Y-121262190D01*
X140453904Y-121166952D01*
%TO.C,R9*%
X188059333Y-94687380D02*
X187726000Y-94211190D01*
X187487904Y-94687380D02*
X187487904Y-93687380D01*
X187868857Y-93687380D01*
X187964095Y-93735000D01*
X188011714Y-93782619D01*
X188059333Y-93877857D01*
X188059333Y-94020714D01*
X188011714Y-94115952D01*
X187964095Y-94163571D01*
X187868857Y-94211190D01*
X187487904Y-94211190D01*
X188535523Y-94687380D02*
X188726000Y-94687380D01*
X188821238Y-94639761D01*
X188868857Y-94592142D01*
X188964095Y-94449285D01*
X189011714Y-94258809D01*
X189011714Y-93877857D01*
X188964095Y-93782619D01*
X188916476Y-93735000D01*
X188821238Y-93687380D01*
X188630761Y-93687380D01*
X188535523Y-93735000D01*
X188487904Y-93782619D01*
X188440285Y-93877857D01*
X188440285Y-94115952D01*
X188487904Y-94211190D01*
X188535523Y-94258809D01*
X188630761Y-94306428D01*
X188821238Y-94306428D01*
X188916476Y-94258809D01*
X188964095Y-94211190D01*
X189011714Y-94115952D01*
%TO.C,R10*%
X191889142Y-100148380D02*
X191555809Y-99672190D01*
X191317714Y-100148380D02*
X191317714Y-99148380D01*
X191698666Y-99148380D01*
X191793904Y-99196000D01*
X191841523Y-99243619D01*
X191889142Y-99338857D01*
X191889142Y-99481714D01*
X191841523Y-99576952D01*
X191793904Y-99624571D01*
X191698666Y-99672190D01*
X191317714Y-99672190D01*
X192841523Y-100148380D02*
X192270095Y-100148380D01*
X192555809Y-100148380D02*
X192555809Y-99148380D01*
X192460571Y-99291238D01*
X192365333Y-99386476D01*
X192270095Y-99434095D01*
X193460571Y-99148380D02*
X193555809Y-99148380D01*
X193651047Y-99196000D01*
X193698666Y-99243619D01*
X193746285Y-99338857D01*
X193793904Y-99529333D01*
X193793904Y-99767428D01*
X193746285Y-99957904D01*
X193698666Y-100053142D01*
X193651047Y-100100761D01*
X193555809Y-100148380D01*
X193460571Y-100148380D01*
X193365333Y-100100761D01*
X193317714Y-100053142D01*
X193270095Y-99957904D01*
X193222476Y-99767428D01*
X193222476Y-99529333D01*
X193270095Y-99338857D01*
X193317714Y-99243619D01*
X193365333Y-99196000D01*
X193460571Y-99148380D01*
%TO.C,R11*%
X182757142Y-102942380D02*
X182423809Y-102466190D01*
X182185714Y-102942380D02*
X182185714Y-101942380D01*
X182566666Y-101942380D01*
X182661904Y-101990000D01*
X182709523Y-102037619D01*
X182757142Y-102132857D01*
X182757142Y-102275714D01*
X182709523Y-102370952D01*
X182661904Y-102418571D01*
X182566666Y-102466190D01*
X182185714Y-102466190D01*
X183709523Y-102942380D02*
X183138095Y-102942380D01*
X183423809Y-102942380D02*
X183423809Y-101942380D01*
X183328571Y-102085238D01*
X183233333Y-102180476D01*
X183138095Y-102228095D01*
X184661904Y-102942380D02*
X184090476Y-102942380D01*
X184376190Y-102942380D02*
X184376190Y-101942380D01*
X184280952Y-102085238D01*
X184185714Y-102180476D01*
X184090476Y-102228095D01*
%TO.C,R12*%
X182694642Y-106242380D02*
X182361309Y-105766190D01*
X182123214Y-106242380D02*
X182123214Y-105242380D01*
X182504166Y-105242380D01*
X182599404Y-105290000D01*
X182647023Y-105337619D01*
X182694642Y-105432857D01*
X182694642Y-105575714D01*
X182647023Y-105670952D01*
X182599404Y-105718571D01*
X182504166Y-105766190D01*
X182123214Y-105766190D01*
X183647023Y-106242380D02*
X183075595Y-106242380D01*
X183361309Y-106242380D02*
X183361309Y-105242380D01*
X183266071Y-105385238D01*
X183170833Y-105480476D01*
X183075595Y-105528095D01*
X184027976Y-105337619D02*
X184075595Y-105290000D01*
X184170833Y-105242380D01*
X184408928Y-105242380D01*
X184504166Y-105290000D01*
X184551785Y-105337619D01*
X184599404Y-105432857D01*
X184599404Y-105528095D01*
X184551785Y-105670952D01*
X183980357Y-106242380D01*
X184599404Y-106242380D01*
%TD*%
M02*
