M48
;DRILL file {KiCad (5.0.0)} date 03/23/20 14:11:08
;FORMAT={-:-/ absolute / inch / decimal}
FMAT,2
INCH,TZ
T1C0.0157
T2C0.0197
T3C0.0236
T4C0.0394
T5C0.0433
T6C0.0472
T7C0.0551
T8C0.0315
%
G90
G05
M72
T1
X4.968Y-3.787
X4.9724Y-4.1941
X5.097Y-4.697
X5.1787Y-5.4987
X5.1787Y-5.6187
X5.197Y-4.697
X5.277Y-5.537
X5.277Y-5.657
X5.2913Y-4.415
X5.3071Y-3.7378
X5.367Y-3.0757
X5.367Y-3.5294
X5.372Y-2.9183
X5.374Y-3.9386
X5.3858Y-3.6669
X5.3858Y-3.8362
X5.3898Y-4.6984
X5.3976Y-4.8402
X5.3976Y-4.9701
X5.4431Y-4.2632
X5.4449Y-4.1276
X5.457Y-5.137
X5.462Y-2.727
X5.5197Y-3.4177
X5.5748Y-4.6966
X5.577Y-3.247
X5.597Y-5.177
X5.6201Y-3.387
X5.697Y-5.217
X5.7495Y-3.93
X5.75Y-3.8
X5.7566Y-4.6966
X5.76Y-4.06
X5.76Y-4.19
X5.76Y-4.32
X5.76Y-4.45
X5.76Y-4.58
X5.76Y-4.84
X5.76Y-4.97
X5.8207Y-5.4168
X5.8231Y-5.5132
X5.9081Y-5.337
X5.9575Y-3.0741
X5.9681Y-5.297
X5.9753Y-5.5787
X6.012Y-3.6157
X6.012Y-3.6914
X6.0244Y-2.9196
X6.0281Y-5.257
X6.0354Y-5.6187
X6.0373Y-2.7067
X6.097Y-3.7732
X6.1375Y-3.0741
X6.2044Y-2.9196
X6.212Y-2.602
X6.2354Y-5.6187
X6.2644Y-2.7744
X6.2646Y-2.727
X6.2698Y-4.377
X6.302Y-3.3845
X6.302Y-3.5195
X6.3553Y-5.5787
X6.357Y-5.257
X6.357Y-5.297
X6.357Y-5.337
X6.377Y-2.947
X6.3791Y-3.3736
X6.3845Y-3.5095
X6.4173Y-2.6551
X6.4615Y-3.182
X6.522Y-3.262
X6.537Y-3.752
X6.5565Y-3.2925
X6.572Y-2.947
X6.577Y-5.137
X6.58Y-4.73
X6.617Y-5.117
X6.637Y-3.282
X6.637Y-3.327
X6.64Y-3.8611
X6.657Y-5.077
X6.677Y-3.752
X6.7264Y-3.0314
X6.7445Y-3.257
X6.7845Y-4.842
X6.8238Y-3.7452
X6.827Y-2.8995
X6.922Y-4.8445
X6.93Y-4.59
X6.9889Y-4.0611
X6.99Y-3.804
X6.99Y-4.01
X7.032Y-3.6201
X7.0394Y-3.807
X7.117Y-3.777
X7.12Y-4.62
X7.13Y-4.06
X7.257Y-5.117
X7.26Y-4.4131
X7.3095Y-3.775
X7.31Y-4.49
X7.31Y-4.78
X7.31Y-4.92
X7.3691Y-3.85
X7.437Y-4.55
X7.4567Y-3.8559
X7.5002Y-4.36
X7.5003Y-4.112
X7.597Y-4.237
X7.637Y-4.737
X7.637Y-4.957
X7.677Y-4.397
X7.677Y-4.737
X7.677Y-5.057
X7.717Y-5.137
X7.837Y-4.717
X7.937Y-4.717
X8.017Y-5.017
T2
X5.847Y-2.997
T3
X5.757Y-2.997
T4
X6.707Y-2.7345
X6.9245Y-2.7345
X7.1395Y-2.7345
X5.262Y-2.7145
X5.362Y-2.7145
T5
X6.757Y-5.417
X6.757Y-5.517
X6.857Y-5.417
X6.857Y-5.517
X6.957Y-5.417
X6.957Y-5.517
X7.057Y-5.417
X7.057Y-5.517
X7.157Y-5.417
X7.157Y-5.517
X7.817Y-3.917
X7.817Y-4.017
X7.817Y-4.117
X7.817Y-4.217
X7.817Y-4.317
X7.917Y-3.917
X7.917Y-4.017
X7.917Y-4.117
X7.917Y-4.217
X7.917Y-4.317
X7.817Y-4.797
X7.817Y-4.897
X7.817Y-4.997
X7.817Y-5.097
X7.817Y-5.197
X7.917Y-4.797
X7.917Y-4.897
X7.917Y-4.997
X7.917Y-5.097
X7.917Y-5.197
X5.097Y-3.917
X5.097Y-4.017
X5.097Y-4.117
X5.097Y-4.217
X5.097Y-4.317
X5.197Y-3.917
X5.197Y-4.017
X5.197Y-4.117
X5.197Y-4.217
X5.197Y-4.317
X5.097Y-4.797
X5.097Y-4.897
X5.097Y-4.997
X5.097Y-5.097
X5.097Y-5.197
X5.197Y-4.797
X5.197Y-4.897
X5.197Y-4.997
X5.197Y-5.097
X5.197Y-5.197
X5.8866Y-5.4156
X5.8866Y-5.5156
X5.9866Y-5.4156
X5.9866Y-5.5156
X6.0866Y-5.4156
X6.0866Y-5.5156
X6.1866Y-5.4156
X6.1866Y-5.5156
X6.2866Y-5.4156
X6.2866Y-5.5156
T6
X6.3829Y-2.2949
X6.688Y-2.2949
T7
X6.3888Y-2.4445
X6.6821Y-2.4445
T8
X6.437Y-2.4031
X6.6339Y-2.4031
T0
M30
