%TF.GenerationSoftware,KiCad,Pcbnew,(5.0.0)*%
%TF.CreationDate,2020-03-23T14:11:06+01:00*%
%TF.ProjectId,Schaltplan_Mainboard,536368616C74706C616E5F4D61696E62,rev?*%
%TF.SameCoordinates,Original*%
%TF.FileFunction,Copper,L4,Bot,Signal*%
%TF.FilePolarity,Positive*%
%FSLAX46Y46*%
G04 Gerber Fmt 4.6, Leading zero omitted, Abs format (unit mm)*
G04 Created by KiCad (PCBNEW (5.0.0)) date 03/23/20 14:11:06*
%MOMM*%
%LPD*%
G01*
G04 APERTURE LIST*
%TA.AperFunction,NonConductor*%
%ADD10C,0.100000*%
%TD*%
%TA.AperFunction,ComponentPad*%
%ADD11R,1.650000X1.650000*%
%TD*%
%TA.AperFunction,ComponentPad*%
%ADD12C,1.650000*%
%TD*%
%TA.AperFunction,ComponentPad*%
%ADD13R,1.700000X1.700000*%
%TD*%
%TA.AperFunction,ComponentPad*%
%ADD14O,1.700000X1.700000*%
%TD*%
%TA.AperFunction,ComponentPad*%
%ADD15R,2.000000X2.000000*%
%TD*%
%TA.AperFunction,ComponentPad*%
%ADD16C,1.800000*%
%TD*%
%TA.AperFunction,ComponentPad*%
%ADD17C,2.000000*%
%TD*%
%TA.AperFunction,ViaPad*%
%ADD18C,0.800000*%
%TD*%
%TA.AperFunction,ViaPad*%
%ADD19C,1.200000*%
%TD*%
%TA.AperFunction,Conductor*%
%ADD20C,0.200000*%
%TD*%
%TA.AperFunction,Conductor*%
%ADD21C,0.350000*%
%TD*%
G04 APERTURE END LIST*
D10*
X172400000Y-64440000D02*
X205400000Y-64440000D01*
X172400000Y-56440000D02*
X159200000Y-56440000D01*
X172400000Y-64440000D02*
X172400000Y-56440000D01*
X125400000Y-64440000D02*
X159200000Y-64440000D01*
X159200000Y-64440000D02*
X159200000Y-56440000D01*
X129400000Y-141450000D02*
G75*
G03X129400000Y-141450000I-1000000J0D01*
G01*
X203410000Y-67440000D02*
G75*
G03X203410000Y-67440000I-1000000J0D01*
G01*
X129400000Y-67440000D02*
G75*
G03X129400000Y-67440000I-1000000J0D01*
G01*
X203410000Y-141450000D02*
G75*
G03X203410000Y-141450000I-1000000J0D01*
G01*
X125400000Y-64440000D02*
X125400000Y-144440000D01*
X125400000Y-144440000D02*
X205400000Y-144440000D01*
X205400000Y-64440000D02*
X205400000Y-144440000D01*
D11*
%TO.P,J5,1*%
%TO.N,Net-(J5-Pad1)*%
X201092000Y-109652000D03*
D12*
%TO.P,J5,2*%
%TO.N,Net-(J5-Pad2)*%
X198552000Y-109652000D03*
%TO.P,J5,3*%
%TO.N,N/C*%
X201092000Y-107112000D03*
%TO.P,J5,4*%
X198552000Y-107112000D03*
%TO.P,J5,5*%
X201092000Y-104572000D03*
%TO.P,J5,6*%
X198552000Y-104572000D03*
%TO.P,J5,7*%
X201092000Y-102032000D03*
%TO.P,J5,8*%
X198552000Y-102032000D03*
%TO.P,J5,9*%
X201092000Y-99492000D03*
%TO.P,J5,10*%
X198552000Y-99492000D03*
%TD*%
%TO.P,J3,10*%
%TO.N,N/C*%
X181788000Y-137592000D03*
%TO.P,J3,9*%
X181788000Y-140132000D03*
%TO.P,J3,8*%
X179248000Y-137592000D03*
%TO.P,J3,7*%
X179248000Y-140132000D03*
%TO.P,J3,6*%
%TO.N,Net-(C29-Pad1)*%
X176708000Y-137592000D03*
%TO.P,J3,5*%
%TO.N,Net-(J3-Pad5)*%
X176708000Y-140132000D03*
%TO.P,J3,4*%
%TO.N,Net-(C28-Pad1)*%
X174168000Y-137592000D03*
%TO.P,J3,3*%
%TO.N,Net-(J3-Pad3)*%
X174168000Y-140132000D03*
%TO.P,J3,2*%
%TO.N,Net-(C27-Pad1)*%
X171628000Y-137592000D03*
D11*
%TO.P,J3,1*%
%TO.N,Net-(J3-Pad1)*%
X171628000Y-140132000D03*
%TD*%
D13*
%TO.P,TP1,1*%
%TO.N,EN*%
X136195000Y-68948500D03*
D14*
%TO.P,TP1,2*%
%TO.N,GND*%
X133655000Y-68948500D03*
%TD*%
D15*
%TO.P,TP2,1*%
%TO.N,+3V3*%
X175882500Y-69456500D03*
%TD*%
%TO.P,TP3,1*%
%TO.N,+5V*%
X170358000Y-69456500D03*
%TD*%
%TO.P,TP4,1*%
%TO.N,GND*%
X181343500Y-69456500D03*
%TD*%
D16*
%TO.P,J1,6*%
%TO.N,Net-(J1-Pad6)*%
X162125000Y-58290000D03*
X169875000Y-58290000D03*
D17*
X162275000Y-62090000D03*
X169725000Y-62090000D03*
%TD*%
D11*
%TO.P,J2,1*%
%TO.N,+3V3*%
X149520862Y-140095843D03*
D12*
%TO.P,J2,2*%
%TO.N,GND*%
X149520862Y-137555843D03*
%TO.P,J2,3*%
%TO.N,+5V*%
X152060862Y-140095843D03*
%TO.P,J2,4*%
%TO.N,/VSPI_CLK*%
X152060862Y-137555843D03*
%TO.P,J2,5*%
%TO.N,/SCL*%
X154600862Y-140095843D03*
%TO.P,J2,6*%
%TO.N,/VSPI_MOSI*%
X154600862Y-137555843D03*
%TO.P,J2,7*%
%TO.N,/SDA*%
X157140862Y-140095843D03*
%TO.P,J2,8*%
%TO.N,/VSPI_MISO*%
X157140862Y-137555843D03*
%TO.P,J2,9*%
%TO.N,Net-(J2-Pad9)*%
X159680862Y-140095843D03*
%TO.P,J2,10*%
%TO.N,/VSPI_CS*%
X159680862Y-137555843D03*
%TD*%
%TO.P,J7,10*%
%TO.N,N/C*%
X132004000Y-109652000D03*
%TO.P,J7,9*%
X129464000Y-109652000D03*
%TO.P,J7,8*%
%TO.N,Net-(J7-Pad8)*%
X132004000Y-107112000D03*
%TO.P,J7,7*%
%TO.N,Net-(J7-Pad7)*%
X129464000Y-107112000D03*
%TO.P,J7,6*%
%TO.N,Net-(C23-Pad1)*%
X132004000Y-104572000D03*
%TO.P,J7,5*%
%TO.N,Net-(J7-Pad5)*%
X129464000Y-104572000D03*
%TO.P,J7,4*%
%TO.N,Net-(C22-Pad1)*%
X132004000Y-102032000D03*
%TO.P,J7,3*%
%TO.N,Net-(J7-Pad3)*%
X129464000Y-102032000D03*
%TO.P,J7,2*%
%TO.N,Net-(J7-Pad2)*%
X132004000Y-99492000D03*
D11*
%TO.P,J7,1*%
%TO.N,Net-(J7-Pad1)*%
X129464000Y-99492000D03*
%TD*%
D12*
%TO.P,J4,10*%
%TO.N,/VSPI_CS*%
X198552000Y-121844000D03*
%TO.P,J4,9*%
%TO.N,Net-(J4-Pad9)*%
X201092000Y-121844000D03*
%TO.P,J4,8*%
%TO.N,/VSPI_MISO*%
X198552000Y-124384000D03*
%TO.P,J4,7*%
%TO.N,/SDA*%
X201092000Y-124384000D03*
%TO.P,J4,6*%
%TO.N,/VSPI_MOSI*%
X198552000Y-126924000D03*
%TO.P,J4,5*%
%TO.N,/SCL*%
X201092000Y-126924000D03*
%TO.P,J4,4*%
%TO.N,/VSPI_CLK*%
X198552000Y-129464000D03*
%TO.P,J4,3*%
%TO.N,+5V*%
X201092000Y-129464000D03*
%TO.P,J4,2*%
%TO.N,GND*%
X198552000Y-132004000D03*
D11*
%TO.P,J4,1*%
%TO.N,+3V3*%
X201092000Y-132004000D03*
%TD*%
D12*
%TO.P,J6,10*%
%TO.N,/VSPI_CS*%
X132004000Y-132004000D03*
%TO.P,J6,9*%
%TO.N,Net-(J6-Pad9)*%
X129464000Y-132004000D03*
%TO.P,J6,8*%
%TO.N,/VSPI_MISO*%
X132004000Y-129464000D03*
%TO.P,J6,7*%
%TO.N,/SDA*%
X129464000Y-129464000D03*
%TO.P,J6,6*%
%TO.N,/VSPI_MOSI*%
X132004000Y-126924000D03*
%TO.P,J6,5*%
%TO.N,/SCL*%
X129464000Y-126924000D03*
%TO.P,J6,4*%
%TO.N,/VSPI_CLK*%
X132004000Y-124384000D03*
%TO.P,J6,3*%
%TO.N,+5V*%
X129464000Y-124384000D03*
%TO.P,J6,2*%
%TO.N,GND*%
X132004000Y-121844000D03*
D11*
%TO.P,J6,1*%
%TO.N,+3V3*%
X129464000Y-121844000D03*
%TD*%
D18*
%TO.N,Net-(C13-Pad1)*%
X166536000Y-83629000D03*
X168580000Y-84506000D03*
%TO.N,/RXD*%
X177546000Y-101854000D03*
X177546000Y-96622000D03*
%TO.N,Net-(D1-Pad4)*%
X153020093Y-74157907D03*
X159120000Y-69266000D03*
%TO.N,GND*%
X167132000Y-120142000D03*
X146304000Y-116332000D03*
X146304000Y-113030000D03*
X146304000Y-109728000D03*
X146304000Y-106426000D03*
X146304000Y-103124000D03*
X146304000Y-122936000D03*
X168656000Y-98071000D03*
X190508000Y-104445000D03*
X190504000Y-110744000D03*
X185674000Y-114046000D03*
X188900000Y-115570000D03*
X146050000Y-96520000D03*
X146304000Y-126238000D03*
X146217292Y-119293292D03*
X180772000Y-95936000D03*
X147846862Y-137585843D03*
X189400000Y-97940000D03*
X146038000Y-99822000D03*
X132004000Y-119304000D03*
X159253000Y-111176000D03*
X136322000Y-89648000D03*
X136322000Y-78124000D03*
D19*
X148514000Y-76124000D03*
D18*
X153348000Y-68750000D03*
X151320593Y-78081579D03*
X155892593Y-78081579D03*
X138735000Y-69266000D03*
X141656000Y-82474000D03*
X162030000Y-85690000D03*
X173324000Y-95129000D03*
X178613000Y-91950500D03*
X166040000Y-95301000D03*
X152705000Y-93761000D03*
X154864000Y-95840000D03*
X163000000Y-67440000D03*
X172326500Y-122987000D03*
X171310500Y-82728000D03*
%TO.N,+5V*%
X126300000Y-106530000D03*
X126187400Y-96190000D03*
X157785000Y-66091000D03*
X151772000Y-141700000D03*
X161424000Y-141700000D03*
%TO.N,/SDA*%
X134036000Y-143688000D03*
X134036000Y-140640000D03*
%TO.N,+3V3*%
X181102000Y-103124000D03*
X180848000Y-117348000D03*
X185661000Y-95885000D03*
X147906862Y-140035843D03*
X129464000Y-119304000D03*
X136800000Y-93140000D03*
D19*
X146228000Y-76124000D03*
D18*
X169596000Y-95301000D03*
X152705000Y-91840000D03*
X175819000Y-123050500D03*
X173406000Y-73647500D03*
X162166500Y-89141500D03*
%TO.N,/SCL*%
X131538010Y-142714010D03*
X131538010Y-139666010D03*
X153297990Y-142714010D03*
X158377990Y-142714010D03*
X203632000Y-127432000D03*
X194996000Y-111684000D03*
%TO.N,Net-(J5-Pad2)*%
X137100000Y-122940000D03*
%TO.N,/VSPI_CLK*%
X184404000Y-112092500D03*
X150065019Y-135560000D03*
X161468000Y-135560000D03*
X196012000Y-130480000D03*
%TO.N,/VSPI_MISO*%
X142164000Y-131496000D03*
X153113019Y-133528000D03*
X161468000Y-133528000D03*
X193980000Y-125908000D03*
X193980000Y-120320000D03*
%TO.N,/VSPI_MOSI*%
X187175000Y-97790000D03*
X138608000Y-130480000D03*
X151589019Y-134544000D03*
X161468000Y-134544000D03*
X194996000Y-128448000D03*
X194996000Y-120320000D03*
X192964000Y-107620000D03*
%TO.N,IO0*%
X176022000Y-116586000D03*
X140200000Y-86810000D03*
X166929000Y-74854000D03*
%TO.N,Net-(D1-Pad3)*%
X159116000Y-70470000D03*
X157592093Y-74157907D03*
%TO.N,Net-(J5-Pad1)*%
X137100000Y-126240000D03*
%TO.N,Net-(C29-Pad1)*%
X185674000Y-121412000D03*
%TO.N,Net-(C28-Pad1)*%
X185674000Y-124968000D03*
%TO.N,Net-(C27-Pad1)*%
X184328000Y-129972000D03*
%TO.N,Net-(J3-Pad5)*%
X138254500Y-108285500D03*
X134400000Y-112140000D03*
X167056000Y-130480000D03*
%TO.N,Net-(J3-Pad3)*%
X168072000Y-129972000D03*
%TO.N,Net-(J3-Pad1)*%
X169088000Y-128956000D03*
%TO.N,Net-(C23-Pad1)*%
X141600000Y-119293292D03*
X136900000Y-119340000D03*
%TO.N,/TXD*%
X177519000Y-103151000D03*
X178800000Y-96698000D03*
%TO.N,Net-(R17-Pad1)*%
X165659000Y-82855000D03*
X168580000Y-83363000D03*
%TO.N,Net-(J7-Pad7)*%
X136800000Y-97440000D03*
X134800000Y-94940000D03*
%TO.N,Net-(J7-Pad3)*%
X136500000Y-100040000D03*
X138300000Y-104840000D03*
%TO.N,/VSPI_CS*%
X199060000Y-119812000D03*
X144704000Y-132512000D03*
%TO.N,Net-(J4-Pad9)*%
X201600000Y-119812000D03*
%TO.N,/DTR*%
X164122501Y-80823000D03*
X170850000Y-76997000D03*
%TO.N,EN*%
X142750500Y-86030000D03*
X161976000Y-74854000D03*
X136449000Y-74124000D03*
%TO.N,VBUS*%
X160071000Y-89395500D03*
X160071000Y-85966500D03*
%TD*%
D20*
%TO.N,Net-(C13-Pad1)*%
X166536000Y-83629000D02*
X166935999Y-84028999D01*
X167413000Y-84506000D02*
X166536000Y-83629000D01*
X168580000Y-84506000D02*
X167413000Y-84506000D01*
D21*
%TO.N,/RXD*%
X177546000Y-101854000D02*
X177546000Y-96622000D01*
X177546000Y-96622000D02*
X177546000Y-96622000D01*
%TO.N,Net-(D1-Pad4)*%
X153585778Y-74157907D02*
X158477685Y-69266000D01*
X153020093Y-74157907D02*
X153585778Y-74157907D01*
X158477685Y-69266000D02*
X159182000Y-69266000D01*
X159182000Y-69266000D02*
X159182000Y-69266000D01*
%TO.N,GND*%
X149370862Y-137585843D02*
X147846862Y-137585843D01*
%TO.N,+5V*%
X152058862Y-140097843D02*
X152060862Y-140095843D01*
X126187400Y-106417400D02*
X126300000Y-106530000D01*
X126187400Y-96190000D02*
X126187400Y-106417400D01*
X170358000Y-68106500D02*
X168342500Y-66091000D01*
X170358000Y-69456500D02*
X170358000Y-68106500D01*
X168342500Y-66091000D02*
X157785000Y-66091000D01*
X157785000Y-66091000D02*
X157785000Y-66091000D01*
X151772000Y-141700000D02*
X161424000Y-141700000D01*
X161424000Y-141700000D02*
X161424000Y-141700000D01*
%TO.N,/SDA*%
X134036000Y-143688000D02*
X134036000Y-142079980D01*
X134036000Y-142164000D02*
X134036000Y-140640000D01*
%TO.N,+3V3*%
X149430862Y-140035843D02*
X147906862Y-140035843D01*
%TO.N,/SCL*%
X131538010Y-142714010D02*
X131538010Y-139666010D01*
X131538010Y-139666010D02*
X131538010Y-139666010D01*
X153297990Y-142714010D02*
X158377990Y-142714010D01*
X158377990Y-142714010D02*
X158377990Y-142714010D01*
X203632000Y-127432000D02*
X203632000Y-119812000D01*
X203632000Y-119812000D02*
X202108000Y-118288000D01*
X202108000Y-118288000D02*
X200076000Y-118288000D01*
X200076000Y-118288000D02*
X195504000Y-113716000D01*
X195504000Y-113716000D02*
X194996000Y-113208000D01*
X194996000Y-113208000D02*
X194996000Y-111684000D01*
X194996000Y-111684000D02*
X194996000Y-111684000D01*
%TO.N,Net-(J5-Pad2)*%
X137665685Y-122940000D02*
X137100000Y-122940000D01*
X139565685Y-121040000D02*
X137665685Y-122940000D01*
X151500000Y-121040000D02*
X139565685Y-121040000D01*
X155178999Y-117361001D02*
X151500000Y-121040000D01*
X197536000Y-108636000D02*
X183312000Y-108636000D01*
X198552000Y-109652000D02*
X197536000Y-108636000D01*
X178740000Y-113208000D02*
X178740000Y-115748000D01*
X183312000Y-108636000D02*
X178740000Y-113208000D01*
X178740000Y-115748000D02*
X177126999Y-117361001D01*
X177126999Y-117361001D02*
X155178999Y-117361001D01*
%TO.N,/VSPI_CLK*%
X184404000Y-112092500D02*
X184658000Y-112346500D01*
X150065019Y-135560000D02*
X161468000Y-135560000D01*
X161468000Y-135560000D02*
X161468000Y-135560000D01*
X188800500Y-112092500D02*
X184404000Y-112092500D01*
X196012000Y-130480000D02*
X196012000Y-119304000D01*
X196012000Y-119304000D02*
X188800500Y-112092500D01*
%TO.N,/VSPI_MISO*%
X142164000Y-131496000D02*
X135560000Y-131496000D01*
X133528000Y-129464000D02*
X132004000Y-129464000D01*
X135560000Y-131496000D02*
X133528000Y-129464000D01*
X153113019Y-133528000D02*
X159436000Y-133528000D01*
X159436000Y-133528000D02*
X160452000Y-133528000D01*
X160452000Y-133528000D02*
X161468000Y-133528000D01*
X161468000Y-133528000D02*
X161468000Y-133528000D01*
X193980000Y-125908000D02*
X193980000Y-120320000D01*
X193980000Y-120320000D02*
X193980000Y-120320000D01*
%TO.N,/VSPI_MOSI*%
X132512000Y-126924000D02*
X132004000Y-126924000D01*
X138608000Y-130480000D02*
X136068000Y-130480000D01*
X136068000Y-130480000D02*
X132512000Y-126924000D01*
X151589019Y-134544000D02*
X160452000Y-134544000D01*
X160452000Y-134544000D02*
X161468000Y-134544000D01*
X161468000Y-134544000D02*
X161468000Y-134544000D01*
X194996000Y-128448000D02*
X194996000Y-120320000D01*
X194996000Y-120320000D02*
X194996000Y-120320000D01*
X192964000Y-103579000D02*
X187175000Y-97790000D01*
X192964000Y-107620000D02*
X192964000Y-103579000D01*
%TO.N,IO0*%
X176022000Y-116586000D02*
X167222000Y-116586000D01*
X167222000Y-116586000D02*
X155194000Y-116586000D01*
X148260000Y-109652000D02*
X155194000Y-116586000D01*
X148260000Y-109652000D02*
X140200000Y-101592000D01*
X140200000Y-101592000D02*
X140200000Y-86810000D01*
X140200000Y-86810000D02*
X140200000Y-86810000D01*
D20*
X166929000Y-74854000D02*
X166929000Y-74854000D01*
X153213000Y-86810000D02*
X154084000Y-86810000D01*
X166929000Y-74854000D02*
X155118000Y-86665000D01*
X140200000Y-86810000D02*
X153213000Y-86810000D01*
X154973000Y-86810000D02*
X155118000Y-86665000D01*
X154084000Y-86810000D02*
X154973000Y-86810000D01*
D21*
%TO.N,Net-(D1-Pad3)*%
X159116000Y-72634000D02*
X159116000Y-70470000D01*
X157592093Y-74157907D02*
X159116000Y-72634000D01*
%TO.N,Net-(J5-Pad1)*%
X201092000Y-110827000D02*
X200743000Y-111176000D01*
X201092000Y-109652000D02*
X201092000Y-110827000D01*
X200743000Y-111176000D02*
X197028000Y-111176000D01*
X195820999Y-109968999D02*
X196012000Y-110160000D01*
X184011001Y-109968999D02*
X195820999Y-109968999D01*
X180264000Y-113716000D02*
X184011001Y-109968999D01*
X180264000Y-115748000D02*
X180264000Y-113716000D01*
X177216000Y-118796000D02*
X180264000Y-115748000D01*
X197028000Y-111176000D02*
X196012000Y-110160000D01*
X137100000Y-126240000D02*
X141495000Y-121845000D01*
X141495000Y-121845000D02*
X153595000Y-121845000D01*
X153595000Y-121845000D02*
X156644000Y-118796000D01*
X156644000Y-118796000D02*
X177216000Y-118796000D01*
%TO.N,Net-(C29-Pad1)*%
X185674000Y-121977685D02*
X186944000Y-123247685D01*
X185674000Y-121412000D02*
X185674000Y-121977685D01*
X186944000Y-123247685D02*
X186944000Y-127940000D01*
X186944000Y-127940000D02*
X186944000Y-128016000D01*
X186944000Y-127940000D02*
X186944000Y-129896000D01*
X186944000Y-129388000D02*
X186944000Y-129388000D01*
X186944000Y-129388000D02*
X186944000Y-129896000D01*
X186944000Y-129896000D02*
X186944000Y-129388000D01*
X176708000Y-137592000D02*
X178740000Y-135560000D01*
X178740000Y-135560000D02*
X184836000Y-135560000D01*
X186944000Y-133452000D02*
X186944000Y-129896000D01*
X184836000Y-135560000D02*
X186944000Y-133452000D01*
%TO.N,Net-(C28-Pad1)*%
X185674000Y-129794000D02*
X185674000Y-129286000D01*
X174168000Y-137592000D02*
X174168000Y-136068000D01*
X185674000Y-127508000D02*
X185674000Y-124968000D01*
X185674000Y-133198000D02*
X185674000Y-127508000D01*
X184328000Y-134544000D02*
X185674000Y-133198000D01*
X175692000Y-134544000D02*
X184328000Y-134544000D01*
X174168000Y-136068000D02*
X175692000Y-134544000D01*
%TO.N,Net-(C27-Pad1)*%
X171628000Y-137592000D02*
X171628000Y-136576000D01*
X171628000Y-136576000D02*
X174676000Y-133528000D01*
X174676000Y-133528000D02*
X182804000Y-133528000D01*
X182804000Y-133528000D02*
X183820000Y-133528000D01*
X183820000Y-133528000D02*
X184328000Y-133020000D01*
X184328000Y-133020000D02*
X184328000Y-129972000D01*
X184328000Y-129972000D02*
X184328000Y-129972000D01*
%TO.N,Net-(J3-Pad5)*%
X138254500Y-108285500D02*
X134400000Y-112140000D01*
X176708000Y-140132000D02*
X176708000Y-142672000D01*
X176708000Y-142672000D02*
X176708000Y-143180000D01*
X175873010Y-144014990D02*
X168024990Y-144014990D01*
X176708000Y-143180000D02*
X175873010Y-144014990D01*
X168024990Y-144014990D02*
X167890990Y-144014990D01*
X134400000Y-112140000D02*
X134400000Y-112140000D01*
X167056000Y-143180000D02*
X167056000Y-130480000D01*
X167890990Y-144014990D02*
X167056000Y-143180000D01*
%TO.N,Net-(J3-Pad3)*%
X174168000Y-140132000D02*
X174168000Y-141656000D01*
X174168000Y-141656000D02*
X174168000Y-142164000D01*
X174168000Y-142164000D02*
X173152000Y-143180000D01*
X173152000Y-143180000D02*
X168580000Y-143180000D01*
X168580000Y-143180000D02*
X168072000Y-142672000D01*
X168072000Y-142672000D02*
X168072000Y-129972000D01*
X168072000Y-129972000D02*
X168072000Y-129972000D01*
%TO.N,Net-(J3-Pad1)*%
X171628000Y-141307000D02*
X170771000Y-142164000D01*
X171628000Y-140132000D02*
X171628000Y-141307000D01*
X170771000Y-142164000D02*
X169596000Y-142164000D01*
X169596000Y-142164000D02*
X169088000Y-141656000D01*
X169088000Y-141656000D02*
X169088000Y-128956000D01*
X169088000Y-128956000D02*
X169088000Y-128956000D01*
%TO.N,Net-(C23-Pad1)*%
X141034315Y-119293292D02*
X140987607Y-119340000D01*
X141600000Y-119293292D02*
X141034315Y-119293292D01*
X140987607Y-119340000D02*
X136900000Y-119340000D01*
X136900000Y-119340000D02*
X136700000Y-119340000D01*
%TO.N,/TXD*%
X177519000Y-103151000D02*
X178389000Y-103151000D01*
X178389000Y-103151000D02*
X178800000Y-102740000D01*
X178800000Y-102740000D02*
X178800000Y-99044000D01*
X178800000Y-99044000D02*
X178800000Y-96504000D01*
X178800000Y-96504000D02*
X178800000Y-96504000D01*
D20*
%TO.N,Net-(R17-Pad1)*%
X166298684Y-82928999D02*
X168145999Y-82928999D01*
X165659000Y-82855000D02*
X166224685Y-82855000D01*
X166224685Y-82855000D02*
X166298684Y-82928999D01*
X168145999Y-82928999D02*
X168580000Y-83363000D01*
D21*
%TO.N,Net-(J7-Pad7)*%
X136800000Y-96940000D02*
X134800000Y-94940000D01*
X136800000Y-97440000D02*
X136800000Y-96940000D01*
%TO.N,Net-(J7-Pad3)*%
X138300000Y-101840000D02*
X136500000Y-100040000D01*
X138300000Y-104840000D02*
X138300000Y-101840000D01*
%TO.N,/VSPI_CS*%
X199060000Y-121844000D02*
X199060000Y-120320000D01*
X199060000Y-120320000D02*
X199060000Y-120320000D01*
X199060000Y-120320000D02*
X199060000Y-119812000D01*
X132512000Y-132512000D02*
X132004000Y-132004000D01*
X144704000Y-132512000D02*
X132512000Y-132512000D01*
%TO.N,Net-(J1-Pad6)*%
X169725000Y-58440000D02*
X169875000Y-58290000D01*
X162275000Y-58440000D02*
X162125000Y-58290000D01*
%TO.N,Net-(J4-Pad9)*%
X201600000Y-121844000D02*
X201600000Y-120320000D01*
X201600000Y-120320000D02*
X201600000Y-120320000D01*
X201600000Y-120320000D02*
X201600000Y-119812000D01*
D20*
%TO.N,/DTR*%
X167948501Y-76997000D02*
X170850000Y-76997000D01*
X164122501Y-80823000D02*
X167948501Y-76997000D01*
%TO.N,EN*%
X142750500Y-86030000D02*
X153721000Y-86030000D01*
X153721000Y-86030000D02*
X160325000Y-79426000D01*
X161214000Y-75616000D02*
X161976000Y-74854000D01*
X161976000Y-74854000D02*
X161976000Y-74854000D01*
X160325000Y-79426000D02*
X161214000Y-78537000D01*
X161214000Y-78537000D02*
X161214000Y-75616000D01*
D21*
X136195000Y-73870000D02*
X136449000Y-74124000D01*
X136195000Y-68948500D02*
X136195000Y-73870000D01*
%TO.N,VBUS*%
X160071000Y-89395500D02*
X160071000Y-88829815D01*
X160071000Y-88829815D02*
X160071000Y-85966500D01*
X160071000Y-85966500D02*
X160071000Y-85966500D01*
%TD*%
M02*
