M48
;DRILL file {KiCad (5.0.0)} date 03/23/20 14:18:10
;FORMAT={-:-/ absolute / inch / decimal}
FMAT,2
INCH,TZ
T1C0.0157
T2C0.0433
T3C0.0472
T4C0.0551
T5C0.0591
%
G90
G05
M72
T1
X5.277Y-5.0485
X5.412Y-5.2935
X5.417Y-5.0885
X5.637Y-5.1485
X5.697Y-5.0158
X5.752Y-5.016
X5.777Y-5.2085
X5.977Y-5.2872
X6.0045Y-5.216
X6.017Y-5.0372
X6.0845Y-5.1244
X6.3246Y-4.9685
X6.6883Y-5.0372
X6.9146Y-5.0323
X7.2108Y-4.9636
X7.5144Y-4.9636
T2
X4.4122Y-5.6028
X4.4122Y-5.7028
X4.5122Y-5.6028
X4.5122Y-5.7028
X4.6122Y-5.6028
X4.6122Y-5.7028
X4.7122Y-5.6028
X4.7122Y-5.7028
X4.8122Y-5.6028
X4.8122Y-5.7028
X5.2813Y-5.6028
X5.2813Y-5.7028
X5.3813Y-5.6028
X5.3813Y-5.7028
X5.4813Y-5.6028
X5.4813Y-5.7028
X5.5813Y-5.6028
X5.5813Y-5.7028
X5.6813Y-5.6028
X5.6813Y-5.7028
T4
X4.5367Y-4.2047
X4.5367Y-4.4409
X4.7336Y-4.2047
X4.7336Y-4.4409
X5.4175Y-4.2047
X5.4175Y-4.4409
X5.6144Y-4.2047
X5.6144Y-4.4409
X6.3051Y-4.2047
X6.3051Y-4.4409
X6.502Y-4.2047
X6.502Y-4.4409
X7.1859Y-4.2047
X7.1859Y-4.4409
X7.3828Y-4.2047
X7.3828Y-4.4409
T5
X5.8957Y-4.8957
X5.8957Y-5.3406
T3
X5.3449Y-2.5591G85X5.5831Y-2.5591
G05
X4.4618Y-2.5591G85X4.7Y-2.5591
G05
X4.4618Y-3.3465G85X4.7Y-3.3465
G05
X7.111Y-2.5591G85X7.3492Y-2.5591
G05
X6.228Y-3.3465G85X6.4661Y-3.3465
G05
X6.228Y-2.5591G85X6.4661Y-2.5591
G05
X7.111Y-3.3465G85X7.3492Y-3.3465
G05
X5.3449Y-3.3465G85X5.5831Y-3.3465
G05
T0
M30
