%TF.GenerationSoftware,KiCad,Pcbnew,(5.0.0)*%
%TF.CreationDate,2020-03-24T12:10:01+01:00*%
%TF.ProjectId,Schaltplan_Modul2,536368616C74706C616E5F4D6F64756C,rev?*%
%TF.SameCoordinates,Original*%
%TF.FileFunction,Soldermask,Top*%
%TF.FilePolarity,Negative*%
%FSLAX46Y46*%
G04 Gerber Fmt 4.6, Leading zero omitted, Abs format (unit mm)*
G04 Created by KiCad (PCBNEW (5.0.0)) date 03/24/20 12:10:01*
%MOMM*%
%LPD*%
G01*
G04 APERTURE LIST*
%ADD10C,0.100000*%
%ADD11C,0.150000*%
%ADD12C,0.975000*%
%ADD13R,0.800000X0.900000*%
%ADD14R,1.300000X1.300000*%
%ADD15R,1.300000X2.000000*%
%ADD16R,1.500000X0.600000*%
%ADD17C,4.000000*%
%ADD18O,2.400000X2.400000*%
%ADD19R,2.400000X2.400000*%
%ADD20R,1.650000X1.650000*%
%ADD21C,1.650000*%
%ADD22O,1.700000X1.700000*%
%ADD23R,1.700000X1.700000*%
G04 APERTURE END LIST*
D10*
X98285000Y-141450000D02*
G75*
G03X98285000Y-141450000I-1000000J0D01*
G01*
X191980000Y-141450000D02*
G75*
G03X191980000Y-141450000I-1000000J0D01*
G01*
X191980000Y-47755000D02*
G75*
G03X191980000Y-47755000I-1000000J0D01*
G01*
X98285000Y-47755000D02*
G75*
G03X98285000Y-47755000I-1000000J0D01*
G01*
X94285000Y-144755000D02*
X194285000Y-144755000D01*
X194285000Y-44755000D02*
X194285000Y-144755000D01*
X94285000Y-144755000D02*
X94285000Y-44755000D01*
X94285000Y-44755000D02*
X194285000Y-44755000D01*
D11*
%TO.C,C3*%
G36*
X155217142Y-65683174D02*
X155240803Y-65686684D01*
X155264007Y-65692496D01*
X155286529Y-65700554D01*
X155308153Y-65710782D01*
X155328670Y-65723079D01*
X155347883Y-65737329D01*
X155365607Y-65753393D01*
X155381671Y-65771117D01*
X155395921Y-65790330D01*
X155408218Y-65810847D01*
X155418446Y-65832471D01*
X155426504Y-65854993D01*
X155432316Y-65878197D01*
X155435826Y-65901858D01*
X155437000Y-65925750D01*
X155437000Y-66413250D01*
X155435826Y-66437142D01*
X155432316Y-66460803D01*
X155426504Y-66484007D01*
X155418446Y-66506529D01*
X155408218Y-66528153D01*
X155395921Y-66548670D01*
X155381671Y-66567883D01*
X155365607Y-66585607D01*
X155347883Y-66601671D01*
X155328670Y-66615921D01*
X155308153Y-66628218D01*
X155286529Y-66638446D01*
X155264007Y-66646504D01*
X155240803Y-66652316D01*
X155217142Y-66655826D01*
X155193250Y-66657000D01*
X154280750Y-66657000D01*
X154256858Y-66655826D01*
X154233197Y-66652316D01*
X154209993Y-66646504D01*
X154187471Y-66638446D01*
X154165847Y-66628218D01*
X154145330Y-66615921D01*
X154126117Y-66601671D01*
X154108393Y-66585607D01*
X154092329Y-66567883D01*
X154078079Y-66548670D01*
X154065782Y-66528153D01*
X154055554Y-66506529D01*
X154047496Y-66484007D01*
X154041684Y-66460803D01*
X154038174Y-66437142D01*
X154037000Y-66413250D01*
X154037000Y-65925750D01*
X154038174Y-65901858D01*
X154041684Y-65878197D01*
X154047496Y-65854993D01*
X154055554Y-65832471D01*
X154065782Y-65810847D01*
X154078079Y-65790330D01*
X154092329Y-65771117D01*
X154108393Y-65753393D01*
X154126117Y-65737329D01*
X154145330Y-65723079D01*
X154165847Y-65710782D01*
X154187471Y-65700554D01*
X154209993Y-65692496D01*
X154233197Y-65686684D01*
X154256858Y-65683174D01*
X154280750Y-65682000D01*
X155193250Y-65682000D01*
X155217142Y-65683174D01*
X155217142Y-65683174D01*
G37*
D12*
X154737000Y-66169500D03*
D11*
G36*
X155217142Y-67558174D02*
X155240803Y-67561684D01*
X155264007Y-67567496D01*
X155286529Y-67575554D01*
X155308153Y-67585782D01*
X155328670Y-67598079D01*
X155347883Y-67612329D01*
X155365607Y-67628393D01*
X155381671Y-67646117D01*
X155395921Y-67665330D01*
X155408218Y-67685847D01*
X155418446Y-67707471D01*
X155426504Y-67729993D01*
X155432316Y-67753197D01*
X155435826Y-67776858D01*
X155437000Y-67800750D01*
X155437000Y-68288250D01*
X155435826Y-68312142D01*
X155432316Y-68335803D01*
X155426504Y-68359007D01*
X155418446Y-68381529D01*
X155408218Y-68403153D01*
X155395921Y-68423670D01*
X155381671Y-68442883D01*
X155365607Y-68460607D01*
X155347883Y-68476671D01*
X155328670Y-68490921D01*
X155308153Y-68503218D01*
X155286529Y-68513446D01*
X155264007Y-68521504D01*
X155240803Y-68527316D01*
X155217142Y-68530826D01*
X155193250Y-68532000D01*
X154280750Y-68532000D01*
X154256858Y-68530826D01*
X154233197Y-68527316D01*
X154209993Y-68521504D01*
X154187471Y-68513446D01*
X154165847Y-68503218D01*
X154145330Y-68490921D01*
X154126117Y-68476671D01*
X154108393Y-68460607D01*
X154092329Y-68442883D01*
X154078079Y-68423670D01*
X154065782Y-68403153D01*
X154055554Y-68381529D01*
X154047496Y-68359007D01*
X154041684Y-68335803D01*
X154038174Y-68312142D01*
X154037000Y-68288250D01*
X154037000Y-67800750D01*
X154038174Y-67776858D01*
X154041684Y-67753197D01*
X154047496Y-67729993D01*
X154055554Y-67707471D01*
X154065782Y-67685847D01*
X154078079Y-67665330D01*
X154092329Y-67646117D01*
X154108393Y-67628393D01*
X154126117Y-67612329D01*
X154145330Y-67598079D01*
X154165847Y-67585782D01*
X154187471Y-67575554D01*
X154209993Y-67567496D01*
X154233197Y-67561684D01*
X154256858Y-67558174D01*
X154280750Y-67557000D01*
X155193250Y-67557000D01*
X155217142Y-67558174D01*
X155217142Y-67558174D01*
G37*
D12*
X154737000Y-68044500D03*
%TD*%
D13*
%TO.C,Q1*%
X149149000Y-56455000D03*
X150099000Y-58455000D03*
X148199000Y-58455000D03*
%TD*%
D14*
%TO.C,RV1*%
X183395000Y-62909000D03*
D15*
X177895000Y-64059000D03*
D14*
X183395000Y-65209000D03*
%TD*%
D16*
%TO.C,U1*%
X160247000Y-72060000D03*
X160247000Y-70790000D03*
X160247000Y-69520000D03*
X160247000Y-68250000D03*
X160247000Y-66980000D03*
X160247000Y-65710000D03*
X160247000Y-64440000D03*
X160247000Y-63170000D03*
X169547000Y-63170000D03*
X169547000Y-64440000D03*
X169547000Y-65710000D03*
X169547000Y-66980000D03*
X169547000Y-68250000D03*
X169547000Y-69520000D03*
X169547000Y-70790000D03*
X169547000Y-72060000D03*
%TD*%
D11*
%TO.C,C4*%
G36*
X154552642Y-103056174D02*
X154576303Y-103059684D01*
X154599507Y-103065496D01*
X154622029Y-103073554D01*
X154643653Y-103083782D01*
X154664170Y-103096079D01*
X154683383Y-103110329D01*
X154701107Y-103126393D01*
X154717171Y-103144117D01*
X154731421Y-103163330D01*
X154743718Y-103183847D01*
X154753946Y-103205471D01*
X154762004Y-103227993D01*
X154767816Y-103251197D01*
X154771326Y-103274858D01*
X154772500Y-103298750D01*
X154772500Y-104211250D01*
X154771326Y-104235142D01*
X154767816Y-104258803D01*
X154762004Y-104282007D01*
X154753946Y-104304529D01*
X154743718Y-104326153D01*
X154731421Y-104346670D01*
X154717171Y-104365883D01*
X154701107Y-104383607D01*
X154683383Y-104399671D01*
X154664170Y-104413921D01*
X154643653Y-104426218D01*
X154622029Y-104436446D01*
X154599507Y-104444504D01*
X154576303Y-104450316D01*
X154552642Y-104453826D01*
X154528750Y-104455000D01*
X154041250Y-104455000D01*
X154017358Y-104453826D01*
X153993697Y-104450316D01*
X153970493Y-104444504D01*
X153947971Y-104436446D01*
X153926347Y-104426218D01*
X153905830Y-104413921D01*
X153886617Y-104399671D01*
X153868893Y-104383607D01*
X153852829Y-104365883D01*
X153838579Y-104346670D01*
X153826282Y-104326153D01*
X153816054Y-104304529D01*
X153807996Y-104282007D01*
X153802184Y-104258803D01*
X153798674Y-104235142D01*
X153797500Y-104211250D01*
X153797500Y-103298750D01*
X153798674Y-103274858D01*
X153802184Y-103251197D01*
X153807996Y-103227993D01*
X153816054Y-103205471D01*
X153826282Y-103183847D01*
X153838579Y-103163330D01*
X153852829Y-103144117D01*
X153868893Y-103126393D01*
X153886617Y-103110329D01*
X153905830Y-103096079D01*
X153926347Y-103083782D01*
X153947971Y-103073554D01*
X153970493Y-103065496D01*
X153993697Y-103059684D01*
X154017358Y-103056174D01*
X154041250Y-103055000D01*
X154528750Y-103055000D01*
X154552642Y-103056174D01*
X154552642Y-103056174D01*
G37*
D12*
X154285000Y-103755000D03*
D11*
G36*
X152677642Y-103056174D02*
X152701303Y-103059684D01*
X152724507Y-103065496D01*
X152747029Y-103073554D01*
X152768653Y-103083782D01*
X152789170Y-103096079D01*
X152808383Y-103110329D01*
X152826107Y-103126393D01*
X152842171Y-103144117D01*
X152856421Y-103163330D01*
X152868718Y-103183847D01*
X152878946Y-103205471D01*
X152887004Y-103227993D01*
X152892816Y-103251197D01*
X152896326Y-103274858D01*
X152897500Y-103298750D01*
X152897500Y-104211250D01*
X152896326Y-104235142D01*
X152892816Y-104258803D01*
X152887004Y-104282007D01*
X152878946Y-104304529D01*
X152868718Y-104326153D01*
X152856421Y-104346670D01*
X152842171Y-104365883D01*
X152826107Y-104383607D01*
X152808383Y-104399671D01*
X152789170Y-104413921D01*
X152768653Y-104426218D01*
X152747029Y-104436446D01*
X152724507Y-104444504D01*
X152701303Y-104450316D01*
X152677642Y-104453826D01*
X152653750Y-104455000D01*
X152166250Y-104455000D01*
X152142358Y-104453826D01*
X152118697Y-104450316D01*
X152095493Y-104444504D01*
X152072971Y-104436446D01*
X152051347Y-104426218D01*
X152030830Y-104413921D01*
X152011617Y-104399671D01*
X151993893Y-104383607D01*
X151977829Y-104365883D01*
X151963579Y-104346670D01*
X151951282Y-104326153D01*
X151941054Y-104304529D01*
X151932996Y-104282007D01*
X151927184Y-104258803D01*
X151923674Y-104235142D01*
X151922500Y-104211250D01*
X151922500Y-103298750D01*
X151923674Y-103274858D01*
X151927184Y-103251197D01*
X151932996Y-103227993D01*
X151941054Y-103205471D01*
X151951282Y-103183847D01*
X151963579Y-103163330D01*
X151977829Y-103144117D01*
X151993893Y-103126393D01*
X152011617Y-103110329D01*
X152030830Y-103096079D01*
X152051347Y-103083782D01*
X152072971Y-103073554D01*
X152095493Y-103065496D01*
X152118697Y-103059684D01*
X152142358Y-103056174D01*
X152166250Y-103055000D01*
X152653750Y-103055000D01*
X152677642Y-103056174D01*
X152677642Y-103056174D01*
G37*
D12*
X152410000Y-103755000D03*
%TD*%
D17*
%TO.C,SW4*%
X117285000Y-107255000D03*
X111285000Y-107295000D03*
%TD*%
%TO.C,SW3*%
X147285000Y-107255000D03*
X141285000Y-107295000D03*
%TD*%
%TO.C,SW1*%
X177285000Y-107255000D03*
X171285000Y-107295000D03*
%TD*%
D18*
%TO.C,D1*%
X176525000Y-125715000D03*
D19*
X171445000Y-125715000D03*
%TD*%
D18*
%TO.C,D2*%
X146525000Y-125155000D03*
D19*
X141445000Y-125155000D03*
%TD*%
D18*
%TO.C,D3*%
X116525000Y-124854000D03*
D19*
X111445000Y-124854000D03*
%TD*%
D20*
%TO.C,J1*%
X160325000Y-137211000D03*
D21*
X160325000Y-139751000D03*
X157785000Y-137211000D03*
X157785000Y-139751000D03*
X155245000Y-137211000D03*
X155245000Y-139751000D03*
X152705000Y-137211000D03*
X152705000Y-139751000D03*
X150165000Y-137211000D03*
X150165000Y-139751000D03*
%TD*%
D20*
%TO.C,J2*%
X138989000Y-137211000D03*
D21*
X138989000Y-139751000D03*
X136449000Y-137211000D03*
X136449000Y-139751000D03*
X133909000Y-137211000D03*
X133909000Y-139751000D03*
X131369000Y-137211000D03*
X131369000Y-139751000D03*
X128829000Y-137211000D03*
X128829000Y-139751000D03*
%TD*%
D11*
%TO.C,R7*%
G36*
X114999642Y-128511174D02*
X115023303Y-128514684D01*
X115046507Y-128520496D01*
X115069029Y-128528554D01*
X115090653Y-128538782D01*
X115111170Y-128551079D01*
X115130383Y-128565329D01*
X115148107Y-128581393D01*
X115164171Y-128599117D01*
X115178421Y-128618330D01*
X115190718Y-128638847D01*
X115200946Y-128660471D01*
X115209004Y-128682993D01*
X115214816Y-128706197D01*
X115218326Y-128729858D01*
X115219500Y-128753750D01*
X115219500Y-129666250D01*
X115218326Y-129690142D01*
X115214816Y-129713803D01*
X115209004Y-129737007D01*
X115200946Y-129759529D01*
X115190718Y-129781153D01*
X115178421Y-129801670D01*
X115164171Y-129820883D01*
X115148107Y-129838607D01*
X115130383Y-129854671D01*
X115111170Y-129868921D01*
X115090653Y-129881218D01*
X115069029Y-129891446D01*
X115046507Y-129899504D01*
X115023303Y-129905316D01*
X114999642Y-129908826D01*
X114975750Y-129910000D01*
X114488250Y-129910000D01*
X114464358Y-129908826D01*
X114440697Y-129905316D01*
X114417493Y-129899504D01*
X114394971Y-129891446D01*
X114373347Y-129881218D01*
X114352830Y-129868921D01*
X114333617Y-129854671D01*
X114315893Y-129838607D01*
X114299829Y-129820883D01*
X114285579Y-129801670D01*
X114273282Y-129781153D01*
X114263054Y-129759529D01*
X114254996Y-129737007D01*
X114249184Y-129713803D01*
X114245674Y-129690142D01*
X114244500Y-129666250D01*
X114244500Y-128753750D01*
X114245674Y-128729858D01*
X114249184Y-128706197D01*
X114254996Y-128682993D01*
X114263054Y-128660471D01*
X114273282Y-128638847D01*
X114285579Y-128618330D01*
X114299829Y-128599117D01*
X114315893Y-128581393D01*
X114333617Y-128565329D01*
X114352830Y-128551079D01*
X114373347Y-128538782D01*
X114394971Y-128528554D01*
X114417493Y-128520496D01*
X114440697Y-128514684D01*
X114464358Y-128511174D01*
X114488250Y-128510000D01*
X114975750Y-128510000D01*
X114999642Y-128511174D01*
X114999642Y-128511174D01*
G37*
D12*
X114732000Y-129210000D03*
D11*
G36*
X113124642Y-128511174D02*
X113148303Y-128514684D01*
X113171507Y-128520496D01*
X113194029Y-128528554D01*
X113215653Y-128538782D01*
X113236170Y-128551079D01*
X113255383Y-128565329D01*
X113273107Y-128581393D01*
X113289171Y-128599117D01*
X113303421Y-128618330D01*
X113315718Y-128638847D01*
X113325946Y-128660471D01*
X113334004Y-128682993D01*
X113339816Y-128706197D01*
X113343326Y-128729858D01*
X113344500Y-128753750D01*
X113344500Y-129666250D01*
X113343326Y-129690142D01*
X113339816Y-129713803D01*
X113334004Y-129737007D01*
X113325946Y-129759529D01*
X113315718Y-129781153D01*
X113303421Y-129801670D01*
X113289171Y-129820883D01*
X113273107Y-129838607D01*
X113255383Y-129854671D01*
X113236170Y-129868921D01*
X113215653Y-129881218D01*
X113194029Y-129891446D01*
X113171507Y-129899504D01*
X113148303Y-129905316D01*
X113124642Y-129908826D01*
X113100750Y-129910000D01*
X112613250Y-129910000D01*
X112589358Y-129908826D01*
X112565697Y-129905316D01*
X112542493Y-129899504D01*
X112519971Y-129891446D01*
X112498347Y-129881218D01*
X112477830Y-129868921D01*
X112458617Y-129854671D01*
X112440893Y-129838607D01*
X112424829Y-129820883D01*
X112410579Y-129801670D01*
X112398282Y-129781153D01*
X112388054Y-129759529D01*
X112379996Y-129737007D01*
X112374184Y-129713803D01*
X112370674Y-129690142D01*
X112369500Y-129666250D01*
X112369500Y-128753750D01*
X112370674Y-128729858D01*
X112374184Y-128706197D01*
X112379996Y-128682993D01*
X112388054Y-128660471D01*
X112398282Y-128638847D01*
X112410579Y-128618330D01*
X112424829Y-128599117D01*
X112440893Y-128581393D01*
X112458617Y-128565329D01*
X112477830Y-128551079D01*
X112498347Y-128538782D01*
X112519971Y-128528554D01*
X112542493Y-128520496D01*
X112565697Y-128514684D01*
X112589358Y-128511174D01*
X112613250Y-128510000D01*
X113100750Y-128510000D01*
X113124642Y-128511174D01*
X113124642Y-128511174D01*
G37*
D12*
X112857000Y-129210000D03*
%TD*%
D17*
%TO.C,J3*%
X191549877Y-52644071D03*
X191549877Y-89184071D03*
X97009877Y-89184071D03*
X97009877Y-52644071D03*
D22*
X146764798Y-52181558D03*
X149304798Y-52181558D03*
X151844798Y-52181558D03*
X154384798Y-52181558D03*
X156924798Y-52181558D03*
X159464798Y-52181558D03*
X162004798Y-52181558D03*
X164544798Y-52181558D03*
X167084798Y-52181558D03*
X169624798Y-52181558D03*
X172164798Y-52181558D03*
X174704798Y-52181558D03*
X177244798Y-52181558D03*
X179784798Y-52181558D03*
X182324798Y-52181558D03*
D23*
X184864798Y-52181558D03*
%TD*%
D11*
%TO.C,C1*%
G36*
X182007142Y-58280174D02*
X182030803Y-58283684D01*
X182054007Y-58289496D01*
X182076529Y-58297554D01*
X182098153Y-58307782D01*
X182118670Y-58320079D01*
X182137883Y-58334329D01*
X182155607Y-58350393D01*
X182171671Y-58368117D01*
X182185921Y-58387330D01*
X182198218Y-58407847D01*
X182208446Y-58429471D01*
X182216504Y-58451993D01*
X182222316Y-58475197D01*
X182225826Y-58498858D01*
X182227000Y-58522750D01*
X182227000Y-59435250D01*
X182225826Y-59459142D01*
X182222316Y-59482803D01*
X182216504Y-59506007D01*
X182208446Y-59528529D01*
X182198218Y-59550153D01*
X182185921Y-59570670D01*
X182171671Y-59589883D01*
X182155607Y-59607607D01*
X182137883Y-59623671D01*
X182118670Y-59637921D01*
X182098153Y-59650218D01*
X182076529Y-59660446D01*
X182054007Y-59668504D01*
X182030803Y-59674316D01*
X182007142Y-59677826D01*
X181983250Y-59679000D01*
X181495750Y-59679000D01*
X181471858Y-59677826D01*
X181448197Y-59674316D01*
X181424993Y-59668504D01*
X181402471Y-59660446D01*
X181380847Y-59650218D01*
X181360330Y-59637921D01*
X181341117Y-59623671D01*
X181323393Y-59607607D01*
X181307329Y-59589883D01*
X181293079Y-59570670D01*
X181280782Y-59550153D01*
X181270554Y-59528529D01*
X181262496Y-59506007D01*
X181256684Y-59482803D01*
X181253174Y-59459142D01*
X181252000Y-59435250D01*
X181252000Y-58522750D01*
X181253174Y-58498858D01*
X181256684Y-58475197D01*
X181262496Y-58451993D01*
X181270554Y-58429471D01*
X181280782Y-58407847D01*
X181293079Y-58387330D01*
X181307329Y-58368117D01*
X181323393Y-58350393D01*
X181341117Y-58334329D01*
X181360330Y-58320079D01*
X181380847Y-58307782D01*
X181402471Y-58297554D01*
X181424993Y-58289496D01*
X181448197Y-58283684D01*
X181471858Y-58280174D01*
X181495750Y-58279000D01*
X181983250Y-58279000D01*
X182007142Y-58280174D01*
X182007142Y-58280174D01*
G37*
D12*
X181739500Y-58979000D03*
D11*
G36*
X183882142Y-58280174D02*
X183905803Y-58283684D01*
X183929007Y-58289496D01*
X183951529Y-58297554D01*
X183973153Y-58307782D01*
X183993670Y-58320079D01*
X184012883Y-58334329D01*
X184030607Y-58350393D01*
X184046671Y-58368117D01*
X184060921Y-58387330D01*
X184073218Y-58407847D01*
X184083446Y-58429471D01*
X184091504Y-58451993D01*
X184097316Y-58475197D01*
X184100826Y-58498858D01*
X184102000Y-58522750D01*
X184102000Y-59435250D01*
X184100826Y-59459142D01*
X184097316Y-59482803D01*
X184091504Y-59506007D01*
X184083446Y-59528529D01*
X184073218Y-59550153D01*
X184060921Y-59570670D01*
X184046671Y-59589883D01*
X184030607Y-59607607D01*
X184012883Y-59623671D01*
X183993670Y-59637921D01*
X183973153Y-59650218D01*
X183951529Y-59660446D01*
X183929007Y-59668504D01*
X183905803Y-59674316D01*
X183882142Y-59677826D01*
X183858250Y-59679000D01*
X183370750Y-59679000D01*
X183346858Y-59677826D01*
X183323197Y-59674316D01*
X183299993Y-59668504D01*
X183277471Y-59660446D01*
X183255847Y-59650218D01*
X183235330Y-59637921D01*
X183216117Y-59623671D01*
X183198393Y-59607607D01*
X183182329Y-59589883D01*
X183168079Y-59570670D01*
X183155782Y-59550153D01*
X183145554Y-59528529D01*
X183137496Y-59506007D01*
X183131684Y-59482803D01*
X183128174Y-59459142D01*
X183127000Y-59435250D01*
X183127000Y-58522750D01*
X183128174Y-58498858D01*
X183131684Y-58475197D01*
X183137496Y-58451993D01*
X183145554Y-58429471D01*
X183155782Y-58407847D01*
X183168079Y-58387330D01*
X183182329Y-58368117D01*
X183198393Y-58350393D01*
X183216117Y-58334329D01*
X183235330Y-58320079D01*
X183255847Y-58307782D01*
X183277471Y-58297554D01*
X183299993Y-58289496D01*
X183323197Y-58283684D01*
X183346858Y-58280174D01*
X183370750Y-58279000D01*
X183858250Y-58279000D01*
X183882142Y-58280174D01*
X183882142Y-58280174D01*
G37*
D12*
X183614500Y-58979000D03*
%TD*%
D11*
%TO.C,C2*%
G36*
X184427642Y-103056174D02*
X184451303Y-103059684D01*
X184474507Y-103065496D01*
X184497029Y-103073554D01*
X184518653Y-103083782D01*
X184539170Y-103096079D01*
X184558383Y-103110329D01*
X184576107Y-103126393D01*
X184592171Y-103144117D01*
X184606421Y-103163330D01*
X184618718Y-103183847D01*
X184628946Y-103205471D01*
X184637004Y-103227993D01*
X184642816Y-103251197D01*
X184646326Y-103274858D01*
X184647500Y-103298750D01*
X184647500Y-104211250D01*
X184646326Y-104235142D01*
X184642816Y-104258803D01*
X184637004Y-104282007D01*
X184628946Y-104304529D01*
X184618718Y-104326153D01*
X184606421Y-104346670D01*
X184592171Y-104365883D01*
X184576107Y-104383607D01*
X184558383Y-104399671D01*
X184539170Y-104413921D01*
X184518653Y-104426218D01*
X184497029Y-104436446D01*
X184474507Y-104444504D01*
X184451303Y-104450316D01*
X184427642Y-104453826D01*
X184403750Y-104455000D01*
X183916250Y-104455000D01*
X183892358Y-104453826D01*
X183868697Y-104450316D01*
X183845493Y-104444504D01*
X183822971Y-104436446D01*
X183801347Y-104426218D01*
X183780830Y-104413921D01*
X183761617Y-104399671D01*
X183743893Y-104383607D01*
X183727829Y-104365883D01*
X183713579Y-104346670D01*
X183701282Y-104326153D01*
X183691054Y-104304529D01*
X183682996Y-104282007D01*
X183677184Y-104258803D01*
X183673674Y-104235142D01*
X183672500Y-104211250D01*
X183672500Y-103298750D01*
X183673674Y-103274858D01*
X183677184Y-103251197D01*
X183682996Y-103227993D01*
X183691054Y-103205471D01*
X183701282Y-103183847D01*
X183713579Y-103163330D01*
X183727829Y-103144117D01*
X183743893Y-103126393D01*
X183761617Y-103110329D01*
X183780830Y-103096079D01*
X183801347Y-103083782D01*
X183822971Y-103073554D01*
X183845493Y-103065496D01*
X183868697Y-103059684D01*
X183892358Y-103056174D01*
X183916250Y-103055000D01*
X184403750Y-103055000D01*
X184427642Y-103056174D01*
X184427642Y-103056174D01*
G37*
D12*
X184160000Y-103755000D03*
D11*
G36*
X182552642Y-103056174D02*
X182576303Y-103059684D01*
X182599507Y-103065496D01*
X182622029Y-103073554D01*
X182643653Y-103083782D01*
X182664170Y-103096079D01*
X182683383Y-103110329D01*
X182701107Y-103126393D01*
X182717171Y-103144117D01*
X182731421Y-103163330D01*
X182743718Y-103183847D01*
X182753946Y-103205471D01*
X182762004Y-103227993D01*
X182767816Y-103251197D01*
X182771326Y-103274858D01*
X182772500Y-103298750D01*
X182772500Y-104211250D01*
X182771326Y-104235142D01*
X182767816Y-104258803D01*
X182762004Y-104282007D01*
X182753946Y-104304529D01*
X182743718Y-104326153D01*
X182731421Y-104346670D01*
X182717171Y-104365883D01*
X182701107Y-104383607D01*
X182683383Y-104399671D01*
X182664170Y-104413921D01*
X182643653Y-104426218D01*
X182622029Y-104436446D01*
X182599507Y-104444504D01*
X182576303Y-104450316D01*
X182552642Y-104453826D01*
X182528750Y-104455000D01*
X182041250Y-104455000D01*
X182017358Y-104453826D01*
X181993697Y-104450316D01*
X181970493Y-104444504D01*
X181947971Y-104436446D01*
X181926347Y-104426218D01*
X181905830Y-104413921D01*
X181886617Y-104399671D01*
X181868893Y-104383607D01*
X181852829Y-104365883D01*
X181838579Y-104346670D01*
X181826282Y-104326153D01*
X181816054Y-104304529D01*
X181807996Y-104282007D01*
X181802184Y-104258803D01*
X181798674Y-104235142D01*
X181797500Y-104211250D01*
X181797500Y-103298750D01*
X181798674Y-103274858D01*
X181802184Y-103251197D01*
X181807996Y-103227993D01*
X181816054Y-103205471D01*
X181826282Y-103183847D01*
X181838579Y-103163330D01*
X181852829Y-103144117D01*
X181868893Y-103126393D01*
X181886617Y-103110329D01*
X181905830Y-103096079D01*
X181926347Y-103083782D01*
X181947971Y-103073554D01*
X181970493Y-103065496D01*
X181993697Y-103059684D01*
X182017358Y-103056174D01*
X182041250Y-103055000D01*
X182528750Y-103055000D01*
X182552642Y-103056174D01*
X182552642Y-103056174D01*
G37*
D12*
X182285000Y-103755000D03*
%TD*%
D11*
%TO.C,C5*%
G36*
X124427642Y-103056174D02*
X124451303Y-103059684D01*
X124474507Y-103065496D01*
X124497029Y-103073554D01*
X124518653Y-103083782D01*
X124539170Y-103096079D01*
X124558383Y-103110329D01*
X124576107Y-103126393D01*
X124592171Y-103144117D01*
X124606421Y-103163330D01*
X124618718Y-103183847D01*
X124628946Y-103205471D01*
X124637004Y-103227993D01*
X124642816Y-103251197D01*
X124646326Y-103274858D01*
X124647500Y-103298750D01*
X124647500Y-104211250D01*
X124646326Y-104235142D01*
X124642816Y-104258803D01*
X124637004Y-104282007D01*
X124628946Y-104304529D01*
X124618718Y-104326153D01*
X124606421Y-104346670D01*
X124592171Y-104365883D01*
X124576107Y-104383607D01*
X124558383Y-104399671D01*
X124539170Y-104413921D01*
X124518653Y-104426218D01*
X124497029Y-104436446D01*
X124474507Y-104444504D01*
X124451303Y-104450316D01*
X124427642Y-104453826D01*
X124403750Y-104455000D01*
X123916250Y-104455000D01*
X123892358Y-104453826D01*
X123868697Y-104450316D01*
X123845493Y-104444504D01*
X123822971Y-104436446D01*
X123801347Y-104426218D01*
X123780830Y-104413921D01*
X123761617Y-104399671D01*
X123743893Y-104383607D01*
X123727829Y-104365883D01*
X123713579Y-104346670D01*
X123701282Y-104326153D01*
X123691054Y-104304529D01*
X123682996Y-104282007D01*
X123677184Y-104258803D01*
X123673674Y-104235142D01*
X123672500Y-104211250D01*
X123672500Y-103298750D01*
X123673674Y-103274858D01*
X123677184Y-103251197D01*
X123682996Y-103227993D01*
X123691054Y-103205471D01*
X123701282Y-103183847D01*
X123713579Y-103163330D01*
X123727829Y-103144117D01*
X123743893Y-103126393D01*
X123761617Y-103110329D01*
X123780830Y-103096079D01*
X123801347Y-103083782D01*
X123822971Y-103073554D01*
X123845493Y-103065496D01*
X123868697Y-103059684D01*
X123892358Y-103056174D01*
X123916250Y-103055000D01*
X124403750Y-103055000D01*
X124427642Y-103056174D01*
X124427642Y-103056174D01*
G37*
D12*
X124160000Y-103755000D03*
D11*
G36*
X122552642Y-103056174D02*
X122576303Y-103059684D01*
X122599507Y-103065496D01*
X122622029Y-103073554D01*
X122643653Y-103083782D01*
X122664170Y-103096079D01*
X122683383Y-103110329D01*
X122701107Y-103126393D01*
X122717171Y-103144117D01*
X122731421Y-103163330D01*
X122743718Y-103183847D01*
X122753946Y-103205471D01*
X122762004Y-103227993D01*
X122767816Y-103251197D01*
X122771326Y-103274858D01*
X122772500Y-103298750D01*
X122772500Y-104211250D01*
X122771326Y-104235142D01*
X122767816Y-104258803D01*
X122762004Y-104282007D01*
X122753946Y-104304529D01*
X122743718Y-104326153D01*
X122731421Y-104346670D01*
X122717171Y-104365883D01*
X122701107Y-104383607D01*
X122683383Y-104399671D01*
X122664170Y-104413921D01*
X122643653Y-104426218D01*
X122622029Y-104436446D01*
X122599507Y-104444504D01*
X122576303Y-104450316D01*
X122552642Y-104453826D01*
X122528750Y-104455000D01*
X122041250Y-104455000D01*
X122017358Y-104453826D01*
X121993697Y-104450316D01*
X121970493Y-104444504D01*
X121947971Y-104436446D01*
X121926347Y-104426218D01*
X121905830Y-104413921D01*
X121886617Y-104399671D01*
X121868893Y-104383607D01*
X121852829Y-104365883D01*
X121838579Y-104346670D01*
X121826282Y-104326153D01*
X121816054Y-104304529D01*
X121807996Y-104282007D01*
X121802184Y-104258803D01*
X121798674Y-104235142D01*
X121797500Y-104211250D01*
X121797500Y-103298750D01*
X121798674Y-103274858D01*
X121802184Y-103251197D01*
X121807996Y-103227993D01*
X121816054Y-103205471D01*
X121826282Y-103183847D01*
X121838579Y-103163330D01*
X121852829Y-103144117D01*
X121868893Y-103126393D01*
X121886617Y-103110329D01*
X121905830Y-103096079D01*
X121926347Y-103083782D01*
X121947971Y-103073554D01*
X121970493Y-103065496D01*
X121993697Y-103059684D01*
X122017358Y-103056174D01*
X122041250Y-103055000D01*
X122528750Y-103055000D01*
X122552642Y-103056174D01*
X122552642Y-103056174D01*
G37*
D12*
X122285000Y-103755000D03*
%TD*%
D11*
%TO.C,R8*%
G36*
X124490142Y-107056174D02*
X124513803Y-107059684D01*
X124537007Y-107065496D01*
X124559529Y-107073554D01*
X124581153Y-107083782D01*
X124601670Y-107096079D01*
X124620883Y-107110329D01*
X124638607Y-107126393D01*
X124654671Y-107144117D01*
X124668921Y-107163330D01*
X124681218Y-107183847D01*
X124691446Y-107205471D01*
X124699504Y-107227993D01*
X124705316Y-107251197D01*
X124708826Y-107274858D01*
X124710000Y-107298750D01*
X124710000Y-108211250D01*
X124708826Y-108235142D01*
X124705316Y-108258803D01*
X124699504Y-108282007D01*
X124691446Y-108304529D01*
X124681218Y-108326153D01*
X124668921Y-108346670D01*
X124654671Y-108365883D01*
X124638607Y-108383607D01*
X124620883Y-108399671D01*
X124601670Y-108413921D01*
X124581153Y-108426218D01*
X124559529Y-108436446D01*
X124537007Y-108444504D01*
X124513803Y-108450316D01*
X124490142Y-108453826D01*
X124466250Y-108455000D01*
X123978750Y-108455000D01*
X123954858Y-108453826D01*
X123931197Y-108450316D01*
X123907993Y-108444504D01*
X123885471Y-108436446D01*
X123863847Y-108426218D01*
X123843330Y-108413921D01*
X123824117Y-108399671D01*
X123806393Y-108383607D01*
X123790329Y-108365883D01*
X123776079Y-108346670D01*
X123763782Y-108326153D01*
X123753554Y-108304529D01*
X123745496Y-108282007D01*
X123739684Y-108258803D01*
X123736174Y-108235142D01*
X123735000Y-108211250D01*
X123735000Y-107298750D01*
X123736174Y-107274858D01*
X123739684Y-107251197D01*
X123745496Y-107227993D01*
X123753554Y-107205471D01*
X123763782Y-107183847D01*
X123776079Y-107163330D01*
X123790329Y-107144117D01*
X123806393Y-107126393D01*
X123824117Y-107110329D01*
X123843330Y-107096079D01*
X123863847Y-107083782D01*
X123885471Y-107073554D01*
X123907993Y-107065496D01*
X123931197Y-107059684D01*
X123954858Y-107056174D01*
X123978750Y-107055000D01*
X124466250Y-107055000D01*
X124490142Y-107056174D01*
X124490142Y-107056174D01*
G37*
D12*
X124222500Y-107755000D03*
D11*
G36*
X122615142Y-107056174D02*
X122638803Y-107059684D01*
X122662007Y-107065496D01*
X122684529Y-107073554D01*
X122706153Y-107083782D01*
X122726670Y-107096079D01*
X122745883Y-107110329D01*
X122763607Y-107126393D01*
X122779671Y-107144117D01*
X122793921Y-107163330D01*
X122806218Y-107183847D01*
X122816446Y-107205471D01*
X122824504Y-107227993D01*
X122830316Y-107251197D01*
X122833826Y-107274858D01*
X122835000Y-107298750D01*
X122835000Y-108211250D01*
X122833826Y-108235142D01*
X122830316Y-108258803D01*
X122824504Y-108282007D01*
X122816446Y-108304529D01*
X122806218Y-108326153D01*
X122793921Y-108346670D01*
X122779671Y-108365883D01*
X122763607Y-108383607D01*
X122745883Y-108399671D01*
X122726670Y-108413921D01*
X122706153Y-108426218D01*
X122684529Y-108436446D01*
X122662007Y-108444504D01*
X122638803Y-108450316D01*
X122615142Y-108453826D01*
X122591250Y-108455000D01*
X122103750Y-108455000D01*
X122079858Y-108453826D01*
X122056197Y-108450316D01*
X122032993Y-108444504D01*
X122010471Y-108436446D01*
X121988847Y-108426218D01*
X121968330Y-108413921D01*
X121949117Y-108399671D01*
X121931393Y-108383607D01*
X121915329Y-108365883D01*
X121901079Y-108346670D01*
X121888782Y-108326153D01*
X121878554Y-108304529D01*
X121870496Y-108282007D01*
X121864684Y-108258803D01*
X121861174Y-108235142D01*
X121860000Y-108211250D01*
X121860000Y-107298750D01*
X121861174Y-107274858D01*
X121864684Y-107251197D01*
X121870496Y-107227993D01*
X121878554Y-107205471D01*
X121888782Y-107183847D01*
X121901079Y-107163330D01*
X121915329Y-107144117D01*
X121931393Y-107126393D01*
X121949117Y-107110329D01*
X121968330Y-107096079D01*
X121988847Y-107083782D01*
X122010471Y-107073554D01*
X122032993Y-107065496D01*
X122056197Y-107059684D01*
X122079858Y-107056174D01*
X122103750Y-107055000D01*
X122591250Y-107055000D01*
X122615142Y-107056174D01*
X122615142Y-107056174D01*
G37*
D12*
X122347500Y-107755000D03*
%TD*%
D11*
%TO.C,R2*%
G36*
X151019142Y-62344174D02*
X151042803Y-62347684D01*
X151066007Y-62353496D01*
X151088529Y-62361554D01*
X151110153Y-62371782D01*
X151130670Y-62384079D01*
X151149883Y-62398329D01*
X151167607Y-62414393D01*
X151183671Y-62432117D01*
X151197921Y-62451330D01*
X151210218Y-62471847D01*
X151220446Y-62493471D01*
X151228504Y-62515993D01*
X151234316Y-62539197D01*
X151237826Y-62562858D01*
X151239000Y-62586750D01*
X151239000Y-63499250D01*
X151237826Y-63523142D01*
X151234316Y-63546803D01*
X151228504Y-63570007D01*
X151220446Y-63592529D01*
X151210218Y-63614153D01*
X151197921Y-63634670D01*
X151183671Y-63653883D01*
X151167607Y-63671607D01*
X151149883Y-63687671D01*
X151130670Y-63701921D01*
X151110153Y-63714218D01*
X151088529Y-63724446D01*
X151066007Y-63732504D01*
X151042803Y-63738316D01*
X151019142Y-63741826D01*
X150995250Y-63743000D01*
X150507750Y-63743000D01*
X150483858Y-63741826D01*
X150460197Y-63738316D01*
X150436993Y-63732504D01*
X150414471Y-63724446D01*
X150392847Y-63714218D01*
X150372330Y-63701921D01*
X150353117Y-63687671D01*
X150335393Y-63671607D01*
X150319329Y-63653883D01*
X150305079Y-63634670D01*
X150292782Y-63614153D01*
X150282554Y-63592529D01*
X150274496Y-63570007D01*
X150268684Y-63546803D01*
X150265174Y-63523142D01*
X150264000Y-63499250D01*
X150264000Y-62586750D01*
X150265174Y-62562858D01*
X150268684Y-62539197D01*
X150274496Y-62515993D01*
X150282554Y-62493471D01*
X150292782Y-62471847D01*
X150305079Y-62451330D01*
X150319329Y-62432117D01*
X150335393Y-62414393D01*
X150353117Y-62398329D01*
X150372330Y-62384079D01*
X150392847Y-62371782D01*
X150414471Y-62361554D01*
X150436993Y-62353496D01*
X150460197Y-62347684D01*
X150483858Y-62344174D01*
X150507750Y-62343000D01*
X150995250Y-62343000D01*
X151019142Y-62344174D01*
X151019142Y-62344174D01*
G37*
D12*
X150751500Y-63043000D03*
D11*
G36*
X152894142Y-62344174D02*
X152917803Y-62347684D01*
X152941007Y-62353496D01*
X152963529Y-62361554D01*
X152985153Y-62371782D01*
X153005670Y-62384079D01*
X153024883Y-62398329D01*
X153042607Y-62414393D01*
X153058671Y-62432117D01*
X153072921Y-62451330D01*
X153085218Y-62471847D01*
X153095446Y-62493471D01*
X153103504Y-62515993D01*
X153109316Y-62539197D01*
X153112826Y-62562858D01*
X153114000Y-62586750D01*
X153114000Y-63499250D01*
X153112826Y-63523142D01*
X153109316Y-63546803D01*
X153103504Y-63570007D01*
X153095446Y-63592529D01*
X153085218Y-63614153D01*
X153072921Y-63634670D01*
X153058671Y-63653883D01*
X153042607Y-63671607D01*
X153024883Y-63687671D01*
X153005670Y-63701921D01*
X152985153Y-63714218D01*
X152963529Y-63724446D01*
X152941007Y-63732504D01*
X152917803Y-63738316D01*
X152894142Y-63741826D01*
X152870250Y-63743000D01*
X152382750Y-63743000D01*
X152358858Y-63741826D01*
X152335197Y-63738316D01*
X152311993Y-63732504D01*
X152289471Y-63724446D01*
X152267847Y-63714218D01*
X152247330Y-63701921D01*
X152228117Y-63687671D01*
X152210393Y-63671607D01*
X152194329Y-63653883D01*
X152180079Y-63634670D01*
X152167782Y-63614153D01*
X152157554Y-63592529D01*
X152149496Y-63570007D01*
X152143684Y-63546803D01*
X152140174Y-63523142D01*
X152139000Y-63499250D01*
X152139000Y-62586750D01*
X152140174Y-62562858D01*
X152143684Y-62539197D01*
X152149496Y-62515993D01*
X152157554Y-62493471D01*
X152167782Y-62471847D01*
X152180079Y-62451330D01*
X152194329Y-62432117D01*
X152210393Y-62414393D01*
X152228117Y-62398329D01*
X152247330Y-62384079D01*
X152267847Y-62371782D01*
X152289471Y-62361554D01*
X152311993Y-62353496D01*
X152335197Y-62347684D01*
X152358858Y-62344174D01*
X152382750Y-62343000D01*
X152870250Y-62343000D01*
X152894142Y-62344174D01*
X152894142Y-62344174D01*
G37*
D12*
X152626500Y-63043000D03*
%TD*%
D11*
%TO.C,R1*%
G36*
X184490142Y-107056174D02*
X184513803Y-107059684D01*
X184537007Y-107065496D01*
X184559529Y-107073554D01*
X184581153Y-107083782D01*
X184601670Y-107096079D01*
X184620883Y-107110329D01*
X184638607Y-107126393D01*
X184654671Y-107144117D01*
X184668921Y-107163330D01*
X184681218Y-107183847D01*
X184691446Y-107205471D01*
X184699504Y-107227993D01*
X184705316Y-107251197D01*
X184708826Y-107274858D01*
X184710000Y-107298750D01*
X184710000Y-108211250D01*
X184708826Y-108235142D01*
X184705316Y-108258803D01*
X184699504Y-108282007D01*
X184691446Y-108304529D01*
X184681218Y-108326153D01*
X184668921Y-108346670D01*
X184654671Y-108365883D01*
X184638607Y-108383607D01*
X184620883Y-108399671D01*
X184601670Y-108413921D01*
X184581153Y-108426218D01*
X184559529Y-108436446D01*
X184537007Y-108444504D01*
X184513803Y-108450316D01*
X184490142Y-108453826D01*
X184466250Y-108455000D01*
X183978750Y-108455000D01*
X183954858Y-108453826D01*
X183931197Y-108450316D01*
X183907993Y-108444504D01*
X183885471Y-108436446D01*
X183863847Y-108426218D01*
X183843330Y-108413921D01*
X183824117Y-108399671D01*
X183806393Y-108383607D01*
X183790329Y-108365883D01*
X183776079Y-108346670D01*
X183763782Y-108326153D01*
X183753554Y-108304529D01*
X183745496Y-108282007D01*
X183739684Y-108258803D01*
X183736174Y-108235142D01*
X183735000Y-108211250D01*
X183735000Y-107298750D01*
X183736174Y-107274858D01*
X183739684Y-107251197D01*
X183745496Y-107227993D01*
X183753554Y-107205471D01*
X183763782Y-107183847D01*
X183776079Y-107163330D01*
X183790329Y-107144117D01*
X183806393Y-107126393D01*
X183824117Y-107110329D01*
X183843330Y-107096079D01*
X183863847Y-107083782D01*
X183885471Y-107073554D01*
X183907993Y-107065496D01*
X183931197Y-107059684D01*
X183954858Y-107056174D01*
X183978750Y-107055000D01*
X184466250Y-107055000D01*
X184490142Y-107056174D01*
X184490142Y-107056174D01*
G37*
D12*
X184222500Y-107755000D03*
D11*
G36*
X182615142Y-107056174D02*
X182638803Y-107059684D01*
X182662007Y-107065496D01*
X182684529Y-107073554D01*
X182706153Y-107083782D01*
X182726670Y-107096079D01*
X182745883Y-107110329D01*
X182763607Y-107126393D01*
X182779671Y-107144117D01*
X182793921Y-107163330D01*
X182806218Y-107183847D01*
X182816446Y-107205471D01*
X182824504Y-107227993D01*
X182830316Y-107251197D01*
X182833826Y-107274858D01*
X182835000Y-107298750D01*
X182835000Y-108211250D01*
X182833826Y-108235142D01*
X182830316Y-108258803D01*
X182824504Y-108282007D01*
X182816446Y-108304529D01*
X182806218Y-108326153D01*
X182793921Y-108346670D01*
X182779671Y-108365883D01*
X182763607Y-108383607D01*
X182745883Y-108399671D01*
X182726670Y-108413921D01*
X182706153Y-108426218D01*
X182684529Y-108436446D01*
X182662007Y-108444504D01*
X182638803Y-108450316D01*
X182615142Y-108453826D01*
X182591250Y-108455000D01*
X182103750Y-108455000D01*
X182079858Y-108453826D01*
X182056197Y-108450316D01*
X182032993Y-108444504D01*
X182010471Y-108436446D01*
X181988847Y-108426218D01*
X181968330Y-108413921D01*
X181949117Y-108399671D01*
X181931393Y-108383607D01*
X181915329Y-108365883D01*
X181901079Y-108346670D01*
X181888782Y-108326153D01*
X181878554Y-108304529D01*
X181870496Y-108282007D01*
X181864684Y-108258803D01*
X181861174Y-108235142D01*
X181860000Y-108211250D01*
X181860000Y-107298750D01*
X181861174Y-107274858D01*
X181864684Y-107251197D01*
X181870496Y-107227993D01*
X181878554Y-107205471D01*
X181888782Y-107183847D01*
X181901079Y-107163330D01*
X181915329Y-107144117D01*
X181931393Y-107126393D01*
X181949117Y-107110329D01*
X181968330Y-107096079D01*
X181988847Y-107083782D01*
X182010471Y-107073554D01*
X182032993Y-107065496D01*
X182056197Y-107059684D01*
X182079858Y-107056174D01*
X182103750Y-107055000D01*
X182591250Y-107055000D01*
X182615142Y-107056174D01*
X182615142Y-107056174D01*
G37*
D12*
X182347500Y-107755000D03*
%TD*%
D11*
%TO.C,R3*%
G36*
X175173642Y-128511174D02*
X175197303Y-128514684D01*
X175220507Y-128520496D01*
X175243029Y-128528554D01*
X175264653Y-128538782D01*
X175285170Y-128551079D01*
X175304383Y-128565329D01*
X175322107Y-128581393D01*
X175338171Y-128599117D01*
X175352421Y-128618330D01*
X175364718Y-128638847D01*
X175374946Y-128660471D01*
X175383004Y-128682993D01*
X175388816Y-128706197D01*
X175392326Y-128729858D01*
X175393500Y-128753750D01*
X175393500Y-129666250D01*
X175392326Y-129690142D01*
X175388816Y-129713803D01*
X175383004Y-129737007D01*
X175374946Y-129759529D01*
X175364718Y-129781153D01*
X175352421Y-129801670D01*
X175338171Y-129820883D01*
X175322107Y-129838607D01*
X175304383Y-129854671D01*
X175285170Y-129868921D01*
X175264653Y-129881218D01*
X175243029Y-129891446D01*
X175220507Y-129899504D01*
X175197303Y-129905316D01*
X175173642Y-129908826D01*
X175149750Y-129910000D01*
X174662250Y-129910000D01*
X174638358Y-129908826D01*
X174614697Y-129905316D01*
X174591493Y-129899504D01*
X174568971Y-129891446D01*
X174547347Y-129881218D01*
X174526830Y-129868921D01*
X174507617Y-129854671D01*
X174489893Y-129838607D01*
X174473829Y-129820883D01*
X174459579Y-129801670D01*
X174447282Y-129781153D01*
X174437054Y-129759529D01*
X174428996Y-129737007D01*
X174423184Y-129713803D01*
X174419674Y-129690142D01*
X174418500Y-129666250D01*
X174418500Y-128753750D01*
X174419674Y-128729858D01*
X174423184Y-128706197D01*
X174428996Y-128682993D01*
X174437054Y-128660471D01*
X174447282Y-128638847D01*
X174459579Y-128618330D01*
X174473829Y-128599117D01*
X174489893Y-128581393D01*
X174507617Y-128565329D01*
X174526830Y-128551079D01*
X174547347Y-128538782D01*
X174568971Y-128528554D01*
X174591493Y-128520496D01*
X174614697Y-128514684D01*
X174638358Y-128511174D01*
X174662250Y-128510000D01*
X175149750Y-128510000D01*
X175173642Y-128511174D01*
X175173642Y-128511174D01*
G37*
D12*
X174906000Y-129210000D03*
D11*
G36*
X173298642Y-128511174D02*
X173322303Y-128514684D01*
X173345507Y-128520496D01*
X173368029Y-128528554D01*
X173389653Y-128538782D01*
X173410170Y-128551079D01*
X173429383Y-128565329D01*
X173447107Y-128581393D01*
X173463171Y-128599117D01*
X173477421Y-128618330D01*
X173489718Y-128638847D01*
X173499946Y-128660471D01*
X173508004Y-128682993D01*
X173513816Y-128706197D01*
X173517326Y-128729858D01*
X173518500Y-128753750D01*
X173518500Y-129666250D01*
X173517326Y-129690142D01*
X173513816Y-129713803D01*
X173508004Y-129737007D01*
X173499946Y-129759529D01*
X173489718Y-129781153D01*
X173477421Y-129801670D01*
X173463171Y-129820883D01*
X173447107Y-129838607D01*
X173429383Y-129854671D01*
X173410170Y-129868921D01*
X173389653Y-129881218D01*
X173368029Y-129891446D01*
X173345507Y-129899504D01*
X173322303Y-129905316D01*
X173298642Y-129908826D01*
X173274750Y-129910000D01*
X172787250Y-129910000D01*
X172763358Y-129908826D01*
X172739697Y-129905316D01*
X172716493Y-129899504D01*
X172693971Y-129891446D01*
X172672347Y-129881218D01*
X172651830Y-129868921D01*
X172632617Y-129854671D01*
X172614893Y-129838607D01*
X172598829Y-129820883D01*
X172584579Y-129801670D01*
X172572282Y-129781153D01*
X172562054Y-129759529D01*
X172553996Y-129737007D01*
X172548184Y-129713803D01*
X172544674Y-129690142D01*
X172543500Y-129666250D01*
X172543500Y-128753750D01*
X172544674Y-128729858D01*
X172548184Y-128706197D01*
X172553996Y-128682993D01*
X172562054Y-128660471D01*
X172572282Y-128638847D01*
X172584579Y-128618330D01*
X172598829Y-128599117D01*
X172614893Y-128581393D01*
X172632617Y-128565329D01*
X172651830Y-128551079D01*
X172672347Y-128538782D01*
X172693971Y-128528554D01*
X172716493Y-128520496D01*
X172739697Y-128514684D01*
X172763358Y-128511174D01*
X172787250Y-128510000D01*
X173274750Y-128510000D01*
X173298642Y-128511174D01*
X173298642Y-128511174D01*
G37*
D12*
X173031000Y-129210000D03*
%TD*%
D11*
%TO.C,R5*%
G36*
X145195642Y-128437174D02*
X145219303Y-128440684D01*
X145242507Y-128446496D01*
X145265029Y-128454554D01*
X145286653Y-128464782D01*
X145307170Y-128477079D01*
X145326383Y-128491329D01*
X145344107Y-128507393D01*
X145360171Y-128525117D01*
X145374421Y-128544330D01*
X145386718Y-128564847D01*
X145396946Y-128586471D01*
X145405004Y-128608993D01*
X145410816Y-128632197D01*
X145414326Y-128655858D01*
X145415500Y-128679750D01*
X145415500Y-129592250D01*
X145414326Y-129616142D01*
X145410816Y-129639803D01*
X145405004Y-129663007D01*
X145396946Y-129685529D01*
X145386718Y-129707153D01*
X145374421Y-129727670D01*
X145360171Y-129746883D01*
X145344107Y-129764607D01*
X145326383Y-129780671D01*
X145307170Y-129794921D01*
X145286653Y-129807218D01*
X145265029Y-129817446D01*
X145242507Y-129825504D01*
X145219303Y-129831316D01*
X145195642Y-129834826D01*
X145171750Y-129836000D01*
X144684250Y-129836000D01*
X144660358Y-129834826D01*
X144636697Y-129831316D01*
X144613493Y-129825504D01*
X144590971Y-129817446D01*
X144569347Y-129807218D01*
X144548830Y-129794921D01*
X144529617Y-129780671D01*
X144511893Y-129764607D01*
X144495829Y-129746883D01*
X144481579Y-129727670D01*
X144469282Y-129707153D01*
X144459054Y-129685529D01*
X144450996Y-129663007D01*
X144445184Y-129639803D01*
X144441674Y-129616142D01*
X144440500Y-129592250D01*
X144440500Y-128679750D01*
X144441674Y-128655858D01*
X144445184Y-128632197D01*
X144450996Y-128608993D01*
X144459054Y-128586471D01*
X144469282Y-128564847D01*
X144481579Y-128544330D01*
X144495829Y-128525117D01*
X144511893Y-128507393D01*
X144529617Y-128491329D01*
X144548830Y-128477079D01*
X144569347Y-128464782D01*
X144590971Y-128454554D01*
X144613493Y-128446496D01*
X144636697Y-128440684D01*
X144660358Y-128437174D01*
X144684250Y-128436000D01*
X145171750Y-128436000D01*
X145195642Y-128437174D01*
X145195642Y-128437174D01*
G37*
D12*
X144928000Y-129136000D03*
D11*
G36*
X143320642Y-128437174D02*
X143344303Y-128440684D01*
X143367507Y-128446496D01*
X143390029Y-128454554D01*
X143411653Y-128464782D01*
X143432170Y-128477079D01*
X143451383Y-128491329D01*
X143469107Y-128507393D01*
X143485171Y-128525117D01*
X143499421Y-128544330D01*
X143511718Y-128564847D01*
X143521946Y-128586471D01*
X143530004Y-128608993D01*
X143535816Y-128632197D01*
X143539326Y-128655858D01*
X143540500Y-128679750D01*
X143540500Y-129592250D01*
X143539326Y-129616142D01*
X143535816Y-129639803D01*
X143530004Y-129663007D01*
X143521946Y-129685529D01*
X143511718Y-129707153D01*
X143499421Y-129727670D01*
X143485171Y-129746883D01*
X143469107Y-129764607D01*
X143451383Y-129780671D01*
X143432170Y-129794921D01*
X143411653Y-129807218D01*
X143390029Y-129817446D01*
X143367507Y-129825504D01*
X143344303Y-129831316D01*
X143320642Y-129834826D01*
X143296750Y-129836000D01*
X142809250Y-129836000D01*
X142785358Y-129834826D01*
X142761697Y-129831316D01*
X142738493Y-129825504D01*
X142715971Y-129817446D01*
X142694347Y-129807218D01*
X142673830Y-129794921D01*
X142654617Y-129780671D01*
X142636893Y-129764607D01*
X142620829Y-129746883D01*
X142606579Y-129727670D01*
X142594282Y-129707153D01*
X142584054Y-129685529D01*
X142575996Y-129663007D01*
X142570184Y-129639803D01*
X142566674Y-129616142D01*
X142565500Y-129592250D01*
X142565500Y-128679750D01*
X142566674Y-128655858D01*
X142570184Y-128632197D01*
X142575996Y-128608993D01*
X142584054Y-128586471D01*
X142594282Y-128564847D01*
X142606579Y-128544330D01*
X142620829Y-128525117D01*
X142636893Y-128507393D01*
X142654617Y-128491329D01*
X142673830Y-128477079D01*
X142694347Y-128464782D01*
X142715971Y-128454554D01*
X142738493Y-128446496D01*
X142761697Y-128440684D01*
X142785358Y-128437174D01*
X142809250Y-128436000D01*
X143296750Y-128436000D01*
X143320642Y-128437174D01*
X143320642Y-128437174D01*
G37*
D12*
X143053000Y-129136000D03*
%TD*%
D11*
%TO.C,R6*%
G36*
X154552642Y-107056174D02*
X154576303Y-107059684D01*
X154599507Y-107065496D01*
X154622029Y-107073554D01*
X154643653Y-107083782D01*
X154664170Y-107096079D01*
X154683383Y-107110329D01*
X154701107Y-107126393D01*
X154717171Y-107144117D01*
X154731421Y-107163330D01*
X154743718Y-107183847D01*
X154753946Y-107205471D01*
X154762004Y-107227993D01*
X154767816Y-107251197D01*
X154771326Y-107274858D01*
X154772500Y-107298750D01*
X154772500Y-108211250D01*
X154771326Y-108235142D01*
X154767816Y-108258803D01*
X154762004Y-108282007D01*
X154753946Y-108304529D01*
X154743718Y-108326153D01*
X154731421Y-108346670D01*
X154717171Y-108365883D01*
X154701107Y-108383607D01*
X154683383Y-108399671D01*
X154664170Y-108413921D01*
X154643653Y-108426218D01*
X154622029Y-108436446D01*
X154599507Y-108444504D01*
X154576303Y-108450316D01*
X154552642Y-108453826D01*
X154528750Y-108455000D01*
X154041250Y-108455000D01*
X154017358Y-108453826D01*
X153993697Y-108450316D01*
X153970493Y-108444504D01*
X153947971Y-108436446D01*
X153926347Y-108426218D01*
X153905830Y-108413921D01*
X153886617Y-108399671D01*
X153868893Y-108383607D01*
X153852829Y-108365883D01*
X153838579Y-108346670D01*
X153826282Y-108326153D01*
X153816054Y-108304529D01*
X153807996Y-108282007D01*
X153802184Y-108258803D01*
X153798674Y-108235142D01*
X153797500Y-108211250D01*
X153797500Y-107298750D01*
X153798674Y-107274858D01*
X153802184Y-107251197D01*
X153807996Y-107227993D01*
X153816054Y-107205471D01*
X153826282Y-107183847D01*
X153838579Y-107163330D01*
X153852829Y-107144117D01*
X153868893Y-107126393D01*
X153886617Y-107110329D01*
X153905830Y-107096079D01*
X153926347Y-107083782D01*
X153947971Y-107073554D01*
X153970493Y-107065496D01*
X153993697Y-107059684D01*
X154017358Y-107056174D01*
X154041250Y-107055000D01*
X154528750Y-107055000D01*
X154552642Y-107056174D01*
X154552642Y-107056174D01*
G37*
D12*
X154285000Y-107755000D03*
D11*
G36*
X152677642Y-107056174D02*
X152701303Y-107059684D01*
X152724507Y-107065496D01*
X152747029Y-107073554D01*
X152768653Y-107083782D01*
X152789170Y-107096079D01*
X152808383Y-107110329D01*
X152826107Y-107126393D01*
X152842171Y-107144117D01*
X152856421Y-107163330D01*
X152868718Y-107183847D01*
X152878946Y-107205471D01*
X152887004Y-107227993D01*
X152892816Y-107251197D01*
X152896326Y-107274858D01*
X152897500Y-107298750D01*
X152897500Y-108211250D01*
X152896326Y-108235142D01*
X152892816Y-108258803D01*
X152887004Y-108282007D01*
X152878946Y-108304529D01*
X152868718Y-108326153D01*
X152856421Y-108346670D01*
X152842171Y-108365883D01*
X152826107Y-108383607D01*
X152808383Y-108399671D01*
X152789170Y-108413921D01*
X152768653Y-108426218D01*
X152747029Y-108436446D01*
X152724507Y-108444504D01*
X152701303Y-108450316D01*
X152677642Y-108453826D01*
X152653750Y-108455000D01*
X152166250Y-108455000D01*
X152142358Y-108453826D01*
X152118697Y-108450316D01*
X152095493Y-108444504D01*
X152072971Y-108436446D01*
X152051347Y-108426218D01*
X152030830Y-108413921D01*
X152011617Y-108399671D01*
X151993893Y-108383607D01*
X151977829Y-108365883D01*
X151963579Y-108346670D01*
X151951282Y-108326153D01*
X151941054Y-108304529D01*
X151932996Y-108282007D01*
X151927184Y-108258803D01*
X151923674Y-108235142D01*
X151922500Y-108211250D01*
X151922500Y-107298750D01*
X151923674Y-107274858D01*
X151927184Y-107251197D01*
X151932996Y-107227993D01*
X151941054Y-107205471D01*
X151951282Y-107183847D01*
X151963579Y-107163330D01*
X151977829Y-107144117D01*
X151993893Y-107126393D01*
X152011617Y-107110329D01*
X152030830Y-107096079D01*
X152051347Y-107083782D01*
X152072971Y-107073554D01*
X152095493Y-107065496D01*
X152118697Y-107059684D01*
X152142358Y-107056174D01*
X152166250Y-107055000D01*
X152653750Y-107055000D01*
X152677642Y-107056174D01*
X152677642Y-107056174D01*
G37*
D12*
X152410000Y-107755000D03*
%TD*%
M02*
