M48
;DRILL file {KiCad (5.0.0)} date 03/24/20 12:10:02
;FORMAT={-:-/ absolute / inch / decimal}
FMAT,2
INCH,TZ
T1C0.0157
T2C0.0394
T3C0.0433
T4C0.0472
T5C0.0984
%
G90
G05
M72
T1
X4.8906Y-4.1677
X5.632Y-5.422
X5.892Y-2.382
X6.0742Y-4.1677
X6.132Y-4.042
X6.172Y-4.142
X6.192Y-2.642
X6.192Y-2.722
X6.212Y-4.102
X6.232Y-3.962
X6.272Y-3.922
X6.292Y-3.962
X6.3089Y-2.982
X6.492Y-2.362
X6.492Y-2.982
X6.5424Y-2.4717
X6.652Y-2.362
X6.6751Y-2.4251
X6.712Y-2.302
X6.752Y-2.7789
X6.772Y-2.682
X7.2289Y-2.3789
X7.2504Y-4.1677
X7.2867Y-2.4767
T2
X5.7781Y-2.0544
X5.8781Y-2.0544
X5.9781Y-2.0544
X6.0781Y-2.0544
X6.1781Y-2.0544
X6.2781Y-2.0544
X6.3781Y-2.0544
X6.4781Y-2.0544
X6.5781Y-2.0544
X6.6781Y-2.0544
X6.7781Y-2.0544
X6.8781Y-2.0544
X6.9781Y-2.0544
X7.0781Y-2.0544
X7.1781Y-2.0544
X7.2781Y-2.0544
T3
X5.072Y-5.402
X5.072Y-5.502
X5.172Y-5.402
X5.172Y-5.502
X5.272Y-5.402
X5.272Y-5.502
X5.372Y-5.402
X5.372Y-5.502
X5.472Y-5.402
X5.472Y-5.502
X5.912Y-5.402
X5.912Y-5.502
X6.012Y-5.402
X6.012Y-5.502
X6.112Y-5.402
X6.112Y-5.502
X6.212Y-5.402
X6.212Y-5.502
X6.312Y-5.402
X6.312Y-5.502
T4
X5.5687Y-4.9274
X5.7687Y-4.9274
X4.3876Y-4.9155
X4.5876Y-4.9155
X6.7498Y-4.9494
X6.9498Y-4.9494
T5
X3.8193Y-2.0726
X3.8193Y-3.5112
X7.5413Y-2.0726
X7.5413Y-3.5112
T2
X6.7435Y-4.2636G85X6.7435Y-4.1848
G05
X6.9797Y-4.262G85X6.9797Y-4.1833
G05
X4.3813Y-4.2636G85X4.3813Y-4.1848
G05
X4.6175Y-4.262G85X4.6175Y-4.1833
G05
X5.5624Y-4.2636G85X5.5624Y-4.1848
G05
X5.7986Y-4.262G85X5.7986Y-4.1833
G05
T0
M30
