%TF.GenerationSoftware,KiCad,Pcbnew,(5.0.0)*%
%TF.CreationDate,2020-03-24T12:10:01+01:00*%
%TF.ProjectId,Schaltplan_Modul2,536368616C74706C616E5F4D6F64756C,rev?*%
%TF.SameCoordinates,Original*%
%TF.FileFunction,Soldermask,Bot*%
%TF.FilePolarity,Negative*%
%FSLAX46Y46*%
G04 Gerber Fmt 4.6, Leading zero omitted, Abs format (unit mm)*
G04 Created by KiCad (PCBNEW (5.0.0)) date 03/24/20 12:10:01*
%MOMM*%
%LPD*%
G01*
G04 APERTURE LIST*
%ADD10C,0.100000*%
%ADD11C,4.000000*%
%ADD12O,2.400000X2.400000*%
%ADD13R,2.400000X2.400000*%
%ADD14R,1.650000X1.650000*%
%ADD15C,1.650000*%
%ADD16O,1.700000X1.700000*%
%ADD17R,1.700000X1.700000*%
G04 APERTURE END LIST*
D10*
X98285000Y-141450000D02*
G75*
G03X98285000Y-141450000I-1000000J0D01*
G01*
X191980000Y-141450000D02*
G75*
G03X191980000Y-141450000I-1000000J0D01*
G01*
X191980000Y-47755000D02*
G75*
G03X191980000Y-47755000I-1000000J0D01*
G01*
X98285000Y-47755000D02*
G75*
G03X98285000Y-47755000I-1000000J0D01*
G01*
X94285000Y-144755000D02*
X194285000Y-144755000D01*
X194285000Y-44755000D02*
X194285000Y-144755000D01*
X94285000Y-144755000D02*
X94285000Y-44755000D01*
X94285000Y-44755000D02*
X194285000Y-44755000D01*
D11*
%TO.C,SW4*%
X117285000Y-107255000D03*
X111285000Y-107295000D03*
%TD*%
%TO.C,SW3*%
X147285000Y-107255000D03*
X141285000Y-107295000D03*
%TD*%
%TO.C,SW1*%
X177285000Y-107255000D03*
X171285000Y-107295000D03*
%TD*%
D12*
%TO.C,D1*%
X176525000Y-125715000D03*
D13*
X171445000Y-125715000D03*
%TD*%
D12*
%TO.C,D2*%
X146525000Y-125155000D03*
D13*
X141445000Y-125155000D03*
%TD*%
D12*
%TO.C,D3*%
X116525000Y-124854000D03*
D13*
X111445000Y-124854000D03*
%TD*%
D14*
%TO.C,J1*%
X160325000Y-137211000D03*
D15*
X160325000Y-139751000D03*
X157785000Y-137211000D03*
X157785000Y-139751000D03*
X155245000Y-137211000D03*
X155245000Y-139751000D03*
X152705000Y-137211000D03*
X152705000Y-139751000D03*
X150165000Y-137211000D03*
X150165000Y-139751000D03*
%TD*%
D14*
%TO.C,J2*%
X138989000Y-137211000D03*
D15*
X138989000Y-139751000D03*
X136449000Y-137211000D03*
X136449000Y-139751000D03*
X133909000Y-137211000D03*
X133909000Y-139751000D03*
X131369000Y-137211000D03*
X131369000Y-139751000D03*
X128829000Y-137211000D03*
X128829000Y-139751000D03*
%TD*%
D11*
%TO.C,J3*%
X191549877Y-52644071D03*
X191549877Y-89184071D03*
X97009877Y-89184071D03*
X97009877Y-52644071D03*
D16*
X146764798Y-52181558D03*
X149304798Y-52181558D03*
X151844798Y-52181558D03*
X154384798Y-52181558D03*
X156924798Y-52181558D03*
X159464798Y-52181558D03*
X162004798Y-52181558D03*
X164544798Y-52181558D03*
X167084798Y-52181558D03*
X169624798Y-52181558D03*
X172164798Y-52181558D03*
X174704798Y-52181558D03*
X177244798Y-52181558D03*
X179784798Y-52181558D03*
X182324798Y-52181558D03*
D17*
X184864798Y-52181558D03*
%TD*%
M02*
