%TF.GenerationSoftware,KiCad,Pcbnew,(5.0.0)*%
%TF.CreationDate,2020-03-24T12:10:01+01:00*%
%TF.ProjectId,Schaltplan_Modul2,536368616C74706C616E5F4D6F64756C,rev?*%
%TF.SameCoordinates,Original*%
%TF.FileFunction,Legend,Top*%
%TF.FilePolarity,Positive*%
%FSLAX46Y46*%
G04 Gerber Fmt 4.6, Leading zero omitted, Abs format (unit mm)*
G04 Created by KiCad (PCBNEW (5.0.0)) date 03/24/20 12:10:01*
%MOMM*%
%LPD*%
G01*
G04 APERTURE LIST*
%ADD10C,0.300000*%
%ADD11C,0.100000*%
%ADD12C,0.120000*%
%ADD13C,0.150000*%
%ADD14C,0.200000*%
%ADD15C,0.254000*%
G04 APERTURE END LIST*
D10*
X167136428Y-140600142D02*
X167136428Y-137600142D01*
X168136428Y-139743000D01*
X169136428Y-137600142D01*
X169136428Y-140600142D01*
X170993571Y-140600142D02*
X170707857Y-140457285D01*
X170565000Y-140314428D01*
X170422142Y-140028714D01*
X170422142Y-139171571D01*
X170565000Y-138885857D01*
X170707857Y-138743000D01*
X170993571Y-138600142D01*
X171422142Y-138600142D01*
X171707857Y-138743000D01*
X171850714Y-138885857D01*
X171993571Y-139171571D01*
X171993571Y-140028714D01*
X171850714Y-140314428D01*
X171707857Y-140457285D01*
X171422142Y-140600142D01*
X170993571Y-140600142D01*
X174565000Y-140600142D02*
X174565000Y-137600142D01*
X174565000Y-140457285D02*
X174279285Y-140600142D01*
X173707857Y-140600142D01*
X173422142Y-140457285D01*
X173279285Y-140314428D01*
X173136428Y-140028714D01*
X173136428Y-139171571D01*
X173279285Y-138885857D01*
X173422142Y-138743000D01*
X173707857Y-138600142D01*
X174279285Y-138600142D01*
X174565000Y-138743000D01*
X177279285Y-138600142D02*
X177279285Y-140600142D01*
X175993571Y-138600142D02*
X175993571Y-140171571D01*
X176136428Y-140457285D01*
X176422142Y-140600142D01*
X176850714Y-140600142D01*
X177136428Y-140457285D01*
X177279285Y-140314428D01*
X179136428Y-140600142D02*
X178850714Y-140457285D01*
X178707857Y-140171571D01*
X178707857Y-137600142D01*
X182422142Y-137885857D02*
X182565000Y-137743000D01*
X182850714Y-137600142D01*
X183565000Y-137600142D01*
X183850714Y-137743000D01*
X183993571Y-137885857D01*
X184136428Y-138171571D01*
X184136428Y-138457285D01*
X183993571Y-138885857D01*
X182279285Y-140600142D01*
X184136428Y-140600142D01*
D11*
X98285000Y-141450000D02*
G75*
G03X98285000Y-141450000I-1000000J0D01*
G01*
X191980000Y-141450000D02*
G75*
G03X191980000Y-141450000I-1000000J0D01*
G01*
X191980000Y-47755000D02*
G75*
G03X191980000Y-47755000I-1000000J0D01*
G01*
X98285000Y-47755000D02*
G75*
G03X98285000Y-47755000I-1000000J0D01*
G01*
X94285000Y-144755000D02*
X194285000Y-144755000D01*
X194285000Y-44755000D02*
X194285000Y-144755000D01*
X94285000Y-144755000D02*
X94285000Y-44755000D01*
X94285000Y-44755000D02*
X194285000Y-44755000D01*
D12*
%TO.C,C3*%
X155447000Y-67365578D02*
X155447000Y-66848422D01*
X154027000Y-67365578D02*
X154027000Y-66848422D01*
%TO.C,Q1*%
X150729000Y-56695000D02*
X150729000Y-58155000D01*
X147569000Y-56695000D02*
X147569000Y-58855000D01*
X147569000Y-56695000D02*
X148499000Y-56695000D01*
X150729000Y-56695000D02*
X149799000Y-56695000D01*
%TO.C,RV1*%
X183015000Y-66429000D02*
X178275000Y-66429000D01*
X183015000Y-61689000D02*
X178275000Y-61689000D01*
X178275000Y-65299000D02*
X178275000Y-66429000D01*
X178275000Y-61689000D02*
X178275000Y-62819000D01*
X183015000Y-63800000D02*
X183015000Y-64319000D01*
X183015000Y-61689000D02*
X183015000Y-62020000D01*
X183015000Y-66099000D02*
X183015000Y-66429000D01*
D13*
%TO.C,U1*%
X168772000Y-72665000D02*
X170297000Y-72665000D01*
X168772000Y-62290000D02*
X161022000Y-62290000D01*
X168772000Y-72940000D02*
X161022000Y-72940000D01*
X168772000Y-62290000D02*
X168772000Y-62645000D01*
X161022000Y-62290000D02*
X161022000Y-62645000D01*
X161022000Y-72940000D02*
X161022000Y-72585000D01*
X168772000Y-72940000D02*
X168772000Y-72665000D01*
D12*
%TO.C,C4*%
X153088922Y-104465000D02*
X153606078Y-104465000D01*
X153088922Y-103045000D02*
X153606078Y-103045000D01*
D14*
%TO.C,J1*%
X160325000Y-133931000D02*
X145035000Y-133931000D01*
X145035000Y-133931000D02*
X145035000Y-142881000D01*
X145035000Y-142881000D02*
X165655000Y-142881000D01*
X165655000Y-142881000D02*
X165655000Y-137211000D01*
%TO.C,J2*%
X138989000Y-133931000D02*
X123699000Y-133931000D01*
X123699000Y-133931000D02*
X123699000Y-142881000D01*
X123699000Y-142881000D02*
X144319000Y-142881000D01*
X144319000Y-142881000D02*
X144319000Y-137211000D01*
D12*
%TO.C,R7*%
X113535922Y-129920000D02*
X114053078Y-129920000D01*
X113535922Y-128500000D02*
X114053078Y-128500000D01*
%TO.C,C1*%
X182935578Y-58269000D02*
X182418422Y-58269000D01*
X182935578Y-59689000D02*
X182418422Y-59689000D01*
%TO.C,C2*%
X182963922Y-104465000D02*
X183481078Y-104465000D01*
X182963922Y-103045000D02*
X183481078Y-103045000D01*
%TO.C,C5*%
X122963922Y-104465000D02*
X123481078Y-104465000D01*
X122963922Y-103045000D02*
X123481078Y-103045000D01*
%TO.C,R8*%
X123026422Y-108465000D02*
X123543578Y-108465000D01*
X123026422Y-107045000D02*
X123543578Y-107045000D01*
%TO.C,R2*%
X151947578Y-62333000D02*
X151430422Y-62333000D01*
X151947578Y-63753000D02*
X151430422Y-63753000D01*
%TO.C,R1*%
X183026422Y-108465000D02*
X183543578Y-108465000D01*
X183026422Y-107045000D02*
X183543578Y-107045000D01*
%TO.C,R3*%
X173709922Y-129920000D02*
X174227078Y-129920000D01*
X173709922Y-128500000D02*
X174227078Y-128500000D01*
%TO.C,R5*%
X143731922Y-129846000D02*
X144249078Y-129846000D01*
X143731922Y-128426000D02*
X144249078Y-128426000D01*
%TO.C,R6*%
X153088922Y-108465000D02*
X153606078Y-108465000D01*
X153088922Y-107045000D02*
X153606078Y-107045000D01*
%TD*%
%TO.C,C3*%
D13*
X153444142Y-67273666D02*
X153491761Y-67321285D01*
X153539380Y-67464142D01*
X153539380Y-67559380D01*
X153491761Y-67702238D01*
X153396523Y-67797476D01*
X153301285Y-67845095D01*
X153110809Y-67892714D01*
X152967952Y-67892714D01*
X152777476Y-67845095D01*
X152682238Y-67797476D01*
X152587000Y-67702238D01*
X152539380Y-67559380D01*
X152539380Y-67464142D01*
X152587000Y-67321285D01*
X152634619Y-67273666D01*
X152539380Y-66940333D02*
X152539380Y-66321285D01*
X152920333Y-66654619D01*
X152920333Y-66511761D01*
X152967952Y-66416523D01*
X153015571Y-66368904D01*
X153110809Y-66321285D01*
X153348904Y-66321285D01*
X153444142Y-66368904D01*
X153491761Y-66416523D01*
X153539380Y-66511761D01*
X153539380Y-66797476D01*
X153491761Y-66892714D01*
X153444142Y-66940333D01*
%TO.C,Q1*%
X147196619Y-57550238D02*
X147149000Y-57645476D01*
X147053761Y-57740714D01*
X146910904Y-57883571D01*
X146863285Y-57978809D01*
X146863285Y-58074047D01*
X147101380Y-58026428D02*
X147053761Y-58121666D01*
X146958523Y-58216904D01*
X146768047Y-58264523D01*
X146434714Y-58264523D01*
X146244238Y-58216904D01*
X146149000Y-58121666D01*
X146101380Y-58026428D01*
X146101380Y-57835952D01*
X146149000Y-57740714D01*
X146244238Y-57645476D01*
X146434714Y-57597857D01*
X146768047Y-57597857D01*
X146958523Y-57645476D01*
X147053761Y-57740714D01*
X147101380Y-57835952D01*
X147101380Y-58026428D01*
X147101380Y-56645476D02*
X147101380Y-57216904D01*
X147101380Y-56931190D02*
X146101380Y-56931190D01*
X146244238Y-57026428D01*
X146339476Y-57121666D01*
X146387095Y-57216904D01*
%TO.C,RV1*%
X185747380Y-64654238D02*
X185271190Y-64987571D01*
X185747380Y-65225666D02*
X184747380Y-65225666D01*
X184747380Y-64844714D01*
X184795000Y-64749476D01*
X184842619Y-64701857D01*
X184937857Y-64654238D01*
X185080714Y-64654238D01*
X185175952Y-64701857D01*
X185223571Y-64749476D01*
X185271190Y-64844714D01*
X185271190Y-65225666D01*
X184747380Y-64368523D02*
X185747380Y-64035190D01*
X184747380Y-63701857D01*
X185747380Y-62844714D02*
X185747380Y-63416142D01*
X185747380Y-63130428D02*
X184747380Y-63130428D01*
X184890238Y-63225666D01*
X184985476Y-63320904D01*
X185033095Y-63416142D01*
%TO.C,U1*%
X164135095Y-73317380D02*
X164135095Y-74126904D01*
X164182714Y-74222142D01*
X164230333Y-74269761D01*
X164325571Y-74317380D01*
X164516047Y-74317380D01*
X164611285Y-74269761D01*
X164658904Y-74222142D01*
X164706523Y-74126904D01*
X164706523Y-73317380D01*
X165706523Y-74317380D02*
X165135095Y-74317380D01*
X165420809Y-74317380D02*
X165420809Y-73317380D01*
X165325571Y-73460238D01*
X165230333Y-73555476D01*
X165135095Y-73603095D01*
%TO.C,C4*%
X153180833Y-102462142D02*
X153133214Y-102509761D01*
X152990357Y-102557380D01*
X152895119Y-102557380D01*
X152752261Y-102509761D01*
X152657023Y-102414523D01*
X152609404Y-102319285D01*
X152561785Y-102128809D01*
X152561785Y-101985952D01*
X152609404Y-101795476D01*
X152657023Y-101700238D01*
X152752261Y-101605000D01*
X152895119Y-101557380D01*
X152990357Y-101557380D01*
X153133214Y-101605000D01*
X153180833Y-101652619D01*
X154037976Y-101890714D02*
X154037976Y-102557380D01*
X153799880Y-101509761D02*
X153561785Y-102224047D01*
X154180833Y-102224047D01*
%TO.C,J1*%
D15*
X163965666Y-134483523D02*
X163965666Y-135390666D01*
X163905190Y-135572095D01*
X163784238Y-135693047D01*
X163602809Y-135753523D01*
X163481857Y-135753523D01*
X165235666Y-135753523D02*
X164509952Y-135753523D01*
X164872809Y-135753523D02*
X164872809Y-134483523D01*
X164751857Y-134664952D01*
X164630904Y-134785904D01*
X164509952Y-134846380D01*
%TO.C,J2*%
X142629666Y-134483523D02*
X142629666Y-135390666D01*
X142569190Y-135572095D01*
X142448238Y-135693047D01*
X142266809Y-135753523D01*
X142145857Y-135753523D01*
X143173952Y-134604476D02*
X143234428Y-134544000D01*
X143355380Y-134483523D01*
X143657761Y-134483523D01*
X143778714Y-134544000D01*
X143839190Y-134604476D01*
X143899666Y-134725428D01*
X143899666Y-134846380D01*
X143839190Y-135027809D01*
X143113476Y-135753523D01*
X143899666Y-135753523D01*
%TO.C,R7*%
D13*
X113676333Y-131186380D02*
X113343000Y-130710190D01*
X113104904Y-131186380D02*
X113104904Y-130186380D01*
X113485857Y-130186380D01*
X113581095Y-130234000D01*
X113628714Y-130281619D01*
X113676333Y-130376857D01*
X113676333Y-130519714D01*
X113628714Y-130614952D01*
X113581095Y-130662571D01*
X113485857Y-130710190D01*
X113104904Y-130710190D01*
X114009666Y-130186380D02*
X114676333Y-130186380D01*
X114247761Y-131186380D01*
%TO.C,C1*%
X182510333Y-57431142D02*
X182462714Y-57478761D01*
X182319857Y-57526380D01*
X182224619Y-57526380D01*
X182081761Y-57478761D01*
X181986523Y-57383523D01*
X181938904Y-57288285D01*
X181891285Y-57097809D01*
X181891285Y-56954952D01*
X181938904Y-56764476D01*
X181986523Y-56669238D01*
X182081761Y-56574000D01*
X182224619Y-56526380D01*
X182319857Y-56526380D01*
X182462714Y-56574000D01*
X182510333Y-56621619D01*
X183462714Y-57526380D02*
X182891285Y-57526380D01*
X183177000Y-57526380D02*
X183177000Y-56526380D01*
X183081761Y-56669238D01*
X182986523Y-56764476D01*
X182891285Y-56812095D01*
%TO.C,C2*%
X183055833Y-102462142D02*
X183008214Y-102509761D01*
X182865357Y-102557380D01*
X182770119Y-102557380D01*
X182627261Y-102509761D01*
X182532023Y-102414523D01*
X182484404Y-102319285D01*
X182436785Y-102128809D01*
X182436785Y-101985952D01*
X182484404Y-101795476D01*
X182532023Y-101700238D01*
X182627261Y-101605000D01*
X182770119Y-101557380D01*
X182865357Y-101557380D01*
X183008214Y-101605000D01*
X183055833Y-101652619D01*
X183436785Y-101652619D02*
X183484404Y-101605000D01*
X183579642Y-101557380D01*
X183817738Y-101557380D01*
X183912976Y-101605000D01*
X183960595Y-101652619D01*
X184008214Y-101747857D01*
X184008214Y-101843095D01*
X183960595Y-101985952D01*
X183389166Y-102557380D01*
X184008214Y-102557380D01*
%TO.C,C5*%
X123055833Y-102462142D02*
X123008214Y-102509761D01*
X122865357Y-102557380D01*
X122770119Y-102557380D01*
X122627261Y-102509761D01*
X122532023Y-102414523D01*
X122484404Y-102319285D01*
X122436785Y-102128809D01*
X122436785Y-101985952D01*
X122484404Y-101795476D01*
X122532023Y-101700238D01*
X122627261Y-101605000D01*
X122770119Y-101557380D01*
X122865357Y-101557380D01*
X123008214Y-101605000D01*
X123055833Y-101652619D01*
X123960595Y-101557380D02*
X123484404Y-101557380D01*
X123436785Y-102033571D01*
X123484404Y-101985952D01*
X123579642Y-101938333D01*
X123817738Y-101938333D01*
X123912976Y-101985952D01*
X123960595Y-102033571D01*
X124008214Y-102128809D01*
X124008214Y-102366904D01*
X123960595Y-102462142D01*
X123912976Y-102509761D01*
X123817738Y-102557380D01*
X123579642Y-102557380D01*
X123484404Y-102509761D01*
X123436785Y-102462142D01*
%TO.C,R8*%
X123118333Y-106557380D02*
X122785000Y-106081190D01*
X122546904Y-106557380D02*
X122546904Y-105557380D01*
X122927857Y-105557380D01*
X123023095Y-105605000D01*
X123070714Y-105652619D01*
X123118333Y-105747857D01*
X123118333Y-105890714D01*
X123070714Y-105985952D01*
X123023095Y-106033571D01*
X122927857Y-106081190D01*
X122546904Y-106081190D01*
X123689761Y-105985952D02*
X123594523Y-105938333D01*
X123546904Y-105890714D01*
X123499285Y-105795476D01*
X123499285Y-105747857D01*
X123546904Y-105652619D01*
X123594523Y-105605000D01*
X123689761Y-105557380D01*
X123880238Y-105557380D01*
X123975476Y-105605000D01*
X124023095Y-105652619D01*
X124070714Y-105747857D01*
X124070714Y-105795476D01*
X124023095Y-105890714D01*
X123975476Y-105938333D01*
X123880238Y-105985952D01*
X123689761Y-105985952D01*
X123594523Y-106033571D01*
X123546904Y-106081190D01*
X123499285Y-106176428D01*
X123499285Y-106366904D01*
X123546904Y-106462142D01*
X123594523Y-106509761D01*
X123689761Y-106557380D01*
X123880238Y-106557380D01*
X123975476Y-106509761D01*
X124023095Y-106462142D01*
X124070714Y-106366904D01*
X124070714Y-106176428D01*
X124023095Y-106081190D01*
X123975476Y-106033571D01*
X123880238Y-105985952D01*
%TO.C,R2*%
X151522333Y-65145380D02*
X151189000Y-64669190D01*
X150950904Y-65145380D02*
X150950904Y-64145380D01*
X151331857Y-64145380D01*
X151427095Y-64193000D01*
X151474714Y-64240619D01*
X151522333Y-64335857D01*
X151522333Y-64478714D01*
X151474714Y-64573952D01*
X151427095Y-64621571D01*
X151331857Y-64669190D01*
X150950904Y-64669190D01*
X151903285Y-64240619D02*
X151950904Y-64193000D01*
X152046142Y-64145380D01*
X152284238Y-64145380D01*
X152379476Y-64193000D01*
X152427095Y-64240619D01*
X152474714Y-64335857D01*
X152474714Y-64431095D01*
X152427095Y-64573952D01*
X151855666Y-65145380D01*
X152474714Y-65145380D01*
%TO.C,R1*%
X183118333Y-106557380D02*
X182785000Y-106081190D01*
X182546904Y-106557380D02*
X182546904Y-105557380D01*
X182927857Y-105557380D01*
X183023095Y-105605000D01*
X183070714Y-105652619D01*
X183118333Y-105747857D01*
X183118333Y-105890714D01*
X183070714Y-105985952D01*
X183023095Y-106033571D01*
X182927857Y-106081190D01*
X182546904Y-106081190D01*
X184070714Y-106557380D02*
X183499285Y-106557380D01*
X183785000Y-106557380D02*
X183785000Y-105557380D01*
X183689761Y-105700238D01*
X183594523Y-105795476D01*
X183499285Y-105843095D01*
%TO.C,R3*%
X173747333Y-131313380D02*
X173414000Y-130837190D01*
X173175904Y-131313380D02*
X173175904Y-130313380D01*
X173556857Y-130313380D01*
X173652095Y-130361000D01*
X173699714Y-130408619D01*
X173747333Y-130503857D01*
X173747333Y-130646714D01*
X173699714Y-130741952D01*
X173652095Y-130789571D01*
X173556857Y-130837190D01*
X173175904Y-130837190D01*
X174080666Y-130313380D02*
X174699714Y-130313380D01*
X174366380Y-130694333D01*
X174509238Y-130694333D01*
X174604476Y-130741952D01*
X174652095Y-130789571D01*
X174699714Y-130884809D01*
X174699714Y-131122904D01*
X174652095Y-131218142D01*
X174604476Y-131265761D01*
X174509238Y-131313380D01*
X174223523Y-131313380D01*
X174128285Y-131265761D01*
X174080666Y-131218142D01*
%TO.C,R5*%
X144410333Y-131186380D02*
X144077000Y-130710190D01*
X143838904Y-131186380D02*
X143838904Y-130186380D01*
X144219857Y-130186380D01*
X144315095Y-130234000D01*
X144362714Y-130281619D01*
X144410333Y-130376857D01*
X144410333Y-130519714D01*
X144362714Y-130614952D01*
X144315095Y-130662571D01*
X144219857Y-130710190D01*
X143838904Y-130710190D01*
X145315095Y-130186380D02*
X144838904Y-130186380D01*
X144791285Y-130662571D01*
X144838904Y-130614952D01*
X144934142Y-130567333D01*
X145172238Y-130567333D01*
X145267476Y-130614952D01*
X145315095Y-130662571D01*
X145362714Y-130757809D01*
X145362714Y-130995904D01*
X145315095Y-131091142D01*
X145267476Y-131138761D01*
X145172238Y-131186380D01*
X144934142Y-131186380D01*
X144838904Y-131138761D01*
X144791285Y-131091142D01*
%TO.C,R6*%
X153180833Y-106557380D02*
X152847500Y-106081190D01*
X152609404Y-106557380D02*
X152609404Y-105557380D01*
X152990357Y-105557380D01*
X153085595Y-105605000D01*
X153133214Y-105652619D01*
X153180833Y-105747857D01*
X153180833Y-105890714D01*
X153133214Y-105985952D01*
X153085595Y-106033571D01*
X152990357Y-106081190D01*
X152609404Y-106081190D01*
X154037976Y-105557380D02*
X153847500Y-105557380D01*
X153752261Y-105605000D01*
X153704642Y-105652619D01*
X153609404Y-105795476D01*
X153561785Y-105985952D01*
X153561785Y-106366904D01*
X153609404Y-106462142D01*
X153657023Y-106509761D01*
X153752261Y-106557380D01*
X153942738Y-106557380D01*
X154037976Y-106509761D01*
X154085595Y-106462142D01*
X154133214Y-106366904D01*
X154133214Y-106128809D01*
X154085595Y-106033571D01*
X154037976Y-105985952D01*
X153942738Y-105938333D01*
X153752261Y-105938333D01*
X153657023Y-105985952D01*
X153609404Y-106033571D01*
X153561785Y-106128809D01*
%TD*%
M02*
