%TF.GenerationSoftware,KiCad,Pcbnew,(5.0.0)*%
%TF.CreationDate,2020-03-24T12:10:01+01:00*%
%TF.ProjectId,Schaltplan_Modul2,536368616C74706C616E5F4D6F64756C,rev?*%
%TF.SameCoordinates,Original*%
%TF.FileFunction,Legend,Bot*%
%TF.FilePolarity,Positive*%
%FSLAX46Y46*%
G04 Gerber Fmt 4.6, Leading zero omitted, Abs format (unit mm)*
G04 Created by KiCad (PCBNEW (5.0.0)) date 03/24/20 12:10:01*
%MOMM*%
%LPD*%
G01*
G04 APERTURE LIST*
%ADD10C,0.100000*%
%ADD11C,0.150000*%
%ADD12C,0.120000*%
G04 APERTURE END LIST*
D10*
X98285000Y-141450000D02*
G75*
G03X98285000Y-141450000I-1000000J0D01*
G01*
X191980000Y-141450000D02*
G75*
G03X191980000Y-141450000I-1000000J0D01*
G01*
X191980000Y-47755000D02*
G75*
G03X191980000Y-47755000I-1000000J0D01*
G01*
X98285000Y-47755000D02*
G75*
G03X98285000Y-47755000I-1000000J0D01*
G01*
X94285000Y-144755000D02*
X194285000Y-144755000D01*
X194285000Y-44755000D02*
X194285000Y-144755000D01*
X94285000Y-144755000D02*
X94285000Y-44755000D01*
X94285000Y-44755000D02*
X194285000Y-44755000D01*
D11*
%TO.C,SW4*%
X119935000Y-105755000D02*
G75*
G03X119935000Y-105755000I-5650000J0D01*
G01*
%TO.C,SW3*%
X149935000Y-105755000D02*
G75*
G03X149935000Y-105755000I-5650000J0D01*
G01*
%TO.C,SW1*%
X179935000Y-105755000D02*
G75*
G03X179935000Y-105755000I-5650000J0D01*
G01*
D12*
%TO.C,D1*%
X174605000Y-125715000D02*
X172945000Y-125715000D01*
X178445000Y-125715000D02*
G75*
G03X178445000Y-125715000I-1920000J0D01*
G01*
%TO.C,D2*%
X144605000Y-125155000D02*
X142945000Y-125155000D01*
X148445000Y-125155000D02*
G75*
G03X148445000Y-125155000I-1920000J0D01*
G01*
%TO.C,D3*%
X114605000Y-124854000D02*
X112945000Y-124854000D01*
X118445000Y-124854000D02*
G75*
G03X118445000Y-124854000I-1920000J0D01*
G01*
D11*
%TO.C,J3*%
X189279877Y-87414071D02*
X189279877Y-54414071D01*
X100279877Y-87414071D02*
X189279877Y-87414071D01*
X100279877Y-54414071D02*
X189279877Y-54414071D01*
X100279877Y-54414071D02*
X100279877Y-87414071D01*
X94279877Y-49914071D02*
X194279877Y-49914071D01*
X194279877Y-91914071D02*
X194279877Y-49914071D01*
X94279877Y-91914071D02*
X194279877Y-91914071D01*
X94279877Y-49914071D02*
X94279877Y-91914071D01*
%TD*%
%TO.C,SW4*%
X115588333Y-110419761D02*
X115445476Y-110467380D01*
X115207380Y-110467380D01*
X115112142Y-110419761D01*
X115064523Y-110372142D01*
X115016904Y-110276904D01*
X115016904Y-110181666D01*
X115064523Y-110086428D01*
X115112142Y-110038809D01*
X115207380Y-109991190D01*
X115397857Y-109943571D01*
X115493095Y-109895952D01*
X115540714Y-109848333D01*
X115588333Y-109753095D01*
X115588333Y-109657857D01*
X115540714Y-109562619D01*
X115493095Y-109515000D01*
X115397857Y-109467380D01*
X115159761Y-109467380D01*
X115016904Y-109515000D01*
X114683571Y-109467380D02*
X114445476Y-110467380D01*
X114255000Y-109753095D01*
X114064523Y-110467380D01*
X113826428Y-109467380D01*
X113016904Y-109800714D02*
X113016904Y-110467380D01*
X113255000Y-109419761D02*
X113493095Y-110134047D01*
X112874047Y-110134047D01*
%TO.C,SW3*%
X145588333Y-110419761D02*
X145445476Y-110467380D01*
X145207380Y-110467380D01*
X145112142Y-110419761D01*
X145064523Y-110372142D01*
X145016904Y-110276904D01*
X145016904Y-110181666D01*
X145064523Y-110086428D01*
X145112142Y-110038809D01*
X145207380Y-109991190D01*
X145397857Y-109943571D01*
X145493095Y-109895952D01*
X145540714Y-109848333D01*
X145588333Y-109753095D01*
X145588333Y-109657857D01*
X145540714Y-109562619D01*
X145493095Y-109515000D01*
X145397857Y-109467380D01*
X145159761Y-109467380D01*
X145016904Y-109515000D01*
X144683571Y-109467380D02*
X144445476Y-110467380D01*
X144255000Y-109753095D01*
X144064523Y-110467380D01*
X143826428Y-109467380D01*
X143540714Y-109467380D02*
X142921666Y-109467380D01*
X143255000Y-109848333D01*
X143112142Y-109848333D01*
X143016904Y-109895952D01*
X142969285Y-109943571D01*
X142921666Y-110038809D01*
X142921666Y-110276904D01*
X142969285Y-110372142D01*
X143016904Y-110419761D01*
X143112142Y-110467380D01*
X143397857Y-110467380D01*
X143493095Y-110419761D01*
X143540714Y-110372142D01*
%TO.C,SW1*%
X175588333Y-110419761D02*
X175445476Y-110467380D01*
X175207380Y-110467380D01*
X175112142Y-110419761D01*
X175064523Y-110372142D01*
X175016904Y-110276904D01*
X175016904Y-110181666D01*
X175064523Y-110086428D01*
X175112142Y-110038809D01*
X175207380Y-109991190D01*
X175397857Y-109943571D01*
X175493095Y-109895952D01*
X175540714Y-109848333D01*
X175588333Y-109753095D01*
X175588333Y-109657857D01*
X175540714Y-109562619D01*
X175493095Y-109515000D01*
X175397857Y-109467380D01*
X175159761Y-109467380D01*
X175016904Y-109515000D01*
X174683571Y-109467380D02*
X174445476Y-110467380D01*
X174255000Y-109753095D01*
X174064523Y-110467380D01*
X173826428Y-109467380D01*
X172921666Y-110467380D02*
X173493095Y-110467380D01*
X173207380Y-110467380D02*
X173207380Y-109467380D01*
X173302619Y-109610238D01*
X173397857Y-109705476D01*
X173493095Y-109753095D01*
%TO.C,D1*%
X174723095Y-129087380D02*
X174723095Y-128087380D01*
X174485000Y-128087380D01*
X174342142Y-128135000D01*
X174246904Y-128230238D01*
X174199285Y-128325476D01*
X174151666Y-128515952D01*
X174151666Y-128658809D01*
X174199285Y-128849285D01*
X174246904Y-128944523D01*
X174342142Y-129039761D01*
X174485000Y-129087380D01*
X174723095Y-129087380D01*
X173199285Y-129087380D02*
X173770714Y-129087380D01*
X173485000Y-129087380D02*
X173485000Y-128087380D01*
X173580238Y-128230238D01*
X173675476Y-128325476D01*
X173770714Y-128373095D01*
X173606904Y-124967380D02*
X173606904Y-123967380D01*
X173035476Y-124967380D02*
X173464047Y-124395952D01*
X173035476Y-123967380D02*
X173606904Y-124538809D01*
%TO.C,D2*%
X144723095Y-128527380D02*
X144723095Y-127527380D01*
X144485000Y-127527380D01*
X144342142Y-127575000D01*
X144246904Y-127670238D01*
X144199285Y-127765476D01*
X144151666Y-127955952D01*
X144151666Y-128098809D01*
X144199285Y-128289285D01*
X144246904Y-128384523D01*
X144342142Y-128479761D01*
X144485000Y-128527380D01*
X144723095Y-128527380D01*
X143770714Y-127622619D02*
X143723095Y-127575000D01*
X143627857Y-127527380D01*
X143389761Y-127527380D01*
X143294523Y-127575000D01*
X143246904Y-127622619D01*
X143199285Y-127717857D01*
X143199285Y-127813095D01*
X143246904Y-127955952D01*
X143818333Y-128527380D01*
X143199285Y-128527380D01*
X143606904Y-124407380D02*
X143606904Y-123407380D01*
X143035476Y-124407380D02*
X143464047Y-123835952D01*
X143035476Y-123407380D02*
X143606904Y-123978809D01*
%TO.C,D3*%
X114723095Y-128226380D02*
X114723095Y-127226380D01*
X114485000Y-127226380D01*
X114342142Y-127274000D01*
X114246904Y-127369238D01*
X114199285Y-127464476D01*
X114151666Y-127654952D01*
X114151666Y-127797809D01*
X114199285Y-127988285D01*
X114246904Y-128083523D01*
X114342142Y-128178761D01*
X114485000Y-128226380D01*
X114723095Y-128226380D01*
X113818333Y-127226380D02*
X113199285Y-127226380D01*
X113532619Y-127607333D01*
X113389761Y-127607333D01*
X113294523Y-127654952D01*
X113246904Y-127702571D01*
X113199285Y-127797809D01*
X113199285Y-128035904D01*
X113246904Y-128131142D01*
X113294523Y-128178761D01*
X113389761Y-128226380D01*
X113675476Y-128226380D01*
X113770714Y-128178761D01*
X113818333Y-128131142D01*
X113606904Y-124106380D02*
X113606904Y-123106380D01*
X113035476Y-124106380D02*
X113464047Y-123534952D01*
X113035476Y-123106380D02*
X113606904Y-123677809D01*
%TO.C,J3*%
X188225380Y-50517666D02*
X188939666Y-50517666D01*
X189082523Y-50470047D01*
X189177761Y-50374809D01*
X189225380Y-50231952D01*
X189225380Y-50136714D01*
X188225380Y-50898619D02*
X188225380Y-51517666D01*
X188606333Y-51184333D01*
X188606333Y-51327190D01*
X188653952Y-51422428D01*
X188701571Y-51470047D01*
X188796809Y-51517666D01*
X189034904Y-51517666D01*
X189130142Y-51470047D01*
X189177761Y-51422428D01*
X189225380Y-51327190D01*
X189225380Y-51041476D01*
X189177761Y-50946238D01*
X189130142Y-50898619D01*
%TD*%
M02*
