%TF.GenerationSoftware,KiCad,Pcbnew,(5.0.0)*%
%TF.CreationDate,2020-03-24T12:10:01+01:00*%
%TF.ProjectId,Schaltplan_Modul2,536368616C74706C616E5F4D6F64756C,rev?*%
%TF.SameCoordinates,Original*%
%TF.FileFunction,Copper,L2,Bot,Signal*%
%TF.FilePolarity,Positive*%
%FSLAX46Y46*%
G04 Gerber Fmt 4.6, Leading zero omitted, Abs format (unit mm)*
G04 Created by KiCad (PCBNEW (5.0.0)) date 03/24/20 12:10:01*
%MOMM*%
%LPD*%
G01*
G04 APERTURE LIST*
%TA.AperFunction,NonConductor*%
%ADD10C,0.100000*%
%TD*%
%TA.AperFunction,ComponentPad*%
%ADD11C,4.000000*%
%TD*%
%TA.AperFunction,ComponentPad*%
%ADD12O,2.400000X2.400000*%
%TD*%
%TA.AperFunction,ComponentPad*%
%ADD13R,2.400000X2.400000*%
%TD*%
%TA.AperFunction,ComponentPad*%
%ADD14R,1.650000X1.650000*%
%TD*%
%TA.AperFunction,ComponentPad*%
%ADD15C,1.650000*%
%TD*%
%TA.AperFunction,ComponentPad*%
%ADD16O,1.700000X1.700000*%
%TD*%
%TA.AperFunction,ComponentPad*%
%ADD17R,1.700000X1.700000*%
%TD*%
%TA.AperFunction,ViaPad*%
%ADD18C,0.800000*%
%TD*%
%TA.AperFunction,Conductor*%
%ADD19C,0.400000*%
%TD*%
%TA.AperFunction,Conductor*%
%ADD20C,0.254000*%
%TD*%
G04 APERTURE END LIST*
D10*
X98285000Y-141450000D02*
G75*
G03X98285000Y-141450000I-1000000J0D01*
G01*
X191980000Y-141450000D02*
G75*
G03X191980000Y-141450000I-1000000J0D01*
G01*
X191980000Y-47755000D02*
G75*
G03X191980000Y-47755000I-1000000J0D01*
G01*
X98285000Y-47755000D02*
G75*
G03X98285000Y-47755000I-1000000J0D01*
G01*
X94285000Y-144755000D02*
X194285000Y-144755000D01*
X194285000Y-44755000D02*
X194285000Y-144755000D01*
X94285000Y-144755000D02*
X94285000Y-44755000D01*
X94285000Y-44755000D02*
X194285000Y-44755000D01*
D11*
%TO.P,SW4,1*%
%TO.N,+3V3*%
X117285000Y-107255000D03*
%TO.P,SW4,2*%
%TO.N,/IO32*%
X111285000Y-107295000D03*
%TD*%
%TO.P,SW3,1*%
%TO.N,+3V3*%
X147285000Y-107255000D03*
%TO.P,SW3,2*%
%TO.N,/IO13*%
X141285000Y-107295000D03*
%TD*%
%TO.P,SW1,1*%
%TO.N,+3V3*%
X177285000Y-107255000D03*
%TO.P,SW1,2*%
%TO.N,/IO2*%
X171285000Y-107295000D03*
%TD*%
D12*
%TO.P,D1,2*%
%TO.N,Net-(D1-Pad2)*%
X176525000Y-125715000D03*
D13*
%TO.P,D1,1*%
%TO.N,GND*%
X171445000Y-125715000D03*
%TD*%
D12*
%TO.P,D2,2*%
%TO.N,Net-(D2-Pad2)*%
X146525000Y-125155000D03*
D13*
%TO.P,D2,1*%
%TO.N,GND*%
X141445000Y-125155000D03*
%TD*%
D12*
%TO.P,D3,2*%
%TO.N,Net-(D3-Pad2)*%
X116525000Y-124854000D03*
D13*
%TO.P,D3,1*%
%TO.N,GND*%
X111445000Y-124854000D03*
%TD*%
D14*
%TO.P,J1,1*%
%TO.N,+3V3*%
X160325000Y-137211000D03*
D15*
%TO.P,J1,2*%
%TO.N,GND*%
X160325000Y-139751000D03*
%TO.P,J1,3*%
%TO.N,+5V*%
X157785000Y-137211000D03*
%TO.P,J1,4*%
%TO.N,/VSPI_CLK*%
X157785000Y-139751000D03*
%TO.P,J1,5*%
%TO.N,/SCL*%
X155245000Y-137211000D03*
%TO.P,J1,6*%
%TO.N,/VSPI_MOSI*%
X155245000Y-139751000D03*
%TO.P,J1,7*%
%TO.N,/SDA*%
X152705000Y-137211000D03*
%TO.P,J1,8*%
%TO.N,/VSPI_MISO*%
X152705000Y-139751000D03*
%TO.P,J1,9*%
%TO.N,Net-(J1-Pad9)*%
X150165000Y-137211000D03*
%TO.P,J1,10*%
%TO.N,/VSPI_CS*%
X150165000Y-139751000D03*
%TD*%
D14*
%TO.P,J2,1*%
%TO.N,/IO2*%
X138989000Y-137211000D03*
D15*
%TO.P,J2,2*%
%TO.N,/IO4*%
X138989000Y-139751000D03*
%TO.P,J2,3*%
%TO.N,/IO13*%
X136449000Y-137211000D03*
%TO.P,J2,4*%
%TO.N,/IO16*%
X136449000Y-139751000D03*
%TO.P,J2,5*%
%TO.N,/IO32*%
X133909000Y-137211000D03*
%TO.P,J2,6*%
%TO.N,/IO17*%
X133909000Y-139751000D03*
%TO.P,J2,7*%
%TO.N,N/C*%
X131369000Y-137211000D03*
%TO.P,J2,8*%
X131369000Y-139751000D03*
%TO.P,J2,9*%
X128829000Y-137211000D03*
%TO.P,J2,10*%
X128829000Y-139751000D03*
%TD*%
D11*
%TO.P,J3,*%
%TO.N,*%
X191549877Y-52644071D03*
X191549877Y-89184071D03*
X97009877Y-89184071D03*
X97009877Y-52644071D03*
D16*
%TO.P,J3,16*%
%TO.N,+5V*%
X146764798Y-52181558D03*
%TO.P,J3,15*%
%TO.N,Net-(J3-Pad15)*%
X149304798Y-52181558D03*
%TO.P,J3,14*%
%TO.N,Net-(J3-Pad14)*%
X151844798Y-52181558D03*
%TO.P,J3,13*%
%TO.N,Net-(J3-Pad13)*%
X154384798Y-52181558D03*
%TO.P,J3,12*%
%TO.N,Net-(J3-Pad12)*%
X156924798Y-52181558D03*
%TO.P,J3,11*%
%TO.N,Net-(J3-Pad11)*%
X159464798Y-52181558D03*
%TO.P,J3,10*%
%TO.N,Net-(J3-Pad10)*%
X162004798Y-52181558D03*
%TO.P,J3,9*%
%TO.N,Net-(J3-Pad9)*%
X164544798Y-52181558D03*
%TO.P,J3,8*%
%TO.N,Net-(J3-Pad8)*%
X167084798Y-52181558D03*
%TO.P,J3,7*%
%TO.N,Net-(J3-Pad7)*%
X169624798Y-52181558D03*
%TO.P,J3,6*%
%TO.N,Net-(J3-Pad6)*%
X172164798Y-52181558D03*
%TO.P,J3,5*%
%TO.N,Net-(J3-Pad5)*%
X174704798Y-52181558D03*
%TO.P,J3,4*%
%TO.N,Net-(J3-Pad4)*%
X177244798Y-52181558D03*
%TO.P,J3,3*%
%TO.N,Net-(J3-Pad3)*%
X179784798Y-52181558D03*
%TO.P,J3,2*%
%TO.N,+5V*%
X182324798Y-52181558D03*
D17*
%TO.P,J3,1*%
%TO.N,GND*%
X184864798Y-52181558D03*
%TD*%
D18*
%TO.N,GND*%
X124222500Y-105859000D03*
X154285000Y-105859000D03*
X184160000Y-105859000D03*
X183614500Y-60424500D03*
X149657000Y-60503000D03*
X185083000Y-62909000D03*
X169547000Y-61597000D03*
X171501000Y-70584500D03*
X157277000Y-69139000D03*
%TO.N,/IO16*%
X143053000Y-137719000D03*
%TO.N,+5V*%
X157785000Y-104191000D03*
X158293000Y-100635000D03*
X164897000Y-75743000D03*
X160247000Y-75743000D03*
%TO.N,Net-(J3-Pad5)*%
X166176000Y-62780000D03*
X168961000Y-59995000D03*
%TO.N,Net-(J3-Pad4)*%
X164897000Y-59995000D03*
X170485000Y-58471000D03*
%TO.N,/SCL*%
X156769000Y-105207000D03*
X159817000Y-100635000D03*
%TO.N,/SDA*%
X155753000Y-102667000D03*
X159309000Y-99619000D03*
%TO.N,Net-(C3-Pad2)*%
X172009000Y-68123000D03*
X157277000Y-67107000D03*
%TD*%
D19*
%TO.N,/IO16*%
X137973000Y-141275000D02*
X136449000Y-139751000D01*
X139497000Y-141275000D02*
X137973000Y-141275000D01*
X143053000Y-137719000D02*
X139497000Y-141275000D01*
X143053000Y-137719000D02*
X143053000Y-137719000D01*
%TO.N,+5V*%
X158293000Y-103683000D02*
X157785000Y-104191000D01*
X158293000Y-103683000D02*
X158293000Y-100635000D01*
X160247000Y-75743000D02*
X164897000Y-75743000D01*
%TO.N,Net-(J3-Pad5)*%
X166176000Y-62780000D02*
X166575999Y-62380001D01*
X166575999Y-62380001D02*
X168961000Y-59995000D01*
X168961000Y-59995000D02*
X168961000Y-59995000D01*
%TO.N,Net-(J3-Pad4)*%
X164897000Y-59995000D02*
X166421000Y-58471000D01*
X166421000Y-58471000D02*
X170485000Y-58471000D01*
%TO.N,/SCL*%
X158893010Y-101558990D02*
X159817000Y-100635000D01*
X158893010Y-104266992D02*
X158893010Y-101558990D01*
X156769000Y-105207000D02*
X157953002Y-105207000D01*
X157953002Y-105207000D02*
X158893010Y-104266992D01*
%TO.N,/SDA*%
X155753000Y-100466998D02*
X155753000Y-102667000D01*
X156600998Y-99619000D02*
X155753000Y-100466998D01*
X159309000Y-99619000D02*
X156600998Y-99619000D01*
%TO.N,Net-(C3-Pad2)*%
X172009000Y-68123000D02*
X158293000Y-68123000D01*
X158293000Y-68123000D02*
X157277000Y-67107000D01*
X157277000Y-67107000D02*
X157277000Y-67107000D01*
%TD*%
D20*
%TO.N,GND*%
G36*
X193218000Y-50585741D02*
X193042485Y-50410226D01*
X192074011Y-50009071D01*
X191025743Y-50009071D01*
X190057269Y-50410226D01*
X189316032Y-51151463D01*
X188914877Y-52119937D01*
X188914877Y-53168205D01*
X189316032Y-54136679D01*
X190057269Y-54877916D01*
X191025743Y-55279071D01*
X192074011Y-55279071D01*
X193042485Y-54877916D01*
X193218000Y-54702401D01*
X193218000Y-87125741D01*
X193042485Y-86950226D01*
X192074011Y-86549071D01*
X191025743Y-86549071D01*
X190057269Y-86950226D01*
X189316032Y-87691463D01*
X188914877Y-88659937D01*
X188914877Y-89708205D01*
X189316032Y-90676679D01*
X190057269Y-91417916D01*
X191025743Y-91819071D01*
X192074011Y-91819071D01*
X193042485Y-91417916D01*
X193218000Y-91242401D01*
X193218000Y-143688000D01*
X95428000Y-143688000D01*
X95428000Y-141450000D01*
X95580000Y-141450000D01*
X95709785Y-142102475D01*
X96079383Y-142655617D01*
X96632525Y-143025215D01*
X97285000Y-143155000D01*
X97937475Y-143025215D01*
X98490617Y-142655617D01*
X98860215Y-142102475D01*
X98990000Y-141450000D01*
X98860215Y-140797525D01*
X98490617Y-140244383D01*
X97937475Y-139874785D01*
X97285000Y-139745000D01*
X96632525Y-139874785D01*
X96079383Y-140244383D01*
X95709785Y-140797525D01*
X95580000Y-141450000D01*
X95428000Y-141450000D01*
X95428000Y-136920588D01*
X127369000Y-136920588D01*
X127369000Y-137501412D01*
X127591272Y-138038024D01*
X128001976Y-138448728D01*
X128079887Y-138481000D01*
X128001976Y-138513272D01*
X127591272Y-138923976D01*
X127369000Y-139460588D01*
X127369000Y-140041412D01*
X127591272Y-140578024D01*
X128001976Y-140988728D01*
X128538588Y-141211000D01*
X129119412Y-141211000D01*
X129656024Y-140988728D01*
X130066728Y-140578024D01*
X130099000Y-140500113D01*
X130131272Y-140578024D01*
X130541976Y-140988728D01*
X131078588Y-141211000D01*
X131659412Y-141211000D01*
X132196024Y-140988728D01*
X132606728Y-140578024D01*
X132639000Y-140500113D01*
X132671272Y-140578024D01*
X133081976Y-140988728D01*
X133618588Y-141211000D01*
X134199412Y-141211000D01*
X134736024Y-140988728D01*
X135146728Y-140578024D01*
X135179000Y-140500113D01*
X135211272Y-140578024D01*
X135621976Y-140988728D01*
X136158588Y-141211000D01*
X136728132Y-141211000D01*
X137324416Y-141807285D01*
X137370999Y-141877001D01*
X137647199Y-142061552D01*
X137890763Y-142110000D01*
X137890766Y-142110000D01*
X137972999Y-142126357D01*
X138055232Y-142110000D01*
X139414767Y-142110000D01*
X139497000Y-142126357D01*
X139579233Y-142110000D01*
X139579237Y-142110000D01*
X139822801Y-142061552D01*
X140099001Y-141877001D01*
X140145587Y-141807280D01*
X140502867Y-141450000D01*
X189275000Y-141450000D01*
X189404785Y-142102475D01*
X189774383Y-142655617D01*
X190327525Y-143025215D01*
X190980000Y-143155000D01*
X191632475Y-143025215D01*
X192185617Y-142655617D01*
X192555215Y-142102475D01*
X192685000Y-141450000D01*
X192555215Y-140797525D01*
X192185617Y-140244383D01*
X191632475Y-139874785D01*
X190980000Y-139745000D01*
X190327525Y-139874785D01*
X189774383Y-140244383D01*
X189404785Y-140797525D01*
X189275000Y-141450000D01*
X140502867Y-141450000D01*
X143198869Y-138754000D01*
X143258874Y-138754000D01*
X143639280Y-138596431D01*
X143930431Y-138305280D01*
X144088000Y-137924874D01*
X144088000Y-137513126D01*
X143930431Y-137132720D01*
X143718299Y-136920588D01*
X148705000Y-136920588D01*
X148705000Y-137501412D01*
X148927272Y-138038024D01*
X149337976Y-138448728D01*
X149415887Y-138481000D01*
X149337976Y-138513272D01*
X148927272Y-138923976D01*
X148705000Y-139460588D01*
X148705000Y-140041412D01*
X148927272Y-140578024D01*
X149337976Y-140988728D01*
X149874588Y-141211000D01*
X150455412Y-141211000D01*
X150992024Y-140988728D01*
X151402728Y-140578024D01*
X151435000Y-140500113D01*
X151467272Y-140578024D01*
X151877976Y-140988728D01*
X152414588Y-141211000D01*
X152995412Y-141211000D01*
X153532024Y-140988728D01*
X153942728Y-140578024D01*
X153975000Y-140500113D01*
X154007272Y-140578024D01*
X154417976Y-140988728D01*
X154954588Y-141211000D01*
X155535412Y-141211000D01*
X156072024Y-140988728D01*
X156482728Y-140578024D01*
X156515000Y-140500113D01*
X156547272Y-140578024D01*
X156957976Y-140988728D01*
X157494588Y-141211000D01*
X158075412Y-141211000D01*
X158612024Y-140988728D01*
X158823899Y-140776853D01*
X159478752Y-140776853D01*
X159555956Y-141025563D01*
X160102250Y-141222843D01*
X160682456Y-141196048D01*
X161094044Y-141025563D01*
X161171248Y-140776853D01*
X160325000Y-139930605D01*
X159478752Y-140776853D01*
X158823899Y-140776853D01*
X159022728Y-140578024D01*
X159048591Y-140515586D01*
X159050437Y-140520044D01*
X159299147Y-140597248D01*
X160145395Y-139751000D01*
X160504605Y-139751000D01*
X161350853Y-140597248D01*
X161599563Y-140520044D01*
X161796843Y-139973750D01*
X161770048Y-139393544D01*
X161599563Y-138981956D01*
X161350853Y-138904752D01*
X160504605Y-139751000D01*
X160145395Y-139751000D01*
X159299147Y-138904752D01*
X159050437Y-138981956D01*
X159048717Y-138986719D01*
X159022728Y-138923976D01*
X158612024Y-138513272D01*
X158534113Y-138481000D01*
X158612024Y-138448728D01*
X158881128Y-138179624D01*
X158901843Y-138283765D01*
X159042191Y-138493809D01*
X159252235Y-138634157D01*
X159492181Y-138681885D01*
X159478752Y-138725147D01*
X160325000Y-139571395D01*
X161171248Y-138725147D01*
X161157819Y-138681885D01*
X161397765Y-138634157D01*
X161607809Y-138493809D01*
X161748157Y-138283765D01*
X161797440Y-138036000D01*
X161797440Y-136386000D01*
X161748157Y-136138235D01*
X161607809Y-135928191D01*
X161397765Y-135787843D01*
X161150000Y-135738560D01*
X159500000Y-135738560D01*
X159252235Y-135787843D01*
X159042191Y-135928191D01*
X158901843Y-136138235D01*
X158881128Y-136242376D01*
X158612024Y-135973272D01*
X158075412Y-135751000D01*
X157494588Y-135751000D01*
X156957976Y-135973272D01*
X156547272Y-136383976D01*
X156515000Y-136461887D01*
X156482728Y-136383976D01*
X156072024Y-135973272D01*
X155535412Y-135751000D01*
X154954588Y-135751000D01*
X154417976Y-135973272D01*
X154007272Y-136383976D01*
X153975000Y-136461887D01*
X153942728Y-136383976D01*
X153532024Y-135973272D01*
X152995412Y-135751000D01*
X152414588Y-135751000D01*
X151877976Y-135973272D01*
X151467272Y-136383976D01*
X151435000Y-136461887D01*
X151402728Y-136383976D01*
X150992024Y-135973272D01*
X150455412Y-135751000D01*
X149874588Y-135751000D01*
X149337976Y-135973272D01*
X148927272Y-136383976D01*
X148705000Y-136920588D01*
X143718299Y-136920588D01*
X143639280Y-136841569D01*
X143258874Y-136684000D01*
X142847126Y-136684000D01*
X142466720Y-136841569D01*
X142175569Y-137132720D01*
X142018000Y-137513126D01*
X142018000Y-137573131D01*
X140355726Y-139235406D01*
X140226728Y-138923976D01*
X139957624Y-138654872D01*
X140061765Y-138634157D01*
X140271809Y-138493809D01*
X140412157Y-138283765D01*
X140461440Y-138036000D01*
X140461440Y-136386000D01*
X140412157Y-136138235D01*
X140271809Y-135928191D01*
X140061765Y-135787843D01*
X139814000Y-135738560D01*
X138164000Y-135738560D01*
X137916235Y-135787843D01*
X137706191Y-135928191D01*
X137565843Y-136138235D01*
X137545128Y-136242376D01*
X137276024Y-135973272D01*
X136739412Y-135751000D01*
X136158588Y-135751000D01*
X135621976Y-135973272D01*
X135211272Y-136383976D01*
X135179000Y-136461887D01*
X135146728Y-136383976D01*
X134736024Y-135973272D01*
X134199412Y-135751000D01*
X133618588Y-135751000D01*
X133081976Y-135973272D01*
X132671272Y-136383976D01*
X132639000Y-136461887D01*
X132606728Y-136383976D01*
X132196024Y-135973272D01*
X131659412Y-135751000D01*
X131078588Y-135751000D01*
X130541976Y-135973272D01*
X130131272Y-136383976D01*
X130099000Y-136461887D01*
X130066728Y-136383976D01*
X129656024Y-135973272D01*
X129119412Y-135751000D01*
X128538588Y-135751000D01*
X128001976Y-135973272D01*
X127591272Y-136383976D01*
X127369000Y-136920588D01*
X95428000Y-136920588D01*
X95428000Y-125139750D01*
X109610000Y-125139750D01*
X109610000Y-126180310D01*
X109706673Y-126413699D01*
X109885302Y-126592327D01*
X110118691Y-126689000D01*
X111159250Y-126689000D01*
X111318000Y-126530250D01*
X111318000Y-124981000D01*
X111572000Y-124981000D01*
X111572000Y-126530250D01*
X111730750Y-126689000D01*
X112771309Y-126689000D01*
X113004698Y-126592327D01*
X113183327Y-126413699D01*
X113280000Y-126180310D01*
X113280000Y-125139750D01*
X113121250Y-124981000D01*
X111572000Y-124981000D01*
X111318000Y-124981000D01*
X109768750Y-124981000D01*
X109610000Y-125139750D01*
X95428000Y-125139750D01*
X95428000Y-124854000D01*
X114654051Y-124854000D01*
X114796469Y-125569981D01*
X115202039Y-126176961D01*
X115809019Y-126582531D01*
X116344273Y-126689000D01*
X116705727Y-126689000D01*
X117240981Y-126582531D01*
X117847961Y-126176961D01*
X118253531Y-125569981D01*
X118279236Y-125440750D01*
X139610000Y-125440750D01*
X139610000Y-126481310D01*
X139706673Y-126714699D01*
X139885302Y-126893327D01*
X140118691Y-126990000D01*
X141159250Y-126990000D01*
X141318000Y-126831250D01*
X141318000Y-125282000D01*
X141572000Y-125282000D01*
X141572000Y-126831250D01*
X141730750Y-126990000D01*
X142771309Y-126990000D01*
X143004698Y-126893327D01*
X143183327Y-126714699D01*
X143280000Y-126481310D01*
X143280000Y-125440750D01*
X143121250Y-125282000D01*
X141572000Y-125282000D01*
X141318000Y-125282000D01*
X139768750Y-125282000D01*
X139610000Y-125440750D01*
X118279236Y-125440750D01*
X118336075Y-125155000D01*
X144654051Y-125155000D01*
X144796469Y-125870981D01*
X145202039Y-126477961D01*
X145809019Y-126883531D01*
X146344273Y-126990000D01*
X146705727Y-126990000D01*
X147240981Y-126883531D01*
X147847961Y-126477961D01*
X148166822Y-126000750D01*
X169610000Y-126000750D01*
X169610000Y-127041310D01*
X169706673Y-127274699D01*
X169885302Y-127453327D01*
X170118691Y-127550000D01*
X171159250Y-127550000D01*
X171318000Y-127391250D01*
X171318000Y-125842000D01*
X171572000Y-125842000D01*
X171572000Y-127391250D01*
X171730750Y-127550000D01*
X172771309Y-127550000D01*
X173004698Y-127453327D01*
X173183327Y-127274699D01*
X173280000Y-127041310D01*
X173280000Y-126000750D01*
X173121250Y-125842000D01*
X171572000Y-125842000D01*
X171318000Y-125842000D01*
X169768750Y-125842000D01*
X169610000Y-126000750D01*
X148166822Y-126000750D01*
X148253531Y-125870981D01*
X148284557Y-125715000D01*
X174654051Y-125715000D01*
X174796469Y-126430981D01*
X175202039Y-127037961D01*
X175809019Y-127443531D01*
X176344273Y-127550000D01*
X176705727Y-127550000D01*
X177240981Y-127443531D01*
X177847961Y-127037961D01*
X178253531Y-126430981D01*
X178395949Y-125715000D01*
X178253531Y-124999019D01*
X177847961Y-124392039D01*
X177240981Y-123986469D01*
X176705727Y-123880000D01*
X176344273Y-123880000D01*
X175809019Y-123986469D01*
X175202039Y-124392039D01*
X174796469Y-124999019D01*
X174654051Y-125715000D01*
X148284557Y-125715000D01*
X148395949Y-125155000D01*
X148253531Y-124439019D01*
X148219903Y-124388690D01*
X169610000Y-124388690D01*
X169610000Y-125429250D01*
X169768750Y-125588000D01*
X171318000Y-125588000D01*
X171318000Y-124038750D01*
X171572000Y-124038750D01*
X171572000Y-125588000D01*
X173121250Y-125588000D01*
X173280000Y-125429250D01*
X173280000Y-124388690D01*
X173183327Y-124155301D01*
X173004698Y-123976673D01*
X172771309Y-123880000D01*
X171730750Y-123880000D01*
X171572000Y-124038750D01*
X171318000Y-124038750D01*
X171159250Y-123880000D01*
X170118691Y-123880000D01*
X169885302Y-123976673D01*
X169706673Y-124155301D01*
X169610000Y-124388690D01*
X148219903Y-124388690D01*
X147847961Y-123832039D01*
X147240981Y-123426469D01*
X146705727Y-123320000D01*
X146344273Y-123320000D01*
X145809019Y-123426469D01*
X145202039Y-123832039D01*
X144796469Y-124439019D01*
X144654051Y-125155000D01*
X118336075Y-125155000D01*
X118395949Y-124854000D01*
X118253531Y-124138019D01*
X118046845Y-123828690D01*
X139610000Y-123828690D01*
X139610000Y-124869250D01*
X139768750Y-125028000D01*
X141318000Y-125028000D01*
X141318000Y-123478750D01*
X141572000Y-123478750D01*
X141572000Y-125028000D01*
X143121250Y-125028000D01*
X143280000Y-124869250D01*
X143280000Y-123828690D01*
X143183327Y-123595301D01*
X143004698Y-123416673D01*
X142771309Y-123320000D01*
X141730750Y-123320000D01*
X141572000Y-123478750D01*
X141318000Y-123478750D01*
X141159250Y-123320000D01*
X140118691Y-123320000D01*
X139885302Y-123416673D01*
X139706673Y-123595301D01*
X139610000Y-123828690D01*
X118046845Y-123828690D01*
X117847961Y-123531039D01*
X117240981Y-123125469D01*
X116705727Y-123019000D01*
X116344273Y-123019000D01*
X115809019Y-123125469D01*
X115202039Y-123531039D01*
X114796469Y-124138019D01*
X114654051Y-124854000D01*
X95428000Y-124854000D01*
X95428000Y-123527690D01*
X109610000Y-123527690D01*
X109610000Y-124568250D01*
X109768750Y-124727000D01*
X111318000Y-124727000D01*
X111318000Y-123177750D01*
X111572000Y-123177750D01*
X111572000Y-124727000D01*
X113121250Y-124727000D01*
X113280000Y-124568250D01*
X113280000Y-123527690D01*
X113183327Y-123294301D01*
X113004698Y-123115673D01*
X112771309Y-123019000D01*
X111730750Y-123019000D01*
X111572000Y-123177750D01*
X111318000Y-123177750D01*
X111159250Y-123019000D01*
X110118691Y-123019000D01*
X109885302Y-123115673D01*
X109706673Y-123294301D01*
X109610000Y-123527690D01*
X95428000Y-123527690D01*
X95428000Y-106770866D01*
X108650000Y-106770866D01*
X108650000Y-107819134D01*
X109051155Y-108787608D01*
X109792392Y-109528845D01*
X110760866Y-109930000D01*
X111809134Y-109930000D01*
X112777608Y-109528845D01*
X113518845Y-108787608D01*
X113920000Y-107819134D01*
X113920000Y-106770866D01*
X113903432Y-106730866D01*
X114650000Y-106730866D01*
X114650000Y-107779134D01*
X115051155Y-108747608D01*
X115792392Y-109488845D01*
X116760866Y-109890000D01*
X117809134Y-109890000D01*
X118777608Y-109488845D01*
X119518845Y-108747608D01*
X119920000Y-107779134D01*
X119920000Y-106770866D01*
X138650000Y-106770866D01*
X138650000Y-107819134D01*
X139051155Y-108787608D01*
X139792392Y-109528845D01*
X140760866Y-109930000D01*
X141809134Y-109930000D01*
X142777608Y-109528845D01*
X143518845Y-108787608D01*
X143920000Y-107819134D01*
X143920000Y-106770866D01*
X143903432Y-106730866D01*
X144650000Y-106730866D01*
X144650000Y-107779134D01*
X145051155Y-108747608D01*
X145792392Y-109488845D01*
X146760866Y-109890000D01*
X147809134Y-109890000D01*
X148777608Y-109488845D01*
X149518845Y-108747608D01*
X149920000Y-107779134D01*
X149920000Y-106770866D01*
X168650000Y-106770866D01*
X168650000Y-107819134D01*
X169051155Y-108787608D01*
X169792392Y-109528845D01*
X170760866Y-109930000D01*
X171809134Y-109930000D01*
X172777608Y-109528845D01*
X173518845Y-108787608D01*
X173920000Y-107819134D01*
X173920000Y-106770866D01*
X173903432Y-106730866D01*
X174650000Y-106730866D01*
X174650000Y-107779134D01*
X175051155Y-108747608D01*
X175792392Y-109488845D01*
X176760866Y-109890000D01*
X177809134Y-109890000D01*
X178777608Y-109488845D01*
X179518845Y-108747608D01*
X179920000Y-107779134D01*
X179920000Y-106730866D01*
X179518845Y-105762392D01*
X178777608Y-105021155D01*
X177809134Y-104620000D01*
X176760866Y-104620000D01*
X175792392Y-105021155D01*
X175051155Y-105762392D01*
X174650000Y-106730866D01*
X173903432Y-106730866D01*
X173518845Y-105802392D01*
X172777608Y-105061155D01*
X171809134Y-104660000D01*
X170760866Y-104660000D01*
X169792392Y-105061155D01*
X169051155Y-105802392D01*
X168650000Y-106770866D01*
X149920000Y-106770866D01*
X149920000Y-106730866D01*
X149518845Y-105762392D01*
X148777608Y-105021155D01*
X147809134Y-104620000D01*
X146760866Y-104620000D01*
X145792392Y-105021155D01*
X145051155Y-105762392D01*
X144650000Y-106730866D01*
X143903432Y-106730866D01*
X143518845Y-105802392D01*
X142777608Y-105061155D01*
X141809134Y-104660000D01*
X140760866Y-104660000D01*
X139792392Y-105061155D01*
X139051155Y-105802392D01*
X138650000Y-106770866D01*
X119920000Y-106770866D01*
X119920000Y-106730866D01*
X119518845Y-105762392D01*
X118777608Y-105021155D01*
X117809134Y-104620000D01*
X116760866Y-104620000D01*
X115792392Y-105021155D01*
X115051155Y-105762392D01*
X114650000Y-106730866D01*
X113903432Y-106730866D01*
X113518845Y-105802392D01*
X112777608Y-105061155D01*
X111809134Y-104660000D01*
X110760866Y-104660000D01*
X109792392Y-105061155D01*
X109051155Y-105802392D01*
X108650000Y-106770866D01*
X95428000Y-106770866D01*
X95428000Y-102461126D01*
X154718000Y-102461126D01*
X154718000Y-102872874D01*
X154875569Y-103253280D01*
X155166720Y-103544431D01*
X155547126Y-103702000D01*
X155958874Y-103702000D01*
X156339280Y-103544431D01*
X156630431Y-103253280D01*
X156788000Y-102872874D01*
X156788000Y-102461126D01*
X156630431Y-102080720D01*
X156588000Y-102038289D01*
X156588000Y-100812866D01*
X156946866Y-100454000D01*
X157258000Y-100454000D01*
X157258000Y-100840874D01*
X157415569Y-101221280D01*
X157458001Y-101263712D01*
X157458000Y-103206172D01*
X157198720Y-103313569D01*
X156907569Y-103604720D01*
X156750000Y-103985126D01*
X156750000Y-104172000D01*
X156563126Y-104172000D01*
X156182720Y-104329569D01*
X155891569Y-104620720D01*
X155734000Y-105001126D01*
X155734000Y-105412874D01*
X155891569Y-105793280D01*
X156182720Y-106084431D01*
X156563126Y-106242000D01*
X156974874Y-106242000D01*
X157355280Y-106084431D01*
X157397711Y-106042000D01*
X157870769Y-106042000D01*
X157953002Y-106058357D01*
X158035235Y-106042000D01*
X158035239Y-106042000D01*
X158278803Y-105993552D01*
X158555003Y-105809001D01*
X158601589Y-105739280D01*
X159425293Y-104915577D01*
X159495011Y-104868993D01*
X159679562Y-104592793D01*
X159728010Y-104349229D01*
X159728010Y-104349226D01*
X159744367Y-104266993D01*
X159728010Y-104184760D01*
X159728010Y-101904857D01*
X159962868Y-101670000D01*
X160022874Y-101670000D01*
X160403280Y-101512431D01*
X160694431Y-101221280D01*
X160852000Y-100840874D01*
X160852000Y-100429126D01*
X160694431Y-100048720D01*
X160403280Y-99757569D01*
X160344000Y-99733014D01*
X160344000Y-99413126D01*
X160186431Y-99032720D01*
X159895280Y-98741569D01*
X159514874Y-98584000D01*
X159103126Y-98584000D01*
X158722720Y-98741569D01*
X158680289Y-98784000D01*
X156683230Y-98784000D01*
X156600997Y-98767643D01*
X156518764Y-98784000D01*
X156518761Y-98784000D01*
X156275197Y-98832448D01*
X155998997Y-99016999D01*
X155952414Y-99086715D01*
X155220720Y-99818411D01*
X155150999Y-99864997D01*
X154966448Y-100141198D01*
X154918000Y-100384762D01*
X154918000Y-100384765D01*
X154901643Y-100466998D01*
X154918000Y-100549231D01*
X154918001Y-102038288D01*
X154875569Y-102080720D01*
X154718000Y-102461126D01*
X95428000Y-102461126D01*
X95428000Y-91328647D01*
X95517269Y-91417916D01*
X96485743Y-91819071D01*
X97534011Y-91819071D01*
X98502485Y-91417916D01*
X99243722Y-90676679D01*
X99644877Y-89708205D01*
X99644877Y-88659937D01*
X99243722Y-87691463D01*
X98502485Y-86950226D01*
X97534011Y-86549071D01*
X96485743Y-86549071D01*
X95517269Y-86950226D01*
X95428000Y-87039495D01*
X95428000Y-75537126D01*
X159212000Y-75537126D01*
X159212000Y-75948874D01*
X159369569Y-76329280D01*
X159660720Y-76620431D01*
X160041126Y-76778000D01*
X160452874Y-76778000D01*
X160833280Y-76620431D01*
X160875711Y-76578000D01*
X164268289Y-76578000D01*
X164310720Y-76620431D01*
X164691126Y-76778000D01*
X165102874Y-76778000D01*
X165483280Y-76620431D01*
X165774431Y-76329280D01*
X165932000Y-75948874D01*
X165932000Y-75537126D01*
X165774431Y-75156720D01*
X165483280Y-74865569D01*
X165102874Y-74708000D01*
X164691126Y-74708000D01*
X164310720Y-74865569D01*
X164268289Y-74908000D01*
X160875711Y-74908000D01*
X160833280Y-74865569D01*
X160452874Y-74708000D01*
X160041126Y-74708000D01*
X159660720Y-74865569D01*
X159369569Y-75156720D01*
X159212000Y-75537126D01*
X95428000Y-75537126D01*
X95428000Y-66901126D01*
X156242000Y-66901126D01*
X156242000Y-67312874D01*
X156399569Y-67693280D01*
X156690720Y-67984431D01*
X157071126Y-68142000D01*
X157131133Y-68142000D01*
X157644415Y-68655282D01*
X157690999Y-68725001D01*
X157967199Y-68909552D01*
X158210763Y-68958000D01*
X158210767Y-68958000D01*
X158293000Y-68974357D01*
X158375233Y-68958000D01*
X171380289Y-68958000D01*
X171422720Y-69000431D01*
X171803126Y-69158000D01*
X172214874Y-69158000D01*
X172595280Y-69000431D01*
X172886431Y-68709280D01*
X173044000Y-68328874D01*
X173044000Y-67917126D01*
X172886431Y-67536720D01*
X172595280Y-67245569D01*
X172214874Y-67088000D01*
X171803126Y-67088000D01*
X171422720Y-67245569D01*
X171380289Y-67288000D01*
X158638868Y-67288000D01*
X158312000Y-66961133D01*
X158312000Y-66901126D01*
X158154431Y-66520720D01*
X157863280Y-66229569D01*
X157482874Y-66072000D01*
X157071126Y-66072000D01*
X156690720Y-66229569D01*
X156399569Y-66520720D01*
X156242000Y-66901126D01*
X95428000Y-66901126D01*
X95428000Y-59789126D01*
X163862000Y-59789126D01*
X163862000Y-60200874D01*
X164019569Y-60581280D01*
X164310720Y-60872431D01*
X164691126Y-61030000D01*
X165102874Y-61030000D01*
X165483280Y-60872431D01*
X165774431Y-60581280D01*
X165932000Y-60200874D01*
X165932000Y-60140868D01*
X166766869Y-59306000D01*
X168186289Y-59306000D01*
X168083569Y-59408720D01*
X167926000Y-59789126D01*
X167926000Y-59849132D01*
X166043716Y-61731417D01*
X166030133Y-61745000D01*
X165970126Y-61745000D01*
X165589720Y-61902569D01*
X165298569Y-62193720D01*
X165141000Y-62574126D01*
X165141000Y-62985874D01*
X165298569Y-63366280D01*
X165589720Y-63657431D01*
X165970126Y-63815000D01*
X166381874Y-63815000D01*
X166762280Y-63657431D01*
X167053431Y-63366280D01*
X167211000Y-62985874D01*
X167211000Y-62925867D01*
X167224583Y-62912284D01*
X169106868Y-61030000D01*
X169166874Y-61030000D01*
X169547280Y-60872431D01*
X169838431Y-60581280D01*
X169996000Y-60200874D01*
X169996000Y-59789126D01*
X169838431Y-59408720D01*
X169735711Y-59306000D01*
X169856289Y-59306000D01*
X169898720Y-59348431D01*
X170279126Y-59506000D01*
X170690874Y-59506000D01*
X171071280Y-59348431D01*
X171362431Y-59057280D01*
X171520000Y-58676874D01*
X171520000Y-58265126D01*
X171362431Y-57884720D01*
X171071280Y-57593569D01*
X170690874Y-57436000D01*
X170279126Y-57436000D01*
X169898720Y-57593569D01*
X169856289Y-57636000D01*
X166503232Y-57636000D01*
X166420999Y-57619643D01*
X166338766Y-57636000D01*
X166338763Y-57636000D01*
X166095199Y-57684448D01*
X165818999Y-57868999D01*
X165772416Y-57938715D01*
X164751132Y-58960000D01*
X164691126Y-58960000D01*
X164310720Y-59117569D01*
X164019569Y-59408720D01*
X163862000Y-59789126D01*
X95428000Y-59789126D01*
X95428000Y-54788647D01*
X95517269Y-54877916D01*
X96485743Y-55279071D01*
X97534011Y-55279071D01*
X98502485Y-54877916D01*
X99243722Y-54136679D01*
X99644877Y-53168205D01*
X99644877Y-52181558D01*
X145250706Y-52181558D01*
X145365959Y-52760976D01*
X145694173Y-53252183D01*
X146185380Y-53580397D01*
X146618542Y-53666558D01*
X146911054Y-53666558D01*
X147344216Y-53580397D01*
X147835423Y-53252183D01*
X148034798Y-52953797D01*
X148234173Y-53252183D01*
X148725380Y-53580397D01*
X149158542Y-53666558D01*
X149451054Y-53666558D01*
X149884216Y-53580397D01*
X150375423Y-53252183D01*
X150574798Y-52953797D01*
X150774173Y-53252183D01*
X151265380Y-53580397D01*
X151698542Y-53666558D01*
X151991054Y-53666558D01*
X152424216Y-53580397D01*
X152915423Y-53252183D01*
X153114798Y-52953797D01*
X153314173Y-53252183D01*
X153805380Y-53580397D01*
X154238542Y-53666558D01*
X154531054Y-53666558D01*
X154964216Y-53580397D01*
X155455423Y-53252183D01*
X155654798Y-52953797D01*
X155854173Y-53252183D01*
X156345380Y-53580397D01*
X156778542Y-53666558D01*
X157071054Y-53666558D01*
X157504216Y-53580397D01*
X157995423Y-53252183D01*
X158194798Y-52953797D01*
X158394173Y-53252183D01*
X158885380Y-53580397D01*
X159318542Y-53666558D01*
X159611054Y-53666558D01*
X160044216Y-53580397D01*
X160535423Y-53252183D01*
X160734798Y-52953797D01*
X160934173Y-53252183D01*
X161425380Y-53580397D01*
X161858542Y-53666558D01*
X162151054Y-53666558D01*
X162584216Y-53580397D01*
X163075423Y-53252183D01*
X163274798Y-52953797D01*
X163474173Y-53252183D01*
X163965380Y-53580397D01*
X164398542Y-53666558D01*
X164691054Y-53666558D01*
X165124216Y-53580397D01*
X165615423Y-53252183D01*
X165814798Y-52953797D01*
X166014173Y-53252183D01*
X166505380Y-53580397D01*
X166938542Y-53666558D01*
X167231054Y-53666558D01*
X167664216Y-53580397D01*
X168155423Y-53252183D01*
X168354798Y-52953797D01*
X168554173Y-53252183D01*
X169045380Y-53580397D01*
X169478542Y-53666558D01*
X169771054Y-53666558D01*
X170204216Y-53580397D01*
X170695423Y-53252183D01*
X170894798Y-52953797D01*
X171094173Y-53252183D01*
X171585380Y-53580397D01*
X172018542Y-53666558D01*
X172311054Y-53666558D01*
X172744216Y-53580397D01*
X173235423Y-53252183D01*
X173434798Y-52953797D01*
X173634173Y-53252183D01*
X174125380Y-53580397D01*
X174558542Y-53666558D01*
X174851054Y-53666558D01*
X175284216Y-53580397D01*
X175775423Y-53252183D01*
X175974798Y-52953797D01*
X176174173Y-53252183D01*
X176665380Y-53580397D01*
X177098542Y-53666558D01*
X177391054Y-53666558D01*
X177824216Y-53580397D01*
X178315423Y-53252183D01*
X178514798Y-52953797D01*
X178714173Y-53252183D01*
X179205380Y-53580397D01*
X179638542Y-53666558D01*
X179931054Y-53666558D01*
X180364216Y-53580397D01*
X180855423Y-53252183D01*
X181054798Y-52953797D01*
X181254173Y-53252183D01*
X181745380Y-53580397D01*
X182178542Y-53666558D01*
X182471054Y-53666558D01*
X182904216Y-53580397D01*
X183395423Y-53252183D01*
X183409894Y-53230525D01*
X183476471Y-53391256D01*
X183655099Y-53569885D01*
X183888488Y-53666558D01*
X184579048Y-53666558D01*
X184737798Y-53507808D01*
X184737798Y-52308558D01*
X184991798Y-52308558D01*
X184991798Y-53507808D01*
X185150548Y-53666558D01*
X185841108Y-53666558D01*
X186074497Y-53569885D01*
X186253125Y-53391256D01*
X186349798Y-53157867D01*
X186349798Y-52467308D01*
X186191048Y-52308558D01*
X184991798Y-52308558D01*
X184737798Y-52308558D01*
X184717798Y-52308558D01*
X184717798Y-52054558D01*
X184737798Y-52054558D01*
X184737798Y-50855308D01*
X184991798Y-50855308D01*
X184991798Y-52054558D01*
X186191048Y-52054558D01*
X186349798Y-51895808D01*
X186349798Y-51205249D01*
X186253125Y-50971860D01*
X186074497Y-50793231D01*
X185841108Y-50696558D01*
X185150548Y-50696558D01*
X184991798Y-50855308D01*
X184737798Y-50855308D01*
X184579048Y-50696558D01*
X183888488Y-50696558D01*
X183655099Y-50793231D01*
X183476471Y-50971860D01*
X183409894Y-51132591D01*
X183395423Y-51110933D01*
X182904216Y-50782719D01*
X182471054Y-50696558D01*
X182178542Y-50696558D01*
X181745380Y-50782719D01*
X181254173Y-51110933D01*
X181054798Y-51409319D01*
X180855423Y-51110933D01*
X180364216Y-50782719D01*
X179931054Y-50696558D01*
X179638542Y-50696558D01*
X179205380Y-50782719D01*
X178714173Y-51110933D01*
X178514798Y-51409319D01*
X178315423Y-51110933D01*
X177824216Y-50782719D01*
X177391054Y-50696558D01*
X177098542Y-50696558D01*
X176665380Y-50782719D01*
X176174173Y-51110933D01*
X175974798Y-51409319D01*
X175775423Y-51110933D01*
X175284216Y-50782719D01*
X174851054Y-50696558D01*
X174558542Y-50696558D01*
X174125380Y-50782719D01*
X173634173Y-51110933D01*
X173434798Y-51409319D01*
X173235423Y-51110933D01*
X172744216Y-50782719D01*
X172311054Y-50696558D01*
X172018542Y-50696558D01*
X171585380Y-50782719D01*
X171094173Y-51110933D01*
X170894798Y-51409319D01*
X170695423Y-51110933D01*
X170204216Y-50782719D01*
X169771054Y-50696558D01*
X169478542Y-50696558D01*
X169045380Y-50782719D01*
X168554173Y-51110933D01*
X168354798Y-51409319D01*
X168155423Y-51110933D01*
X167664216Y-50782719D01*
X167231054Y-50696558D01*
X166938542Y-50696558D01*
X166505380Y-50782719D01*
X166014173Y-51110933D01*
X165814798Y-51409319D01*
X165615423Y-51110933D01*
X165124216Y-50782719D01*
X164691054Y-50696558D01*
X164398542Y-50696558D01*
X163965380Y-50782719D01*
X163474173Y-51110933D01*
X163274798Y-51409319D01*
X163075423Y-51110933D01*
X162584216Y-50782719D01*
X162151054Y-50696558D01*
X161858542Y-50696558D01*
X161425380Y-50782719D01*
X160934173Y-51110933D01*
X160734798Y-51409319D01*
X160535423Y-51110933D01*
X160044216Y-50782719D01*
X159611054Y-50696558D01*
X159318542Y-50696558D01*
X158885380Y-50782719D01*
X158394173Y-51110933D01*
X158194798Y-51409319D01*
X157995423Y-51110933D01*
X157504216Y-50782719D01*
X157071054Y-50696558D01*
X156778542Y-50696558D01*
X156345380Y-50782719D01*
X155854173Y-51110933D01*
X155654798Y-51409319D01*
X155455423Y-51110933D01*
X154964216Y-50782719D01*
X154531054Y-50696558D01*
X154238542Y-50696558D01*
X153805380Y-50782719D01*
X153314173Y-51110933D01*
X153114798Y-51409319D01*
X152915423Y-51110933D01*
X152424216Y-50782719D01*
X151991054Y-50696558D01*
X151698542Y-50696558D01*
X151265380Y-50782719D01*
X150774173Y-51110933D01*
X150574798Y-51409319D01*
X150375423Y-51110933D01*
X149884216Y-50782719D01*
X149451054Y-50696558D01*
X149158542Y-50696558D01*
X148725380Y-50782719D01*
X148234173Y-51110933D01*
X148034798Y-51409319D01*
X147835423Y-51110933D01*
X147344216Y-50782719D01*
X146911054Y-50696558D01*
X146618542Y-50696558D01*
X146185380Y-50782719D01*
X145694173Y-51110933D01*
X145365959Y-51602140D01*
X145250706Y-52181558D01*
X99644877Y-52181558D01*
X99644877Y-52119937D01*
X99243722Y-51151463D01*
X98502485Y-50410226D01*
X97534011Y-50009071D01*
X96485743Y-50009071D01*
X95517269Y-50410226D01*
X95428000Y-50499495D01*
X95428000Y-47755000D01*
X95580000Y-47755000D01*
X95709785Y-48407475D01*
X96079383Y-48960617D01*
X96632525Y-49330215D01*
X97285000Y-49460000D01*
X97937475Y-49330215D01*
X98490617Y-48960617D01*
X98860215Y-48407475D01*
X98990000Y-47755000D01*
X189275000Y-47755000D01*
X189404785Y-48407475D01*
X189774383Y-48960617D01*
X190327525Y-49330215D01*
X190980000Y-49460000D01*
X191632475Y-49330215D01*
X192185617Y-48960617D01*
X192555215Y-48407475D01*
X192685000Y-47755000D01*
X192555215Y-47102525D01*
X192185617Y-46549383D01*
X191632475Y-46179785D01*
X190980000Y-46050000D01*
X190327525Y-46179785D01*
X189774383Y-46549383D01*
X189404785Y-47102525D01*
X189275000Y-47755000D01*
X98990000Y-47755000D01*
X98860215Y-47102525D01*
X98490617Y-46549383D01*
X97937475Y-46179785D01*
X97285000Y-46050000D01*
X96632525Y-46179785D01*
X96079383Y-46549383D01*
X95709785Y-47102525D01*
X95580000Y-47755000D01*
X95428000Y-47755000D01*
X95428000Y-45898000D01*
X193218000Y-45898000D01*
X193218000Y-50585741D01*
X193218000Y-50585741D01*
G37*
X193218000Y-50585741D02*
X193042485Y-50410226D01*
X192074011Y-50009071D01*
X191025743Y-50009071D01*
X190057269Y-50410226D01*
X189316032Y-51151463D01*
X188914877Y-52119937D01*
X188914877Y-53168205D01*
X189316032Y-54136679D01*
X190057269Y-54877916D01*
X191025743Y-55279071D01*
X192074011Y-55279071D01*
X193042485Y-54877916D01*
X193218000Y-54702401D01*
X193218000Y-87125741D01*
X193042485Y-86950226D01*
X192074011Y-86549071D01*
X191025743Y-86549071D01*
X190057269Y-86950226D01*
X189316032Y-87691463D01*
X188914877Y-88659937D01*
X188914877Y-89708205D01*
X189316032Y-90676679D01*
X190057269Y-91417916D01*
X191025743Y-91819071D01*
X192074011Y-91819071D01*
X193042485Y-91417916D01*
X193218000Y-91242401D01*
X193218000Y-143688000D01*
X95428000Y-143688000D01*
X95428000Y-141450000D01*
X95580000Y-141450000D01*
X95709785Y-142102475D01*
X96079383Y-142655617D01*
X96632525Y-143025215D01*
X97285000Y-143155000D01*
X97937475Y-143025215D01*
X98490617Y-142655617D01*
X98860215Y-142102475D01*
X98990000Y-141450000D01*
X98860215Y-140797525D01*
X98490617Y-140244383D01*
X97937475Y-139874785D01*
X97285000Y-139745000D01*
X96632525Y-139874785D01*
X96079383Y-140244383D01*
X95709785Y-140797525D01*
X95580000Y-141450000D01*
X95428000Y-141450000D01*
X95428000Y-136920588D01*
X127369000Y-136920588D01*
X127369000Y-137501412D01*
X127591272Y-138038024D01*
X128001976Y-138448728D01*
X128079887Y-138481000D01*
X128001976Y-138513272D01*
X127591272Y-138923976D01*
X127369000Y-139460588D01*
X127369000Y-140041412D01*
X127591272Y-140578024D01*
X128001976Y-140988728D01*
X128538588Y-141211000D01*
X129119412Y-141211000D01*
X129656024Y-140988728D01*
X130066728Y-140578024D01*
X130099000Y-140500113D01*
X130131272Y-140578024D01*
X130541976Y-140988728D01*
X131078588Y-141211000D01*
X131659412Y-141211000D01*
X132196024Y-140988728D01*
X132606728Y-140578024D01*
X132639000Y-140500113D01*
X132671272Y-140578024D01*
X133081976Y-140988728D01*
X133618588Y-141211000D01*
X134199412Y-141211000D01*
X134736024Y-140988728D01*
X135146728Y-140578024D01*
X135179000Y-140500113D01*
X135211272Y-140578024D01*
X135621976Y-140988728D01*
X136158588Y-141211000D01*
X136728132Y-141211000D01*
X137324416Y-141807285D01*
X137370999Y-141877001D01*
X137647199Y-142061552D01*
X137890763Y-142110000D01*
X137890766Y-142110000D01*
X137972999Y-142126357D01*
X138055232Y-142110000D01*
X139414767Y-142110000D01*
X139497000Y-142126357D01*
X139579233Y-142110000D01*
X139579237Y-142110000D01*
X139822801Y-142061552D01*
X140099001Y-141877001D01*
X140145587Y-141807280D01*
X140502867Y-141450000D01*
X189275000Y-141450000D01*
X189404785Y-142102475D01*
X189774383Y-142655617D01*
X190327525Y-143025215D01*
X190980000Y-143155000D01*
X191632475Y-143025215D01*
X192185617Y-142655617D01*
X192555215Y-142102475D01*
X192685000Y-141450000D01*
X192555215Y-140797525D01*
X192185617Y-140244383D01*
X191632475Y-139874785D01*
X190980000Y-139745000D01*
X190327525Y-139874785D01*
X189774383Y-140244383D01*
X189404785Y-140797525D01*
X189275000Y-141450000D01*
X140502867Y-141450000D01*
X143198869Y-138754000D01*
X143258874Y-138754000D01*
X143639280Y-138596431D01*
X143930431Y-138305280D01*
X144088000Y-137924874D01*
X144088000Y-137513126D01*
X143930431Y-137132720D01*
X143718299Y-136920588D01*
X148705000Y-136920588D01*
X148705000Y-137501412D01*
X148927272Y-138038024D01*
X149337976Y-138448728D01*
X149415887Y-138481000D01*
X149337976Y-138513272D01*
X148927272Y-138923976D01*
X148705000Y-139460588D01*
X148705000Y-140041412D01*
X148927272Y-140578024D01*
X149337976Y-140988728D01*
X149874588Y-141211000D01*
X150455412Y-141211000D01*
X150992024Y-140988728D01*
X151402728Y-140578024D01*
X151435000Y-140500113D01*
X151467272Y-140578024D01*
X151877976Y-140988728D01*
X152414588Y-141211000D01*
X152995412Y-141211000D01*
X153532024Y-140988728D01*
X153942728Y-140578024D01*
X153975000Y-140500113D01*
X154007272Y-140578024D01*
X154417976Y-140988728D01*
X154954588Y-141211000D01*
X155535412Y-141211000D01*
X156072024Y-140988728D01*
X156482728Y-140578024D01*
X156515000Y-140500113D01*
X156547272Y-140578024D01*
X156957976Y-140988728D01*
X157494588Y-141211000D01*
X158075412Y-141211000D01*
X158612024Y-140988728D01*
X158823899Y-140776853D01*
X159478752Y-140776853D01*
X159555956Y-141025563D01*
X160102250Y-141222843D01*
X160682456Y-141196048D01*
X161094044Y-141025563D01*
X161171248Y-140776853D01*
X160325000Y-139930605D01*
X159478752Y-140776853D01*
X158823899Y-140776853D01*
X159022728Y-140578024D01*
X159048591Y-140515586D01*
X159050437Y-140520044D01*
X159299147Y-140597248D01*
X160145395Y-139751000D01*
X160504605Y-139751000D01*
X161350853Y-140597248D01*
X161599563Y-140520044D01*
X161796843Y-139973750D01*
X161770048Y-139393544D01*
X161599563Y-138981956D01*
X161350853Y-138904752D01*
X160504605Y-139751000D01*
X160145395Y-139751000D01*
X159299147Y-138904752D01*
X159050437Y-138981956D01*
X159048717Y-138986719D01*
X159022728Y-138923976D01*
X158612024Y-138513272D01*
X158534113Y-138481000D01*
X158612024Y-138448728D01*
X158881128Y-138179624D01*
X158901843Y-138283765D01*
X159042191Y-138493809D01*
X159252235Y-138634157D01*
X159492181Y-138681885D01*
X159478752Y-138725147D01*
X160325000Y-139571395D01*
X161171248Y-138725147D01*
X161157819Y-138681885D01*
X161397765Y-138634157D01*
X161607809Y-138493809D01*
X161748157Y-138283765D01*
X161797440Y-138036000D01*
X161797440Y-136386000D01*
X161748157Y-136138235D01*
X161607809Y-135928191D01*
X161397765Y-135787843D01*
X161150000Y-135738560D01*
X159500000Y-135738560D01*
X159252235Y-135787843D01*
X159042191Y-135928191D01*
X158901843Y-136138235D01*
X158881128Y-136242376D01*
X158612024Y-135973272D01*
X158075412Y-135751000D01*
X157494588Y-135751000D01*
X156957976Y-135973272D01*
X156547272Y-136383976D01*
X156515000Y-136461887D01*
X156482728Y-136383976D01*
X156072024Y-135973272D01*
X155535412Y-135751000D01*
X154954588Y-135751000D01*
X154417976Y-135973272D01*
X154007272Y-136383976D01*
X153975000Y-136461887D01*
X153942728Y-136383976D01*
X153532024Y-135973272D01*
X152995412Y-135751000D01*
X152414588Y-135751000D01*
X151877976Y-135973272D01*
X151467272Y-136383976D01*
X151435000Y-136461887D01*
X151402728Y-136383976D01*
X150992024Y-135973272D01*
X150455412Y-135751000D01*
X149874588Y-135751000D01*
X149337976Y-135973272D01*
X148927272Y-136383976D01*
X148705000Y-136920588D01*
X143718299Y-136920588D01*
X143639280Y-136841569D01*
X143258874Y-136684000D01*
X142847126Y-136684000D01*
X142466720Y-136841569D01*
X142175569Y-137132720D01*
X142018000Y-137513126D01*
X142018000Y-137573131D01*
X140355726Y-139235406D01*
X140226728Y-138923976D01*
X139957624Y-138654872D01*
X140061765Y-138634157D01*
X140271809Y-138493809D01*
X140412157Y-138283765D01*
X140461440Y-138036000D01*
X140461440Y-136386000D01*
X140412157Y-136138235D01*
X140271809Y-135928191D01*
X140061765Y-135787843D01*
X139814000Y-135738560D01*
X138164000Y-135738560D01*
X137916235Y-135787843D01*
X137706191Y-135928191D01*
X137565843Y-136138235D01*
X137545128Y-136242376D01*
X137276024Y-135973272D01*
X136739412Y-135751000D01*
X136158588Y-135751000D01*
X135621976Y-135973272D01*
X135211272Y-136383976D01*
X135179000Y-136461887D01*
X135146728Y-136383976D01*
X134736024Y-135973272D01*
X134199412Y-135751000D01*
X133618588Y-135751000D01*
X133081976Y-135973272D01*
X132671272Y-136383976D01*
X132639000Y-136461887D01*
X132606728Y-136383976D01*
X132196024Y-135973272D01*
X131659412Y-135751000D01*
X131078588Y-135751000D01*
X130541976Y-135973272D01*
X130131272Y-136383976D01*
X130099000Y-136461887D01*
X130066728Y-136383976D01*
X129656024Y-135973272D01*
X129119412Y-135751000D01*
X128538588Y-135751000D01*
X128001976Y-135973272D01*
X127591272Y-136383976D01*
X127369000Y-136920588D01*
X95428000Y-136920588D01*
X95428000Y-125139750D01*
X109610000Y-125139750D01*
X109610000Y-126180310D01*
X109706673Y-126413699D01*
X109885302Y-126592327D01*
X110118691Y-126689000D01*
X111159250Y-126689000D01*
X111318000Y-126530250D01*
X111318000Y-124981000D01*
X111572000Y-124981000D01*
X111572000Y-126530250D01*
X111730750Y-126689000D01*
X112771309Y-126689000D01*
X113004698Y-126592327D01*
X113183327Y-126413699D01*
X113280000Y-126180310D01*
X113280000Y-125139750D01*
X113121250Y-124981000D01*
X111572000Y-124981000D01*
X111318000Y-124981000D01*
X109768750Y-124981000D01*
X109610000Y-125139750D01*
X95428000Y-125139750D01*
X95428000Y-124854000D01*
X114654051Y-124854000D01*
X114796469Y-125569981D01*
X115202039Y-126176961D01*
X115809019Y-126582531D01*
X116344273Y-126689000D01*
X116705727Y-126689000D01*
X117240981Y-126582531D01*
X117847961Y-126176961D01*
X118253531Y-125569981D01*
X118279236Y-125440750D01*
X139610000Y-125440750D01*
X139610000Y-126481310D01*
X139706673Y-126714699D01*
X139885302Y-126893327D01*
X140118691Y-126990000D01*
X141159250Y-126990000D01*
X141318000Y-126831250D01*
X141318000Y-125282000D01*
X141572000Y-125282000D01*
X141572000Y-126831250D01*
X141730750Y-126990000D01*
X142771309Y-126990000D01*
X143004698Y-126893327D01*
X143183327Y-126714699D01*
X143280000Y-126481310D01*
X143280000Y-125440750D01*
X143121250Y-125282000D01*
X141572000Y-125282000D01*
X141318000Y-125282000D01*
X139768750Y-125282000D01*
X139610000Y-125440750D01*
X118279236Y-125440750D01*
X118336075Y-125155000D01*
X144654051Y-125155000D01*
X144796469Y-125870981D01*
X145202039Y-126477961D01*
X145809019Y-126883531D01*
X146344273Y-126990000D01*
X146705727Y-126990000D01*
X147240981Y-126883531D01*
X147847961Y-126477961D01*
X148166822Y-126000750D01*
X169610000Y-126000750D01*
X169610000Y-127041310D01*
X169706673Y-127274699D01*
X169885302Y-127453327D01*
X170118691Y-127550000D01*
X171159250Y-127550000D01*
X171318000Y-127391250D01*
X171318000Y-125842000D01*
X171572000Y-125842000D01*
X171572000Y-127391250D01*
X171730750Y-127550000D01*
X172771309Y-127550000D01*
X173004698Y-127453327D01*
X173183327Y-127274699D01*
X173280000Y-127041310D01*
X173280000Y-126000750D01*
X173121250Y-125842000D01*
X171572000Y-125842000D01*
X171318000Y-125842000D01*
X169768750Y-125842000D01*
X169610000Y-126000750D01*
X148166822Y-126000750D01*
X148253531Y-125870981D01*
X148284557Y-125715000D01*
X174654051Y-125715000D01*
X174796469Y-126430981D01*
X175202039Y-127037961D01*
X175809019Y-127443531D01*
X176344273Y-127550000D01*
X176705727Y-127550000D01*
X177240981Y-127443531D01*
X177847961Y-127037961D01*
X178253531Y-126430981D01*
X178395949Y-125715000D01*
X178253531Y-124999019D01*
X177847961Y-124392039D01*
X177240981Y-123986469D01*
X176705727Y-123880000D01*
X176344273Y-123880000D01*
X175809019Y-123986469D01*
X175202039Y-124392039D01*
X174796469Y-124999019D01*
X174654051Y-125715000D01*
X148284557Y-125715000D01*
X148395949Y-125155000D01*
X148253531Y-124439019D01*
X148219903Y-124388690D01*
X169610000Y-124388690D01*
X169610000Y-125429250D01*
X169768750Y-125588000D01*
X171318000Y-125588000D01*
X171318000Y-124038750D01*
X171572000Y-124038750D01*
X171572000Y-125588000D01*
X173121250Y-125588000D01*
X173280000Y-125429250D01*
X173280000Y-124388690D01*
X173183327Y-124155301D01*
X173004698Y-123976673D01*
X172771309Y-123880000D01*
X171730750Y-123880000D01*
X171572000Y-124038750D01*
X171318000Y-124038750D01*
X171159250Y-123880000D01*
X170118691Y-123880000D01*
X169885302Y-123976673D01*
X169706673Y-124155301D01*
X169610000Y-124388690D01*
X148219903Y-124388690D01*
X147847961Y-123832039D01*
X147240981Y-123426469D01*
X146705727Y-123320000D01*
X146344273Y-123320000D01*
X145809019Y-123426469D01*
X145202039Y-123832039D01*
X144796469Y-124439019D01*
X144654051Y-125155000D01*
X118336075Y-125155000D01*
X118395949Y-124854000D01*
X118253531Y-124138019D01*
X118046845Y-123828690D01*
X139610000Y-123828690D01*
X139610000Y-124869250D01*
X139768750Y-125028000D01*
X141318000Y-125028000D01*
X141318000Y-123478750D01*
X141572000Y-123478750D01*
X141572000Y-125028000D01*
X143121250Y-125028000D01*
X143280000Y-124869250D01*
X143280000Y-123828690D01*
X143183327Y-123595301D01*
X143004698Y-123416673D01*
X142771309Y-123320000D01*
X141730750Y-123320000D01*
X141572000Y-123478750D01*
X141318000Y-123478750D01*
X141159250Y-123320000D01*
X140118691Y-123320000D01*
X139885302Y-123416673D01*
X139706673Y-123595301D01*
X139610000Y-123828690D01*
X118046845Y-123828690D01*
X117847961Y-123531039D01*
X117240981Y-123125469D01*
X116705727Y-123019000D01*
X116344273Y-123019000D01*
X115809019Y-123125469D01*
X115202039Y-123531039D01*
X114796469Y-124138019D01*
X114654051Y-124854000D01*
X95428000Y-124854000D01*
X95428000Y-123527690D01*
X109610000Y-123527690D01*
X109610000Y-124568250D01*
X109768750Y-124727000D01*
X111318000Y-124727000D01*
X111318000Y-123177750D01*
X111572000Y-123177750D01*
X111572000Y-124727000D01*
X113121250Y-124727000D01*
X113280000Y-124568250D01*
X113280000Y-123527690D01*
X113183327Y-123294301D01*
X113004698Y-123115673D01*
X112771309Y-123019000D01*
X111730750Y-123019000D01*
X111572000Y-123177750D01*
X111318000Y-123177750D01*
X111159250Y-123019000D01*
X110118691Y-123019000D01*
X109885302Y-123115673D01*
X109706673Y-123294301D01*
X109610000Y-123527690D01*
X95428000Y-123527690D01*
X95428000Y-106770866D01*
X108650000Y-106770866D01*
X108650000Y-107819134D01*
X109051155Y-108787608D01*
X109792392Y-109528845D01*
X110760866Y-109930000D01*
X111809134Y-109930000D01*
X112777608Y-109528845D01*
X113518845Y-108787608D01*
X113920000Y-107819134D01*
X113920000Y-106770866D01*
X113903432Y-106730866D01*
X114650000Y-106730866D01*
X114650000Y-107779134D01*
X115051155Y-108747608D01*
X115792392Y-109488845D01*
X116760866Y-109890000D01*
X117809134Y-109890000D01*
X118777608Y-109488845D01*
X119518845Y-108747608D01*
X119920000Y-107779134D01*
X119920000Y-106770866D01*
X138650000Y-106770866D01*
X138650000Y-107819134D01*
X139051155Y-108787608D01*
X139792392Y-109528845D01*
X140760866Y-109930000D01*
X141809134Y-109930000D01*
X142777608Y-109528845D01*
X143518845Y-108787608D01*
X143920000Y-107819134D01*
X143920000Y-106770866D01*
X143903432Y-106730866D01*
X144650000Y-106730866D01*
X144650000Y-107779134D01*
X145051155Y-108747608D01*
X145792392Y-109488845D01*
X146760866Y-109890000D01*
X147809134Y-109890000D01*
X148777608Y-109488845D01*
X149518845Y-108747608D01*
X149920000Y-107779134D01*
X149920000Y-106770866D01*
X168650000Y-106770866D01*
X168650000Y-107819134D01*
X169051155Y-108787608D01*
X169792392Y-109528845D01*
X170760866Y-109930000D01*
X171809134Y-109930000D01*
X172777608Y-109528845D01*
X173518845Y-108787608D01*
X173920000Y-107819134D01*
X173920000Y-106770866D01*
X173903432Y-106730866D01*
X174650000Y-106730866D01*
X174650000Y-107779134D01*
X175051155Y-108747608D01*
X175792392Y-109488845D01*
X176760866Y-109890000D01*
X177809134Y-109890000D01*
X178777608Y-109488845D01*
X179518845Y-108747608D01*
X179920000Y-107779134D01*
X179920000Y-106730866D01*
X179518845Y-105762392D01*
X178777608Y-105021155D01*
X177809134Y-104620000D01*
X176760866Y-104620000D01*
X175792392Y-105021155D01*
X175051155Y-105762392D01*
X174650000Y-106730866D01*
X173903432Y-106730866D01*
X173518845Y-105802392D01*
X172777608Y-105061155D01*
X171809134Y-104660000D01*
X170760866Y-104660000D01*
X169792392Y-105061155D01*
X169051155Y-105802392D01*
X168650000Y-106770866D01*
X149920000Y-106770866D01*
X149920000Y-106730866D01*
X149518845Y-105762392D01*
X148777608Y-105021155D01*
X147809134Y-104620000D01*
X146760866Y-104620000D01*
X145792392Y-105021155D01*
X145051155Y-105762392D01*
X144650000Y-106730866D01*
X143903432Y-106730866D01*
X143518845Y-105802392D01*
X142777608Y-105061155D01*
X141809134Y-104660000D01*
X140760866Y-104660000D01*
X139792392Y-105061155D01*
X139051155Y-105802392D01*
X138650000Y-106770866D01*
X119920000Y-106770866D01*
X119920000Y-106730866D01*
X119518845Y-105762392D01*
X118777608Y-105021155D01*
X117809134Y-104620000D01*
X116760866Y-104620000D01*
X115792392Y-105021155D01*
X115051155Y-105762392D01*
X114650000Y-106730866D01*
X113903432Y-106730866D01*
X113518845Y-105802392D01*
X112777608Y-105061155D01*
X111809134Y-104660000D01*
X110760866Y-104660000D01*
X109792392Y-105061155D01*
X109051155Y-105802392D01*
X108650000Y-106770866D01*
X95428000Y-106770866D01*
X95428000Y-102461126D01*
X154718000Y-102461126D01*
X154718000Y-102872874D01*
X154875569Y-103253280D01*
X155166720Y-103544431D01*
X155547126Y-103702000D01*
X155958874Y-103702000D01*
X156339280Y-103544431D01*
X156630431Y-103253280D01*
X156788000Y-102872874D01*
X156788000Y-102461126D01*
X156630431Y-102080720D01*
X156588000Y-102038289D01*
X156588000Y-100812866D01*
X156946866Y-100454000D01*
X157258000Y-100454000D01*
X157258000Y-100840874D01*
X157415569Y-101221280D01*
X157458001Y-101263712D01*
X157458000Y-103206172D01*
X157198720Y-103313569D01*
X156907569Y-103604720D01*
X156750000Y-103985126D01*
X156750000Y-104172000D01*
X156563126Y-104172000D01*
X156182720Y-104329569D01*
X155891569Y-104620720D01*
X155734000Y-105001126D01*
X155734000Y-105412874D01*
X155891569Y-105793280D01*
X156182720Y-106084431D01*
X156563126Y-106242000D01*
X156974874Y-106242000D01*
X157355280Y-106084431D01*
X157397711Y-106042000D01*
X157870769Y-106042000D01*
X157953002Y-106058357D01*
X158035235Y-106042000D01*
X158035239Y-106042000D01*
X158278803Y-105993552D01*
X158555003Y-105809001D01*
X158601589Y-105739280D01*
X159425293Y-104915577D01*
X159495011Y-104868993D01*
X159679562Y-104592793D01*
X159728010Y-104349229D01*
X159728010Y-104349226D01*
X159744367Y-104266993D01*
X159728010Y-104184760D01*
X159728010Y-101904857D01*
X159962868Y-101670000D01*
X160022874Y-101670000D01*
X160403280Y-101512431D01*
X160694431Y-101221280D01*
X160852000Y-100840874D01*
X160852000Y-100429126D01*
X160694431Y-100048720D01*
X160403280Y-99757569D01*
X160344000Y-99733014D01*
X160344000Y-99413126D01*
X160186431Y-99032720D01*
X159895280Y-98741569D01*
X159514874Y-98584000D01*
X159103126Y-98584000D01*
X158722720Y-98741569D01*
X158680289Y-98784000D01*
X156683230Y-98784000D01*
X156600997Y-98767643D01*
X156518764Y-98784000D01*
X156518761Y-98784000D01*
X156275197Y-98832448D01*
X155998997Y-99016999D01*
X155952414Y-99086715D01*
X155220720Y-99818411D01*
X155150999Y-99864997D01*
X154966448Y-100141198D01*
X154918000Y-100384762D01*
X154918000Y-100384765D01*
X154901643Y-100466998D01*
X154918000Y-100549231D01*
X154918001Y-102038288D01*
X154875569Y-102080720D01*
X154718000Y-102461126D01*
X95428000Y-102461126D01*
X95428000Y-91328647D01*
X95517269Y-91417916D01*
X96485743Y-91819071D01*
X97534011Y-91819071D01*
X98502485Y-91417916D01*
X99243722Y-90676679D01*
X99644877Y-89708205D01*
X99644877Y-88659937D01*
X99243722Y-87691463D01*
X98502485Y-86950226D01*
X97534011Y-86549071D01*
X96485743Y-86549071D01*
X95517269Y-86950226D01*
X95428000Y-87039495D01*
X95428000Y-75537126D01*
X159212000Y-75537126D01*
X159212000Y-75948874D01*
X159369569Y-76329280D01*
X159660720Y-76620431D01*
X160041126Y-76778000D01*
X160452874Y-76778000D01*
X160833280Y-76620431D01*
X160875711Y-76578000D01*
X164268289Y-76578000D01*
X164310720Y-76620431D01*
X164691126Y-76778000D01*
X165102874Y-76778000D01*
X165483280Y-76620431D01*
X165774431Y-76329280D01*
X165932000Y-75948874D01*
X165932000Y-75537126D01*
X165774431Y-75156720D01*
X165483280Y-74865569D01*
X165102874Y-74708000D01*
X164691126Y-74708000D01*
X164310720Y-74865569D01*
X164268289Y-74908000D01*
X160875711Y-74908000D01*
X160833280Y-74865569D01*
X160452874Y-74708000D01*
X160041126Y-74708000D01*
X159660720Y-74865569D01*
X159369569Y-75156720D01*
X159212000Y-75537126D01*
X95428000Y-75537126D01*
X95428000Y-66901126D01*
X156242000Y-66901126D01*
X156242000Y-67312874D01*
X156399569Y-67693280D01*
X156690720Y-67984431D01*
X157071126Y-68142000D01*
X157131133Y-68142000D01*
X157644415Y-68655282D01*
X157690999Y-68725001D01*
X157967199Y-68909552D01*
X158210763Y-68958000D01*
X158210767Y-68958000D01*
X158293000Y-68974357D01*
X158375233Y-68958000D01*
X171380289Y-68958000D01*
X171422720Y-69000431D01*
X171803126Y-69158000D01*
X172214874Y-69158000D01*
X172595280Y-69000431D01*
X172886431Y-68709280D01*
X173044000Y-68328874D01*
X173044000Y-67917126D01*
X172886431Y-67536720D01*
X172595280Y-67245569D01*
X172214874Y-67088000D01*
X171803126Y-67088000D01*
X171422720Y-67245569D01*
X171380289Y-67288000D01*
X158638868Y-67288000D01*
X158312000Y-66961133D01*
X158312000Y-66901126D01*
X158154431Y-66520720D01*
X157863280Y-66229569D01*
X157482874Y-66072000D01*
X157071126Y-66072000D01*
X156690720Y-66229569D01*
X156399569Y-66520720D01*
X156242000Y-66901126D01*
X95428000Y-66901126D01*
X95428000Y-59789126D01*
X163862000Y-59789126D01*
X163862000Y-60200874D01*
X164019569Y-60581280D01*
X164310720Y-60872431D01*
X164691126Y-61030000D01*
X165102874Y-61030000D01*
X165483280Y-60872431D01*
X165774431Y-60581280D01*
X165932000Y-60200874D01*
X165932000Y-60140868D01*
X166766869Y-59306000D01*
X168186289Y-59306000D01*
X168083569Y-59408720D01*
X167926000Y-59789126D01*
X167926000Y-59849132D01*
X166043716Y-61731417D01*
X166030133Y-61745000D01*
X165970126Y-61745000D01*
X165589720Y-61902569D01*
X165298569Y-62193720D01*
X165141000Y-62574126D01*
X165141000Y-62985874D01*
X165298569Y-63366280D01*
X165589720Y-63657431D01*
X165970126Y-63815000D01*
X166381874Y-63815000D01*
X166762280Y-63657431D01*
X167053431Y-63366280D01*
X167211000Y-62985874D01*
X167211000Y-62925867D01*
X167224583Y-62912284D01*
X169106868Y-61030000D01*
X169166874Y-61030000D01*
X169547280Y-60872431D01*
X169838431Y-60581280D01*
X169996000Y-60200874D01*
X169996000Y-59789126D01*
X169838431Y-59408720D01*
X169735711Y-59306000D01*
X169856289Y-59306000D01*
X169898720Y-59348431D01*
X170279126Y-59506000D01*
X170690874Y-59506000D01*
X171071280Y-59348431D01*
X171362431Y-59057280D01*
X171520000Y-58676874D01*
X171520000Y-58265126D01*
X171362431Y-57884720D01*
X171071280Y-57593569D01*
X170690874Y-57436000D01*
X170279126Y-57436000D01*
X169898720Y-57593569D01*
X169856289Y-57636000D01*
X166503232Y-57636000D01*
X166420999Y-57619643D01*
X166338766Y-57636000D01*
X166338763Y-57636000D01*
X166095199Y-57684448D01*
X165818999Y-57868999D01*
X165772416Y-57938715D01*
X164751132Y-58960000D01*
X164691126Y-58960000D01*
X164310720Y-59117569D01*
X164019569Y-59408720D01*
X163862000Y-59789126D01*
X95428000Y-59789126D01*
X95428000Y-54788647D01*
X95517269Y-54877916D01*
X96485743Y-55279071D01*
X97534011Y-55279071D01*
X98502485Y-54877916D01*
X99243722Y-54136679D01*
X99644877Y-53168205D01*
X99644877Y-52181558D01*
X145250706Y-52181558D01*
X145365959Y-52760976D01*
X145694173Y-53252183D01*
X146185380Y-53580397D01*
X146618542Y-53666558D01*
X146911054Y-53666558D01*
X147344216Y-53580397D01*
X147835423Y-53252183D01*
X148034798Y-52953797D01*
X148234173Y-53252183D01*
X148725380Y-53580397D01*
X149158542Y-53666558D01*
X149451054Y-53666558D01*
X149884216Y-53580397D01*
X150375423Y-53252183D01*
X150574798Y-52953797D01*
X150774173Y-53252183D01*
X151265380Y-53580397D01*
X151698542Y-53666558D01*
X151991054Y-53666558D01*
X152424216Y-53580397D01*
X152915423Y-53252183D01*
X153114798Y-52953797D01*
X153314173Y-53252183D01*
X153805380Y-53580397D01*
X154238542Y-53666558D01*
X154531054Y-53666558D01*
X154964216Y-53580397D01*
X155455423Y-53252183D01*
X155654798Y-52953797D01*
X155854173Y-53252183D01*
X156345380Y-53580397D01*
X156778542Y-53666558D01*
X157071054Y-53666558D01*
X157504216Y-53580397D01*
X157995423Y-53252183D01*
X158194798Y-52953797D01*
X158394173Y-53252183D01*
X158885380Y-53580397D01*
X159318542Y-53666558D01*
X159611054Y-53666558D01*
X160044216Y-53580397D01*
X160535423Y-53252183D01*
X160734798Y-52953797D01*
X160934173Y-53252183D01*
X161425380Y-53580397D01*
X161858542Y-53666558D01*
X162151054Y-53666558D01*
X162584216Y-53580397D01*
X163075423Y-53252183D01*
X163274798Y-52953797D01*
X163474173Y-53252183D01*
X163965380Y-53580397D01*
X164398542Y-53666558D01*
X164691054Y-53666558D01*
X165124216Y-53580397D01*
X165615423Y-53252183D01*
X165814798Y-52953797D01*
X166014173Y-53252183D01*
X166505380Y-53580397D01*
X166938542Y-53666558D01*
X167231054Y-53666558D01*
X167664216Y-53580397D01*
X168155423Y-53252183D01*
X168354798Y-52953797D01*
X168554173Y-53252183D01*
X169045380Y-53580397D01*
X169478542Y-53666558D01*
X169771054Y-53666558D01*
X170204216Y-53580397D01*
X170695423Y-53252183D01*
X170894798Y-52953797D01*
X171094173Y-53252183D01*
X171585380Y-53580397D01*
X172018542Y-53666558D01*
X172311054Y-53666558D01*
X172744216Y-53580397D01*
X173235423Y-53252183D01*
X173434798Y-52953797D01*
X173634173Y-53252183D01*
X174125380Y-53580397D01*
X174558542Y-53666558D01*
X174851054Y-53666558D01*
X175284216Y-53580397D01*
X175775423Y-53252183D01*
X175974798Y-52953797D01*
X176174173Y-53252183D01*
X176665380Y-53580397D01*
X177098542Y-53666558D01*
X177391054Y-53666558D01*
X177824216Y-53580397D01*
X178315423Y-53252183D01*
X178514798Y-52953797D01*
X178714173Y-53252183D01*
X179205380Y-53580397D01*
X179638542Y-53666558D01*
X179931054Y-53666558D01*
X180364216Y-53580397D01*
X180855423Y-53252183D01*
X181054798Y-52953797D01*
X181254173Y-53252183D01*
X181745380Y-53580397D01*
X182178542Y-53666558D01*
X182471054Y-53666558D01*
X182904216Y-53580397D01*
X183395423Y-53252183D01*
X183409894Y-53230525D01*
X183476471Y-53391256D01*
X183655099Y-53569885D01*
X183888488Y-53666558D01*
X184579048Y-53666558D01*
X184737798Y-53507808D01*
X184737798Y-52308558D01*
X184991798Y-52308558D01*
X184991798Y-53507808D01*
X185150548Y-53666558D01*
X185841108Y-53666558D01*
X186074497Y-53569885D01*
X186253125Y-53391256D01*
X186349798Y-53157867D01*
X186349798Y-52467308D01*
X186191048Y-52308558D01*
X184991798Y-52308558D01*
X184737798Y-52308558D01*
X184717798Y-52308558D01*
X184717798Y-52054558D01*
X184737798Y-52054558D01*
X184737798Y-50855308D01*
X184991798Y-50855308D01*
X184991798Y-52054558D01*
X186191048Y-52054558D01*
X186349798Y-51895808D01*
X186349798Y-51205249D01*
X186253125Y-50971860D01*
X186074497Y-50793231D01*
X185841108Y-50696558D01*
X185150548Y-50696558D01*
X184991798Y-50855308D01*
X184737798Y-50855308D01*
X184579048Y-50696558D01*
X183888488Y-50696558D01*
X183655099Y-50793231D01*
X183476471Y-50971860D01*
X183409894Y-51132591D01*
X183395423Y-51110933D01*
X182904216Y-50782719D01*
X182471054Y-50696558D01*
X182178542Y-50696558D01*
X181745380Y-50782719D01*
X181254173Y-51110933D01*
X181054798Y-51409319D01*
X180855423Y-51110933D01*
X180364216Y-50782719D01*
X179931054Y-50696558D01*
X179638542Y-50696558D01*
X179205380Y-50782719D01*
X178714173Y-51110933D01*
X178514798Y-51409319D01*
X178315423Y-51110933D01*
X177824216Y-50782719D01*
X177391054Y-50696558D01*
X177098542Y-50696558D01*
X176665380Y-50782719D01*
X176174173Y-51110933D01*
X175974798Y-51409319D01*
X175775423Y-51110933D01*
X175284216Y-50782719D01*
X174851054Y-50696558D01*
X174558542Y-50696558D01*
X174125380Y-50782719D01*
X173634173Y-51110933D01*
X173434798Y-51409319D01*
X173235423Y-51110933D01*
X172744216Y-50782719D01*
X172311054Y-50696558D01*
X172018542Y-50696558D01*
X171585380Y-50782719D01*
X171094173Y-51110933D01*
X170894798Y-51409319D01*
X170695423Y-51110933D01*
X170204216Y-50782719D01*
X169771054Y-50696558D01*
X169478542Y-50696558D01*
X169045380Y-50782719D01*
X168554173Y-51110933D01*
X168354798Y-51409319D01*
X168155423Y-51110933D01*
X167664216Y-50782719D01*
X167231054Y-50696558D01*
X166938542Y-50696558D01*
X166505380Y-50782719D01*
X166014173Y-51110933D01*
X165814798Y-51409319D01*
X165615423Y-51110933D01*
X165124216Y-50782719D01*
X164691054Y-50696558D01*
X164398542Y-50696558D01*
X163965380Y-50782719D01*
X163474173Y-51110933D01*
X163274798Y-51409319D01*
X163075423Y-51110933D01*
X162584216Y-50782719D01*
X162151054Y-50696558D01*
X161858542Y-50696558D01*
X161425380Y-50782719D01*
X160934173Y-51110933D01*
X160734798Y-51409319D01*
X160535423Y-51110933D01*
X160044216Y-50782719D01*
X159611054Y-50696558D01*
X159318542Y-50696558D01*
X158885380Y-50782719D01*
X158394173Y-51110933D01*
X158194798Y-51409319D01*
X157995423Y-51110933D01*
X157504216Y-50782719D01*
X157071054Y-50696558D01*
X156778542Y-50696558D01*
X156345380Y-50782719D01*
X155854173Y-51110933D01*
X155654798Y-51409319D01*
X155455423Y-51110933D01*
X154964216Y-50782719D01*
X154531054Y-50696558D01*
X154238542Y-50696558D01*
X153805380Y-50782719D01*
X153314173Y-51110933D01*
X153114798Y-51409319D01*
X152915423Y-51110933D01*
X152424216Y-50782719D01*
X151991054Y-50696558D01*
X151698542Y-50696558D01*
X151265380Y-50782719D01*
X150774173Y-51110933D01*
X150574798Y-51409319D01*
X150375423Y-51110933D01*
X149884216Y-50782719D01*
X149451054Y-50696558D01*
X149158542Y-50696558D01*
X148725380Y-50782719D01*
X148234173Y-51110933D01*
X148034798Y-51409319D01*
X147835423Y-51110933D01*
X147344216Y-50782719D01*
X146911054Y-50696558D01*
X146618542Y-50696558D01*
X146185380Y-50782719D01*
X145694173Y-51110933D01*
X145365959Y-51602140D01*
X145250706Y-52181558D01*
X99644877Y-52181558D01*
X99644877Y-52119937D01*
X99243722Y-51151463D01*
X98502485Y-50410226D01*
X97534011Y-50009071D01*
X96485743Y-50009071D01*
X95517269Y-50410226D01*
X95428000Y-50499495D01*
X95428000Y-47755000D01*
X95580000Y-47755000D01*
X95709785Y-48407475D01*
X96079383Y-48960617D01*
X96632525Y-49330215D01*
X97285000Y-49460000D01*
X97937475Y-49330215D01*
X98490617Y-48960617D01*
X98860215Y-48407475D01*
X98990000Y-47755000D01*
X189275000Y-47755000D01*
X189404785Y-48407475D01*
X189774383Y-48960617D01*
X190327525Y-49330215D01*
X190980000Y-49460000D01*
X191632475Y-49330215D01*
X192185617Y-48960617D01*
X192555215Y-48407475D01*
X192685000Y-47755000D01*
X192555215Y-47102525D01*
X192185617Y-46549383D01*
X191632475Y-46179785D01*
X190980000Y-46050000D01*
X190327525Y-46179785D01*
X189774383Y-46549383D01*
X189404785Y-47102525D01*
X189275000Y-47755000D01*
X98990000Y-47755000D01*
X98860215Y-47102525D01*
X98490617Y-46549383D01*
X97937475Y-46179785D01*
X97285000Y-46050000D01*
X96632525Y-46179785D01*
X96079383Y-46549383D01*
X95709785Y-47102525D01*
X95580000Y-47755000D01*
X95428000Y-47755000D01*
X95428000Y-45898000D01*
X193218000Y-45898000D01*
X193218000Y-50585741D01*
%TD*%
M02*
