%TF.GenerationSoftware,KiCad,Pcbnew,(5.0.0)*%
%TF.CreationDate,2020-03-24T12:13:02+01:00*%
%TF.ProjectId,Schaltplan_Modul3,536368616C74706C616E5F4D6F64756C,rev?*%
%TF.SameCoordinates,Original*%
%TF.FileFunction,Legend,Top*%
%TF.FilePolarity,Positive*%
%FSLAX46Y46*%
G04 Gerber Fmt 4.6, Leading zero omitted, Abs format (unit mm)*
G04 Created by KiCad (PCBNEW (5.0.0)) date 03/24/20 12:13:02*
%MOMM*%
%LPD*%
G01*
G04 APERTURE LIST*
%ADD10C,0.300000*%
%ADD11C,0.100000*%
%ADD12C,0.120000*%
%ADD13C,0.200000*%
%ADD14C,0.150000*%
%ADD15C,0.254000*%
G04 APERTURE END LIST*
D10*
X164215428Y-141997142D02*
X164215428Y-138997142D01*
X165215428Y-141140000D01*
X166215428Y-138997142D01*
X166215428Y-141997142D01*
X168072571Y-141997142D02*
X167786857Y-141854285D01*
X167644000Y-141711428D01*
X167501142Y-141425714D01*
X167501142Y-140568571D01*
X167644000Y-140282857D01*
X167786857Y-140140000D01*
X168072571Y-139997142D01*
X168501142Y-139997142D01*
X168786857Y-140140000D01*
X168929714Y-140282857D01*
X169072571Y-140568571D01*
X169072571Y-141425714D01*
X168929714Y-141711428D01*
X168786857Y-141854285D01*
X168501142Y-141997142D01*
X168072571Y-141997142D01*
X171644000Y-141997142D02*
X171644000Y-138997142D01*
X171644000Y-141854285D02*
X171358285Y-141997142D01*
X170786857Y-141997142D01*
X170501142Y-141854285D01*
X170358285Y-141711428D01*
X170215428Y-141425714D01*
X170215428Y-140568571D01*
X170358285Y-140282857D01*
X170501142Y-140140000D01*
X170786857Y-139997142D01*
X171358285Y-139997142D01*
X171644000Y-140140000D01*
X174358285Y-139997142D02*
X174358285Y-141997142D01*
X173072571Y-139997142D02*
X173072571Y-141568571D01*
X173215428Y-141854285D01*
X173501142Y-141997142D01*
X173929714Y-141997142D01*
X174215428Y-141854285D01*
X174358285Y-141711428D01*
X176215428Y-141997142D02*
X175929714Y-141854285D01*
X175786857Y-141568571D01*
X175786857Y-138997142D01*
X179358285Y-138997142D02*
X181215428Y-138997142D01*
X180215428Y-140140000D01*
X180644000Y-140140000D01*
X180929714Y-140282857D01*
X181072571Y-140425714D01*
X181215428Y-140711428D01*
X181215428Y-141425714D01*
X181072571Y-141711428D01*
X180929714Y-141854285D01*
X180644000Y-141997142D01*
X179786857Y-141997142D01*
X179501142Y-141854285D01*
X179358285Y-141711428D01*
D11*
X94856000Y-142720000D02*
G75*
G03X94856000Y-142720000I-1000000J0D01*
G01*
X188932000Y-142720000D02*
G75*
G03X188932000Y-142720000I-1000000J0D01*
G01*
X188932000Y-48644000D02*
G75*
G03X188932000Y-48644000I-1000000J0D01*
G01*
X94856000Y-48644000D02*
G75*
G03X94856000Y-48644000I-1000000J0D01*
G01*
X190856000Y-45644000D02*
X190856000Y-145644000D01*
X90856000Y-45644000D02*
X90856000Y-145644000D01*
X90856000Y-145644000D02*
X190856000Y-145644000D01*
X90856000Y-45644000D02*
X190856000Y-45644000D01*
D12*
%TO.C,R16*%
X109939578Y-118484000D02*
X109422422Y-118484000D01*
X109939578Y-119904000D02*
X109422422Y-119904000D01*
%TO.C,R15*%
X109864578Y-116259000D02*
X109347422Y-116259000D01*
X109864578Y-117679000D02*
X109347422Y-117679000D01*
%TO.C,R4*%
X109989078Y-130786000D02*
X109471922Y-130786000D01*
X109989078Y-132206000D02*
X109471922Y-132206000D01*
%TO.C,R3*%
X110418578Y-134850000D02*
X109901422Y-134850000D01*
X110418578Y-136270000D02*
X109901422Y-136270000D01*
D13*
%TO.C,J2*%
X157404000Y-135328000D02*
X142114000Y-135328000D01*
X142114000Y-135328000D02*
X142114000Y-144278000D01*
X142114000Y-144278000D02*
X162734000Y-144278000D01*
X162734000Y-144278000D02*
X162734000Y-138608000D01*
D12*
%TO.C,R14*%
X137850578Y-126722000D02*
X137333422Y-126722000D01*
X137850578Y-128142000D02*
X137333422Y-128142000D01*
%TO.C,R9*%
X176957422Y-130682000D02*
X177474578Y-130682000D01*
X176957422Y-129262000D02*
X177474578Y-129262000D01*
%TO.C,R10*%
X177474578Y-126722000D02*
X176957422Y-126722000D01*
X177474578Y-128142000D02*
X176957422Y-128142000D01*
%TO.C,R11*%
X122658000Y-124633422D02*
X122658000Y-125150578D01*
X124078000Y-124633422D02*
X124078000Y-125150578D01*
%TO.C,R12*%
X163806000Y-124633422D02*
X163806000Y-125150578D01*
X165226000Y-124633422D02*
X165226000Y-125150578D01*
%TO.C,R13*%
X137333422Y-130682000D02*
X137850578Y-130682000D01*
X137333422Y-129262000D02*
X137850578Y-129262000D01*
%TO.C,K2*%
X139806000Y-114654000D02*
X139806000Y-110654000D01*
X143406000Y-114654000D02*
X139806000Y-114654000D01*
X143406000Y-110654000D02*
X143406000Y-114654000D01*
X139806000Y-110654000D02*
X143406000Y-110654000D01*
X139806000Y-114654000D02*
X143406000Y-110654000D01*
X139806000Y-112654000D02*
X135606000Y-112654000D01*
X147606000Y-112654000D02*
X143406000Y-112654000D01*
X141606000Y-109254000D02*
X138006000Y-109254000D01*
X141606000Y-116054000D02*
X138006000Y-116054000D01*
X138006000Y-116054000D02*
X138006000Y-109254000D01*
X141606000Y-117554000D02*
X144106000Y-122154000D01*
X141606000Y-116054000D02*
X141606000Y-117554000D01*
X147606000Y-112654000D02*
X147606000Y-110154000D01*
X141606000Y-109254000D02*
X141606000Y-108454000D01*
X135606000Y-110154000D02*
X135606000Y-112654000D01*
X145856000Y-120754000D02*
X143356000Y-120754000D01*
X137456000Y-120754000D02*
X139906000Y-120754000D01*
X133856000Y-125004000D02*
X133856000Y-105204000D01*
X149456000Y-125004000D02*
X133856000Y-125004000D01*
X149456000Y-105204000D02*
X149456000Y-125004000D01*
X149456000Y-105204000D02*
X142856000Y-105204000D01*
X140456000Y-105204000D02*
X133856000Y-105204000D01*
%TO.C,K1*%
X178414000Y-114654000D02*
X178414000Y-110654000D01*
X182014000Y-114654000D02*
X178414000Y-114654000D01*
X182014000Y-110654000D02*
X182014000Y-114654000D01*
X178414000Y-110654000D02*
X182014000Y-110654000D01*
X178414000Y-114654000D02*
X182014000Y-110654000D01*
X178414000Y-112654000D02*
X174214000Y-112654000D01*
X186214000Y-112654000D02*
X182014000Y-112654000D01*
X180214000Y-109254000D02*
X176614000Y-109254000D01*
X180214000Y-116054000D02*
X176614000Y-116054000D01*
X176614000Y-116054000D02*
X176614000Y-109254000D01*
X180214000Y-117554000D02*
X182714000Y-122154000D01*
X180214000Y-116054000D02*
X180214000Y-117554000D01*
X186214000Y-112654000D02*
X186214000Y-110154000D01*
X180214000Y-109254000D02*
X180214000Y-108454000D01*
X174214000Y-110154000D02*
X174214000Y-112654000D01*
X184464000Y-120754000D02*
X181964000Y-120754000D01*
X176064000Y-120754000D02*
X178514000Y-120754000D01*
X172464000Y-125004000D02*
X172464000Y-105204000D01*
X188064000Y-125004000D02*
X172464000Y-125004000D01*
X188064000Y-105204000D02*
X188064000Y-125004000D01*
X188064000Y-105204000D02*
X181464000Y-105204000D01*
X179064000Y-105204000D02*
X172464000Y-105204000D01*
%TO.C,Q10*%
X142416000Y-130028000D02*
X140956000Y-130028000D01*
X142416000Y-126868000D02*
X140256000Y-126868000D01*
X142416000Y-126868000D02*
X142416000Y-127798000D01*
X142416000Y-130028000D02*
X142416000Y-129098000D01*
%TO.C,Q9*%
X182548000Y-130028000D02*
X181088000Y-130028000D01*
X182548000Y-126868000D02*
X180388000Y-126868000D01*
X182548000Y-126868000D02*
X182548000Y-127798000D01*
X182548000Y-130028000D02*
X182548000Y-129098000D01*
%TO.C,D4*%
X146212000Y-126198000D02*
X146212000Y-130098000D01*
X144212000Y-126198000D02*
X144212000Y-130098000D01*
X146212000Y-126198000D02*
X144212000Y-126198000D01*
%TO.C,D3*%
X185836000Y-125690000D02*
X185836000Y-129590000D01*
X183836000Y-125690000D02*
X183836000Y-129590000D01*
X185836000Y-125690000D02*
X183836000Y-125690000D01*
%TO.C,C2*%
X157710000Y-124633422D02*
X157710000Y-125150578D01*
X159130000Y-124633422D02*
X159130000Y-125150578D01*
%TO.C,C1*%
X116562000Y-124633422D02*
X116562000Y-125150578D01*
X117982000Y-124633422D02*
X117982000Y-125150578D01*
D13*
%TO.C,J3*%
X135560000Y-135328000D02*
X120270000Y-135328000D01*
X120270000Y-135328000D02*
X120270000Y-144278000D01*
X120270000Y-144278000D02*
X140890000Y-144278000D01*
X140890000Y-144278000D02*
X140890000Y-138608000D01*
D12*
%TO.C,R2*%
X95630000Y-124642578D02*
X95630000Y-124125422D01*
X94210000Y-124642578D02*
X94210000Y-124125422D01*
%TO.C,R1*%
X95684000Y-138612578D02*
X95684000Y-138095422D01*
X94264000Y-138612578D02*
X94264000Y-138095422D01*
%TO.C,Q4*%
X112526000Y-107464000D02*
X113626000Y-107464000D01*
X112526000Y-107194000D02*
X112526000Y-107464000D01*
X111026000Y-107194000D02*
X112526000Y-107194000D01*
X112526000Y-113824000D02*
X115356000Y-113824000D01*
X112526000Y-114094000D02*
X112526000Y-113824000D01*
X111026000Y-114094000D02*
X112526000Y-114094000D01*
%TO.C,Q3*%
X112526000Y-99864000D02*
X113626000Y-99864000D01*
X112526000Y-99594000D02*
X112526000Y-99864000D01*
X111026000Y-99594000D02*
X112526000Y-99594000D01*
X112526000Y-106224000D02*
X115356000Y-106224000D01*
X112526000Y-106494000D02*
X112526000Y-106224000D01*
X111026000Y-106494000D02*
X112526000Y-106494000D01*
%TO.C,Q2*%
X125926000Y-107864000D02*
X127026000Y-107864000D01*
X125926000Y-107594000D02*
X125926000Y-107864000D01*
X124426000Y-107594000D02*
X125926000Y-107594000D01*
X125926000Y-114224000D02*
X128756000Y-114224000D01*
X125926000Y-114494000D02*
X125926000Y-114224000D01*
X124426000Y-114494000D02*
X125926000Y-114494000D01*
%TO.C,Q1*%
X126026000Y-100064000D02*
X127126000Y-100064000D01*
X126026000Y-99794000D02*
X126026000Y-100064000D01*
X124526000Y-99794000D02*
X126026000Y-99794000D01*
X126026000Y-106424000D02*
X128856000Y-106424000D01*
X126026000Y-106694000D02*
X126026000Y-106424000D01*
X124526000Y-106694000D02*
X126026000Y-106694000D01*
D14*
%TO.C,U2*%
X98157000Y-116286000D02*
X96632000Y-116286000D01*
X98157000Y-126661000D02*
X105907000Y-126661000D01*
X98157000Y-116011000D02*
X105907000Y-116011000D01*
X98157000Y-126661000D02*
X98157000Y-126306000D01*
X105907000Y-126661000D02*
X105907000Y-126306000D01*
X105907000Y-116011000D02*
X105907000Y-116366000D01*
X98157000Y-116011000D02*
X98157000Y-116286000D01*
%TO.C,U1*%
X98211000Y-130256000D02*
X96686000Y-130256000D01*
X98211000Y-140631000D02*
X105961000Y-140631000D01*
X98211000Y-129981000D02*
X105961000Y-129981000D01*
X98211000Y-140631000D02*
X98211000Y-140276000D01*
X105961000Y-140631000D02*
X105961000Y-140276000D01*
X105961000Y-129981000D02*
X105961000Y-130336000D01*
X98211000Y-129981000D02*
X98211000Y-130256000D01*
D12*
%TO.C,D2*%
X101540000Y-113426000D02*
X101540000Y-109526000D01*
X103540000Y-113426000D02*
X103540000Y-109526000D01*
X101540000Y-113426000D02*
X103540000Y-113426000D01*
%TO.C,D1*%
X107656000Y-126940000D02*
X111556000Y-126940000D01*
X107656000Y-128940000D02*
X111556000Y-128940000D01*
X107656000Y-126940000D02*
X107656000Y-128940000D01*
%TO.C,C13*%
X112415225Y-137919000D02*
X112415225Y-138419000D01*
X112165225Y-138169000D02*
X112665225Y-138169000D01*
X117571000Y-139360000D02*
X117571000Y-139928000D01*
X117531000Y-139126000D02*
X117531000Y-140162000D01*
X117491000Y-138967000D02*
X117491000Y-140321000D01*
X117451000Y-138839000D02*
X117451000Y-140449000D01*
X117411000Y-138729000D02*
X117411000Y-140559000D01*
X117371000Y-138633000D02*
X117371000Y-140655000D01*
X117331000Y-138546000D02*
X117331000Y-140742000D01*
X117291000Y-138466000D02*
X117291000Y-140822000D01*
X117251000Y-138393000D02*
X117251000Y-140895000D01*
X117211000Y-138325000D02*
X117211000Y-140963000D01*
X117171000Y-138261000D02*
X117171000Y-141027000D01*
X117131000Y-138201000D02*
X117131000Y-141087000D01*
X117091000Y-138144000D02*
X117091000Y-141144000D01*
X117051000Y-138090000D02*
X117051000Y-141198000D01*
X117011000Y-138039000D02*
X117011000Y-141249000D01*
X116971000Y-140684000D02*
X116971000Y-141297000D01*
X116971000Y-137991000D02*
X116971000Y-138604000D01*
X116931000Y-140684000D02*
X116931000Y-141343000D01*
X116931000Y-137945000D02*
X116931000Y-138604000D01*
X116891000Y-140684000D02*
X116891000Y-141387000D01*
X116891000Y-137901000D02*
X116891000Y-138604000D01*
X116851000Y-140684000D02*
X116851000Y-141429000D01*
X116851000Y-137859000D02*
X116851000Y-138604000D01*
X116811000Y-140684000D02*
X116811000Y-141470000D01*
X116811000Y-137818000D02*
X116811000Y-138604000D01*
X116771000Y-140684000D02*
X116771000Y-141508000D01*
X116771000Y-137780000D02*
X116771000Y-138604000D01*
X116731000Y-140684000D02*
X116731000Y-141545000D01*
X116731000Y-137743000D02*
X116731000Y-138604000D01*
X116691000Y-140684000D02*
X116691000Y-141581000D01*
X116691000Y-137707000D02*
X116691000Y-138604000D01*
X116651000Y-140684000D02*
X116651000Y-141615000D01*
X116651000Y-137673000D02*
X116651000Y-138604000D01*
X116611000Y-140684000D02*
X116611000Y-141648000D01*
X116611000Y-137640000D02*
X116611000Y-138604000D01*
X116571000Y-140684000D02*
X116571000Y-141679000D01*
X116571000Y-137609000D02*
X116571000Y-138604000D01*
X116531000Y-140684000D02*
X116531000Y-141709000D01*
X116531000Y-137579000D02*
X116531000Y-138604000D01*
X116491000Y-140684000D02*
X116491000Y-141739000D01*
X116491000Y-137549000D02*
X116491000Y-138604000D01*
X116451000Y-140684000D02*
X116451000Y-141766000D01*
X116451000Y-137522000D02*
X116451000Y-138604000D01*
X116411000Y-140684000D02*
X116411000Y-141793000D01*
X116411000Y-137495000D02*
X116411000Y-138604000D01*
X116371000Y-140684000D02*
X116371000Y-141819000D01*
X116371000Y-137469000D02*
X116371000Y-138604000D01*
X116331000Y-140684000D02*
X116331000Y-141844000D01*
X116331000Y-137444000D02*
X116331000Y-138604000D01*
X116291000Y-140684000D02*
X116291000Y-141868000D01*
X116291000Y-137420000D02*
X116291000Y-138604000D01*
X116251000Y-140684000D02*
X116251000Y-141891000D01*
X116251000Y-137397000D02*
X116251000Y-138604000D01*
X116211000Y-140684000D02*
X116211000Y-141912000D01*
X116211000Y-137376000D02*
X116211000Y-138604000D01*
X116171000Y-140684000D02*
X116171000Y-141934000D01*
X116171000Y-137354000D02*
X116171000Y-138604000D01*
X116131000Y-140684000D02*
X116131000Y-141954000D01*
X116131000Y-137334000D02*
X116131000Y-138604000D01*
X116091000Y-140684000D02*
X116091000Y-141973000D01*
X116091000Y-137315000D02*
X116091000Y-138604000D01*
X116051000Y-140684000D02*
X116051000Y-141992000D01*
X116051000Y-137296000D02*
X116051000Y-138604000D01*
X116011000Y-140684000D02*
X116011000Y-142009000D01*
X116011000Y-137279000D02*
X116011000Y-138604000D01*
X115971000Y-140684000D02*
X115971000Y-142026000D01*
X115971000Y-137262000D02*
X115971000Y-138604000D01*
X115931000Y-140684000D02*
X115931000Y-142042000D01*
X115931000Y-137246000D02*
X115931000Y-138604000D01*
X115891000Y-140684000D02*
X115891000Y-142058000D01*
X115891000Y-137230000D02*
X115891000Y-138604000D01*
X115851000Y-140684000D02*
X115851000Y-142072000D01*
X115851000Y-137216000D02*
X115851000Y-138604000D01*
X115811000Y-140684000D02*
X115811000Y-142086000D01*
X115811000Y-137202000D02*
X115811000Y-138604000D01*
X115771000Y-140684000D02*
X115771000Y-142099000D01*
X115771000Y-137189000D02*
X115771000Y-138604000D01*
X115731000Y-140684000D02*
X115731000Y-142112000D01*
X115731000Y-137176000D02*
X115731000Y-138604000D01*
X115691000Y-140684000D02*
X115691000Y-142124000D01*
X115691000Y-137164000D02*
X115691000Y-138604000D01*
X115650000Y-140684000D02*
X115650000Y-142135000D01*
X115650000Y-137153000D02*
X115650000Y-138604000D01*
X115610000Y-140684000D02*
X115610000Y-142145000D01*
X115610000Y-137143000D02*
X115610000Y-138604000D01*
X115570000Y-140684000D02*
X115570000Y-142155000D01*
X115570000Y-137133000D02*
X115570000Y-138604000D01*
X115530000Y-140684000D02*
X115530000Y-142164000D01*
X115530000Y-137124000D02*
X115530000Y-138604000D01*
X115490000Y-140684000D02*
X115490000Y-142172000D01*
X115490000Y-137116000D02*
X115490000Y-138604000D01*
X115450000Y-140684000D02*
X115450000Y-142180000D01*
X115450000Y-137108000D02*
X115450000Y-138604000D01*
X115410000Y-140684000D02*
X115410000Y-142187000D01*
X115410000Y-137101000D02*
X115410000Y-138604000D01*
X115370000Y-140684000D02*
X115370000Y-142194000D01*
X115370000Y-137094000D02*
X115370000Y-138604000D01*
X115330000Y-140684000D02*
X115330000Y-142200000D01*
X115330000Y-137088000D02*
X115330000Y-138604000D01*
X115290000Y-140684000D02*
X115290000Y-142205000D01*
X115290000Y-137083000D02*
X115290000Y-138604000D01*
X115250000Y-140684000D02*
X115250000Y-142209000D01*
X115250000Y-137079000D02*
X115250000Y-138604000D01*
X115210000Y-140684000D02*
X115210000Y-142213000D01*
X115210000Y-137075000D02*
X115210000Y-138604000D01*
X115170000Y-140684000D02*
X115170000Y-142217000D01*
X115170000Y-137071000D02*
X115170000Y-138604000D01*
X115130000Y-140684000D02*
X115130000Y-142220000D01*
X115130000Y-137068000D02*
X115130000Y-138604000D01*
X115090000Y-140684000D02*
X115090000Y-142222000D01*
X115090000Y-137066000D02*
X115090000Y-138604000D01*
X115050000Y-140684000D02*
X115050000Y-142223000D01*
X115050000Y-137065000D02*
X115050000Y-138604000D01*
X115010000Y-137064000D02*
X115010000Y-138604000D01*
X115010000Y-140684000D02*
X115010000Y-142224000D01*
X114970000Y-137064000D02*
X114970000Y-138604000D01*
X114970000Y-140684000D02*
X114970000Y-142224000D01*
X117590000Y-139644000D02*
G75*
G03X117590000Y-139644000I-2620000J0D01*
G01*
%TO.C,C14*%
X93449000Y-109174775D02*
X93949000Y-109174775D01*
X93699000Y-109424775D02*
X93699000Y-108924775D01*
X94890000Y-104019000D02*
X95458000Y-104019000D01*
X94656000Y-104059000D02*
X95692000Y-104059000D01*
X94497000Y-104099000D02*
X95851000Y-104099000D01*
X94369000Y-104139000D02*
X95979000Y-104139000D01*
X94259000Y-104179000D02*
X96089000Y-104179000D01*
X94163000Y-104219000D02*
X96185000Y-104219000D01*
X94076000Y-104259000D02*
X96272000Y-104259000D01*
X93996000Y-104299000D02*
X96352000Y-104299000D01*
X93923000Y-104339000D02*
X96425000Y-104339000D01*
X93855000Y-104379000D02*
X96493000Y-104379000D01*
X93791000Y-104419000D02*
X96557000Y-104419000D01*
X93731000Y-104459000D02*
X96617000Y-104459000D01*
X93674000Y-104499000D02*
X96674000Y-104499000D01*
X93620000Y-104539000D02*
X96728000Y-104539000D01*
X93569000Y-104579000D02*
X96779000Y-104579000D01*
X96214000Y-104619000D02*
X96827000Y-104619000D01*
X93521000Y-104619000D02*
X94134000Y-104619000D01*
X96214000Y-104659000D02*
X96873000Y-104659000D01*
X93475000Y-104659000D02*
X94134000Y-104659000D01*
X96214000Y-104699000D02*
X96917000Y-104699000D01*
X93431000Y-104699000D02*
X94134000Y-104699000D01*
X96214000Y-104739000D02*
X96959000Y-104739000D01*
X93389000Y-104739000D02*
X94134000Y-104739000D01*
X96214000Y-104779000D02*
X97000000Y-104779000D01*
X93348000Y-104779000D02*
X94134000Y-104779000D01*
X96214000Y-104819000D02*
X97038000Y-104819000D01*
X93310000Y-104819000D02*
X94134000Y-104819000D01*
X96214000Y-104859000D02*
X97075000Y-104859000D01*
X93273000Y-104859000D02*
X94134000Y-104859000D01*
X96214000Y-104899000D02*
X97111000Y-104899000D01*
X93237000Y-104899000D02*
X94134000Y-104899000D01*
X96214000Y-104939000D02*
X97145000Y-104939000D01*
X93203000Y-104939000D02*
X94134000Y-104939000D01*
X96214000Y-104979000D02*
X97178000Y-104979000D01*
X93170000Y-104979000D02*
X94134000Y-104979000D01*
X96214000Y-105019000D02*
X97209000Y-105019000D01*
X93139000Y-105019000D02*
X94134000Y-105019000D01*
X96214000Y-105059000D02*
X97239000Y-105059000D01*
X93109000Y-105059000D02*
X94134000Y-105059000D01*
X96214000Y-105099000D02*
X97269000Y-105099000D01*
X93079000Y-105099000D02*
X94134000Y-105099000D01*
X96214000Y-105139000D02*
X97296000Y-105139000D01*
X93052000Y-105139000D02*
X94134000Y-105139000D01*
X96214000Y-105179000D02*
X97323000Y-105179000D01*
X93025000Y-105179000D02*
X94134000Y-105179000D01*
X96214000Y-105219000D02*
X97349000Y-105219000D01*
X92999000Y-105219000D02*
X94134000Y-105219000D01*
X96214000Y-105259000D02*
X97374000Y-105259000D01*
X92974000Y-105259000D02*
X94134000Y-105259000D01*
X96214000Y-105299000D02*
X97398000Y-105299000D01*
X92950000Y-105299000D02*
X94134000Y-105299000D01*
X96214000Y-105339000D02*
X97421000Y-105339000D01*
X92927000Y-105339000D02*
X94134000Y-105339000D01*
X96214000Y-105379000D02*
X97442000Y-105379000D01*
X92906000Y-105379000D02*
X94134000Y-105379000D01*
X96214000Y-105419000D02*
X97464000Y-105419000D01*
X92884000Y-105419000D02*
X94134000Y-105419000D01*
X96214000Y-105459000D02*
X97484000Y-105459000D01*
X92864000Y-105459000D02*
X94134000Y-105459000D01*
X96214000Y-105499000D02*
X97503000Y-105499000D01*
X92845000Y-105499000D02*
X94134000Y-105499000D01*
X96214000Y-105539000D02*
X97522000Y-105539000D01*
X92826000Y-105539000D02*
X94134000Y-105539000D01*
X96214000Y-105579000D02*
X97539000Y-105579000D01*
X92809000Y-105579000D02*
X94134000Y-105579000D01*
X96214000Y-105619000D02*
X97556000Y-105619000D01*
X92792000Y-105619000D02*
X94134000Y-105619000D01*
X96214000Y-105659000D02*
X97572000Y-105659000D01*
X92776000Y-105659000D02*
X94134000Y-105659000D01*
X96214000Y-105699000D02*
X97588000Y-105699000D01*
X92760000Y-105699000D02*
X94134000Y-105699000D01*
X96214000Y-105739000D02*
X97602000Y-105739000D01*
X92746000Y-105739000D02*
X94134000Y-105739000D01*
X96214000Y-105779000D02*
X97616000Y-105779000D01*
X92732000Y-105779000D02*
X94134000Y-105779000D01*
X96214000Y-105819000D02*
X97629000Y-105819000D01*
X92719000Y-105819000D02*
X94134000Y-105819000D01*
X96214000Y-105859000D02*
X97642000Y-105859000D01*
X92706000Y-105859000D02*
X94134000Y-105859000D01*
X96214000Y-105899000D02*
X97654000Y-105899000D01*
X92694000Y-105899000D02*
X94134000Y-105899000D01*
X96214000Y-105940000D02*
X97665000Y-105940000D01*
X92683000Y-105940000D02*
X94134000Y-105940000D01*
X96214000Y-105980000D02*
X97675000Y-105980000D01*
X92673000Y-105980000D02*
X94134000Y-105980000D01*
X96214000Y-106020000D02*
X97685000Y-106020000D01*
X92663000Y-106020000D02*
X94134000Y-106020000D01*
X96214000Y-106060000D02*
X97694000Y-106060000D01*
X92654000Y-106060000D02*
X94134000Y-106060000D01*
X96214000Y-106100000D02*
X97702000Y-106100000D01*
X92646000Y-106100000D02*
X94134000Y-106100000D01*
X96214000Y-106140000D02*
X97710000Y-106140000D01*
X92638000Y-106140000D02*
X94134000Y-106140000D01*
X96214000Y-106180000D02*
X97717000Y-106180000D01*
X92631000Y-106180000D02*
X94134000Y-106180000D01*
X96214000Y-106220000D02*
X97724000Y-106220000D01*
X92624000Y-106220000D02*
X94134000Y-106220000D01*
X96214000Y-106260000D02*
X97730000Y-106260000D01*
X92618000Y-106260000D02*
X94134000Y-106260000D01*
X96214000Y-106300000D02*
X97735000Y-106300000D01*
X92613000Y-106300000D02*
X94134000Y-106300000D01*
X96214000Y-106340000D02*
X97739000Y-106340000D01*
X92609000Y-106340000D02*
X94134000Y-106340000D01*
X96214000Y-106380000D02*
X97743000Y-106380000D01*
X92605000Y-106380000D02*
X94134000Y-106380000D01*
X96214000Y-106420000D02*
X97747000Y-106420000D01*
X92601000Y-106420000D02*
X94134000Y-106420000D01*
X96214000Y-106460000D02*
X97750000Y-106460000D01*
X92598000Y-106460000D02*
X94134000Y-106460000D01*
X96214000Y-106500000D02*
X97752000Y-106500000D01*
X92596000Y-106500000D02*
X94134000Y-106500000D01*
X96214000Y-106540000D02*
X97753000Y-106540000D01*
X92595000Y-106540000D02*
X94134000Y-106540000D01*
X92594000Y-106580000D02*
X94134000Y-106580000D01*
X96214000Y-106580000D02*
X97754000Y-106580000D01*
X92594000Y-106620000D02*
X94134000Y-106620000D01*
X96214000Y-106620000D02*
X97754000Y-106620000D01*
X97794000Y-106620000D02*
G75*
G03X97794000Y-106620000I-2620000J0D01*
G01*
%TO.C,C3*%
X94264000Y-134285422D02*
X94264000Y-134802578D01*
X95684000Y-134285422D02*
X95684000Y-134802578D01*
%TO.C,C4*%
X94210000Y-120315422D02*
X94210000Y-120832578D01*
X95630000Y-120315422D02*
X95630000Y-120832578D01*
%TO.C,C5*%
X91924000Y-134285422D02*
X91924000Y-134802578D01*
X93344000Y-134285422D02*
X93344000Y-134802578D01*
%TO.C,C6*%
X91924000Y-120315422D02*
X91924000Y-120832578D01*
X93344000Y-120315422D02*
X93344000Y-120832578D01*
%TO.C,C7*%
X112394000Y-124642578D02*
X112394000Y-124125422D01*
X110974000Y-124642578D02*
X110974000Y-124125422D01*
%TO.C,C8*%
X99750578Y-107926000D02*
X99233422Y-107926000D01*
X99750578Y-109346000D02*
X99233422Y-109346000D01*
%TO.C,C9*%
X114397422Y-136554000D02*
X114914578Y-136554000D01*
X114397422Y-135134000D02*
X114914578Y-135134000D01*
%TO.C,C10*%
X95940578Y-111482000D02*
X95423422Y-111482000D01*
X95940578Y-112902000D02*
X95423422Y-112902000D01*
%TO.C,C11*%
X104714578Y-127534000D02*
X104197422Y-127534000D01*
X104714578Y-128954000D02*
X104197422Y-128954000D01*
%TO.C,C12*%
X100710000Y-112021078D02*
X100710000Y-111503922D01*
X99290000Y-112021078D02*
X99290000Y-111503922D01*
%TD*%
%TO.C,R16*%
D14*
X109038142Y-121296380D02*
X108704809Y-120820190D01*
X108466714Y-121296380D02*
X108466714Y-120296380D01*
X108847666Y-120296380D01*
X108942904Y-120344000D01*
X108990523Y-120391619D01*
X109038142Y-120486857D01*
X109038142Y-120629714D01*
X108990523Y-120724952D01*
X108942904Y-120772571D01*
X108847666Y-120820190D01*
X108466714Y-120820190D01*
X109990523Y-121296380D02*
X109419095Y-121296380D01*
X109704809Y-121296380D02*
X109704809Y-120296380D01*
X109609571Y-120439238D01*
X109514333Y-120534476D01*
X109419095Y-120582095D01*
X110847666Y-120296380D02*
X110657190Y-120296380D01*
X110561952Y-120344000D01*
X110514333Y-120391619D01*
X110419095Y-120534476D01*
X110371476Y-120724952D01*
X110371476Y-121105904D01*
X110419095Y-121201142D01*
X110466714Y-121248761D01*
X110561952Y-121296380D01*
X110752428Y-121296380D01*
X110847666Y-121248761D01*
X110895285Y-121201142D01*
X110942904Y-121105904D01*
X110942904Y-120867809D01*
X110895285Y-120772571D01*
X110847666Y-120724952D01*
X110752428Y-120677333D01*
X110561952Y-120677333D01*
X110466714Y-120724952D01*
X110419095Y-120772571D01*
X110371476Y-120867809D01*
%TO.C,R15*%
X112013142Y-115946380D02*
X111679809Y-115470190D01*
X111441714Y-115946380D02*
X111441714Y-114946380D01*
X111822666Y-114946380D01*
X111917904Y-114994000D01*
X111965523Y-115041619D01*
X112013142Y-115136857D01*
X112013142Y-115279714D01*
X111965523Y-115374952D01*
X111917904Y-115422571D01*
X111822666Y-115470190D01*
X111441714Y-115470190D01*
X112965523Y-115946380D02*
X112394095Y-115946380D01*
X112679809Y-115946380D02*
X112679809Y-114946380D01*
X112584571Y-115089238D01*
X112489333Y-115184476D01*
X112394095Y-115232095D01*
X113870285Y-114946380D02*
X113394095Y-114946380D01*
X113346476Y-115422571D01*
X113394095Y-115374952D01*
X113489333Y-115327333D01*
X113727428Y-115327333D01*
X113822666Y-115374952D01*
X113870285Y-115422571D01*
X113917904Y-115517809D01*
X113917904Y-115755904D01*
X113870285Y-115851142D01*
X113822666Y-115898761D01*
X113727428Y-115946380D01*
X113489333Y-115946380D01*
X113394095Y-115898761D01*
X113346476Y-115851142D01*
%TO.C,R4*%
X109563833Y-133598380D02*
X109230500Y-133122190D01*
X108992404Y-133598380D02*
X108992404Y-132598380D01*
X109373357Y-132598380D01*
X109468595Y-132646000D01*
X109516214Y-132693619D01*
X109563833Y-132788857D01*
X109563833Y-132931714D01*
X109516214Y-133026952D01*
X109468595Y-133074571D01*
X109373357Y-133122190D01*
X108992404Y-133122190D01*
X110420976Y-132931714D02*
X110420976Y-133598380D01*
X110182880Y-132550761D02*
X109944785Y-133265047D01*
X110563833Y-133265047D01*
%TO.C,R3*%
X109993333Y-137662380D02*
X109660000Y-137186190D01*
X109421904Y-137662380D02*
X109421904Y-136662380D01*
X109802857Y-136662380D01*
X109898095Y-136710000D01*
X109945714Y-136757619D01*
X109993333Y-136852857D01*
X109993333Y-136995714D01*
X109945714Y-137090952D01*
X109898095Y-137138571D01*
X109802857Y-137186190D01*
X109421904Y-137186190D01*
X110326666Y-136662380D02*
X110945714Y-136662380D01*
X110612380Y-137043333D01*
X110755238Y-137043333D01*
X110850476Y-137090952D01*
X110898095Y-137138571D01*
X110945714Y-137233809D01*
X110945714Y-137471904D01*
X110898095Y-137567142D01*
X110850476Y-137614761D01*
X110755238Y-137662380D01*
X110469523Y-137662380D01*
X110374285Y-137614761D01*
X110326666Y-137567142D01*
%TO.C,J2*%
D15*
X161044666Y-135880523D02*
X161044666Y-136787666D01*
X160984190Y-136969095D01*
X160863238Y-137090047D01*
X160681809Y-137150523D01*
X160560857Y-137150523D01*
X161588952Y-136001476D02*
X161649428Y-135941000D01*
X161770380Y-135880523D01*
X162072761Y-135880523D01*
X162193714Y-135941000D01*
X162254190Y-136001476D01*
X162314666Y-136122428D01*
X162314666Y-136243380D01*
X162254190Y-136424809D01*
X161528476Y-137150523D01*
X162314666Y-137150523D01*
%TO.C,R14*%
D14*
X136949142Y-126360380D02*
X136615809Y-125884190D01*
X136377714Y-126360380D02*
X136377714Y-125360380D01*
X136758666Y-125360380D01*
X136853904Y-125408000D01*
X136901523Y-125455619D01*
X136949142Y-125550857D01*
X136949142Y-125693714D01*
X136901523Y-125788952D01*
X136853904Y-125836571D01*
X136758666Y-125884190D01*
X136377714Y-125884190D01*
X137901523Y-126360380D02*
X137330095Y-126360380D01*
X137615809Y-126360380D02*
X137615809Y-125360380D01*
X137520571Y-125503238D01*
X137425333Y-125598476D01*
X137330095Y-125646095D01*
X138758666Y-125693714D02*
X138758666Y-126360380D01*
X138520571Y-125312761D02*
X138282476Y-126027047D01*
X138901523Y-126027047D01*
%TO.C,R9*%
X177049333Y-131948380D02*
X176716000Y-131472190D01*
X176477904Y-131948380D02*
X176477904Y-130948380D01*
X176858857Y-130948380D01*
X176954095Y-130996000D01*
X177001714Y-131043619D01*
X177049333Y-131138857D01*
X177049333Y-131281714D01*
X177001714Y-131376952D01*
X176954095Y-131424571D01*
X176858857Y-131472190D01*
X176477904Y-131472190D01*
X177525523Y-131948380D02*
X177716000Y-131948380D01*
X177811238Y-131900761D01*
X177858857Y-131853142D01*
X177954095Y-131710285D01*
X178001714Y-131519809D01*
X178001714Y-131138857D01*
X177954095Y-131043619D01*
X177906476Y-130996000D01*
X177811238Y-130948380D01*
X177620761Y-130948380D01*
X177525523Y-130996000D01*
X177477904Y-131043619D01*
X177430285Y-131138857D01*
X177430285Y-131376952D01*
X177477904Y-131472190D01*
X177525523Y-131519809D01*
X177620761Y-131567428D01*
X177811238Y-131567428D01*
X177906476Y-131519809D01*
X177954095Y-131472190D01*
X178001714Y-131376952D01*
%TO.C,R10*%
X176573142Y-126360380D02*
X176239809Y-125884190D01*
X176001714Y-126360380D02*
X176001714Y-125360380D01*
X176382666Y-125360380D01*
X176477904Y-125408000D01*
X176525523Y-125455619D01*
X176573142Y-125550857D01*
X176573142Y-125693714D01*
X176525523Y-125788952D01*
X176477904Y-125836571D01*
X176382666Y-125884190D01*
X176001714Y-125884190D01*
X177525523Y-126360380D02*
X176954095Y-126360380D01*
X177239809Y-126360380D02*
X177239809Y-125360380D01*
X177144571Y-125503238D01*
X177049333Y-125598476D01*
X176954095Y-125646095D01*
X178144571Y-125360380D02*
X178239809Y-125360380D01*
X178335047Y-125408000D01*
X178382666Y-125455619D01*
X178430285Y-125550857D01*
X178477904Y-125741333D01*
X178477904Y-125979428D01*
X178430285Y-126169904D01*
X178382666Y-126265142D01*
X178335047Y-126312761D01*
X178239809Y-126360380D01*
X178144571Y-126360380D01*
X178049333Y-126312761D01*
X178001714Y-126265142D01*
X177954095Y-126169904D01*
X177906476Y-125979428D01*
X177906476Y-125741333D01*
X177954095Y-125550857D01*
X178001714Y-125455619D01*
X178049333Y-125408000D01*
X178144571Y-125360380D01*
%TO.C,R11*%
X125470380Y-125534857D02*
X124994190Y-125868190D01*
X125470380Y-126106285D02*
X124470380Y-126106285D01*
X124470380Y-125725333D01*
X124518000Y-125630095D01*
X124565619Y-125582476D01*
X124660857Y-125534857D01*
X124803714Y-125534857D01*
X124898952Y-125582476D01*
X124946571Y-125630095D01*
X124994190Y-125725333D01*
X124994190Y-126106285D01*
X125470380Y-124582476D02*
X125470380Y-125153904D01*
X125470380Y-124868190D02*
X124470380Y-124868190D01*
X124613238Y-124963428D01*
X124708476Y-125058666D01*
X124756095Y-125153904D01*
X125470380Y-123630095D02*
X125470380Y-124201523D01*
X125470380Y-123915809D02*
X124470380Y-123915809D01*
X124613238Y-124011047D01*
X124708476Y-124106285D01*
X124756095Y-124201523D01*
%TO.C,R12*%
X166618380Y-125534857D02*
X166142190Y-125868190D01*
X166618380Y-126106285D02*
X165618380Y-126106285D01*
X165618380Y-125725333D01*
X165666000Y-125630095D01*
X165713619Y-125582476D01*
X165808857Y-125534857D01*
X165951714Y-125534857D01*
X166046952Y-125582476D01*
X166094571Y-125630095D01*
X166142190Y-125725333D01*
X166142190Y-126106285D01*
X166618380Y-124582476D02*
X166618380Y-125153904D01*
X166618380Y-124868190D02*
X165618380Y-124868190D01*
X165761238Y-124963428D01*
X165856476Y-125058666D01*
X165904095Y-125153904D01*
X165713619Y-124201523D02*
X165666000Y-124153904D01*
X165618380Y-124058666D01*
X165618380Y-123820571D01*
X165666000Y-123725333D01*
X165713619Y-123677714D01*
X165808857Y-123630095D01*
X165904095Y-123630095D01*
X166046952Y-123677714D01*
X166618380Y-124249142D01*
X166618380Y-123630095D01*
%TO.C,R13*%
X136949142Y-132456380D02*
X136615809Y-131980190D01*
X136377714Y-132456380D02*
X136377714Y-131456380D01*
X136758666Y-131456380D01*
X136853904Y-131504000D01*
X136901523Y-131551619D01*
X136949142Y-131646857D01*
X136949142Y-131789714D01*
X136901523Y-131884952D01*
X136853904Y-131932571D01*
X136758666Y-131980190D01*
X136377714Y-131980190D01*
X137901523Y-132456380D02*
X137330095Y-132456380D01*
X137615809Y-132456380D02*
X137615809Y-131456380D01*
X137520571Y-131599238D01*
X137425333Y-131694476D01*
X137330095Y-131742095D01*
X138234857Y-131456380D02*
X138853904Y-131456380D01*
X138520571Y-131837333D01*
X138663428Y-131837333D01*
X138758666Y-131884952D01*
X138806285Y-131932571D01*
X138853904Y-132027809D01*
X138853904Y-132265904D01*
X138806285Y-132361142D01*
X138758666Y-132408761D01*
X138663428Y-132456380D01*
X138377714Y-132456380D01*
X138282476Y-132408761D01*
X138234857Y-132361142D01*
%TO.C,K2*%
X132908380Y-115442095D02*
X131908380Y-115442095D01*
X132908380Y-114870666D02*
X132336952Y-115299238D01*
X131908380Y-114870666D02*
X132479809Y-115442095D01*
X132003619Y-114489714D02*
X131956000Y-114442095D01*
X131908380Y-114346857D01*
X131908380Y-114108761D01*
X131956000Y-114013523D01*
X132003619Y-113965904D01*
X132098857Y-113918285D01*
X132194095Y-113918285D01*
X132336952Y-113965904D01*
X132908380Y-114537333D01*
X132908380Y-113918285D01*
%TO.C,K1*%
X171516380Y-115442095D02*
X170516380Y-115442095D01*
X171516380Y-114870666D02*
X170944952Y-115299238D01*
X170516380Y-114870666D02*
X171087809Y-115442095D01*
X171516380Y-113918285D02*
X171516380Y-114489714D01*
X171516380Y-114204000D02*
X170516380Y-114204000D01*
X170659238Y-114299238D01*
X170754476Y-114394476D01*
X170802095Y-114489714D01*
%TO.C,Q10*%
X141084571Y-126495619D02*
X140989333Y-126448000D01*
X140894095Y-126352761D01*
X140751238Y-126209904D01*
X140656000Y-126162285D01*
X140560761Y-126162285D01*
X140608380Y-126400380D02*
X140513142Y-126352761D01*
X140417904Y-126257523D01*
X140370285Y-126067047D01*
X140370285Y-125733714D01*
X140417904Y-125543238D01*
X140513142Y-125448000D01*
X140608380Y-125400380D01*
X140798857Y-125400380D01*
X140894095Y-125448000D01*
X140989333Y-125543238D01*
X141036952Y-125733714D01*
X141036952Y-126067047D01*
X140989333Y-126257523D01*
X140894095Y-126352761D01*
X140798857Y-126400380D01*
X140608380Y-126400380D01*
X141989333Y-126400380D02*
X141417904Y-126400380D01*
X141703619Y-126400380D02*
X141703619Y-125400380D01*
X141608380Y-125543238D01*
X141513142Y-125638476D01*
X141417904Y-125686095D01*
X142608380Y-125400380D02*
X142703619Y-125400380D01*
X142798857Y-125448000D01*
X142846476Y-125495619D01*
X142894095Y-125590857D01*
X142941714Y-125781333D01*
X142941714Y-126019428D01*
X142894095Y-126209904D01*
X142846476Y-126305142D01*
X142798857Y-126352761D01*
X142703619Y-126400380D01*
X142608380Y-126400380D01*
X142513142Y-126352761D01*
X142465523Y-126305142D01*
X142417904Y-126209904D01*
X142370285Y-126019428D01*
X142370285Y-125781333D01*
X142417904Y-125590857D01*
X142465523Y-125495619D01*
X142513142Y-125448000D01*
X142608380Y-125400380D01*
%TO.C,Q9*%
X181692761Y-126495619D02*
X181597523Y-126448000D01*
X181502285Y-126352761D01*
X181359428Y-126209904D01*
X181264190Y-126162285D01*
X181168952Y-126162285D01*
X181216571Y-126400380D02*
X181121333Y-126352761D01*
X181026095Y-126257523D01*
X180978476Y-126067047D01*
X180978476Y-125733714D01*
X181026095Y-125543238D01*
X181121333Y-125448000D01*
X181216571Y-125400380D01*
X181407047Y-125400380D01*
X181502285Y-125448000D01*
X181597523Y-125543238D01*
X181645142Y-125733714D01*
X181645142Y-126067047D01*
X181597523Y-126257523D01*
X181502285Y-126352761D01*
X181407047Y-126400380D01*
X181216571Y-126400380D01*
X182121333Y-126400380D02*
X182311809Y-126400380D01*
X182407047Y-126352761D01*
X182454666Y-126305142D01*
X182549904Y-126162285D01*
X182597523Y-125971809D01*
X182597523Y-125590857D01*
X182549904Y-125495619D01*
X182502285Y-125448000D01*
X182407047Y-125400380D01*
X182216571Y-125400380D01*
X182121333Y-125448000D01*
X182073714Y-125495619D01*
X182026095Y-125590857D01*
X182026095Y-125828952D01*
X182073714Y-125924190D01*
X182121333Y-125971809D01*
X182216571Y-126019428D01*
X182407047Y-126019428D01*
X182502285Y-125971809D01*
X182549904Y-125924190D01*
X182597523Y-125828952D01*
%TO.C,D4*%
X147664380Y-129186095D02*
X146664380Y-129186095D01*
X146664380Y-128948000D01*
X146712000Y-128805142D01*
X146807238Y-128709904D01*
X146902476Y-128662285D01*
X147092952Y-128614666D01*
X147235809Y-128614666D01*
X147426285Y-128662285D01*
X147521523Y-128709904D01*
X147616761Y-128805142D01*
X147664380Y-128948000D01*
X147664380Y-129186095D01*
X146997714Y-127757523D02*
X147664380Y-127757523D01*
X146616761Y-127995619D02*
X147331047Y-128233714D01*
X147331047Y-127614666D01*
%TO.C,D3*%
X187288380Y-128678095D02*
X186288380Y-128678095D01*
X186288380Y-128440000D01*
X186336000Y-128297142D01*
X186431238Y-128201904D01*
X186526476Y-128154285D01*
X186716952Y-128106666D01*
X186859809Y-128106666D01*
X187050285Y-128154285D01*
X187145523Y-128201904D01*
X187240761Y-128297142D01*
X187288380Y-128440000D01*
X187288380Y-128678095D01*
X186288380Y-127773333D02*
X186288380Y-127154285D01*
X186669333Y-127487619D01*
X186669333Y-127344761D01*
X186716952Y-127249523D01*
X186764571Y-127201904D01*
X186859809Y-127154285D01*
X187097904Y-127154285D01*
X187193142Y-127201904D01*
X187240761Y-127249523D01*
X187288380Y-127344761D01*
X187288380Y-127630476D01*
X187240761Y-127725714D01*
X187193142Y-127773333D01*
%TO.C,C2*%
X160427142Y-125058666D02*
X160474761Y-125106285D01*
X160522380Y-125249142D01*
X160522380Y-125344380D01*
X160474761Y-125487238D01*
X160379523Y-125582476D01*
X160284285Y-125630095D01*
X160093809Y-125677714D01*
X159950952Y-125677714D01*
X159760476Y-125630095D01*
X159665238Y-125582476D01*
X159570000Y-125487238D01*
X159522380Y-125344380D01*
X159522380Y-125249142D01*
X159570000Y-125106285D01*
X159617619Y-125058666D01*
X159617619Y-124677714D02*
X159570000Y-124630095D01*
X159522380Y-124534857D01*
X159522380Y-124296761D01*
X159570000Y-124201523D01*
X159617619Y-124153904D01*
X159712857Y-124106285D01*
X159808095Y-124106285D01*
X159950952Y-124153904D01*
X160522380Y-124725333D01*
X160522380Y-124106285D01*
%TO.C,C1*%
X119279142Y-125058666D02*
X119326761Y-125106285D01*
X119374380Y-125249142D01*
X119374380Y-125344380D01*
X119326761Y-125487238D01*
X119231523Y-125582476D01*
X119136285Y-125630095D01*
X118945809Y-125677714D01*
X118802952Y-125677714D01*
X118612476Y-125630095D01*
X118517238Y-125582476D01*
X118422000Y-125487238D01*
X118374380Y-125344380D01*
X118374380Y-125249142D01*
X118422000Y-125106285D01*
X118469619Y-125058666D01*
X119374380Y-124106285D02*
X119374380Y-124677714D01*
X119374380Y-124392000D02*
X118374380Y-124392000D01*
X118517238Y-124487238D01*
X118612476Y-124582476D01*
X118660095Y-124677714D01*
%TO.C,J3*%
D15*
X138692666Y-135880523D02*
X138692666Y-136787666D01*
X138632190Y-136969095D01*
X138511238Y-137090047D01*
X138329809Y-137150523D01*
X138208857Y-137150523D01*
X139176476Y-135880523D02*
X139962666Y-135880523D01*
X139539333Y-136364333D01*
X139720761Y-136364333D01*
X139841714Y-136424809D01*
X139902190Y-136485285D01*
X139962666Y-136606238D01*
X139962666Y-136908619D01*
X139902190Y-137029571D01*
X139841714Y-137090047D01*
X139720761Y-137150523D01*
X139357904Y-137150523D01*
X139236952Y-137090047D01*
X139176476Y-137029571D01*
%TO.C,R2*%
D14*
X93722380Y-124550666D02*
X93246190Y-124884000D01*
X93722380Y-125122095D02*
X92722380Y-125122095D01*
X92722380Y-124741142D01*
X92770000Y-124645904D01*
X92817619Y-124598285D01*
X92912857Y-124550666D01*
X93055714Y-124550666D01*
X93150952Y-124598285D01*
X93198571Y-124645904D01*
X93246190Y-124741142D01*
X93246190Y-125122095D01*
X92817619Y-124169714D02*
X92770000Y-124122095D01*
X92722380Y-124026857D01*
X92722380Y-123788761D01*
X92770000Y-123693523D01*
X92817619Y-123645904D01*
X92912857Y-123598285D01*
X93008095Y-123598285D01*
X93150952Y-123645904D01*
X93722380Y-124217333D01*
X93722380Y-123598285D01*
%TO.C,R1*%
X93776380Y-138520666D02*
X93300190Y-138854000D01*
X93776380Y-139092095D02*
X92776380Y-139092095D01*
X92776380Y-138711142D01*
X92824000Y-138615904D01*
X92871619Y-138568285D01*
X92966857Y-138520666D01*
X93109714Y-138520666D01*
X93204952Y-138568285D01*
X93252571Y-138615904D01*
X93300190Y-138711142D01*
X93300190Y-139092095D01*
X93776380Y-137568285D02*
X93776380Y-138139714D01*
X93776380Y-137854000D02*
X92776380Y-137854000D01*
X92919238Y-137949238D01*
X93014476Y-138044476D01*
X93062095Y-138139714D01*
%TO.C,Q4*%
X106760761Y-115091619D02*
X106665523Y-115044000D01*
X106570285Y-114948761D01*
X106427428Y-114805904D01*
X106332190Y-114758285D01*
X106236952Y-114758285D01*
X106284571Y-114996380D02*
X106189333Y-114948761D01*
X106094095Y-114853523D01*
X106046476Y-114663047D01*
X106046476Y-114329714D01*
X106094095Y-114139238D01*
X106189333Y-114044000D01*
X106284571Y-113996380D01*
X106475047Y-113996380D01*
X106570285Y-114044000D01*
X106665523Y-114139238D01*
X106713142Y-114329714D01*
X106713142Y-114663047D01*
X106665523Y-114853523D01*
X106570285Y-114948761D01*
X106475047Y-114996380D01*
X106284571Y-114996380D01*
X107570285Y-114329714D02*
X107570285Y-114996380D01*
X107332190Y-113948761D02*
X107094095Y-114663047D01*
X107713142Y-114663047D01*
%TO.C,Q3*%
X109760761Y-99591619D02*
X109665523Y-99544000D01*
X109570285Y-99448761D01*
X109427428Y-99305904D01*
X109332190Y-99258285D01*
X109236952Y-99258285D01*
X109284571Y-99496380D02*
X109189333Y-99448761D01*
X109094095Y-99353523D01*
X109046476Y-99163047D01*
X109046476Y-98829714D01*
X109094095Y-98639238D01*
X109189333Y-98544000D01*
X109284571Y-98496380D01*
X109475047Y-98496380D01*
X109570285Y-98544000D01*
X109665523Y-98639238D01*
X109713142Y-98829714D01*
X109713142Y-99163047D01*
X109665523Y-99353523D01*
X109570285Y-99448761D01*
X109475047Y-99496380D01*
X109284571Y-99496380D01*
X110046476Y-98496380D02*
X110665523Y-98496380D01*
X110332190Y-98877333D01*
X110475047Y-98877333D01*
X110570285Y-98924952D01*
X110617904Y-98972571D01*
X110665523Y-99067809D01*
X110665523Y-99305904D01*
X110617904Y-99401142D01*
X110570285Y-99448761D01*
X110475047Y-99496380D01*
X110189333Y-99496380D01*
X110094095Y-99448761D01*
X110046476Y-99401142D01*
%TO.C,Q2*%
X123360761Y-116091619D02*
X123265523Y-116044000D01*
X123170285Y-115948761D01*
X123027428Y-115805904D01*
X122932190Y-115758285D01*
X122836952Y-115758285D01*
X122884571Y-115996380D02*
X122789333Y-115948761D01*
X122694095Y-115853523D01*
X122646476Y-115663047D01*
X122646476Y-115329714D01*
X122694095Y-115139238D01*
X122789333Y-115044000D01*
X122884571Y-114996380D01*
X123075047Y-114996380D01*
X123170285Y-115044000D01*
X123265523Y-115139238D01*
X123313142Y-115329714D01*
X123313142Y-115663047D01*
X123265523Y-115853523D01*
X123170285Y-115948761D01*
X123075047Y-115996380D01*
X122884571Y-115996380D01*
X123694095Y-115091619D02*
X123741714Y-115044000D01*
X123836952Y-114996380D01*
X124075047Y-114996380D01*
X124170285Y-115044000D01*
X124217904Y-115091619D01*
X124265523Y-115186857D01*
X124265523Y-115282095D01*
X124217904Y-115424952D01*
X123646476Y-115996380D01*
X124265523Y-115996380D01*
%TO.C,Q1*%
X123360761Y-99791619D02*
X123265523Y-99744000D01*
X123170285Y-99648761D01*
X123027428Y-99505904D01*
X122932190Y-99458285D01*
X122836952Y-99458285D01*
X122884571Y-99696380D02*
X122789333Y-99648761D01*
X122694095Y-99553523D01*
X122646476Y-99363047D01*
X122646476Y-99029714D01*
X122694095Y-98839238D01*
X122789333Y-98744000D01*
X122884571Y-98696380D01*
X123075047Y-98696380D01*
X123170285Y-98744000D01*
X123265523Y-98839238D01*
X123313142Y-99029714D01*
X123313142Y-99363047D01*
X123265523Y-99553523D01*
X123170285Y-99648761D01*
X123075047Y-99696380D01*
X122884571Y-99696380D01*
X124265523Y-99696380D02*
X123694095Y-99696380D01*
X123979809Y-99696380D02*
X123979809Y-98696380D01*
X123884571Y-98839238D01*
X123789333Y-98934476D01*
X123694095Y-98982095D01*
%TO.C,U2*%
X100694095Y-114538380D02*
X100694095Y-115347904D01*
X100741714Y-115443142D01*
X100789333Y-115490761D01*
X100884571Y-115538380D01*
X101075047Y-115538380D01*
X101170285Y-115490761D01*
X101217904Y-115443142D01*
X101265523Y-115347904D01*
X101265523Y-114538380D01*
X101694095Y-114633619D02*
X101741714Y-114586000D01*
X101836952Y-114538380D01*
X102075047Y-114538380D01*
X102170285Y-114586000D01*
X102217904Y-114633619D01*
X102265523Y-114728857D01*
X102265523Y-114824095D01*
X102217904Y-114966952D01*
X101646476Y-115538380D01*
X102265523Y-115538380D01*
%TO.C,U1*%
X96094095Y-128296380D02*
X96094095Y-129105904D01*
X96141714Y-129201142D01*
X96189333Y-129248761D01*
X96284571Y-129296380D01*
X96475047Y-129296380D01*
X96570285Y-129248761D01*
X96617904Y-129201142D01*
X96665523Y-129105904D01*
X96665523Y-128296380D01*
X97665523Y-129296380D02*
X97094095Y-129296380D01*
X97379809Y-129296380D02*
X97379809Y-128296380D01*
X97284571Y-128439238D01*
X97189333Y-128534476D01*
X97094095Y-128582095D01*
%TO.C,D2*%
X104516380Y-109120095D02*
X103516380Y-109120095D01*
X103516380Y-108882000D01*
X103564000Y-108739142D01*
X103659238Y-108643904D01*
X103754476Y-108596285D01*
X103944952Y-108548666D01*
X104087809Y-108548666D01*
X104278285Y-108596285D01*
X104373523Y-108643904D01*
X104468761Y-108739142D01*
X104516380Y-108882000D01*
X104516380Y-109120095D01*
X103611619Y-108167714D02*
X103564000Y-108120095D01*
X103516380Y-108024857D01*
X103516380Y-107786761D01*
X103564000Y-107691523D01*
X103611619Y-107643904D01*
X103706857Y-107596285D01*
X103802095Y-107596285D01*
X103944952Y-107643904D01*
X104516380Y-108215333D01*
X104516380Y-107596285D01*
%TO.C,D1*%
X109167904Y-126392380D02*
X109167904Y-125392380D01*
X109406000Y-125392380D01*
X109548857Y-125440000D01*
X109644095Y-125535238D01*
X109691714Y-125630476D01*
X109739333Y-125820952D01*
X109739333Y-125963809D01*
X109691714Y-126154285D01*
X109644095Y-126249523D01*
X109548857Y-126344761D01*
X109406000Y-126392380D01*
X109167904Y-126392380D01*
X110691714Y-126392380D02*
X110120285Y-126392380D01*
X110406000Y-126392380D02*
X110406000Y-125392380D01*
X110310761Y-125535238D01*
X110215523Y-125630476D01*
X110120285Y-125678095D01*
%TO.C,C13*%
X118813142Y-136601142D02*
X118765523Y-136648761D01*
X118622666Y-136696380D01*
X118527428Y-136696380D01*
X118384571Y-136648761D01*
X118289333Y-136553523D01*
X118241714Y-136458285D01*
X118194095Y-136267809D01*
X118194095Y-136124952D01*
X118241714Y-135934476D01*
X118289333Y-135839238D01*
X118384571Y-135744000D01*
X118527428Y-135696380D01*
X118622666Y-135696380D01*
X118765523Y-135744000D01*
X118813142Y-135791619D01*
X119765523Y-136696380D02*
X119194095Y-136696380D01*
X119479809Y-136696380D02*
X119479809Y-135696380D01*
X119384571Y-135839238D01*
X119289333Y-135934476D01*
X119194095Y-135982095D01*
X120098857Y-135696380D02*
X120717904Y-135696380D01*
X120384571Y-136077333D01*
X120527428Y-136077333D01*
X120622666Y-136124952D01*
X120670285Y-136172571D01*
X120717904Y-136267809D01*
X120717904Y-136505904D01*
X120670285Y-136601142D01*
X120622666Y-136648761D01*
X120527428Y-136696380D01*
X120241714Y-136696380D01*
X120146476Y-136648761D01*
X120098857Y-136601142D01*
%TO.C,C14*%
X92229142Y-107246857D02*
X92276761Y-107294476D01*
X92324380Y-107437333D01*
X92324380Y-107532571D01*
X92276761Y-107675428D01*
X92181523Y-107770666D01*
X92086285Y-107818285D01*
X91895809Y-107865904D01*
X91752952Y-107865904D01*
X91562476Y-107818285D01*
X91467238Y-107770666D01*
X91372000Y-107675428D01*
X91324380Y-107532571D01*
X91324380Y-107437333D01*
X91372000Y-107294476D01*
X91419619Y-107246857D01*
X92324380Y-106294476D02*
X92324380Y-106865904D01*
X92324380Y-106580190D02*
X91324380Y-106580190D01*
X91467238Y-106675428D01*
X91562476Y-106770666D01*
X91610095Y-106865904D01*
X91657714Y-105437333D02*
X92324380Y-105437333D01*
X91276761Y-105675428D02*
X91991047Y-105913523D01*
X91991047Y-105294476D01*
%TO.C,C3*%
X95331142Y-132010666D02*
X95378761Y-132058285D01*
X95426380Y-132201142D01*
X95426380Y-132296380D01*
X95378761Y-132439238D01*
X95283523Y-132534476D01*
X95188285Y-132582095D01*
X94997809Y-132629714D01*
X94854952Y-132629714D01*
X94664476Y-132582095D01*
X94569238Y-132534476D01*
X94474000Y-132439238D01*
X94426380Y-132296380D01*
X94426380Y-132201142D01*
X94474000Y-132058285D01*
X94521619Y-132010666D01*
X94426380Y-131677333D02*
X94426380Y-131058285D01*
X94807333Y-131391619D01*
X94807333Y-131248761D01*
X94854952Y-131153523D01*
X94902571Y-131105904D01*
X94997809Y-131058285D01*
X95235904Y-131058285D01*
X95331142Y-131105904D01*
X95378761Y-131153523D01*
X95426380Y-131248761D01*
X95426380Y-131534476D01*
X95378761Y-131629714D01*
X95331142Y-131677333D01*
%TO.C,C4*%
X95277142Y-117692666D02*
X95324761Y-117740285D01*
X95372380Y-117883142D01*
X95372380Y-117978380D01*
X95324761Y-118121238D01*
X95229523Y-118216476D01*
X95134285Y-118264095D01*
X94943809Y-118311714D01*
X94800952Y-118311714D01*
X94610476Y-118264095D01*
X94515238Y-118216476D01*
X94420000Y-118121238D01*
X94372380Y-117978380D01*
X94372380Y-117883142D01*
X94420000Y-117740285D01*
X94467619Y-117692666D01*
X94705714Y-116835523D02*
X95372380Y-116835523D01*
X94324761Y-117073619D02*
X95039047Y-117311714D01*
X95039047Y-116692666D01*
%TO.C,C5*%
X93213142Y-132010666D02*
X93260761Y-132058285D01*
X93308380Y-132201142D01*
X93308380Y-132296380D01*
X93260761Y-132439238D01*
X93165523Y-132534476D01*
X93070285Y-132582095D01*
X92879809Y-132629714D01*
X92736952Y-132629714D01*
X92546476Y-132582095D01*
X92451238Y-132534476D01*
X92356000Y-132439238D01*
X92308380Y-132296380D01*
X92308380Y-132201142D01*
X92356000Y-132058285D01*
X92403619Y-132010666D01*
X92308380Y-131105904D02*
X92308380Y-131582095D01*
X92784571Y-131629714D01*
X92736952Y-131582095D01*
X92689333Y-131486857D01*
X92689333Y-131248761D01*
X92736952Y-131153523D01*
X92784571Y-131105904D01*
X92879809Y-131058285D01*
X93117904Y-131058285D01*
X93213142Y-131105904D01*
X93260761Y-131153523D01*
X93308380Y-131248761D01*
X93308380Y-131486857D01*
X93260761Y-131582095D01*
X93213142Y-131629714D01*
%TO.C,C6*%
X92991142Y-117692666D02*
X93038761Y-117740285D01*
X93086380Y-117883142D01*
X93086380Y-117978380D01*
X93038761Y-118121238D01*
X92943523Y-118216476D01*
X92848285Y-118264095D01*
X92657809Y-118311714D01*
X92514952Y-118311714D01*
X92324476Y-118264095D01*
X92229238Y-118216476D01*
X92134000Y-118121238D01*
X92086380Y-117978380D01*
X92086380Y-117883142D01*
X92134000Y-117740285D01*
X92181619Y-117692666D01*
X92086380Y-116835523D02*
X92086380Y-117026000D01*
X92134000Y-117121238D01*
X92181619Y-117168857D01*
X92324476Y-117264095D01*
X92514952Y-117311714D01*
X92895904Y-117311714D01*
X92991142Y-117264095D01*
X93038761Y-117216476D01*
X93086380Y-117121238D01*
X93086380Y-116930761D01*
X93038761Y-116835523D01*
X92991142Y-116787904D01*
X92895904Y-116740285D01*
X92657809Y-116740285D01*
X92562571Y-116787904D01*
X92514952Y-116835523D01*
X92467333Y-116930761D01*
X92467333Y-117121238D01*
X92514952Y-117216476D01*
X92562571Y-117264095D01*
X92657809Y-117311714D01*
%TO.C,C7*%
X112013142Y-120210666D02*
X112060761Y-120258285D01*
X112108380Y-120401142D01*
X112108380Y-120496380D01*
X112060761Y-120639238D01*
X111965523Y-120734476D01*
X111870285Y-120782095D01*
X111679809Y-120829714D01*
X111536952Y-120829714D01*
X111346476Y-120782095D01*
X111251238Y-120734476D01*
X111156000Y-120639238D01*
X111108380Y-120496380D01*
X111108380Y-120401142D01*
X111156000Y-120258285D01*
X111203619Y-120210666D01*
X111108380Y-119877333D02*
X111108380Y-119210666D01*
X112108380Y-119639238D01*
%TO.C,C8*%
X99325333Y-107215142D02*
X99277714Y-107262761D01*
X99134857Y-107310380D01*
X99039619Y-107310380D01*
X98896761Y-107262761D01*
X98801523Y-107167523D01*
X98753904Y-107072285D01*
X98706285Y-106881809D01*
X98706285Y-106738952D01*
X98753904Y-106548476D01*
X98801523Y-106453238D01*
X98896761Y-106358000D01*
X99039619Y-106310380D01*
X99134857Y-106310380D01*
X99277714Y-106358000D01*
X99325333Y-106405619D01*
X99896761Y-106738952D02*
X99801523Y-106691333D01*
X99753904Y-106643714D01*
X99706285Y-106548476D01*
X99706285Y-106500857D01*
X99753904Y-106405619D01*
X99801523Y-106358000D01*
X99896761Y-106310380D01*
X100087238Y-106310380D01*
X100182476Y-106358000D01*
X100230095Y-106405619D01*
X100277714Y-106500857D01*
X100277714Y-106548476D01*
X100230095Y-106643714D01*
X100182476Y-106691333D01*
X100087238Y-106738952D01*
X99896761Y-106738952D01*
X99801523Y-106786571D01*
X99753904Y-106834190D01*
X99706285Y-106929428D01*
X99706285Y-107119904D01*
X99753904Y-107215142D01*
X99801523Y-107262761D01*
X99896761Y-107310380D01*
X100087238Y-107310380D01*
X100182476Y-107262761D01*
X100230095Y-107215142D01*
X100277714Y-107119904D01*
X100277714Y-106929428D01*
X100230095Y-106834190D01*
X100182476Y-106786571D01*
X100087238Y-106738952D01*
%TO.C,C9*%
X114489333Y-134551142D02*
X114441714Y-134598761D01*
X114298857Y-134646380D01*
X114203619Y-134646380D01*
X114060761Y-134598761D01*
X113965523Y-134503523D01*
X113917904Y-134408285D01*
X113870285Y-134217809D01*
X113870285Y-134074952D01*
X113917904Y-133884476D01*
X113965523Y-133789238D01*
X114060761Y-133694000D01*
X114203619Y-133646380D01*
X114298857Y-133646380D01*
X114441714Y-133694000D01*
X114489333Y-133741619D01*
X114965523Y-134646380D02*
X115156000Y-134646380D01*
X115251238Y-134598761D01*
X115298857Y-134551142D01*
X115394095Y-134408285D01*
X115441714Y-134217809D01*
X115441714Y-133836857D01*
X115394095Y-133741619D01*
X115346476Y-133694000D01*
X115251238Y-133646380D01*
X115060761Y-133646380D01*
X114965523Y-133694000D01*
X114917904Y-133741619D01*
X114870285Y-133836857D01*
X114870285Y-134074952D01*
X114917904Y-134170190D01*
X114965523Y-134217809D01*
X115060761Y-134265428D01*
X115251238Y-134265428D01*
X115346476Y-134217809D01*
X115394095Y-134170190D01*
X115441714Y-134074952D01*
%TO.C,C10*%
X95039142Y-114199142D02*
X94991523Y-114246761D01*
X94848666Y-114294380D01*
X94753428Y-114294380D01*
X94610571Y-114246761D01*
X94515333Y-114151523D01*
X94467714Y-114056285D01*
X94420095Y-113865809D01*
X94420095Y-113722952D01*
X94467714Y-113532476D01*
X94515333Y-113437238D01*
X94610571Y-113342000D01*
X94753428Y-113294380D01*
X94848666Y-113294380D01*
X94991523Y-113342000D01*
X95039142Y-113389619D01*
X95991523Y-114294380D02*
X95420095Y-114294380D01*
X95705809Y-114294380D02*
X95705809Y-113294380D01*
X95610571Y-113437238D01*
X95515333Y-113532476D01*
X95420095Y-113580095D01*
X96610571Y-113294380D02*
X96705809Y-113294380D01*
X96801047Y-113342000D01*
X96848666Y-113389619D01*
X96896285Y-113484857D01*
X96943904Y-113675333D01*
X96943904Y-113913428D01*
X96896285Y-114103904D01*
X96848666Y-114199142D01*
X96801047Y-114246761D01*
X96705809Y-114294380D01*
X96610571Y-114294380D01*
X96515333Y-114246761D01*
X96467714Y-114199142D01*
X96420095Y-114103904D01*
X96372476Y-113913428D01*
X96372476Y-113675333D01*
X96420095Y-113484857D01*
X96467714Y-113389619D01*
X96515333Y-113342000D01*
X96610571Y-113294380D01*
%TO.C,C11*%
X100413142Y-128801142D02*
X100365523Y-128848761D01*
X100222666Y-128896380D01*
X100127428Y-128896380D01*
X99984571Y-128848761D01*
X99889333Y-128753523D01*
X99841714Y-128658285D01*
X99794095Y-128467809D01*
X99794095Y-128324952D01*
X99841714Y-128134476D01*
X99889333Y-128039238D01*
X99984571Y-127944000D01*
X100127428Y-127896380D01*
X100222666Y-127896380D01*
X100365523Y-127944000D01*
X100413142Y-127991619D01*
X101365523Y-128896380D02*
X100794095Y-128896380D01*
X101079809Y-128896380D02*
X101079809Y-127896380D01*
X100984571Y-128039238D01*
X100889333Y-128134476D01*
X100794095Y-128182095D01*
X102317904Y-128896380D02*
X101746476Y-128896380D01*
X102032190Y-128896380D02*
X102032190Y-127896380D01*
X101936952Y-128039238D01*
X101841714Y-128134476D01*
X101746476Y-128182095D01*
%TO.C,C12*%
X97213142Y-110601142D02*
X97165523Y-110648761D01*
X97022666Y-110696380D01*
X96927428Y-110696380D01*
X96784571Y-110648761D01*
X96689333Y-110553523D01*
X96641714Y-110458285D01*
X96594095Y-110267809D01*
X96594095Y-110124952D01*
X96641714Y-109934476D01*
X96689333Y-109839238D01*
X96784571Y-109744000D01*
X96927428Y-109696380D01*
X97022666Y-109696380D01*
X97165523Y-109744000D01*
X97213142Y-109791619D01*
X98165523Y-110696380D02*
X97594095Y-110696380D01*
X97879809Y-110696380D02*
X97879809Y-109696380D01*
X97784571Y-109839238D01*
X97689333Y-109934476D01*
X97594095Y-109982095D01*
X98546476Y-109791619D02*
X98594095Y-109744000D01*
X98689333Y-109696380D01*
X98927428Y-109696380D01*
X99022666Y-109744000D01*
X99070285Y-109791619D01*
X99117904Y-109886857D01*
X99117904Y-109982095D01*
X99070285Y-110124952D01*
X98498857Y-110696380D01*
X99117904Y-110696380D01*
%TD*%
M02*
