%TF.GenerationSoftware,KiCad,Pcbnew,(5.0.0)*%
%TF.CreationDate,2020-03-24T12:13:02+01:00*%
%TF.ProjectId,Schaltplan_Modul3,536368616C74706C616E5F4D6F64756C,rev?*%
%TF.SameCoordinates,Original*%
%TF.FileFunction,Legend,Bot*%
%TF.FilePolarity,Positive*%
%FSLAX46Y46*%
G04 Gerber Fmt 4.6, Leading zero omitted, Abs format (unit mm)*
G04 Created by KiCad (PCBNEW (5.0.0)) date 03/24/20 12:13:02*
%MOMM*%
%LPD*%
G01*
G04 APERTURE LIST*
%ADD10C,0.100000*%
%ADD11C,0.150000*%
G04 APERTURE END LIST*
D10*
X94856000Y-142720000D02*
G75*
G03X94856000Y-142720000I-1000000J0D01*
G01*
X188932000Y-142720000D02*
G75*
G03X188932000Y-142720000I-1000000J0D01*
G01*
X188932000Y-48644000D02*
G75*
G03X188932000Y-48644000I-1000000J0D01*
G01*
X94856000Y-48644000D02*
G75*
G03X94856000Y-48644000I-1000000J0D01*
G01*
X190856000Y-45644000D02*
X190856000Y-145644000D01*
X90856000Y-45644000D02*
X90856000Y-145644000D01*
X90856000Y-145644000D02*
X190856000Y-145644000D01*
X90856000Y-45644000D02*
X190856000Y-45644000D01*
D11*
%TO.C,J6*%
X139656000Y-85694000D02*
X139656000Y-104294000D01*
X157156000Y-104294000D02*
X139656000Y-104294000D01*
X157156000Y-85694000D02*
X157156000Y-104294000D01*
X139656000Y-85694000D02*
X157156000Y-85694000D01*
%TO.C,J1*%
X119166000Y-85744000D02*
X131766000Y-85744000D01*
X131766000Y-85744000D02*
X131766000Y-104344000D01*
X131766000Y-104344000D02*
X119166000Y-104344000D01*
X119166000Y-85744000D02*
X119166000Y-104344000D01*
%TO.C,TP2*%
X121956000Y-70644000D02*
G75*
G03X121956000Y-70644000I-6100000J0D01*
G01*
%TO.C,TP6*%
X106956000Y-70644000D02*
G75*
G03X106956000Y-70644000I-6100000J0D01*
G01*
%TO.C,TP10*%
X157119600Y-55847200D02*
G75*
G03X157119600Y-55847200I-6100000J0D01*
G01*
%TO.C,TP7*%
X106956000Y-55644000D02*
G75*
G03X106956000Y-55644000I-6100000J0D01*
G01*
%TO.C,TP3*%
X179430400Y-70644000D02*
G75*
G03X179430400Y-70644000I-6100000J0D01*
G01*
%TO.C,TP5*%
X186930400Y-55644000D02*
G75*
G03X186930400Y-55644000I-6100000J0D01*
G01*
%TO.C,TP8*%
X149603200Y-70829400D02*
G75*
G03X149603200Y-70829400I-6100000J0D01*
G01*
%TO.C,TP1*%
X121956000Y-55644000D02*
G75*
G03X121956000Y-55644000I-6100000J0D01*
G01*
%TO.C,TP9*%
X142103200Y-55829400D02*
G75*
G03X142103200Y-55829400I-6100000J0D01*
G01*
%TO.C,J4*%
X165056000Y-85744000D02*
X165056000Y-104344000D01*
X182556000Y-104344000D02*
X165056000Y-104344000D01*
X182556000Y-85744000D02*
X182556000Y-104344000D01*
X165056000Y-85744000D02*
X182556000Y-85744000D01*
%TO.C,J5*%
X98556000Y-85744000D02*
X111156000Y-85744000D01*
X111156000Y-85744000D02*
X111156000Y-104344000D01*
X111156000Y-104344000D02*
X98556000Y-104344000D01*
X98556000Y-85744000D02*
X98556000Y-104344000D01*
%TO.C,TP4*%
X171930400Y-55644000D02*
G75*
G03X171930400Y-55644000I-6100000J0D01*
G01*
%TO.C,SW2*%
X166947666Y-120691001D02*
G75*
G03X166947666Y-120691001I-5650000J0D01*
G01*
%TO.C,SW1*%
X126064333Y-120691001D02*
G75*
G03X126064333Y-120691001I-5650000J0D01*
G01*
%TD*%
%TO.C,J6*%
X156709333Y-82786380D02*
X156709333Y-83500666D01*
X156756952Y-83643523D01*
X156852190Y-83738761D01*
X156995047Y-83786380D01*
X157090285Y-83786380D01*
X155804571Y-82786380D02*
X155995047Y-82786380D01*
X156090285Y-82834000D01*
X156137904Y-82881619D01*
X156233142Y-83024476D01*
X156280761Y-83214952D01*
X156280761Y-83595904D01*
X156233142Y-83691142D01*
X156185523Y-83738761D01*
X156090285Y-83786380D01*
X155899809Y-83786380D01*
X155804571Y-83738761D01*
X155756952Y-83691142D01*
X155709333Y-83595904D01*
X155709333Y-83357809D01*
X155756952Y-83262571D01*
X155804571Y-83214952D01*
X155899809Y-83167333D01*
X156090285Y-83167333D01*
X156185523Y-83214952D01*
X156233142Y-83262571D01*
X156280761Y-83357809D01*
%TO.C,J1*%
X124839333Y-83796380D02*
X124839333Y-84510666D01*
X124886952Y-84653523D01*
X124982190Y-84748761D01*
X125125047Y-84796380D01*
X125220285Y-84796380D01*
X123839333Y-84796380D02*
X124410761Y-84796380D01*
X124125047Y-84796380D02*
X124125047Y-83796380D01*
X124220285Y-83939238D01*
X124315523Y-84034476D01*
X124410761Y-84082095D01*
%TO.C,TP2*%
X117347904Y-72126380D02*
X116776476Y-72126380D01*
X117062190Y-73126380D02*
X117062190Y-72126380D01*
X116443142Y-73126380D02*
X116443142Y-72126380D01*
X116062190Y-72126380D01*
X115966952Y-72174000D01*
X115919333Y-72221619D01*
X115871714Y-72316857D01*
X115871714Y-72459714D01*
X115919333Y-72554952D01*
X115966952Y-72602571D01*
X116062190Y-72650190D01*
X116443142Y-72650190D01*
X115490761Y-72221619D02*
X115443142Y-72174000D01*
X115347904Y-72126380D01*
X115109809Y-72126380D01*
X115014571Y-72174000D01*
X114966952Y-72221619D01*
X114919333Y-72316857D01*
X114919333Y-72412095D01*
X114966952Y-72554952D01*
X115538380Y-73126380D01*
X114919333Y-73126380D01*
%TO.C,TP6*%
X102347904Y-72126380D02*
X101776476Y-72126380D01*
X102062190Y-73126380D02*
X102062190Y-72126380D01*
X101443142Y-73126380D02*
X101443142Y-72126380D01*
X101062190Y-72126380D01*
X100966952Y-72174000D01*
X100919333Y-72221619D01*
X100871714Y-72316857D01*
X100871714Y-72459714D01*
X100919333Y-72554952D01*
X100966952Y-72602571D01*
X101062190Y-72650190D01*
X101443142Y-72650190D01*
X100014571Y-72126380D02*
X100205047Y-72126380D01*
X100300285Y-72174000D01*
X100347904Y-72221619D01*
X100443142Y-72364476D01*
X100490761Y-72554952D01*
X100490761Y-72935904D01*
X100443142Y-73031142D01*
X100395523Y-73078761D01*
X100300285Y-73126380D01*
X100109809Y-73126380D01*
X100014571Y-73078761D01*
X99966952Y-73031142D01*
X99919333Y-72935904D01*
X99919333Y-72697809D01*
X99966952Y-72602571D01*
X100014571Y-72554952D01*
X100109809Y-72507333D01*
X100300285Y-72507333D01*
X100395523Y-72554952D01*
X100443142Y-72602571D01*
X100490761Y-72697809D01*
%TO.C,TP10*%
X152987695Y-57329580D02*
X152416266Y-57329580D01*
X152701980Y-58329580D02*
X152701980Y-57329580D01*
X152082933Y-58329580D02*
X152082933Y-57329580D01*
X151701980Y-57329580D01*
X151606742Y-57377200D01*
X151559123Y-57424819D01*
X151511504Y-57520057D01*
X151511504Y-57662914D01*
X151559123Y-57758152D01*
X151606742Y-57805771D01*
X151701980Y-57853390D01*
X152082933Y-57853390D01*
X150559123Y-58329580D02*
X151130552Y-58329580D01*
X150844838Y-58329580D02*
X150844838Y-57329580D01*
X150940076Y-57472438D01*
X151035314Y-57567676D01*
X151130552Y-57615295D01*
X149940076Y-57329580D02*
X149844838Y-57329580D01*
X149749600Y-57377200D01*
X149701980Y-57424819D01*
X149654361Y-57520057D01*
X149606742Y-57710533D01*
X149606742Y-57948628D01*
X149654361Y-58139104D01*
X149701980Y-58234342D01*
X149749600Y-58281961D01*
X149844838Y-58329580D01*
X149940076Y-58329580D01*
X150035314Y-58281961D01*
X150082933Y-58234342D01*
X150130552Y-58139104D01*
X150178171Y-57948628D01*
X150178171Y-57710533D01*
X150130552Y-57520057D01*
X150082933Y-57424819D01*
X150035314Y-57377200D01*
X149940076Y-57329580D01*
%TO.C,TP7*%
X102347904Y-57126380D02*
X101776476Y-57126380D01*
X102062190Y-58126380D02*
X102062190Y-57126380D01*
X101443142Y-58126380D02*
X101443142Y-57126380D01*
X101062190Y-57126380D01*
X100966952Y-57174000D01*
X100919333Y-57221619D01*
X100871714Y-57316857D01*
X100871714Y-57459714D01*
X100919333Y-57554952D01*
X100966952Y-57602571D01*
X101062190Y-57650190D01*
X101443142Y-57650190D01*
X100538380Y-57126380D02*
X99871714Y-57126380D01*
X100300285Y-58126380D01*
%TO.C,TP3*%
X174822304Y-72126380D02*
X174250876Y-72126380D01*
X174536590Y-73126380D02*
X174536590Y-72126380D01*
X173917542Y-73126380D02*
X173917542Y-72126380D01*
X173536590Y-72126380D01*
X173441352Y-72174000D01*
X173393733Y-72221619D01*
X173346114Y-72316857D01*
X173346114Y-72459714D01*
X173393733Y-72554952D01*
X173441352Y-72602571D01*
X173536590Y-72650190D01*
X173917542Y-72650190D01*
X173012780Y-72126380D02*
X172393733Y-72126380D01*
X172727066Y-72507333D01*
X172584209Y-72507333D01*
X172488971Y-72554952D01*
X172441352Y-72602571D01*
X172393733Y-72697809D01*
X172393733Y-72935904D01*
X172441352Y-73031142D01*
X172488971Y-73078761D01*
X172584209Y-73126380D01*
X172869923Y-73126380D01*
X172965161Y-73078761D01*
X173012780Y-73031142D01*
%TO.C,TP5*%
X182322304Y-57126380D02*
X181750876Y-57126380D01*
X182036590Y-58126380D02*
X182036590Y-57126380D01*
X181417542Y-58126380D02*
X181417542Y-57126380D01*
X181036590Y-57126380D01*
X180941352Y-57174000D01*
X180893733Y-57221619D01*
X180846114Y-57316857D01*
X180846114Y-57459714D01*
X180893733Y-57554952D01*
X180941352Y-57602571D01*
X181036590Y-57650190D01*
X181417542Y-57650190D01*
X179941352Y-57126380D02*
X180417542Y-57126380D01*
X180465161Y-57602571D01*
X180417542Y-57554952D01*
X180322304Y-57507333D01*
X180084209Y-57507333D01*
X179988971Y-57554952D01*
X179941352Y-57602571D01*
X179893733Y-57697809D01*
X179893733Y-57935904D01*
X179941352Y-58031142D01*
X179988971Y-58078761D01*
X180084209Y-58126380D01*
X180322304Y-58126380D01*
X180417542Y-58078761D01*
X180465161Y-58031142D01*
%TO.C,TP8*%
X144995104Y-72311780D02*
X144423676Y-72311780D01*
X144709390Y-73311780D02*
X144709390Y-72311780D01*
X144090342Y-73311780D02*
X144090342Y-72311780D01*
X143709390Y-72311780D01*
X143614152Y-72359400D01*
X143566533Y-72407019D01*
X143518914Y-72502257D01*
X143518914Y-72645114D01*
X143566533Y-72740352D01*
X143614152Y-72787971D01*
X143709390Y-72835590D01*
X144090342Y-72835590D01*
X142947485Y-72740352D02*
X143042723Y-72692733D01*
X143090342Y-72645114D01*
X143137961Y-72549876D01*
X143137961Y-72502257D01*
X143090342Y-72407019D01*
X143042723Y-72359400D01*
X142947485Y-72311780D01*
X142757009Y-72311780D01*
X142661771Y-72359400D01*
X142614152Y-72407019D01*
X142566533Y-72502257D01*
X142566533Y-72549876D01*
X142614152Y-72645114D01*
X142661771Y-72692733D01*
X142757009Y-72740352D01*
X142947485Y-72740352D01*
X143042723Y-72787971D01*
X143090342Y-72835590D01*
X143137961Y-72930828D01*
X143137961Y-73121304D01*
X143090342Y-73216542D01*
X143042723Y-73264161D01*
X142947485Y-73311780D01*
X142757009Y-73311780D01*
X142661771Y-73264161D01*
X142614152Y-73216542D01*
X142566533Y-73121304D01*
X142566533Y-72930828D01*
X142614152Y-72835590D01*
X142661771Y-72787971D01*
X142757009Y-72740352D01*
%TO.C,TP1*%
X117347904Y-57126380D02*
X116776476Y-57126380D01*
X117062190Y-58126380D02*
X117062190Y-57126380D01*
X116443142Y-58126380D02*
X116443142Y-57126380D01*
X116062190Y-57126380D01*
X115966952Y-57174000D01*
X115919333Y-57221619D01*
X115871714Y-57316857D01*
X115871714Y-57459714D01*
X115919333Y-57554952D01*
X115966952Y-57602571D01*
X116062190Y-57650190D01*
X116443142Y-57650190D01*
X114919333Y-58126380D02*
X115490761Y-58126380D01*
X115205047Y-58126380D02*
X115205047Y-57126380D01*
X115300285Y-57269238D01*
X115395523Y-57364476D01*
X115490761Y-57412095D01*
%TO.C,TP9*%
X137495104Y-57311780D02*
X136923676Y-57311780D01*
X137209390Y-58311780D02*
X137209390Y-57311780D01*
X136590342Y-58311780D02*
X136590342Y-57311780D01*
X136209390Y-57311780D01*
X136114152Y-57359400D01*
X136066533Y-57407019D01*
X136018914Y-57502257D01*
X136018914Y-57645114D01*
X136066533Y-57740352D01*
X136114152Y-57787971D01*
X136209390Y-57835590D01*
X136590342Y-57835590D01*
X135542723Y-58311780D02*
X135352247Y-58311780D01*
X135257009Y-58264161D01*
X135209390Y-58216542D01*
X135114152Y-58073685D01*
X135066533Y-57883209D01*
X135066533Y-57502257D01*
X135114152Y-57407019D01*
X135161771Y-57359400D01*
X135257009Y-57311780D01*
X135447485Y-57311780D01*
X135542723Y-57359400D01*
X135590342Y-57407019D01*
X135637961Y-57502257D01*
X135637961Y-57740352D01*
X135590342Y-57835590D01*
X135542723Y-57883209D01*
X135447485Y-57930828D01*
X135257009Y-57930828D01*
X135161771Y-57883209D01*
X135114152Y-57835590D01*
X135066533Y-57740352D01*
%TO.C,J4*%
X172089333Y-84096380D02*
X172089333Y-84810666D01*
X172136952Y-84953523D01*
X172232190Y-85048761D01*
X172375047Y-85096380D01*
X172470285Y-85096380D01*
X171184571Y-84429714D02*
X171184571Y-85096380D01*
X171422666Y-84048761D02*
X171660761Y-84763047D01*
X171041714Y-84763047D01*
%TO.C,J5*%
X104339333Y-83996380D02*
X104339333Y-84710666D01*
X104386952Y-84853523D01*
X104482190Y-84948761D01*
X104625047Y-84996380D01*
X104720285Y-84996380D01*
X103386952Y-83996380D02*
X103863142Y-83996380D01*
X103910761Y-84472571D01*
X103863142Y-84424952D01*
X103767904Y-84377333D01*
X103529809Y-84377333D01*
X103434571Y-84424952D01*
X103386952Y-84472571D01*
X103339333Y-84567809D01*
X103339333Y-84805904D01*
X103386952Y-84901142D01*
X103434571Y-84948761D01*
X103529809Y-84996380D01*
X103767904Y-84996380D01*
X103863142Y-84948761D01*
X103910761Y-84901142D01*
%TO.C,TP4*%
X167322304Y-57126380D02*
X166750876Y-57126380D01*
X167036590Y-58126380D02*
X167036590Y-57126380D01*
X166417542Y-58126380D02*
X166417542Y-57126380D01*
X166036590Y-57126380D01*
X165941352Y-57174000D01*
X165893733Y-57221619D01*
X165846114Y-57316857D01*
X165846114Y-57459714D01*
X165893733Y-57554952D01*
X165941352Y-57602571D01*
X166036590Y-57650190D01*
X166417542Y-57650190D01*
X164988971Y-57459714D02*
X164988971Y-58126380D01*
X165227066Y-57078761D02*
X165465161Y-57793047D01*
X164846114Y-57793047D01*
%TO.C,SW2*%
X162660999Y-116835762D02*
X162518142Y-116883381D01*
X162280046Y-116883381D01*
X162184808Y-116835762D01*
X162137189Y-116788143D01*
X162089570Y-116692905D01*
X162089570Y-116597667D01*
X162137189Y-116502429D01*
X162184808Y-116454810D01*
X162280046Y-116407191D01*
X162470523Y-116359572D01*
X162565761Y-116311953D01*
X162613380Y-116264334D01*
X162660999Y-116169096D01*
X162660999Y-116073858D01*
X162613380Y-115978620D01*
X162565761Y-115931001D01*
X162470523Y-115883381D01*
X162232427Y-115883381D01*
X162089570Y-115931001D01*
X161756237Y-115883381D02*
X161518142Y-116883381D01*
X161327666Y-116169096D01*
X161137189Y-116883381D01*
X160899094Y-115883381D01*
X160565761Y-115978620D02*
X160518142Y-115931001D01*
X160422904Y-115883381D01*
X160184808Y-115883381D01*
X160089570Y-115931001D01*
X160041951Y-115978620D01*
X159994332Y-116073858D01*
X159994332Y-116169096D01*
X160041951Y-116311953D01*
X160613380Y-116883381D01*
X159994332Y-116883381D01*
%TO.C,SW1*%
X121777666Y-116835762D02*
X121634809Y-116883381D01*
X121396713Y-116883381D01*
X121301475Y-116835762D01*
X121253856Y-116788143D01*
X121206237Y-116692905D01*
X121206237Y-116597667D01*
X121253856Y-116502429D01*
X121301475Y-116454810D01*
X121396713Y-116407191D01*
X121587190Y-116359572D01*
X121682428Y-116311953D01*
X121730047Y-116264334D01*
X121777666Y-116169096D01*
X121777666Y-116073858D01*
X121730047Y-115978620D01*
X121682428Y-115931001D01*
X121587190Y-115883381D01*
X121349094Y-115883381D01*
X121206237Y-115931001D01*
X120872904Y-115883381D02*
X120634809Y-116883381D01*
X120444333Y-116169096D01*
X120253856Y-116883381D01*
X120015761Y-115883381D01*
X119110999Y-116883381D02*
X119682428Y-116883381D01*
X119396713Y-116883381D02*
X119396713Y-115883381D01*
X119491952Y-116026239D01*
X119587190Y-116121477D01*
X119682428Y-116169096D01*
%TD*%
M02*
