%TF.GenerationSoftware,KiCad,Pcbnew,(5.0.0)*%
%TF.CreationDate,2020-03-24T12:13:02+01:00*%
%TF.ProjectId,Schaltplan_Modul3,536368616C74706C616E5F4D6F64756C,rev?*%
%TF.SameCoordinates,Original*%
%TF.FileFunction,Soldermask,Bot*%
%TF.FilePolarity,Negative*%
%FSLAX46Y46*%
G04 Gerber Fmt 4.6, Leading zero omitted, Abs format (unit mm)*
G04 Created by KiCad (PCBNEW (5.0.0)) date 03/24/20 12:13:02*
%MOMM*%
%LPD*%
G01*
G04 APERTURE LIST*
%ADD10C,0.100000*%
%ADD11C,2.500000*%
%ADD12R,8.000000X2.500000*%
%ADD13R,1.650000X1.650000*%
%ADD14C,1.650000*%
%ADD15C,3.000000*%
%ADD16C,4.000000*%
%ADD17C,1.600000*%
%ADD18R,1.600000X1.600000*%
G04 APERTURE END LIST*
D10*
X94856000Y-142720000D02*
G75*
G03X94856000Y-142720000I-1000000J0D01*
G01*
X188932000Y-142720000D02*
G75*
G03X188932000Y-142720000I-1000000J0D01*
G01*
X188932000Y-48644000D02*
G75*
G03X188932000Y-48644000I-1000000J0D01*
G01*
X94856000Y-48644000D02*
G75*
G03X94856000Y-48644000I-1000000J0D01*
G01*
X190856000Y-45644000D02*
X190856000Y-145644000D01*
X90856000Y-45644000D02*
X90856000Y-145644000D01*
X90856000Y-145644000D02*
X190856000Y-145644000D01*
X90856000Y-45644000D02*
X190856000Y-45644000D01*
D11*
%TO.C,J6*%
X144646000Y-95194000D03*
X144646000Y-90194000D03*
X149646000Y-95194000D03*
X154646000Y-95194000D03*
X149646000Y-90194000D03*
X154646000Y-90094000D03*
%TD*%
%TO.C,J1*%
X129256000Y-89744000D03*
X124256000Y-89744000D03*
X129256000Y-95744000D03*
X124256000Y-95744000D03*
%TD*%
D12*
%TO.C,TP2*%
X115856000Y-70644000D03*
%TD*%
%TO.C,TP6*%
X100856000Y-70644000D03*
%TD*%
%TO.C,TP10*%
X151019600Y-55847200D03*
%TD*%
%TO.C,TP7*%
X100856000Y-55644000D03*
%TD*%
%TO.C,TP3*%
X173330400Y-70644000D03*
%TD*%
%TO.C,TP5*%
X180830400Y-55644000D03*
%TD*%
%TO.C,TP8*%
X143503200Y-70829400D03*
%TD*%
%TO.C,TP1*%
X115856000Y-55644000D03*
%TD*%
%TO.C,TP9*%
X136003200Y-55829400D03*
%TD*%
D11*
%TO.C,J4*%
X170046000Y-95244000D03*
X170046000Y-90244000D03*
X175046000Y-95244000D03*
X180046000Y-95244000D03*
X175046000Y-90244000D03*
X180046000Y-90144000D03*
%TD*%
D13*
%TO.C,J2*%
X157404000Y-138608000D03*
D14*
X157404000Y-141148000D03*
X154864000Y-138608000D03*
X154864000Y-141148000D03*
X152324000Y-138608000D03*
X152324000Y-141148000D03*
X149784000Y-138608000D03*
X149784000Y-141148000D03*
X147244000Y-138608000D03*
X147244000Y-141148000D03*
%TD*%
D11*
%TO.C,J5*%
X108646000Y-89744000D03*
X103646000Y-89744000D03*
X108646000Y-95744000D03*
X103646000Y-95744000D03*
%TD*%
D12*
%TO.C,TP4*%
X165830400Y-55644000D03*
%TD*%
D15*
%TO.C,K2*%
X141656000Y-106604000D03*
X147606000Y-108554000D03*
X147656000Y-120804000D03*
X135606000Y-120754000D03*
X135606000Y-108554000D03*
%TD*%
%TO.C,K1*%
X180264000Y-106604000D03*
X186214000Y-108554000D03*
X186264000Y-120804000D03*
X174214000Y-120754000D03*
X174214000Y-108554000D03*
%TD*%
D16*
%TO.C,SW2*%
X158297666Y-119191001D03*
X164297666Y-119151001D03*
%TD*%
D13*
%TO.C,J3*%
X135560000Y-138608000D03*
D14*
X135560000Y-141148000D03*
X133020000Y-138608000D03*
X133020000Y-141148000D03*
X130480000Y-138608000D03*
X130480000Y-141148000D03*
X127940000Y-138608000D03*
X127940000Y-141148000D03*
X125400000Y-138608000D03*
X125400000Y-141148000D03*
%TD*%
D17*
%TO.C,C13*%
X115970000Y-139644000D03*
D18*
X113970000Y-139644000D03*
%TD*%
D17*
%TO.C,C14*%
X95174000Y-105620000D03*
D18*
X95174000Y-107620000D03*
%TD*%
D16*
%TO.C,SW1*%
X117414333Y-119191001D03*
X123414333Y-119151001D03*
%TD*%
M02*
