M48
;DRILL file {KiCad (5.0.0)} date 03/24/20 12:13:03
;FORMAT={-:-/ absolute / inch / decimal}
FMAT,2
INCH,TZ
T1C0.0157
T2C0.0315
T3C0.0394
T4C0.0433
T5C0.0472
T6C0.0551
T7C0.0591
%
G90
G05
M72
T1
X3.6085Y-5.175
X3.647Y-4.837
X3.6585Y-5.4033
X3.737Y-4.987
X3.9539Y-4.2133
X3.9539Y-4.5608
X3.9707Y-4.1356
X4.018Y-4.1356
X4.0652Y-4.1356
X4.1046Y-4.9072
X4.1203Y-5.4033
X4.2514Y-4.2108
X4.2788Y-4.9397
X4.2935Y-4.2104
X4.3329Y-5.4663
X4.3369Y-4.2104
X4.392Y-5.0923
X4.3959Y-4.797
X4.477Y-5.287
X4.4904Y-4.6238
X4.4983Y-3.795
X4.4983Y-3.8301
X4.4983Y-3.8647
X4.5898Y-4.4899
X4.6006Y-4.2301
X4.6006Y-4.2694
X4.6006Y-4.3088
X4.617Y-5.017
X4.677Y-5.697
X4.857Y-5.017
X5.0337Y-5.6553
X5.1282Y-4.2301
X5.1282Y-4.2694
X5.1282Y-4.3088
X5.237Y-5.3805
X5.238Y-5.262
X5.297Y-5.017
X5.3014Y-5.1828
X5.337Y-5.3797
X5.3802Y-5.175
X5.4471Y-5.3761
X5.5376Y-5.1564
X5.8597Y-5.3009
X5.8605Y-5.1742
X6.0967Y-5.2419
X6.097Y-5.3564
X6.1557Y-5.1238
X6.1951Y-5.2773
X6.237Y-5.017
X6.3723Y-5.0647
X6.3723Y-5.234
X6.477Y-5.017
X6.877Y-5.017
X7.1176Y-5.1564
T2
X3.747Y-4.1583
X3.747Y-4.237
X4.487Y-5.4978
X4.5657Y-5.4978
T4
X5.797Y-5.457
X5.797Y-5.557
X5.897Y-5.457
X5.897Y-5.557
X5.997Y-5.457
X5.997Y-5.557
X6.097Y-5.457
X6.097Y-5.557
X6.197Y-5.457
X6.197Y-5.557
X4.937Y-5.457
X4.937Y-5.557
X5.037Y-5.457
X5.037Y-5.557
X5.137Y-5.457
X5.137Y-5.557
X5.237Y-5.457
X5.237Y-5.557
X5.337Y-5.457
X5.337Y-5.557
T6
X6.6947Y-3.5529
X6.6947Y-3.7498
X6.8916Y-3.5529
X6.8916Y-3.7498
X7.0884Y-3.549
X7.0884Y-3.7498
X5.6947Y-3.5509
X5.6947Y-3.7478
X5.8916Y-3.5509
X5.8916Y-3.7478
X6.0884Y-3.547
X6.0884Y-3.7478
X4.892Y-3.5332
X4.892Y-3.7694
X5.0888Y-3.5332
X5.0888Y-3.7694
X4.0806Y-3.5332
X4.0806Y-3.7694
X4.2774Y-3.5332
X4.2774Y-3.7694
T7
X6.8588Y-4.2738
X6.8588Y-4.7541
X7.097Y-4.197
X7.3313Y-4.2738
X7.3332Y-4.7561
X5.3388Y-4.2738
X5.3388Y-4.7541
X5.577Y-4.197
X5.8113Y-4.2738
X5.8132Y-4.7561
T3
X4.6226Y-4.6532G85X4.6226Y-4.7319
G05
X4.8588Y-4.6516G85X4.8588Y-4.7304
G05
X6.2322Y-4.6532G85X6.2322Y-4.7319
G05
X6.4684Y-4.6516G85X6.4684Y-4.7304
G05
T5
X3.8516Y-2.7813G85X4.0898Y-2.7813
G05
X7.0002Y-2.1907G85X7.2384Y-2.1907
G05
X4.4422Y-2.7813G85X4.6804Y-2.7813
G05
X4.4422Y-2.1907G85X4.6804Y-2.1907
G05
X6.7049Y-2.7813G85X6.9431Y-2.7813
G05
X5.5306Y-2.7886G85X5.7688Y-2.7886
G05
X5.8266Y-2.1987G85X6.0647Y-2.1987
G05
X5.2354Y-2.198G85X5.4736Y-2.198
G05
X6.4097Y-2.1907G85X6.6479Y-2.1907
G05
X3.8516Y-2.1907G85X4.0898Y-2.1907
G05
T0
M30
