%TF.GenerationSoftware,KiCad,Pcbnew,(5.0.0)*%
%TF.CreationDate,2020-03-23T14:28:17+01:00*%
%TF.ProjectId,Schaltplan_Modul4,536368616C74706C616E5F4D6F64756C,rev?*%
%TF.SameCoordinates,Original*%
%TF.FileFunction,Soldermask,Bot*%
%TF.FilePolarity,Negative*%
%FSLAX46Y46*%
G04 Gerber Fmt 4.6, Leading zero omitted, Abs format (unit mm)*
G04 Created by KiCad (PCBNEW (5.0.0)) date 03/23/20 14:28:17*
%MOMM*%
%LPD*%
G01*
G04 APERTURE LIST*
%ADD10C,0.200000*%
%ADD11C,0.150000*%
%ADD12C,1.530000*%
%ADD13R,0.350000X1.000000*%
%ADD14R,1.000000X0.350000*%
%ADD15R,0.650000X1.350000*%
%ADD16R,1.500000X0.270000*%
%ADD17C,1.500000*%
%ADD18C,0.400000*%
%ADD19R,1.650000X1.650000*%
%ADD20C,1.650000*%
G04 APERTURE END LIST*
D10*
X103500000Y-147576000D02*
G75*
G03X103500000Y-147576000I-1000000J0D01*
G01*
X198576000Y-147576000D02*
G75*
G03X198576000Y-147576000I-1000000J0D01*
G01*
X198576000Y-52500000D02*
G75*
G03X198576000Y-52500000I-1000000J0D01*
G01*
X103500000Y-52500000D02*
G75*
G03X103500000Y-52500000I-1000000J0D01*
G01*
X100000000Y-50000000D02*
X100000000Y-150000000D01*
X100000000Y-150000000D02*
X200000000Y-150000000D01*
X200000000Y-50000000D02*
X200000000Y-150000000D01*
X100000000Y-50000000D02*
X200000000Y-50000000D01*
D11*
%TO.C,AC1*%
G36*
X130795000Y-100210000D02*
X131805000Y-100205000D01*
X131805000Y-99755000D01*
X130795000Y-99760000D01*
X130795000Y-100210000D01*
G37*
G36*
X133705000Y-100205000D02*
X134735000Y-100210000D01*
X134735000Y-99760000D01*
X133705000Y-99755000D01*
X133705000Y-100205000D01*
G37*
G36*
X132475000Y-101990000D02*
X133025000Y-101990000D01*
X133030000Y-100980000D01*
X132480000Y-100980000D01*
X132475000Y-101990000D01*
G37*
G36*
X132485000Y-99010000D02*
X133035000Y-99010000D01*
X133035000Y-97980000D01*
X132485000Y-97980000D01*
X132485000Y-99010000D01*
G37*
G36*
X131975000Y-101990000D02*
X132525000Y-101990000D01*
X132530000Y-100980000D01*
X131980000Y-100980000D01*
X131975000Y-101990000D01*
G37*
G36*
X132985000Y-101990000D02*
X133535000Y-101990000D01*
X133530000Y-100980000D01*
X132980000Y-100980000D01*
X132985000Y-101990000D01*
G37*
G36*
X130795000Y-100710000D02*
X131805000Y-100705000D01*
X131805000Y-100255000D01*
X130795000Y-100260000D01*
X130795000Y-100710000D01*
G37*
G36*
X130795000Y-101200000D02*
X131805000Y-101205000D01*
X131805000Y-100755000D01*
X130795000Y-100750000D01*
X130795000Y-101200000D01*
G37*
G36*
X130795000Y-99700000D02*
X131805000Y-99705000D01*
X131805000Y-99255000D01*
X130795000Y-99250000D01*
X130795000Y-99700000D01*
G37*
G36*
X130795000Y-99200000D02*
X131805000Y-99205000D01*
X131805000Y-98755000D01*
X130795000Y-98750000D01*
X130795000Y-99200000D01*
G37*
G36*
X131975000Y-99010000D02*
X132525000Y-99010000D01*
X132525000Y-97970000D01*
X131975000Y-97970000D01*
X131975000Y-99010000D01*
G37*
G36*
X132985000Y-99010000D02*
X133535000Y-99010000D01*
X133525000Y-97970000D01*
X132975000Y-97970000D01*
X132985000Y-99010000D01*
G37*
G36*
X133705000Y-99705000D02*
X134735000Y-99710000D01*
X134735000Y-99260000D01*
X133705000Y-99255000D01*
X133705000Y-99705000D01*
G37*
G36*
X133705000Y-99205000D02*
X134735000Y-99210000D01*
X134735000Y-98760000D01*
X133705000Y-98755000D01*
X133705000Y-99205000D01*
G37*
G36*
X133705000Y-100705000D02*
X134735000Y-100700000D01*
X134735000Y-100250000D01*
X133705000Y-100255000D01*
X133705000Y-100705000D01*
G37*
G36*
X133705000Y-101205000D02*
X134725000Y-101210000D01*
X134725000Y-100760000D01*
X133705000Y-100755000D01*
X133705000Y-101205000D01*
G37*
%TD*%
D12*
%TO.C,J1*%
X146228000Y-79972000D03*
X153848000Y-79972000D03*
X151308000Y-79972000D03*
X148768000Y-79972000D03*
%TD*%
D13*
%TO.C,AC1*%
X132255000Y-98485000D03*
X132755000Y-98485000D03*
X133255000Y-98485000D03*
D14*
X134220000Y-98980000D03*
X134220000Y-99480000D03*
X134220000Y-99980000D03*
X134220000Y-100480000D03*
X134220000Y-100980000D03*
D13*
X133255000Y-101485000D03*
X132755000Y-101485000D03*
X132255000Y-101485000D03*
D14*
X131300000Y-100980000D03*
X131300000Y-100480000D03*
X131300000Y-99980000D03*
X131300000Y-99480000D03*
X131305000Y-98980000D03*
%TD*%
D15*
%TO.C,IC1*%
X167309999Y-99905920D03*
D16*
X168694999Y-100555920D03*
X168694999Y-99905920D03*
X168689999Y-99255920D03*
X165939999Y-99255920D03*
X165944999Y-99905920D03*
X165944999Y-100555920D03*
%TD*%
D11*
%TO.C,U1*%
G36*
X150519504Y-128801204D02*
X150543773Y-128804804D01*
X150567571Y-128810765D01*
X150590671Y-128819030D01*
X150612849Y-128829520D01*
X150633893Y-128842133D01*
X150653598Y-128856747D01*
X150671777Y-128873223D01*
X150688253Y-128891402D01*
X150702867Y-128911107D01*
X150715480Y-128932151D01*
X150725970Y-128954329D01*
X150734235Y-128977429D01*
X150740196Y-129001227D01*
X150743796Y-129025496D01*
X150745000Y-129050000D01*
X150745000Y-130950000D01*
X150743796Y-130974504D01*
X150740196Y-130998773D01*
X150734235Y-131022571D01*
X150725970Y-131045671D01*
X150715480Y-131067849D01*
X150702867Y-131088893D01*
X150688253Y-131108598D01*
X150671777Y-131126777D01*
X150653598Y-131143253D01*
X150633893Y-131157867D01*
X150612849Y-131170480D01*
X150590671Y-131180970D01*
X150567571Y-131189235D01*
X150543773Y-131195196D01*
X150519504Y-131198796D01*
X150495000Y-131200000D01*
X149495000Y-131200000D01*
X149470496Y-131198796D01*
X149446227Y-131195196D01*
X149422429Y-131189235D01*
X149399329Y-131180970D01*
X149377151Y-131170480D01*
X149356107Y-131157867D01*
X149336402Y-131143253D01*
X149318223Y-131126777D01*
X149301747Y-131108598D01*
X149287133Y-131088893D01*
X149274520Y-131067849D01*
X149264030Y-131045671D01*
X149255765Y-131022571D01*
X149249804Y-130998773D01*
X149246204Y-130974504D01*
X149245000Y-130950000D01*
X149245000Y-129050000D01*
X149246204Y-129025496D01*
X149249804Y-129001227D01*
X149255765Y-128977429D01*
X149264030Y-128954329D01*
X149274520Y-128932151D01*
X149287133Y-128911107D01*
X149301747Y-128891402D01*
X149318223Y-128873223D01*
X149336402Y-128856747D01*
X149356107Y-128842133D01*
X149377151Y-128829520D01*
X149399329Y-128819030D01*
X149422429Y-128810765D01*
X149446227Y-128804804D01*
X149470496Y-128801204D01*
X149495000Y-128800000D01*
X150495000Y-128800000D01*
X150519504Y-128801204D01*
X150519504Y-128801204D01*
G37*
D17*
X149995000Y-130000000D03*
D11*
G36*
X148884802Y-130800482D02*
X148894509Y-130801921D01*
X148904028Y-130804306D01*
X148913268Y-130807612D01*
X148922140Y-130811808D01*
X148930557Y-130816853D01*
X148938439Y-130822699D01*
X148945711Y-130829289D01*
X148952301Y-130836561D01*
X148958147Y-130844443D01*
X148963192Y-130852860D01*
X148967388Y-130861732D01*
X148970694Y-130870972D01*
X148973079Y-130880491D01*
X148974518Y-130890198D01*
X148975000Y-130900000D01*
X148975000Y-131100000D01*
X148974518Y-131109802D01*
X148973079Y-131119509D01*
X148970694Y-131129028D01*
X148967388Y-131138268D01*
X148963192Y-131147140D01*
X148958147Y-131155557D01*
X148952301Y-131163439D01*
X148945711Y-131170711D01*
X148938439Y-131177301D01*
X148930557Y-131183147D01*
X148922140Y-131188192D01*
X148913268Y-131192388D01*
X148904028Y-131195694D01*
X148894509Y-131198079D01*
X148884802Y-131199518D01*
X148875000Y-131200000D01*
X147575000Y-131200000D01*
X147565198Y-131199518D01*
X147555491Y-131198079D01*
X147545972Y-131195694D01*
X147536732Y-131192388D01*
X147527860Y-131188192D01*
X147519443Y-131183147D01*
X147511561Y-131177301D01*
X147504289Y-131170711D01*
X147497699Y-131163439D01*
X147491853Y-131155557D01*
X147486808Y-131147140D01*
X147482612Y-131138268D01*
X147479306Y-131129028D01*
X147476921Y-131119509D01*
X147475482Y-131109802D01*
X147475000Y-131100000D01*
X147475000Y-130900000D01*
X147475482Y-130890198D01*
X147476921Y-130880491D01*
X147479306Y-130870972D01*
X147482612Y-130861732D01*
X147486808Y-130852860D01*
X147491853Y-130844443D01*
X147497699Y-130836561D01*
X147504289Y-130829289D01*
X147511561Y-130822699D01*
X147519443Y-130816853D01*
X147527860Y-130811808D01*
X147536732Y-130807612D01*
X147545972Y-130804306D01*
X147555491Y-130801921D01*
X147565198Y-130800482D01*
X147575000Y-130800000D01*
X148875000Y-130800000D01*
X148884802Y-130800482D01*
X148884802Y-130800482D01*
G37*
D18*
X148225000Y-131000000D03*
D11*
G36*
X148884802Y-129800482D02*
X148894509Y-129801921D01*
X148904028Y-129804306D01*
X148913268Y-129807612D01*
X148922140Y-129811808D01*
X148930557Y-129816853D01*
X148938439Y-129822699D01*
X148945711Y-129829289D01*
X148952301Y-129836561D01*
X148958147Y-129844443D01*
X148963192Y-129852860D01*
X148967388Y-129861732D01*
X148970694Y-129870972D01*
X148973079Y-129880491D01*
X148974518Y-129890198D01*
X148975000Y-129900000D01*
X148975000Y-130100000D01*
X148974518Y-130109802D01*
X148973079Y-130119509D01*
X148970694Y-130129028D01*
X148967388Y-130138268D01*
X148963192Y-130147140D01*
X148958147Y-130155557D01*
X148952301Y-130163439D01*
X148945711Y-130170711D01*
X148938439Y-130177301D01*
X148930557Y-130183147D01*
X148922140Y-130188192D01*
X148913268Y-130192388D01*
X148904028Y-130195694D01*
X148894509Y-130198079D01*
X148884802Y-130199518D01*
X148875000Y-130200000D01*
X147575000Y-130200000D01*
X147565198Y-130199518D01*
X147555491Y-130198079D01*
X147545972Y-130195694D01*
X147536732Y-130192388D01*
X147527860Y-130188192D01*
X147519443Y-130183147D01*
X147511561Y-130177301D01*
X147504289Y-130170711D01*
X147497699Y-130163439D01*
X147491853Y-130155557D01*
X147486808Y-130147140D01*
X147482612Y-130138268D01*
X147479306Y-130129028D01*
X147476921Y-130119509D01*
X147475482Y-130109802D01*
X147475000Y-130100000D01*
X147475000Y-129900000D01*
X147475482Y-129890198D01*
X147476921Y-129880491D01*
X147479306Y-129870972D01*
X147482612Y-129861732D01*
X147486808Y-129852860D01*
X147491853Y-129844443D01*
X147497699Y-129836561D01*
X147504289Y-129829289D01*
X147511561Y-129822699D01*
X147519443Y-129816853D01*
X147527860Y-129811808D01*
X147536732Y-129807612D01*
X147545972Y-129804306D01*
X147555491Y-129801921D01*
X147565198Y-129800482D01*
X147575000Y-129800000D01*
X148875000Y-129800000D01*
X148884802Y-129800482D01*
X148884802Y-129800482D01*
G37*
D18*
X148225000Y-130000000D03*
D11*
G36*
X148864802Y-128800482D02*
X148874509Y-128801921D01*
X148884028Y-128804306D01*
X148893268Y-128807612D01*
X148902140Y-128811808D01*
X148910557Y-128816853D01*
X148918439Y-128822699D01*
X148925711Y-128829289D01*
X148932301Y-128836561D01*
X148938147Y-128844443D01*
X148943192Y-128852860D01*
X148947388Y-128861732D01*
X148950694Y-128870972D01*
X148953079Y-128880491D01*
X148954518Y-128890198D01*
X148955000Y-128900000D01*
X148955000Y-129100000D01*
X148954518Y-129109802D01*
X148953079Y-129119509D01*
X148950694Y-129129028D01*
X148947388Y-129138268D01*
X148943192Y-129147140D01*
X148938147Y-129155557D01*
X148932301Y-129163439D01*
X148925711Y-129170711D01*
X148918439Y-129177301D01*
X148910557Y-129183147D01*
X148902140Y-129188192D01*
X148893268Y-129192388D01*
X148884028Y-129195694D01*
X148874509Y-129198079D01*
X148864802Y-129199518D01*
X148855000Y-129200000D01*
X147555000Y-129200000D01*
X147545198Y-129199518D01*
X147535491Y-129198079D01*
X147525972Y-129195694D01*
X147516732Y-129192388D01*
X147507860Y-129188192D01*
X147499443Y-129183147D01*
X147491561Y-129177301D01*
X147484289Y-129170711D01*
X147477699Y-129163439D01*
X147471853Y-129155557D01*
X147466808Y-129147140D01*
X147462612Y-129138268D01*
X147459306Y-129129028D01*
X147456921Y-129119509D01*
X147455482Y-129109802D01*
X147455000Y-129100000D01*
X147455000Y-128900000D01*
X147455482Y-128890198D01*
X147456921Y-128880491D01*
X147459306Y-128870972D01*
X147462612Y-128861732D01*
X147466808Y-128852860D01*
X147471853Y-128844443D01*
X147477699Y-128836561D01*
X147484289Y-128829289D01*
X147491561Y-128822699D01*
X147499443Y-128816853D01*
X147507860Y-128811808D01*
X147516732Y-128807612D01*
X147525972Y-128804306D01*
X147535491Y-128801921D01*
X147545198Y-128800482D01*
X147555000Y-128800000D01*
X148855000Y-128800000D01*
X148864802Y-128800482D01*
X148864802Y-128800482D01*
G37*
D18*
X148205000Y-129000000D03*
D11*
G36*
X152454802Y-128800482D02*
X152464509Y-128801921D01*
X152474028Y-128804306D01*
X152483268Y-128807612D01*
X152492140Y-128811808D01*
X152500557Y-128816853D01*
X152508439Y-128822699D01*
X152515711Y-128829289D01*
X152522301Y-128836561D01*
X152528147Y-128844443D01*
X152533192Y-128852860D01*
X152537388Y-128861732D01*
X152540694Y-128870972D01*
X152543079Y-128880491D01*
X152544518Y-128890198D01*
X152545000Y-128900000D01*
X152545000Y-129100000D01*
X152544518Y-129109802D01*
X152543079Y-129119509D01*
X152540694Y-129129028D01*
X152537388Y-129138268D01*
X152533192Y-129147140D01*
X152528147Y-129155557D01*
X152522301Y-129163439D01*
X152515711Y-129170711D01*
X152508439Y-129177301D01*
X152500557Y-129183147D01*
X152492140Y-129188192D01*
X152483268Y-129192388D01*
X152474028Y-129195694D01*
X152464509Y-129198079D01*
X152454802Y-129199518D01*
X152445000Y-129200000D01*
X151145000Y-129200000D01*
X151135198Y-129199518D01*
X151125491Y-129198079D01*
X151115972Y-129195694D01*
X151106732Y-129192388D01*
X151097860Y-129188192D01*
X151089443Y-129183147D01*
X151081561Y-129177301D01*
X151074289Y-129170711D01*
X151067699Y-129163439D01*
X151061853Y-129155557D01*
X151056808Y-129147140D01*
X151052612Y-129138268D01*
X151049306Y-129129028D01*
X151046921Y-129119509D01*
X151045482Y-129109802D01*
X151045000Y-129100000D01*
X151045000Y-128900000D01*
X151045482Y-128890198D01*
X151046921Y-128880491D01*
X151049306Y-128870972D01*
X151052612Y-128861732D01*
X151056808Y-128852860D01*
X151061853Y-128844443D01*
X151067699Y-128836561D01*
X151074289Y-128829289D01*
X151081561Y-128822699D01*
X151089443Y-128816853D01*
X151097860Y-128811808D01*
X151106732Y-128807612D01*
X151115972Y-128804306D01*
X151125491Y-128801921D01*
X151135198Y-128800482D01*
X151145000Y-128800000D01*
X152445000Y-128800000D01*
X152454802Y-128800482D01*
X152454802Y-128800482D01*
G37*
D18*
X151795000Y-129000000D03*
D11*
G36*
X152454802Y-129810482D02*
X152464509Y-129811921D01*
X152474028Y-129814306D01*
X152483268Y-129817612D01*
X152492140Y-129821808D01*
X152500557Y-129826853D01*
X152508439Y-129832699D01*
X152515711Y-129839289D01*
X152522301Y-129846561D01*
X152528147Y-129854443D01*
X152533192Y-129862860D01*
X152537388Y-129871732D01*
X152540694Y-129880972D01*
X152543079Y-129890491D01*
X152544518Y-129900198D01*
X152545000Y-129910000D01*
X152545000Y-130110000D01*
X152544518Y-130119802D01*
X152543079Y-130129509D01*
X152540694Y-130139028D01*
X152537388Y-130148268D01*
X152533192Y-130157140D01*
X152528147Y-130165557D01*
X152522301Y-130173439D01*
X152515711Y-130180711D01*
X152508439Y-130187301D01*
X152500557Y-130193147D01*
X152492140Y-130198192D01*
X152483268Y-130202388D01*
X152474028Y-130205694D01*
X152464509Y-130208079D01*
X152454802Y-130209518D01*
X152445000Y-130210000D01*
X151145000Y-130210000D01*
X151135198Y-130209518D01*
X151125491Y-130208079D01*
X151115972Y-130205694D01*
X151106732Y-130202388D01*
X151097860Y-130198192D01*
X151089443Y-130193147D01*
X151081561Y-130187301D01*
X151074289Y-130180711D01*
X151067699Y-130173439D01*
X151061853Y-130165557D01*
X151056808Y-130157140D01*
X151052612Y-130148268D01*
X151049306Y-130139028D01*
X151046921Y-130129509D01*
X151045482Y-130119802D01*
X151045000Y-130110000D01*
X151045000Y-129910000D01*
X151045482Y-129900198D01*
X151046921Y-129890491D01*
X151049306Y-129880972D01*
X151052612Y-129871732D01*
X151056808Y-129862860D01*
X151061853Y-129854443D01*
X151067699Y-129846561D01*
X151074289Y-129839289D01*
X151081561Y-129832699D01*
X151089443Y-129826853D01*
X151097860Y-129821808D01*
X151106732Y-129817612D01*
X151115972Y-129814306D01*
X151125491Y-129811921D01*
X151135198Y-129810482D01*
X151145000Y-129810000D01*
X152445000Y-129810000D01*
X152454802Y-129810482D01*
X152454802Y-129810482D01*
G37*
D18*
X151795000Y-130010000D03*
D11*
G36*
X152454802Y-130810482D02*
X152464509Y-130811921D01*
X152474028Y-130814306D01*
X152483268Y-130817612D01*
X152492140Y-130821808D01*
X152500557Y-130826853D01*
X152508439Y-130832699D01*
X152515711Y-130839289D01*
X152522301Y-130846561D01*
X152528147Y-130854443D01*
X152533192Y-130862860D01*
X152537388Y-130871732D01*
X152540694Y-130880972D01*
X152543079Y-130890491D01*
X152544518Y-130900198D01*
X152545000Y-130910000D01*
X152545000Y-131110000D01*
X152544518Y-131119802D01*
X152543079Y-131129509D01*
X152540694Y-131139028D01*
X152537388Y-131148268D01*
X152533192Y-131157140D01*
X152528147Y-131165557D01*
X152522301Y-131173439D01*
X152515711Y-131180711D01*
X152508439Y-131187301D01*
X152500557Y-131193147D01*
X152492140Y-131198192D01*
X152483268Y-131202388D01*
X152474028Y-131205694D01*
X152464509Y-131208079D01*
X152454802Y-131209518D01*
X152445000Y-131210000D01*
X151145000Y-131210000D01*
X151135198Y-131209518D01*
X151125491Y-131208079D01*
X151115972Y-131205694D01*
X151106732Y-131202388D01*
X151097860Y-131198192D01*
X151089443Y-131193147D01*
X151081561Y-131187301D01*
X151074289Y-131180711D01*
X151067699Y-131173439D01*
X151061853Y-131165557D01*
X151056808Y-131157140D01*
X151052612Y-131148268D01*
X151049306Y-131139028D01*
X151046921Y-131129509D01*
X151045482Y-131119802D01*
X151045000Y-131110000D01*
X151045000Y-130910000D01*
X151045482Y-130900198D01*
X151046921Y-130890491D01*
X151049306Y-130880972D01*
X151052612Y-130871732D01*
X151056808Y-130862860D01*
X151061853Y-130854443D01*
X151067699Y-130846561D01*
X151074289Y-130839289D01*
X151081561Y-130832699D01*
X151089443Y-130826853D01*
X151097860Y-130821808D01*
X151106732Y-130817612D01*
X151115972Y-130814306D01*
X151125491Y-130811921D01*
X151135198Y-130810482D01*
X151145000Y-130810000D01*
X152445000Y-130810000D01*
X152454802Y-130810482D01*
X152454802Y-130810482D01*
G37*
D18*
X151795000Y-131010000D03*
%TD*%
D19*
%TO.C,J4*%
X187216000Y-142456000D03*
D20*
X187216000Y-144996000D03*
X184676000Y-142456000D03*
X184676000Y-144996000D03*
X182136000Y-142456000D03*
X182136000Y-144996000D03*
X179596000Y-142456000D03*
X179596000Y-144996000D03*
X177056000Y-142456000D03*
X177056000Y-144996000D03*
%TD*%
D19*
%TO.C,J5*%
X164864000Y-142456000D03*
D20*
X164864000Y-144996000D03*
X162324000Y-142456000D03*
X162324000Y-144996000D03*
X159784000Y-142456000D03*
X159784000Y-144996000D03*
X157244000Y-142456000D03*
X157244000Y-144996000D03*
X154704000Y-142456000D03*
X154704000Y-144996000D03*
%TD*%
M02*
