%TF.GenerationSoftware,KiCad,Pcbnew,(5.0.0)*%
%TF.CreationDate,2020-03-23T14:28:17+01:00*%
%TF.ProjectId,Schaltplan_Modul4,536368616C74706C616E5F4D6F64756C,rev?*%
%TF.SameCoordinates,Original*%
%TF.FileFunction,Soldermask,Top*%
%TF.FilePolarity,Negative*%
%FSLAX46Y46*%
G04 Gerber Fmt 4.6, Leading zero omitted, Abs format (unit mm)*
G04 Created by KiCad (PCBNEW (5.0.0)) date 03/23/20 14:28:17*
%MOMM*%
%LPD*%
G01*
G04 APERTURE LIST*
%ADD10C,0.200000*%
%ADD11C,0.150000*%
%ADD12C,0.975000*%
%ADD13C,1.530000*%
%ADD14R,1.650000X1.650000*%
%ADD15C,1.650000*%
G04 APERTURE END LIST*
D10*
X103500000Y-147576000D02*
G75*
G03X103500000Y-147576000I-1000000J0D01*
G01*
X198576000Y-147576000D02*
G75*
G03X198576000Y-147576000I-1000000J0D01*
G01*
X198576000Y-52500000D02*
G75*
G03X198576000Y-52500000I-1000000J0D01*
G01*
X103500000Y-52500000D02*
G75*
G03X103500000Y-52500000I-1000000J0D01*
G01*
X100000000Y-50000000D02*
X100000000Y-150000000D01*
X100000000Y-150000000D02*
X200000000Y-150000000D01*
X200000000Y-50000000D02*
X200000000Y-150000000D01*
X100000000Y-50000000D02*
X200000000Y-50000000D01*
D11*
%TO.C,R4*%
G36*
X130452142Y-94647174D02*
X130475803Y-94650684D01*
X130499007Y-94656496D01*
X130521529Y-94664554D01*
X130543153Y-94674782D01*
X130563670Y-94687079D01*
X130582883Y-94701329D01*
X130600607Y-94717393D01*
X130616671Y-94735117D01*
X130630921Y-94754330D01*
X130643218Y-94774847D01*
X130653446Y-94796471D01*
X130661504Y-94818993D01*
X130667316Y-94842197D01*
X130670826Y-94865858D01*
X130672000Y-94889750D01*
X130672000Y-95377250D01*
X130670826Y-95401142D01*
X130667316Y-95424803D01*
X130661504Y-95448007D01*
X130653446Y-95470529D01*
X130643218Y-95492153D01*
X130630921Y-95512670D01*
X130616671Y-95531883D01*
X130600607Y-95549607D01*
X130582883Y-95565671D01*
X130563670Y-95579921D01*
X130543153Y-95592218D01*
X130521529Y-95602446D01*
X130499007Y-95610504D01*
X130475803Y-95616316D01*
X130452142Y-95619826D01*
X130428250Y-95621000D01*
X129515750Y-95621000D01*
X129491858Y-95619826D01*
X129468197Y-95616316D01*
X129444993Y-95610504D01*
X129422471Y-95602446D01*
X129400847Y-95592218D01*
X129380330Y-95579921D01*
X129361117Y-95565671D01*
X129343393Y-95549607D01*
X129327329Y-95531883D01*
X129313079Y-95512670D01*
X129300782Y-95492153D01*
X129290554Y-95470529D01*
X129282496Y-95448007D01*
X129276684Y-95424803D01*
X129273174Y-95401142D01*
X129272000Y-95377250D01*
X129272000Y-94889750D01*
X129273174Y-94865858D01*
X129276684Y-94842197D01*
X129282496Y-94818993D01*
X129290554Y-94796471D01*
X129300782Y-94774847D01*
X129313079Y-94754330D01*
X129327329Y-94735117D01*
X129343393Y-94717393D01*
X129361117Y-94701329D01*
X129380330Y-94687079D01*
X129400847Y-94674782D01*
X129422471Y-94664554D01*
X129444993Y-94656496D01*
X129468197Y-94650684D01*
X129491858Y-94647174D01*
X129515750Y-94646000D01*
X130428250Y-94646000D01*
X130452142Y-94647174D01*
X130452142Y-94647174D01*
G37*
D12*
X129972000Y-95133500D03*
D11*
G36*
X130452142Y-92772174D02*
X130475803Y-92775684D01*
X130499007Y-92781496D01*
X130521529Y-92789554D01*
X130543153Y-92799782D01*
X130563670Y-92812079D01*
X130582883Y-92826329D01*
X130600607Y-92842393D01*
X130616671Y-92860117D01*
X130630921Y-92879330D01*
X130643218Y-92899847D01*
X130653446Y-92921471D01*
X130661504Y-92943993D01*
X130667316Y-92967197D01*
X130670826Y-92990858D01*
X130672000Y-93014750D01*
X130672000Y-93502250D01*
X130670826Y-93526142D01*
X130667316Y-93549803D01*
X130661504Y-93573007D01*
X130653446Y-93595529D01*
X130643218Y-93617153D01*
X130630921Y-93637670D01*
X130616671Y-93656883D01*
X130600607Y-93674607D01*
X130582883Y-93690671D01*
X130563670Y-93704921D01*
X130543153Y-93717218D01*
X130521529Y-93727446D01*
X130499007Y-93735504D01*
X130475803Y-93741316D01*
X130452142Y-93744826D01*
X130428250Y-93746000D01*
X129515750Y-93746000D01*
X129491858Y-93744826D01*
X129468197Y-93741316D01*
X129444993Y-93735504D01*
X129422471Y-93727446D01*
X129400847Y-93717218D01*
X129380330Y-93704921D01*
X129361117Y-93690671D01*
X129343393Y-93674607D01*
X129327329Y-93656883D01*
X129313079Y-93637670D01*
X129300782Y-93617153D01*
X129290554Y-93595529D01*
X129282496Y-93573007D01*
X129276684Y-93549803D01*
X129273174Y-93526142D01*
X129272000Y-93502250D01*
X129272000Y-93014750D01*
X129273174Y-92990858D01*
X129276684Y-92967197D01*
X129282496Y-92943993D01*
X129290554Y-92921471D01*
X129300782Y-92899847D01*
X129313079Y-92879330D01*
X129327329Y-92860117D01*
X129343393Y-92842393D01*
X129361117Y-92826329D01*
X129380330Y-92812079D01*
X129400847Y-92799782D01*
X129422471Y-92789554D01*
X129444993Y-92781496D01*
X129468197Y-92775684D01*
X129491858Y-92772174D01*
X129515750Y-92771000D01*
X130428250Y-92771000D01*
X130452142Y-92772174D01*
X130452142Y-92772174D01*
G37*
D12*
X129972000Y-93258500D03*
%TD*%
D13*
%TO.C,J1*%
X146228000Y-79972000D03*
X153848000Y-79972000D03*
X151308000Y-79972000D03*
X148768000Y-79972000D03*
%TD*%
D11*
%TO.C,R1*%
G36*
X154680142Y-84276174D02*
X154703803Y-84279684D01*
X154727007Y-84285496D01*
X154749529Y-84293554D01*
X154771153Y-84303782D01*
X154791670Y-84316079D01*
X154810883Y-84330329D01*
X154828607Y-84346393D01*
X154844671Y-84364117D01*
X154858921Y-84383330D01*
X154871218Y-84403847D01*
X154881446Y-84425471D01*
X154889504Y-84447993D01*
X154895316Y-84471197D01*
X154898826Y-84494858D01*
X154900000Y-84518750D01*
X154900000Y-85006250D01*
X154898826Y-85030142D01*
X154895316Y-85053803D01*
X154889504Y-85077007D01*
X154881446Y-85099529D01*
X154871218Y-85121153D01*
X154858921Y-85141670D01*
X154844671Y-85160883D01*
X154828607Y-85178607D01*
X154810883Y-85194671D01*
X154791670Y-85208921D01*
X154771153Y-85221218D01*
X154749529Y-85231446D01*
X154727007Y-85239504D01*
X154703803Y-85245316D01*
X154680142Y-85248826D01*
X154656250Y-85250000D01*
X153743750Y-85250000D01*
X153719858Y-85248826D01*
X153696197Y-85245316D01*
X153672993Y-85239504D01*
X153650471Y-85231446D01*
X153628847Y-85221218D01*
X153608330Y-85208921D01*
X153589117Y-85194671D01*
X153571393Y-85178607D01*
X153555329Y-85160883D01*
X153541079Y-85141670D01*
X153528782Y-85121153D01*
X153518554Y-85099529D01*
X153510496Y-85077007D01*
X153504684Y-85053803D01*
X153501174Y-85030142D01*
X153500000Y-85006250D01*
X153500000Y-84518750D01*
X153501174Y-84494858D01*
X153504684Y-84471197D01*
X153510496Y-84447993D01*
X153518554Y-84425471D01*
X153528782Y-84403847D01*
X153541079Y-84383330D01*
X153555329Y-84364117D01*
X153571393Y-84346393D01*
X153589117Y-84330329D01*
X153608330Y-84316079D01*
X153628847Y-84303782D01*
X153650471Y-84293554D01*
X153672993Y-84285496D01*
X153696197Y-84279684D01*
X153719858Y-84276174D01*
X153743750Y-84275000D01*
X154656250Y-84275000D01*
X154680142Y-84276174D01*
X154680142Y-84276174D01*
G37*
D12*
X154200000Y-84762500D03*
D11*
G36*
X154680142Y-86151174D02*
X154703803Y-86154684D01*
X154727007Y-86160496D01*
X154749529Y-86168554D01*
X154771153Y-86178782D01*
X154791670Y-86191079D01*
X154810883Y-86205329D01*
X154828607Y-86221393D01*
X154844671Y-86239117D01*
X154858921Y-86258330D01*
X154871218Y-86278847D01*
X154881446Y-86300471D01*
X154889504Y-86322993D01*
X154895316Y-86346197D01*
X154898826Y-86369858D01*
X154900000Y-86393750D01*
X154900000Y-86881250D01*
X154898826Y-86905142D01*
X154895316Y-86928803D01*
X154889504Y-86952007D01*
X154881446Y-86974529D01*
X154871218Y-86996153D01*
X154858921Y-87016670D01*
X154844671Y-87035883D01*
X154828607Y-87053607D01*
X154810883Y-87069671D01*
X154791670Y-87083921D01*
X154771153Y-87096218D01*
X154749529Y-87106446D01*
X154727007Y-87114504D01*
X154703803Y-87120316D01*
X154680142Y-87123826D01*
X154656250Y-87125000D01*
X153743750Y-87125000D01*
X153719858Y-87123826D01*
X153696197Y-87120316D01*
X153672993Y-87114504D01*
X153650471Y-87106446D01*
X153628847Y-87096218D01*
X153608330Y-87083921D01*
X153589117Y-87069671D01*
X153571393Y-87053607D01*
X153555329Y-87035883D01*
X153541079Y-87016670D01*
X153528782Y-86996153D01*
X153518554Y-86974529D01*
X153510496Y-86952007D01*
X153504684Y-86928803D01*
X153501174Y-86905142D01*
X153500000Y-86881250D01*
X153500000Y-86393750D01*
X153501174Y-86369858D01*
X153504684Y-86346197D01*
X153510496Y-86322993D01*
X153518554Y-86300471D01*
X153528782Y-86278847D01*
X153541079Y-86258330D01*
X153555329Y-86239117D01*
X153571393Y-86221393D01*
X153589117Y-86205329D01*
X153608330Y-86191079D01*
X153628847Y-86178782D01*
X153650471Y-86168554D01*
X153672993Y-86160496D01*
X153696197Y-86154684D01*
X153719858Y-86151174D01*
X153743750Y-86150000D01*
X154656250Y-86150000D01*
X154680142Y-86151174D01*
X154680142Y-86151174D01*
G37*
D12*
X154200000Y-86637500D03*
%TD*%
D11*
%TO.C,R2*%
G36*
X147568142Y-84213674D02*
X147591803Y-84217184D01*
X147615007Y-84222996D01*
X147637529Y-84231054D01*
X147659153Y-84241282D01*
X147679670Y-84253579D01*
X147698883Y-84267829D01*
X147716607Y-84283893D01*
X147732671Y-84301617D01*
X147746921Y-84320830D01*
X147759218Y-84341347D01*
X147769446Y-84362971D01*
X147777504Y-84385493D01*
X147783316Y-84408697D01*
X147786826Y-84432358D01*
X147788000Y-84456250D01*
X147788000Y-84943750D01*
X147786826Y-84967642D01*
X147783316Y-84991303D01*
X147777504Y-85014507D01*
X147769446Y-85037029D01*
X147759218Y-85058653D01*
X147746921Y-85079170D01*
X147732671Y-85098383D01*
X147716607Y-85116107D01*
X147698883Y-85132171D01*
X147679670Y-85146421D01*
X147659153Y-85158718D01*
X147637529Y-85168946D01*
X147615007Y-85177004D01*
X147591803Y-85182816D01*
X147568142Y-85186326D01*
X147544250Y-85187500D01*
X146631750Y-85187500D01*
X146607858Y-85186326D01*
X146584197Y-85182816D01*
X146560993Y-85177004D01*
X146538471Y-85168946D01*
X146516847Y-85158718D01*
X146496330Y-85146421D01*
X146477117Y-85132171D01*
X146459393Y-85116107D01*
X146443329Y-85098383D01*
X146429079Y-85079170D01*
X146416782Y-85058653D01*
X146406554Y-85037029D01*
X146398496Y-85014507D01*
X146392684Y-84991303D01*
X146389174Y-84967642D01*
X146388000Y-84943750D01*
X146388000Y-84456250D01*
X146389174Y-84432358D01*
X146392684Y-84408697D01*
X146398496Y-84385493D01*
X146406554Y-84362971D01*
X146416782Y-84341347D01*
X146429079Y-84320830D01*
X146443329Y-84301617D01*
X146459393Y-84283893D01*
X146477117Y-84267829D01*
X146496330Y-84253579D01*
X146516847Y-84241282D01*
X146538471Y-84231054D01*
X146560993Y-84222996D01*
X146584197Y-84217184D01*
X146607858Y-84213674D01*
X146631750Y-84212500D01*
X147544250Y-84212500D01*
X147568142Y-84213674D01*
X147568142Y-84213674D01*
G37*
D12*
X147088000Y-84700000D03*
D11*
G36*
X147568142Y-86088674D02*
X147591803Y-86092184D01*
X147615007Y-86097996D01*
X147637529Y-86106054D01*
X147659153Y-86116282D01*
X147679670Y-86128579D01*
X147698883Y-86142829D01*
X147716607Y-86158893D01*
X147732671Y-86176617D01*
X147746921Y-86195830D01*
X147759218Y-86216347D01*
X147769446Y-86237971D01*
X147777504Y-86260493D01*
X147783316Y-86283697D01*
X147786826Y-86307358D01*
X147788000Y-86331250D01*
X147788000Y-86818750D01*
X147786826Y-86842642D01*
X147783316Y-86866303D01*
X147777504Y-86889507D01*
X147769446Y-86912029D01*
X147759218Y-86933653D01*
X147746921Y-86954170D01*
X147732671Y-86973383D01*
X147716607Y-86991107D01*
X147698883Y-87007171D01*
X147679670Y-87021421D01*
X147659153Y-87033718D01*
X147637529Y-87043946D01*
X147615007Y-87052004D01*
X147591803Y-87057816D01*
X147568142Y-87061326D01*
X147544250Y-87062500D01*
X146631750Y-87062500D01*
X146607858Y-87061326D01*
X146584197Y-87057816D01*
X146560993Y-87052004D01*
X146538471Y-87043946D01*
X146516847Y-87033718D01*
X146496330Y-87021421D01*
X146477117Y-87007171D01*
X146459393Y-86991107D01*
X146443329Y-86973383D01*
X146429079Y-86954170D01*
X146416782Y-86933653D01*
X146406554Y-86912029D01*
X146398496Y-86889507D01*
X146392684Y-86866303D01*
X146389174Y-86842642D01*
X146388000Y-86818750D01*
X146388000Y-86331250D01*
X146389174Y-86307358D01*
X146392684Y-86283697D01*
X146398496Y-86260493D01*
X146406554Y-86237971D01*
X146416782Y-86216347D01*
X146429079Y-86195830D01*
X146443329Y-86176617D01*
X146459393Y-86158893D01*
X146477117Y-86142829D01*
X146496330Y-86128579D01*
X146516847Y-86116282D01*
X146538471Y-86106054D01*
X146560993Y-86097996D01*
X146584197Y-86092184D01*
X146607858Y-86088674D01*
X146631750Y-86087500D01*
X147544250Y-86087500D01*
X147568142Y-86088674D01*
X147568142Y-86088674D01*
G37*
D12*
X147088000Y-86575000D03*
%TD*%
D11*
%TO.C,C1*%
G36*
X162672142Y-84413674D02*
X162695803Y-84417184D01*
X162719007Y-84422996D01*
X162741529Y-84431054D01*
X162763153Y-84441282D01*
X162783670Y-84453579D01*
X162802883Y-84467829D01*
X162820607Y-84483893D01*
X162836671Y-84501617D01*
X162850921Y-84520830D01*
X162863218Y-84541347D01*
X162873446Y-84562971D01*
X162881504Y-84585493D01*
X162887316Y-84608697D01*
X162890826Y-84632358D01*
X162892000Y-84656250D01*
X162892000Y-85143750D01*
X162890826Y-85167642D01*
X162887316Y-85191303D01*
X162881504Y-85214507D01*
X162873446Y-85237029D01*
X162863218Y-85258653D01*
X162850921Y-85279170D01*
X162836671Y-85298383D01*
X162820607Y-85316107D01*
X162802883Y-85332171D01*
X162783670Y-85346421D01*
X162763153Y-85358718D01*
X162741529Y-85368946D01*
X162719007Y-85377004D01*
X162695803Y-85382816D01*
X162672142Y-85386326D01*
X162648250Y-85387500D01*
X161735750Y-85387500D01*
X161711858Y-85386326D01*
X161688197Y-85382816D01*
X161664993Y-85377004D01*
X161642471Y-85368946D01*
X161620847Y-85358718D01*
X161600330Y-85346421D01*
X161581117Y-85332171D01*
X161563393Y-85316107D01*
X161547329Y-85298383D01*
X161533079Y-85279170D01*
X161520782Y-85258653D01*
X161510554Y-85237029D01*
X161502496Y-85214507D01*
X161496684Y-85191303D01*
X161493174Y-85167642D01*
X161492000Y-85143750D01*
X161492000Y-84656250D01*
X161493174Y-84632358D01*
X161496684Y-84608697D01*
X161502496Y-84585493D01*
X161510554Y-84562971D01*
X161520782Y-84541347D01*
X161533079Y-84520830D01*
X161547329Y-84501617D01*
X161563393Y-84483893D01*
X161581117Y-84467829D01*
X161600330Y-84453579D01*
X161620847Y-84441282D01*
X161642471Y-84431054D01*
X161664993Y-84422996D01*
X161688197Y-84417184D01*
X161711858Y-84413674D01*
X161735750Y-84412500D01*
X162648250Y-84412500D01*
X162672142Y-84413674D01*
X162672142Y-84413674D01*
G37*
D12*
X162192000Y-84900000D03*
D11*
G36*
X162672142Y-86288674D02*
X162695803Y-86292184D01*
X162719007Y-86297996D01*
X162741529Y-86306054D01*
X162763153Y-86316282D01*
X162783670Y-86328579D01*
X162802883Y-86342829D01*
X162820607Y-86358893D01*
X162836671Y-86376617D01*
X162850921Y-86395830D01*
X162863218Y-86416347D01*
X162873446Y-86437971D01*
X162881504Y-86460493D01*
X162887316Y-86483697D01*
X162890826Y-86507358D01*
X162892000Y-86531250D01*
X162892000Y-87018750D01*
X162890826Y-87042642D01*
X162887316Y-87066303D01*
X162881504Y-87089507D01*
X162873446Y-87112029D01*
X162863218Y-87133653D01*
X162850921Y-87154170D01*
X162836671Y-87173383D01*
X162820607Y-87191107D01*
X162802883Y-87207171D01*
X162783670Y-87221421D01*
X162763153Y-87233718D01*
X162741529Y-87243946D01*
X162719007Y-87252004D01*
X162695803Y-87257816D01*
X162672142Y-87261326D01*
X162648250Y-87262500D01*
X161735750Y-87262500D01*
X161711858Y-87261326D01*
X161688197Y-87257816D01*
X161664993Y-87252004D01*
X161642471Y-87243946D01*
X161620847Y-87233718D01*
X161600330Y-87221421D01*
X161581117Y-87207171D01*
X161563393Y-87191107D01*
X161547329Y-87173383D01*
X161533079Y-87154170D01*
X161520782Y-87133653D01*
X161510554Y-87112029D01*
X161502496Y-87089507D01*
X161496684Y-87066303D01*
X161493174Y-87042642D01*
X161492000Y-87018750D01*
X161492000Y-86531250D01*
X161493174Y-86507358D01*
X161496684Y-86483697D01*
X161502496Y-86460493D01*
X161510554Y-86437971D01*
X161520782Y-86416347D01*
X161533079Y-86395830D01*
X161547329Y-86376617D01*
X161563393Y-86358893D01*
X161581117Y-86342829D01*
X161600330Y-86328579D01*
X161620847Y-86316282D01*
X161642471Y-86306054D01*
X161664993Y-86297996D01*
X161688197Y-86292184D01*
X161711858Y-86288674D01*
X161735750Y-86287500D01*
X162648250Y-86287500D01*
X162672142Y-86288674D01*
X162672142Y-86288674D01*
G37*
D12*
X162192000Y-86775000D03*
%TD*%
D11*
%TO.C,C2*%
G36*
X151304142Y-84235174D02*
X151327803Y-84238684D01*
X151351007Y-84244496D01*
X151373529Y-84252554D01*
X151395153Y-84262782D01*
X151415670Y-84275079D01*
X151434883Y-84289329D01*
X151452607Y-84305393D01*
X151468671Y-84323117D01*
X151482921Y-84342330D01*
X151495218Y-84362847D01*
X151505446Y-84384471D01*
X151513504Y-84406993D01*
X151519316Y-84430197D01*
X151522826Y-84453858D01*
X151524000Y-84477750D01*
X151524000Y-84965250D01*
X151522826Y-84989142D01*
X151519316Y-85012803D01*
X151513504Y-85036007D01*
X151505446Y-85058529D01*
X151495218Y-85080153D01*
X151482921Y-85100670D01*
X151468671Y-85119883D01*
X151452607Y-85137607D01*
X151434883Y-85153671D01*
X151415670Y-85167921D01*
X151395153Y-85180218D01*
X151373529Y-85190446D01*
X151351007Y-85198504D01*
X151327803Y-85204316D01*
X151304142Y-85207826D01*
X151280250Y-85209000D01*
X150367750Y-85209000D01*
X150343858Y-85207826D01*
X150320197Y-85204316D01*
X150296993Y-85198504D01*
X150274471Y-85190446D01*
X150252847Y-85180218D01*
X150232330Y-85167921D01*
X150213117Y-85153671D01*
X150195393Y-85137607D01*
X150179329Y-85119883D01*
X150165079Y-85100670D01*
X150152782Y-85080153D01*
X150142554Y-85058529D01*
X150134496Y-85036007D01*
X150128684Y-85012803D01*
X150125174Y-84989142D01*
X150124000Y-84965250D01*
X150124000Y-84477750D01*
X150125174Y-84453858D01*
X150128684Y-84430197D01*
X150134496Y-84406993D01*
X150142554Y-84384471D01*
X150152782Y-84362847D01*
X150165079Y-84342330D01*
X150179329Y-84323117D01*
X150195393Y-84305393D01*
X150213117Y-84289329D01*
X150232330Y-84275079D01*
X150252847Y-84262782D01*
X150274471Y-84252554D01*
X150296993Y-84244496D01*
X150320197Y-84238684D01*
X150343858Y-84235174D01*
X150367750Y-84234000D01*
X151280250Y-84234000D01*
X151304142Y-84235174D01*
X151304142Y-84235174D01*
G37*
D12*
X150824000Y-84721500D03*
D11*
G36*
X151304142Y-86110174D02*
X151327803Y-86113684D01*
X151351007Y-86119496D01*
X151373529Y-86127554D01*
X151395153Y-86137782D01*
X151415670Y-86150079D01*
X151434883Y-86164329D01*
X151452607Y-86180393D01*
X151468671Y-86198117D01*
X151482921Y-86217330D01*
X151495218Y-86237847D01*
X151505446Y-86259471D01*
X151513504Y-86281993D01*
X151519316Y-86305197D01*
X151522826Y-86328858D01*
X151524000Y-86352750D01*
X151524000Y-86840250D01*
X151522826Y-86864142D01*
X151519316Y-86887803D01*
X151513504Y-86911007D01*
X151505446Y-86933529D01*
X151495218Y-86955153D01*
X151482921Y-86975670D01*
X151468671Y-86994883D01*
X151452607Y-87012607D01*
X151434883Y-87028671D01*
X151415670Y-87042921D01*
X151395153Y-87055218D01*
X151373529Y-87065446D01*
X151351007Y-87073504D01*
X151327803Y-87079316D01*
X151304142Y-87082826D01*
X151280250Y-87084000D01*
X150367750Y-87084000D01*
X150343858Y-87082826D01*
X150320197Y-87079316D01*
X150296993Y-87073504D01*
X150274471Y-87065446D01*
X150252847Y-87055218D01*
X150232330Y-87042921D01*
X150213117Y-87028671D01*
X150195393Y-87012607D01*
X150179329Y-86994883D01*
X150165079Y-86975670D01*
X150152782Y-86955153D01*
X150142554Y-86933529D01*
X150134496Y-86911007D01*
X150128684Y-86887803D01*
X150125174Y-86864142D01*
X150124000Y-86840250D01*
X150124000Y-86352750D01*
X150125174Y-86328858D01*
X150128684Y-86305197D01*
X150134496Y-86281993D01*
X150142554Y-86259471D01*
X150152782Y-86237847D01*
X150165079Y-86217330D01*
X150179329Y-86198117D01*
X150195393Y-86180393D01*
X150213117Y-86164329D01*
X150232330Y-86150079D01*
X150252847Y-86137782D01*
X150274471Y-86127554D01*
X150296993Y-86119496D01*
X150320197Y-86113684D01*
X150343858Y-86110174D01*
X150367750Y-86109000D01*
X151280250Y-86109000D01*
X151304142Y-86110174D01*
X151304142Y-86110174D01*
G37*
D12*
X150824000Y-86596500D03*
%TD*%
D11*
%TO.C,C3*%
G36*
X158948142Y-84235174D02*
X158971803Y-84238684D01*
X158995007Y-84244496D01*
X159017529Y-84252554D01*
X159039153Y-84262782D01*
X159059670Y-84275079D01*
X159078883Y-84289329D01*
X159096607Y-84305393D01*
X159112671Y-84323117D01*
X159126921Y-84342330D01*
X159139218Y-84362847D01*
X159149446Y-84384471D01*
X159157504Y-84406993D01*
X159163316Y-84430197D01*
X159166826Y-84453858D01*
X159168000Y-84477750D01*
X159168000Y-84965250D01*
X159166826Y-84989142D01*
X159163316Y-85012803D01*
X159157504Y-85036007D01*
X159149446Y-85058529D01*
X159139218Y-85080153D01*
X159126921Y-85100670D01*
X159112671Y-85119883D01*
X159096607Y-85137607D01*
X159078883Y-85153671D01*
X159059670Y-85167921D01*
X159039153Y-85180218D01*
X159017529Y-85190446D01*
X158995007Y-85198504D01*
X158971803Y-85204316D01*
X158948142Y-85207826D01*
X158924250Y-85209000D01*
X158011750Y-85209000D01*
X157987858Y-85207826D01*
X157964197Y-85204316D01*
X157940993Y-85198504D01*
X157918471Y-85190446D01*
X157896847Y-85180218D01*
X157876330Y-85167921D01*
X157857117Y-85153671D01*
X157839393Y-85137607D01*
X157823329Y-85119883D01*
X157809079Y-85100670D01*
X157796782Y-85080153D01*
X157786554Y-85058529D01*
X157778496Y-85036007D01*
X157772684Y-85012803D01*
X157769174Y-84989142D01*
X157768000Y-84965250D01*
X157768000Y-84477750D01*
X157769174Y-84453858D01*
X157772684Y-84430197D01*
X157778496Y-84406993D01*
X157786554Y-84384471D01*
X157796782Y-84362847D01*
X157809079Y-84342330D01*
X157823329Y-84323117D01*
X157839393Y-84305393D01*
X157857117Y-84289329D01*
X157876330Y-84275079D01*
X157896847Y-84262782D01*
X157918471Y-84252554D01*
X157940993Y-84244496D01*
X157964197Y-84238684D01*
X157987858Y-84235174D01*
X158011750Y-84234000D01*
X158924250Y-84234000D01*
X158948142Y-84235174D01*
X158948142Y-84235174D01*
G37*
D12*
X158468000Y-84721500D03*
D11*
G36*
X158948142Y-86110174D02*
X158971803Y-86113684D01*
X158995007Y-86119496D01*
X159017529Y-86127554D01*
X159039153Y-86137782D01*
X159059670Y-86150079D01*
X159078883Y-86164329D01*
X159096607Y-86180393D01*
X159112671Y-86198117D01*
X159126921Y-86217330D01*
X159139218Y-86237847D01*
X159149446Y-86259471D01*
X159157504Y-86281993D01*
X159163316Y-86305197D01*
X159166826Y-86328858D01*
X159168000Y-86352750D01*
X159168000Y-86840250D01*
X159166826Y-86864142D01*
X159163316Y-86887803D01*
X159157504Y-86911007D01*
X159149446Y-86933529D01*
X159139218Y-86955153D01*
X159126921Y-86975670D01*
X159112671Y-86994883D01*
X159096607Y-87012607D01*
X159078883Y-87028671D01*
X159059670Y-87042921D01*
X159039153Y-87055218D01*
X159017529Y-87065446D01*
X158995007Y-87073504D01*
X158971803Y-87079316D01*
X158948142Y-87082826D01*
X158924250Y-87084000D01*
X158011750Y-87084000D01*
X157987858Y-87082826D01*
X157964197Y-87079316D01*
X157940993Y-87073504D01*
X157918471Y-87065446D01*
X157896847Y-87055218D01*
X157876330Y-87042921D01*
X157857117Y-87028671D01*
X157839393Y-87012607D01*
X157823329Y-86994883D01*
X157809079Y-86975670D01*
X157796782Y-86955153D01*
X157786554Y-86933529D01*
X157778496Y-86911007D01*
X157772684Y-86887803D01*
X157769174Y-86864142D01*
X157768000Y-86840250D01*
X157768000Y-86352750D01*
X157769174Y-86328858D01*
X157772684Y-86305197D01*
X157778496Y-86281993D01*
X157786554Y-86259471D01*
X157796782Y-86237847D01*
X157809079Y-86217330D01*
X157823329Y-86198117D01*
X157839393Y-86180393D01*
X157857117Y-86164329D01*
X157876330Y-86150079D01*
X157896847Y-86137782D01*
X157918471Y-86127554D01*
X157940993Y-86119496D01*
X157964197Y-86113684D01*
X157987858Y-86110174D01*
X158011750Y-86109000D01*
X158924250Y-86109000D01*
X158948142Y-86110174D01*
X158948142Y-86110174D01*
G37*
D12*
X158468000Y-86596500D03*
%TD*%
D11*
%TO.C,C4*%
G36*
X157163642Y-129565174D02*
X157187303Y-129568684D01*
X157210507Y-129574496D01*
X157233029Y-129582554D01*
X157254653Y-129592782D01*
X157275170Y-129605079D01*
X157294383Y-129619329D01*
X157312107Y-129635393D01*
X157328171Y-129653117D01*
X157342421Y-129672330D01*
X157354718Y-129692847D01*
X157364946Y-129714471D01*
X157373004Y-129736993D01*
X157378816Y-129760197D01*
X157382326Y-129783858D01*
X157383500Y-129807750D01*
X157383500Y-130720250D01*
X157382326Y-130744142D01*
X157378816Y-130767803D01*
X157373004Y-130791007D01*
X157364946Y-130813529D01*
X157354718Y-130835153D01*
X157342421Y-130855670D01*
X157328171Y-130874883D01*
X157312107Y-130892607D01*
X157294383Y-130908671D01*
X157275170Y-130922921D01*
X157254653Y-130935218D01*
X157233029Y-130945446D01*
X157210507Y-130953504D01*
X157187303Y-130959316D01*
X157163642Y-130962826D01*
X157139750Y-130964000D01*
X156652250Y-130964000D01*
X156628358Y-130962826D01*
X156604697Y-130959316D01*
X156581493Y-130953504D01*
X156558971Y-130945446D01*
X156537347Y-130935218D01*
X156516830Y-130922921D01*
X156497617Y-130908671D01*
X156479893Y-130892607D01*
X156463829Y-130874883D01*
X156449579Y-130855670D01*
X156437282Y-130835153D01*
X156427054Y-130813529D01*
X156418996Y-130791007D01*
X156413184Y-130767803D01*
X156409674Y-130744142D01*
X156408500Y-130720250D01*
X156408500Y-129807750D01*
X156409674Y-129783858D01*
X156413184Y-129760197D01*
X156418996Y-129736993D01*
X156427054Y-129714471D01*
X156437282Y-129692847D01*
X156449579Y-129672330D01*
X156463829Y-129653117D01*
X156479893Y-129635393D01*
X156497617Y-129619329D01*
X156516830Y-129605079D01*
X156537347Y-129592782D01*
X156558971Y-129582554D01*
X156581493Y-129574496D01*
X156604697Y-129568684D01*
X156628358Y-129565174D01*
X156652250Y-129564000D01*
X157139750Y-129564000D01*
X157163642Y-129565174D01*
X157163642Y-129565174D01*
G37*
D12*
X156896000Y-130264000D03*
D11*
G36*
X155288642Y-129565174D02*
X155312303Y-129568684D01*
X155335507Y-129574496D01*
X155358029Y-129582554D01*
X155379653Y-129592782D01*
X155400170Y-129605079D01*
X155419383Y-129619329D01*
X155437107Y-129635393D01*
X155453171Y-129653117D01*
X155467421Y-129672330D01*
X155479718Y-129692847D01*
X155489946Y-129714471D01*
X155498004Y-129736993D01*
X155503816Y-129760197D01*
X155507326Y-129783858D01*
X155508500Y-129807750D01*
X155508500Y-130720250D01*
X155507326Y-130744142D01*
X155503816Y-130767803D01*
X155498004Y-130791007D01*
X155489946Y-130813529D01*
X155479718Y-130835153D01*
X155467421Y-130855670D01*
X155453171Y-130874883D01*
X155437107Y-130892607D01*
X155419383Y-130908671D01*
X155400170Y-130922921D01*
X155379653Y-130935218D01*
X155358029Y-130945446D01*
X155335507Y-130953504D01*
X155312303Y-130959316D01*
X155288642Y-130962826D01*
X155264750Y-130964000D01*
X154777250Y-130964000D01*
X154753358Y-130962826D01*
X154729697Y-130959316D01*
X154706493Y-130953504D01*
X154683971Y-130945446D01*
X154662347Y-130935218D01*
X154641830Y-130922921D01*
X154622617Y-130908671D01*
X154604893Y-130892607D01*
X154588829Y-130874883D01*
X154574579Y-130855670D01*
X154562282Y-130835153D01*
X154552054Y-130813529D01*
X154543996Y-130791007D01*
X154538184Y-130767803D01*
X154534674Y-130744142D01*
X154533500Y-130720250D01*
X154533500Y-129807750D01*
X154534674Y-129783858D01*
X154538184Y-129760197D01*
X154543996Y-129736993D01*
X154552054Y-129714471D01*
X154562282Y-129692847D01*
X154574579Y-129672330D01*
X154588829Y-129653117D01*
X154604893Y-129635393D01*
X154622617Y-129619329D01*
X154641830Y-129605079D01*
X154662347Y-129592782D01*
X154683971Y-129582554D01*
X154706493Y-129574496D01*
X154729697Y-129568684D01*
X154753358Y-129565174D01*
X154777250Y-129564000D01*
X155264750Y-129564000D01*
X155288642Y-129565174D01*
X155288642Y-129565174D01*
G37*
D12*
X155021000Y-130264000D03*
%TD*%
D11*
%TO.C,C5*%
G36*
X165642642Y-103657174D02*
X165666303Y-103660684D01*
X165689507Y-103666496D01*
X165712029Y-103674554D01*
X165733653Y-103684782D01*
X165754170Y-103697079D01*
X165773383Y-103711329D01*
X165791107Y-103727393D01*
X165807171Y-103745117D01*
X165821421Y-103764330D01*
X165833718Y-103784847D01*
X165843946Y-103806471D01*
X165852004Y-103828993D01*
X165857816Y-103852197D01*
X165861326Y-103875858D01*
X165862500Y-103899750D01*
X165862500Y-104812250D01*
X165861326Y-104836142D01*
X165857816Y-104859803D01*
X165852004Y-104883007D01*
X165843946Y-104905529D01*
X165833718Y-104927153D01*
X165821421Y-104947670D01*
X165807171Y-104966883D01*
X165791107Y-104984607D01*
X165773383Y-105000671D01*
X165754170Y-105014921D01*
X165733653Y-105027218D01*
X165712029Y-105037446D01*
X165689507Y-105045504D01*
X165666303Y-105051316D01*
X165642642Y-105054826D01*
X165618750Y-105056000D01*
X165131250Y-105056000D01*
X165107358Y-105054826D01*
X165083697Y-105051316D01*
X165060493Y-105045504D01*
X165037971Y-105037446D01*
X165016347Y-105027218D01*
X164995830Y-105014921D01*
X164976617Y-105000671D01*
X164958893Y-104984607D01*
X164942829Y-104966883D01*
X164928579Y-104947670D01*
X164916282Y-104927153D01*
X164906054Y-104905529D01*
X164897996Y-104883007D01*
X164892184Y-104859803D01*
X164888674Y-104836142D01*
X164887500Y-104812250D01*
X164887500Y-103899750D01*
X164888674Y-103875858D01*
X164892184Y-103852197D01*
X164897996Y-103828993D01*
X164906054Y-103806471D01*
X164916282Y-103784847D01*
X164928579Y-103764330D01*
X164942829Y-103745117D01*
X164958893Y-103727393D01*
X164976617Y-103711329D01*
X164995830Y-103697079D01*
X165016347Y-103684782D01*
X165037971Y-103674554D01*
X165060493Y-103666496D01*
X165083697Y-103660684D01*
X165107358Y-103657174D01*
X165131250Y-103656000D01*
X165618750Y-103656000D01*
X165642642Y-103657174D01*
X165642642Y-103657174D01*
G37*
D12*
X165375000Y-104356000D03*
D11*
G36*
X163767642Y-103657174D02*
X163791303Y-103660684D01*
X163814507Y-103666496D01*
X163837029Y-103674554D01*
X163858653Y-103684782D01*
X163879170Y-103697079D01*
X163898383Y-103711329D01*
X163916107Y-103727393D01*
X163932171Y-103745117D01*
X163946421Y-103764330D01*
X163958718Y-103784847D01*
X163968946Y-103806471D01*
X163977004Y-103828993D01*
X163982816Y-103852197D01*
X163986326Y-103875858D01*
X163987500Y-103899750D01*
X163987500Y-104812250D01*
X163986326Y-104836142D01*
X163982816Y-104859803D01*
X163977004Y-104883007D01*
X163968946Y-104905529D01*
X163958718Y-104927153D01*
X163946421Y-104947670D01*
X163932171Y-104966883D01*
X163916107Y-104984607D01*
X163898383Y-105000671D01*
X163879170Y-105014921D01*
X163858653Y-105027218D01*
X163837029Y-105037446D01*
X163814507Y-105045504D01*
X163791303Y-105051316D01*
X163767642Y-105054826D01*
X163743750Y-105056000D01*
X163256250Y-105056000D01*
X163232358Y-105054826D01*
X163208697Y-105051316D01*
X163185493Y-105045504D01*
X163162971Y-105037446D01*
X163141347Y-105027218D01*
X163120830Y-105014921D01*
X163101617Y-105000671D01*
X163083893Y-104984607D01*
X163067829Y-104966883D01*
X163053579Y-104947670D01*
X163041282Y-104927153D01*
X163031054Y-104905529D01*
X163022996Y-104883007D01*
X163017184Y-104859803D01*
X163013674Y-104836142D01*
X163012500Y-104812250D01*
X163012500Y-103899750D01*
X163013674Y-103875858D01*
X163017184Y-103852197D01*
X163022996Y-103828993D01*
X163031054Y-103806471D01*
X163041282Y-103784847D01*
X163053579Y-103764330D01*
X163067829Y-103745117D01*
X163083893Y-103727393D01*
X163101617Y-103711329D01*
X163120830Y-103697079D01*
X163141347Y-103684782D01*
X163162971Y-103674554D01*
X163185493Y-103666496D01*
X163208697Y-103660684D01*
X163232358Y-103657174D01*
X163256250Y-103656000D01*
X163743750Y-103656000D01*
X163767642Y-103657174D01*
X163767642Y-103657174D01*
G37*
D12*
X163500000Y-104356000D03*
%TD*%
D11*
%TO.C,C6*%
G36*
X133287642Y-104165174D02*
X133311303Y-104168684D01*
X133334507Y-104174496D01*
X133357029Y-104182554D01*
X133378653Y-104192782D01*
X133399170Y-104205079D01*
X133418383Y-104219329D01*
X133436107Y-104235393D01*
X133452171Y-104253117D01*
X133466421Y-104272330D01*
X133478718Y-104292847D01*
X133488946Y-104314471D01*
X133497004Y-104336993D01*
X133502816Y-104360197D01*
X133506326Y-104383858D01*
X133507500Y-104407750D01*
X133507500Y-105320250D01*
X133506326Y-105344142D01*
X133502816Y-105367803D01*
X133497004Y-105391007D01*
X133488946Y-105413529D01*
X133478718Y-105435153D01*
X133466421Y-105455670D01*
X133452171Y-105474883D01*
X133436107Y-105492607D01*
X133418383Y-105508671D01*
X133399170Y-105522921D01*
X133378653Y-105535218D01*
X133357029Y-105545446D01*
X133334507Y-105553504D01*
X133311303Y-105559316D01*
X133287642Y-105562826D01*
X133263750Y-105564000D01*
X132776250Y-105564000D01*
X132752358Y-105562826D01*
X132728697Y-105559316D01*
X132705493Y-105553504D01*
X132682971Y-105545446D01*
X132661347Y-105535218D01*
X132640830Y-105522921D01*
X132621617Y-105508671D01*
X132603893Y-105492607D01*
X132587829Y-105474883D01*
X132573579Y-105455670D01*
X132561282Y-105435153D01*
X132551054Y-105413529D01*
X132542996Y-105391007D01*
X132537184Y-105367803D01*
X132533674Y-105344142D01*
X132532500Y-105320250D01*
X132532500Y-104407750D01*
X132533674Y-104383858D01*
X132537184Y-104360197D01*
X132542996Y-104336993D01*
X132551054Y-104314471D01*
X132561282Y-104292847D01*
X132573579Y-104272330D01*
X132587829Y-104253117D01*
X132603893Y-104235393D01*
X132621617Y-104219329D01*
X132640830Y-104205079D01*
X132661347Y-104192782D01*
X132682971Y-104182554D01*
X132705493Y-104174496D01*
X132728697Y-104168684D01*
X132752358Y-104165174D01*
X132776250Y-104164000D01*
X133263750Y-104164000D01*
X133287642Y-104165174D01*
X133287642Y-104165174D01*
G37*
D12*
X133020000Y-104864000D03*
D11*
G36*
X131412642Y-104165174D02*
X131436303Y-104168684D01*
X131459507Y-104174496D01*
X131482029Y-104182554D01*
X131503653Y-104192782D01*
X131524170Y-104205079D01*
X131543383Y-104219329D01*
X131561107Y-104235393D01*
X131577171Y-104253117D01*
X131591421Y-104272330D01*
X131603718Y-104292847D01*
X131613946Y-104314471D01*
X131622004Y-104336993D01*
X131627816Y-104360197D01*
X131631326Y-104383858D01*
X131632500Y-104407750D01*
X131632500Y-105320250D01*
X131631326Y-105344142D01*
X131627816Y-105367803D01*
X131622004Y-105391007D01*
X131613946Y-105413529D01*
X131603718Y-105435153D01*
X131591421Y-105455670D01*
X131577171Y-105474883D01*
X131561107Y-105492607D01*
X131543383Y-105508671D01*
X131524170Y-105522921D01*
X131503653Y-105535218D01*
X131482029Y-105545446D01*
X131459507Y-105553504D01*
X131436303Y-105559316D01*
X131412642Y-105562826D01*
X131388750Y-105564000D01*
X130901250Y-105564000D01*
X130877358Y-105562826D01*
X130853697Y-105559316D01*
X130830493Y-105553504D01*
X130807971Y-105545446D01*
X130786347Y-105535218D01*
X130765830Y-105522921D01*
X130746617Y-105508671D01*
X130728893Y-105492607D01*
X130712829Y-105474883D01*
X130698579Y-105455670D01*
X130686282Y-105435153D01*
X130676054Y-105413529D01*
X130667996Y-105391007D01*
X130662184Y-105367803D01*
X130658674Y-105344142D01*
X130657500Y-105320250D01*
X130657500Y-104407750D01*
X130658674Y-104383858D01*
X130662184Y-104360197D01*
X130667996Y-104336993D01*
X130676054Y-104314471D01*
X130686282Y-104292847D01*
X130698579Y-104272330D01*
X130712829Y-104253117D01*
X130728893Y-104235393D01*
X130746617Y-104219329D01*
X130765830Y-104205079D01*
X130786347Y-104192782D01*
X130807971Y-104182554D01*
X130830493Y-104174496D01*
X130853697Y-104168684D01*
X130877358Y-104165174D01*
X130901250Y-104164000D01*
X131388750Y-104164000D01*
X131412642Y-104165174D01*
X131412642Y-104165174D01*
G37*
D12*
X131145000Y-104864000D03*
%TD*%
D14*
%TO.C,J4*%
X187216000Y-142456000D03*
D15*
X187216000Y-144996000D03*
X184676000Y-142456000D03*
X184676000Y-144996000D03*
X182136000Y-142456000D03*
X182136000Y-144996000D03*
X179596000Y-142456000D03*
X179596000Y-144996000D03*
X177056000Y-142456000D03*
X177056000Y-144996000D03*
%TD*%
D14*
%TO.C,J5*%
X164864000Y-142456000D03*
D15*
X164864000Y-144996000D03*
X162324000Y-142456000D03*
X162324000Y-144996000D03*
X159784000Y-142456000D03*
X159784000Y-144996000D03*
X157244000Y-142456000D03*
X157244000Y-144996000D03*
X154704000Y-142456000D03*
X154704000Y-144996000D03*
%TD*%
D11*
%TO.C,R3*%
G36*
X134008142Y-92772174D02*
X134031803Y-92775684D01*
X134055007Y-92781496D01*
X134077529Y-92789554D01*
X134099153Y-92799782D01*
X134119670Y-92812079D01*
X134138883Y-92826329D01*
X134156607Y-92842393D01*
X134172671Y-92860117D01*
X134186921Y-92879330D01*
X134199218Y-92899847D01*
X134209446Y-92921471D01*
X134217504Y-92943993D01*
X134223316Y-92967197D01*
X134226826Y-92990858D01*
X134228000Y-93014750D01*
X134228000Y-93502250D01*
X134226826Y-93526142D01*
X134223316Y-93549803D01*
X134217504Y-93573007D01*
X134209446Y-93595529D01*
X134199218Y-93617153D01*
X134186921Y-93637670D01*
X134172671Y-93656883D01*
X134156607Y-93674607D01*
X134138883Y-93690671D01*
X134119670Y-93704921D01*
X134099153Y-93717218D01*
X134077529Y-93727446D01*
X134055007Y-93735504D01*
X134031803Y-93741316D01*
X134008142Y-93744826D01*
X133984250Y-93746000D01*
X133071750Y-93746000D01*
X133047858Y-93744826D01*
X133024197Y-93741316D01*
X133000993Y-93735504D01*
X132978471Y-93727446D01*
X132956847Y-93717218D01*
X132936330Y-93704921D01*
X132917117Y-93690671D01*
X132899393Y-93674607D01*
X132883329Y-93656883D01*
X132869079Y-93637670D01*
X132856782Y-93617153D01*
X132846554Y-93595529D01*
X132838496Y-93573007D01*
X132832684Y-93549803D01*
X132829174Y-93526142D01*
X132828000Y-93502250D01*
X132828000Y-93014750D01*
X132829174Y-92990858D01*
X132832684Y-92967197D01*
X132838496Y-92943993D01*
X132846554Y-92921471D01*
X132856782Y-92899847D01*
X132869079Y-92879330D01*
X132883329Y-92860117D01*
X132899393Y-92842393D01*
X132917117Y-92826329D01*
X132936330Y-92812079D01*
X132956847Y-92799782D01*
X132978471Y-92789554D01*
X133000993Y-92781496D01*
X133024197Y-92775684D01*
X133047858Y-92772174D01*
X133071750Y-92771000D01*
X133984250Y-92771000D01*
X134008142Y-92772174D01*
X134008142Y-92772174D01*
G37*
D12*
X133528000Y-93258500D03*
D11*
G36*
X134008142Y-94647174D02*
X134031803Y-94650684D01*
X134055007Y-94656496D01*
X134077529Y-94664554D01*
X134099153Y-94674782D01*
X134119670Y-94687079D01*
X134138883Y-94701329D01*
X134156607Y-94717393D01*
X134172671Y-94735117D01*
X134186921Y-94754330D01*
X134199218Y-94774847D01*
X134209446Y-94796471D01*
X134217504Y-94818993D01*
X134223316Y-94842197D01*
X134226826Y-94865858D01*
X134228000Y-94889750D01*
X134228000Y-95377250D01*
X134226826Y-95401142D01*
X134223316Y-95424803D01*
X134217504Y-95448007D01*
X134209446Y-95470529D01*
X134199218Y-95492153D01*
X134186921Y-95512670D01*
X134172671Y-95531883D01*
X134156607Y-95549607D01*
X134138883Y-95565671D01*
X134119670Y-95579921D01*
X134099153Y-95592218D01*
X134077529Y-95602446D01*
X134055007Y-95610504D01*
X134031803Y-95616316D01*
X134008142Y-95619826D01*
X133984250Y-95621000D01*
X133071750Y-95621000D01*
X133047858Y-95619826D01*
X133024197Y-95616316D01*
X133000993Y-95610504D01*
X132978471Y-95602446D01*
X132956847Y-95592218D01*
X132936330Y-95579921D01*
X132917117Y-95565671D01*
X132899393Y-95549607D01*
X132883329Y-95531883D01*
X132869079Y-95512670D01*
X132856782Y-95492153D01*
X132846554Y-95470529D01*
X132838496Y-95448007D01*
X132832684Y-95424803D01*
X132829174Y-95401142D01*
X132828000Y-95377250D01*
X132828000Y-94889750D01*
X132829174Y-94865858D01*
X132832684Y-94842197D01*
X132838496Y-94818993D01*
X132846554Y-94796471D01*
X132856782Y-94774847D01*
X132869079Y-94754330D01*
X132883329Y-94735117D01*
X132899393Y-94717393D01*
X132917117Y-94701329D01*
X132936330Y-94687079D01*
X132956847Y-94674782D01*
X132978471Y-94664554D01*
X133000993Y-94656496D01*
X133024197Y-94650684D01*
X133047858Y-94647174D01*
X133071750Y-94646000D01*
X133984250Y-94646000D01*
X134008142Y-94647174D01*
X134008142Y-94647174D01*
G37*
D12*
X133528000Y-95133500D03*
%TD*%
M02*
