%TF.GenerationSoftware,KiCad,Pcbnew,(5.0.0)*%
%TF.CreationDate,2020-03-23T14:28:17+01:00*%
%TF.ProjectId,Schaltplan_Modul4,536368616C74706C616E5F4D6F64756C,rev?*%
%TF.SameCoordinates,Original*%
%TF.FileFunction,Paste,Bot*%
%TF.FilePolarity,Positive*%
%FSLAX46Y46*%
G04 Gerber Fmt 4.6, Leading zero omitted, Abs format (unit mm)*
G04 Created by KiCad (PCBNEW (5.0.0)) date 03/23/20 14:28:17*
%MOMM*%
%LPD*%
G01*
G04 APERTURE LIST*
%ADD10C,0.200000*%
%ADD11C,0.150000*%
%ADD12R,0.350000X1.000000*%
%ADD13R,1.000000X0.350000*%
%ADD14R,0.650000X1.350000*%
%ADD15R,1.500000X0.270000*%
%ADD16C,0.600000*%
%ADD17C,0.400000*%
G04 APERTURE END LIST*
D10*
X103500000Y-147576000D02*
G75*
G03X103500000Y-147576000I-1000000J0D01*
G01*
X198576000Y-147576000D02*
G75*
G03X198576000Y-147576000I-1000000J0D01*
G01*
X198576000Y-52500000D02*
G75*
G03X198576000Y-52500000I-1000000J0D01*
G01*
X103500000Y-52500000D02*
G75*
G03X103500000Y-52500000I-1000000J0D01*
G01*
X100000000Y-50000000D02*
X100000000Y-150000000D01*
X100000000Y-150000000D02*
X200000000Y-150000000D01*
X200000000Y-50000000D02*
X200000000Y-150000000D01*
X100000000Y-50000000D02*
X200000000Y-50000000D01*
D11*
%TO.C,AC1*%
G36*
X132575000Y-98895000D02*
X132935000Y-98895000D01*
X132935000Y-98615000D01*
X132575000Y-98615000D01*
X132575000Y-98895000D01*
G37*
G36*
X131350000Y-100120000D02*
X131710000Y-100120000D01*
X131710000Y-99840000D01*
X131350000Y-99840000D01*
X131350000Y-100120000D01*
G37*
G36*
X133800000Y-100120000D02*
X134160000Y-100120000D01*
X134160000Y-99840000D01*
X133800000Y-99840000D01*
X133800000Y-100120000D01*
G37*
G36*
X132575000Y-101345000D02*
X132935000Y-101345000D01*
X132935000Y-101065000D01*
X132575000Y-101065000D01*
X132575000Y-101345000D01*
G37*
G36*
X132075000Y-101345000D02*
X132435000Y-101345000D01*
X132435000Y-101065000D01*
X132075000Y-101065000D01*
X132075000Y-101345000D01*
G37*
G36*
X133075000Y-101345000D02*
X133435000Y-101345000D01*
X133435000Y-101065000D01*
X133075000Y-101065000D01*
X133075000Y-101345000D01*
G37*
G36*
X133800000Y-100620000D02*
X134160000Y-100620000D01*
X134160000Y-100340000D01*
X133800000Y-100340000D01*
X133800000Y-100620000D01*
G37*
G36*
X133800000Y-101120000D02*
X134160000Y-101120000D01*
X134160000Y-100840000D01*
X133800000Y-100840000D01*
X133800000Y-101120000D01*
G37*
G36*
X133800000Y-99620000D02*
X134160000Y-99620000D01*
X134160000Y-99340000D01*
X133800000Y-99340000D01*
X133800000Y-99620000D01*
G37*
G36*
X133800000Y-99120000D02*
X134160000Y-99120000D01*
X134160000Y-98840000D01*
X133800000Y-98840000D01*
X133800000Y-99120000D01*
G37*
G36*
X133075000Y-98895000D02*
X133435000Y-98895000D01*
X133435000Y-98615000D01*
X133075000Y-98615000D01*
X133075000Y-98895000D01*
G37*
G36*
X132075000Y-98895000D02*
X132435000Y-98895000D01*
X132435000Y-98615000D01*
X132075000Y-98615000D01*
X132075000Y-98895000D01*
G37*
G36*
X131350000Y-99620000D02*
X131710000Y-99620000D01*
X131710000Y-99340000D01*
X131350000Y-99340000D01*
X131350000Y-99620000D01*
G37*
G36*
X131350000Y-99120000D02*
X131710000Y-99120000D01*
X131710000Y-98840000D01*
X131350000Y-98840000D01*
X131350000Y-99120000D01*
G37*
G36*
X131350000Y-100620000D02*
X131710000Y-100620000D01*
X131710000Y-100340000D01*
X131350000Y-100340000D01*
X131350000Y-100620000D01*
G37*
G36*
X131350000Y-101120000D02*
X131710000Y-101120000D01*
X131710000Y-100840000D01*
X131350000Y-100840000D01*
X131350000Y-101120000D01*
G37*
%TO.C,IC1*%
G36*
X167099999Y-100335920D02*
X167519999Y-100335920D01*
X167519999Y-99475920D01*
X167099999Y-99475920D01*
X167099999Y-100335920D01*
G37*
%TD*%
D12*
%TO.C,AC1*%
X132255000Y-98485000D03*
X132755000Y-98485000D03*
X133255000Y-98485000D03*
D13*
X134220000Y-98980000D03*
X134220000Y-99480000D03*
X134220000Y-99980000D03*
X134220000Y-100480000D03*
X134220000Y-100980000D03*
D12*
X133255000Y-101485000D03*
X132755000Y-101485000D03*
X132255000Y-101485000D03*
D13*
X131300000Y-100980000D03*
X131300000Y-100480000D03*
X131300000Y-99980000D03*
X131300000Y-99480000D03*
X131305000Y-98980000D03*
%TD*%
D14*
%TO.C,IC1*%
X167309999Y-99905920D03*
D15*
X168694999Y-100555920D03*
X168694999Y-99905920D03*
X168689999Y-99255920D03*
X165939999Y-99255920D03*
X165944999Y-99905920D03*
X165944999Y-100555920D03*
%TD*%
D11*
%TO.C,U1*%
G36*
X149784703Y-130115722D02*
X149799264Y-130117882D01*
X149813543Y-130121459D01*
X149827403Y-130126418D01*
X149840710Y-130132712D01*
X149853336Y-130140280D01*
X149865159Y-130149048D01*
X149876066Y-130158934D01*
X149885952Y-130169841D01*
X149894720Y-130181664D01*
X149902288Y-130194290D01*
X149908582Y-130207597D01*
X149913541Y-130221457D01*
X149917118Y-130235736D01*
X149919278Y-130250297D01*
X149920000Y-130265000D01*
X149920000Y-130935000D01*
X149919278Y-130949703D01*
X149917118Y-130964264D01*
X149913541Y-130978543D01*
X149908582Y-130992403D01*
X149902288Y-131005710D01*
X149894720Y-131018336D01*
X149885952Y-131030159D01*
X149876066Y-131041066D01*
X149865159Y-131050952D01*
X149853336Y-131059720D01*
X149840710Y-131067288D01*
X149827403Y-131073582D01*
X149813543Y-131078541D01*
X149799264Y-131082118D01*
X149784703Y-131084278D01*
X149770000Y-131085000D01*
X149470000Y-131085000D01*
X149455297Y-131084278D01*
X149440736Y-131082118D01*
X149426457Y-131078541D01*
X149412597Y-131073582D01*
X149399290Y-131067288D01*
X149386664Y-131059720D01*
X149374841Y-131050952D01*
X149363934Y-131041066D01*
X149354048Y-131030159D01*
X149345280Y-131018336D01*
X149337712Y-131005710D01*
X149331418Y-130992403D01*
X149326459Y-130978543D01*
X149322882Y-130964264D01*
X149320722Y-130949703D01*
X149320000Y-130935000D01*
X149320000Y-130265000D01*
X149320722Y-130250297D01*
X149322882Y-130235736D01*
X149326459Y-130221457D01*
X149331418Y-130207597D01*
X149337712Y-130194290D01*
X149345280Y-130181664D01*
X149354048Y-130169841D01*
X149363934Y-130158934D01*
X149374841Y-130149048D01*
X149386664Y-130140280D01*
X149399290Y-130132712D01*
X149412597Y-130126418D01*
X149426457Y-130121459D01*
X149440736Y-130117882D01*
X149455297Y-130115722D01*
X149470000Y-130115000D01*
X149770000Y-130115000D01*
X149784703Y-130115722D01*
X149784703Y-130115722D01*
G37*
D16*
X149620000Y-130600000D03*
D11*
G36*
X149784703Y-128915722D02*
X149799264Y-128917882D01*
X149813543Y-128921459D01*
X149827403Y-128926418D01*
X149840710Y-128932712D01*
X149853336Y-128940280D01*
X149865159Y-128949048D01*
X149876066Y-128958934D01*
X149885952Y-128969841D01*
X149894720Y-128981664D01*
X149902288Y-128994290D01*
X149908582Y-129007597D01*
X149913541Y-129021457D01*
X149917118Y-129035736D01*
X149919278Y-129050297D01*
X149920000Y-129065000D01*
X149920000Y-129735000D01*
X149919278Y-129749703D01*
X149917118Y-129764264D01*
X149913541Y-129778543D01*
X149908582Y-129792403D01*
X149902288Y-129805710D01*
X149894720Y-129818336D01*
X149885952Y-129830159D01*
X149876066Y-129841066D01*
X149865159Y-129850952D01*
X149853336Y-129859720D01*
X149840710Y-129867288D01*
X149827403Y-129873582D01*
X149813543Y-129878541D01*
X149799264Y-129882118D01*
X149784703Y-129884278D01*
X149770000Y-129885000D01*
X149470000Y-129885000D01*
X149455297Y-129884278D01*
X149440736Y-129882118D01*
X149426457Y-129878541D01*
X149412597Y-129873582D01*
X149399290Y-129867288D01*
X149386664Y-129859720D01*
X149374841Y-129850952D01*
X149363934Y-129841066D01*
X149354048Y-129830159D01*
X149345280Y-129818336D01*
X149337712Y-129805710D01*
X149331418Y-129792403D01*
X149326459Y-129778543D01*
X149322882Y-129764264D01*
X149320722Y-129749703D01*
X149320000Y-129735000D01*
X149320000Y-129065000D01*
X149320722Y-129050297D01*
X149322882Y-129035736D01*
X149326459Y-129021457D01*
X149331418Y-129007597D01*
X149337712Y-128994290D01*
X149345280Y-128981664D01*
X149354048Y-128969841D01*
X149363934Y-128958934D01*
X149374841Y-128949048D01*
X149386664Y-128940280D01*
X149399290Y-128932712D01*
X149412597Y-128926418D01*
X149426457Y-128921459D01*
X149440736Y-128917882D01*
X149455297Y-128915722D01*
X149470000Y-128915000D01*
X149770000Y-128915000D01*
X149784703Y-128915722D01*
X149784703Y-128915722D01*
G37*
D16*
X149620000Y-129400000D03*
D11*
G36*
X150534703Y-130115722D02*
X150549264Y-130117882D01*
X150563543Y-130121459D01*
X150577403Y-130126418D01*
X150590710Y-130132712D01*
X150603336Y-130140280D01*
X150615159Y-130149048D01*
X150626066Y-130158934D01*
X150635952Y-130169841D01*
X150644720Y-130181664D01*
X150652288Y-130194290D01*
X150658582Y-130207597D01*
X150663541Y-130221457D01*
X150667118Y-130235736D01*
X150669278Y-130250297D01*
X150670000Y-130265000D01*
X150670000Y-130935000D01*
X150669278Y-130949703D01*
X150667118Y-130964264D01*
X150663541Y-130978543D01*
X150658582Y-130992403D01*
X150652288Y-131005710D01*
X150644720Y-131018336D01*
X150635952Y-131030159D01*
X150626066Y-131041066D01*
X150615159Y-131050952D01*
X150603336Y-131059720D01*
X150590710Y-131067288D01*
X150577403Y-131073582D01*
X150563543Y-131078541D01*
X150549264Y-131082118D01*
X150534703Y-131084278D01*
X150520000Y-131085000D01*
X150220000Y-131085000D01*
X150205297Y-131084278D01*
X150190736Y-131082118D01*
X150176457Y-131078541D01*
X150162597Y-131073582D01*
X150149290Y-131067288D01*
X150136664Y-131059720D01*
X150124841Y-131050952D01*
X150113934Y-131041066D01*
X150104048Y-131030159D01*
X150095280Y-131018336D01*
X150087712Y-131005710D01*
X150081418Y-130992403D01*
X150076459Y-130978543D01*
X150072882Y-130964264D01*
X150070722Y-130949703D01*
X150070000Y-130935000D01*
X150070000Y-130265000D01*
X150070722Y-130250297D01*
X150072882Y-130235736D01*
X150076459Y-130221457D01*
X150081418Y-130207597D01*
X150087712Y-130194290D01*
X150095280Y-130181664D01*
X150104048Y-130169841D01*
X150113934Y-130158934D01*
X150124841Y-130149048D01*
X150136664Y-130140280D01*
X150149290Y-130132712D01*
X150162597Y-130126418D01*
X150176457Y-130121459D01*
X150190736Y-130117882D01*
X150205297Y-130115722D01*
X150220000Y-130115000D01*
X150520000Y-130115000D01*
X150534703Y-130115722D01*
X150534703Y-130115722D01*
G37*
D16*
X150370000Y-130600000D03*
D11*
G36*
X150534703Y-128915722D02*
X150549264Y-128917882D01*
X150563543Y-128921459D01*
X150577403Y-128926418D01*
X150590710Y-128932712D01*
X150603336Y-128940280D01*
X150615159Y-128949048D01*
X150626066Y-128958934D01*
X150635952Y-128969841D01*
X150644720Y-128981664D01*
X150652288Y-128994290D01*
X150658582Y-129007597D01*
X150663541Y-129021457D01*
X150667118Y-129035736D01*
X150669278Y-129050297D01*
X150670000Y-129065000D01*
X150670000Y-129735000D01*
X150669278Y-129749703D01*
X150667118Y-129764264D01*
X150663541Y-129778543D01*
X150658582Y-129792403D01*
X150652288Y-129805710D01*
X150644720Y-129818336D01*
X150635952Y-129830159D01*
X150626066Y-129841066D01*
X150615159Y-129850952D01*
X150603336Y-129859720D01*
X150590710Y-129867288D01*
X150577403Y-129873582D01*
X150563543Y-129878541D01*
X150549264Y-129882118D01*
X150534703Y-129884278D01*
X150520000Y-129885000D01*
X150220000Y-129885000D01*
X150205297Y-129884278D01*
X150190736Y-129882118D01*
X150176457Y-129878541D01*
X150162597Y-129873582D01*
X150149290Y-129867288D01*
X150136664Y-129859720D01*
X150124841Y-129850952D01*
X150113934Y-129841066D01*
X150104048Y-129830159D01*
X150095280Y-129818336D01*
X150087712Y-129805710D01*
X150081418Y-129792403D01*
X150076459Y-129778543D01*
X150072882Y-129764264D01*
X150070722Y-129749703D01*
X150070000Y-129735000D01*
X150070000Y-129065000D01*
X150070722Y-129050297D01*
X150072882Y-129035736D01*
X150076459Y-129021457D01*
X150081418Y-129007597D01*
X150087712Y-128994290D01*
X150095280Y-128981664D01*
X150104048Y-128969841D01*
X150113934Y-128958934D01*
X150124841Y-128949048D01*
X150136664Y-128940280D01*
X150149290Y-128932712D01*
X150162597Y-128926418D01*
X150176457Y-128921459D01*
X150190736Y-128917882D01*
X150205297Y-128915722D01*
X150220000Y-128915000D01*
X150520000Y-128915000D01*
X150534703Y-128915722D01*
X150534703Y-128915722D01*
G37*
D16*
X150370000Y-129400000D03*
D11*
G36*
X148884802Y-130800482D02*
X148894509Y-130801921D01*
X148904028Y-130804306D01*
X148913268Y-130807612D01*
X148922140Y-130811808D01*
X148930557Y-130816853D01*
X148938439Y-130822699D01*
X148945711Y-130829289D01*
X148952301Y-130836561D01*
X148958147Y-130844443D01*
X148963192Y-130852860D01*
X148967388Y-130861732D01*
X148970694Y-130870972D01*
X148973079Y-130880491D01*
X148974518Y-130890198D01*
X148975000Y-130900000D01*
X148975000Y-131100000D01*
X148974518Y-131109802D01*
X148973079Y-131119509D01*
X148970694Y-131129028D01*
X148967388Y-131138268D01*
X148963192Y-131147140D01*
X148958147Y-131155557D01*
X148952301Y-131163439D01*
X148945711Y-131170711D01*
X148938439Y-131177301D01*
X148930557Y-131183147D01*
X148922140Y-131188192D01*
X148913268Y-131192388D01*
X148904028Y-131195694D01*
X148894509Y-131198079D01*
X148884802Y-131199518D01*
X148875000Y-131200000D01*
X147575000Y-131200000D01*
X147565198Y-131199518D01*
X147555491Y-131198079D01*
X147545972Y-131195694D01*
X147536732Y-131192388D01*
X147527860Y-131188192D01*
X147519443Y-131183147D01*
X147511561Y-131177301D01*
X147504289Y-131170711D01*
X147497699Y-131163439D01*
X147491853Y-131155557D01*
X147486808Y-131147140D01*
X147482612Y-131138268D01*
X147479306Y-131129028D01*
X147476921Y-131119509D01*
X147475482Y-131109802D01*
X147475000Y-131100000D01*
X147475000Y-130900000D01*
X147475482Y-130890198D01*
X147476921Y-130880491D01*
X147479306Y-130870972D01*
X147482612Y-130861732D01*
X147486808Y-130852860D01*
X147491853Y-130844443D01*
X147497699Y-130836561D01*
X147504289Y-130829289D01*
X147511561Y-130822699D01*
X147519443Y-130816853D01*
X147527860Y-130811808D01*
X147536732Y-130807612D01*
X147545972Y-130804306D01*
X147555491Y-130801921D01*
X147565198Y-130800482D01*
X147575000Y-130800000D01*
X148875000Y-130800000D01*
X148884802Y-130800482D01*
X148884802Y-130800482D01*
G37*
D17*
X148225000Y-131000000D03*
D11*
G36*
X148884802Y-129800482D02*
X148894509Y-129801921D01*
X148904028Y-129804306D01*
X148913268Y-129807612D01*
X148922140Y-129811808D01*
X148930557Y-129816853D01*
X148938439Y-129822699D01*
X148945711Y-129829289D01*
X148952301Y-129836561D01*
X148958147Y-129844443D01*
X148963192Y-129852860D01*
X148967388Y-129861732D01*
X148970694Y-129870972D01*
X148973079Y-129880491D01*
X148974518Y-129890198D01*
X148975000Y-129900000D01*
X148975000Y-130100000D01*
X148974518Y-130109802D01*
X148973079Y-130119509D01*
X148970694Y-130129028D01*
X148967388Y-130138268D01*
X148963192Y-130147140D01*
X148958147Y-130155557D01*
X148952301Y-130163439D01*
X148945711Y-130170711D01*
X148938439Y-130177301D01*
X148930557Y-130183147D01*
X148922140Y-130188192D01*
X148913268Y-130192388D01*
X148904028Y-130195694D01*
X148894509Y-130198079D01*
X148884802Y-130199518D01*
X148875000Y-130200000D01*
X147575000Y-130200000D01*
X147565198Y-130199518D01*
X147555491Y-130198079D01*
X147545972Y-130195694D01*
X147536732Y-130192388D01*
X147527860Y-130188192D01*
X147519443Y-130183147D01*
X147511561Y-130177301D01*
X147504289Y-130170711D01*
X147497699Y-130163439D01*
X147491853Y-130155557D01*
X147486808Y-130147140D01*
X147482612Y-130138268D01*
X147479306Y-130129028D01*
X147476921Y-130119509D01*
X147475482Y-130109802D01*
X147475000Y-130100000D01*
X147475000Y-129900000D01*
X147475482Y-129890198D01*
X147476921Y-129880491D01*
X147479306Y-129870972D01*
X147482612Y-129861732D01*
X147486808Y-129852860D01*
X147491853Y-129844443D01*
X147497699Y-129836561D01*
X147504289Y-129829289D01*
X147511561Y-129822699D01*
X147519443Y-129816853D01*
X147527860Y-129811808D01*
X147536732Y-129807612D01*
X147545972Y-129804306D01*
X147555491Y-129801921D01*
X147565198Y-129800482D01*
X147575000Y-129800000D01*
X148875000Y-129800000D01*
X148884802Y-129800482D01*
X148884802Y-129800482D01*
G37*
D17*
X148225000Y-130000000D03*
D11*
G36*
X148864802Y-128800482D02*
X148874509Y-128801921D01*
X148884028Y-128804306D01*
X148893268Y-128807612D01*
X148902140Y-128811808D01*
X148910557Y-128816853D01*
X148918439Y-128822699D01*
X148925711Y-128829289D01*
X148932301Y-128836561D01*
X148938147Y-128844443D01*
X148943192Y-128852860D01*
X148947388Y-128861732D01*
X148950694Y-128870972D01*
X148953079Y-128880491D01*
X148954518Y-128890198D01*
X148955000Y-128900000D01*
X148955000Y-129100000D01*
X148954518Y-129109802D01*
X148953079Y-129119509D01*
X148950694Y-129129028D01*
X148947388Y-129138268D01*
X148943192Y-129147140D01*
X148938147Y-129155557D01*
X148932301Y-129163439D01*
X148925711Y-129170711D01*
X148918439Y-129177301D01*
X148910557Y-129183147D01*
X148902140Y-129188192D01*
X148893268Y-129192388D01*
X148884028Y-129195694D01*
X148874509Y-129198079D01*
X148864802Y-129199518D01*
X148855000Y-129200000D01*
X147555000Y-129200000D01*
X147545198Y-129199518D01*
X147535491Y-129198079D01*
X147525972Y-129195694D01*
X147516732Y-129192388D01*
X147507860Y-129188192D01*
X147499443Y-129183147D01*
X147491561Y-129177301D01*
X147484289Y-129170711D01*
X147477699Y-129163439D01*
X147471853Y-129155557D01*
X147466808Y-129147140D01*
X147462612Y-129138268D01*
X147459306Y-129129028D01*
X147456921Y-129119509D01*
X147455482Y-129109802D01*
X147455000Y-129100000D01*
X147455000Y-128900000D01*
X147455482Y-128890198D01*
X147456921Y-128880491D01*
X147459306Y-128870972D01*
X147462612Y-128861732D01*
X147466808Y-128852860D01*
X147471853Y-128844443D01*
X147477699Y-128836561D01*
X147484289Y-128829289D01*
X147491561Y-128822699D01*
X147499443Y-128816853D01*
X147507860Y-128811808D01*
X147516732Y-128807612D01*
X147525972Y-128804306D01*
X147535491Y-128801921D01*
X147545198Y-128800482D01*
X147555000Y-128800000D01*
X148855000Y-128800000D01*
X148864802Y-128800482D01*
X148864802Y-128800482D01*
G37*
D17*
X148205000Y-129000000D03*
D11*
G36*
X152454802Y-128800482D02*
X152464509Y-128801921D01*
X152474028Y-128804306D01*
X152483268Y-128807612D01*
X152492140Y-128811808D01*
X152500557Y-128816853D01*
X152508439Y-128822699D01*
X152515711Y-128829289D01*
X152522301Y-128836561D01*
X152528147Y-128844443D01*
X152533192Y-128852860D01*
X152537388Y-128861732D01*
X152540694Y-128870972D01*
X152543079Y-128880491D01*
X152544518Y-128890198D01*
X152545000Y-128900000D01*
X152545000Y-129100000D01*
X152544518Y-129109802D01*
X152543079Y-129119509D01*
X152540694Y-129129028D01*
X152537388Y-129138268D01*
X152533192Y-129147140D01*
X152528147Y-129155557D01*
X152522301Y-129163439D01*
X152515711Y-129170711D01*
X152508439Y-129177301D01*
X152500557Y-129183147D01*
X152492140Y-129188192D01*
X152483268Y-129192388D01*
X152474028Y-129195694D01*
X152464509Y-129198079D01*
X152454802Y-129199518D01*
X152445000Y-129200000D01*
X151145000Y-129200000D01*
X151135198Y-129199518D01*
X151125491Y-129198079D01*
X151115972Y-129195694D01*
X151106732Y-129192388D01*
X151097860Y-129188192D01*
X151089443Y-129183147D01*
X151081561Y-129177301D01*
X151074289Y-129170711D01*
X151067699Y-129163439D01*
X151061853Y-129155557D01*
X151056808Y-129147140D01*
X151052612Y-129138268D01*
X151049306Y-129129028D01*
X151046921Y-129119509D01*
X151045482Y-129109802D01*
X151045000Y-129100000D01*
X151045000Y-128900000D01*
X151045482Y-128890198D01*
X151046921Y-128880491D01*
X151049306Y-128870972D01*
X151052612Y-128861732D01*
X151056808Y-128852860D01*
X151061853Y-128844443D01*
X151067699Y-128836561D01*
X151074289Y-128829289D01*
X151081561Y-128822699D01*
X151089443Y-128816853D01*
X151097860Y-128811808D01*
X151106732Y-128807612D01*
X151115972Y-128804306D01*
X151125491Y-128801921D01*
X151135198Y-128800482D01*
X151145000Y-128800000D01*
X152445000Y-128800000D01*
X152454802Y-128800482D01*
X152454802Y-128800482D01*
G37*
D17*
X151795000Y-129000000D03*
D11*
G36*
X152454802Y-129810482D02*
X152464509Y-129811921D01*
X152474028Y-129814306D01*
X152483268Y-129817612D01*
X152492140Y-129821808D01*
X152500557Y-129826853D01*
X152508439Y-129832699D01*
X152515711Y-129839289D01*
X152522301Y-129846561D01*
X152528147Y-129854443D01*
X152533192Y-129862860D01*
X152537388Y-129871732D01*
X152540694Y-129880972D01*
X152543079Y-129890491D01*
X152544518Y-129900198D01*
X152545000Y-129910000D01*
X152545000Y-130110000D01*
X152544518Y-130119802D01*
X152543079Y-130129509D01*
X152540694Y-130139028D01*
X152537388Y-130148268D01*
X152533192Y-130157140D01*
X152528147Y-130165557D01*
X152522301Y-130173439D01*
X152515711Y-130180711D01*
X152508439Y-130187301D01*
X152500557Y-130193147D01*
X152492140Y-130198192D01*
X152483268Y-130202388D01*
X152474028Y-130205694D01*
X152464509Y-130208079D01*
X152454802Y-130209518D01*
X152445000Y-130210000D01*
X151145000Y-130210000D01*
X151135198Y-130209518D01*
X151125491Y-130208079D01*
X151115972Y-130205694D01*
X151106732Y-130202388D01*
X151097860Y-130198192D01*
X151089443Y-130193147D01*
X151081561Y-130187301D01*
X151074289Y-130180711D01*
X151067699Y-130173439D01*
X151061853Y-130165557D01*
X151056808Y-130157140D01*
X151052612Y-130148268D01*
X151049306Y-130139028D01*
X151046921Y-130129509D01*
X151045482Y-130119802D01*
X151045000Y-130110000D01*
X151045000Y-129910000D01*
X151045482Y-129900198D01*
X151046921Y-129890491D01*
X151049306Y-129880972D01*
X151052612Y-129871732D01*
X151056808Y-129862860D01*
X151061853Y-129854443D01*
X151067699Y-129846561D01*
X151074289Y-129839289D01*
X151081561Y-129832699D01*
X151089443Y-129826853D01*
X151097860Y-129821808D01*
X151106732Y-129817612D01*
X151115972Y-129814306D01*
X151125491Y-129811921D01*
X151135198Y-129810482D01*
X151145000Y-129810000D01*
X152445000Y-129810000D01*
X152454802Y-129810482D01*
X152454802Y-129810482D01*
G37*
D17*
X151795000Y-130010000D03*
D11*
G36*
X152454802Y-130810482D02*
X152464509Y-130811921D01*
X152474028Y-130814306D01*
X152483268Y-130817612D01*
X152492140Y-130821808D01*
X152500557Y-130826853D01*
X152508439Y-130832699D01*
X152515711Y-130839289D01*
X152522301Y-130846561D01*
X152528147Y-130854443D01*
X152533192Y-130862860D01*
X152537388Y-130871732D01*
X152540694Y-130880972D01*
X152543079Y-130890491D01*
X152544518Y-130900198D01*
X152545000Y-130910000D01*
X152545000Y-131110000D01*
X152544518Y-131119802D01*
X152543079Y-131129509D01*
X152540694Y-131139028D01*
X152537388Y-131148268D01*
X152533192Y-131157140D01*
X152528147Y-131165557D01*
X152522301Y-131173439D01*
X152515711Y-131180711D01*
X152508439Y-131187301D01*
X152500557Y-131193147D01*
X152492140Y-131198192D01*
X152483268Y-131202388D01*
X152474028Y-131205694D01*
X152464509Y-131208079D01*
X152454802Y-131209518D01*
X152445000Y-131210000D01*
X151145000Y-131210000D01*
X151135198Y-131209518D01*
X151125491Y-131208079D01*
X151115972Y-131205694D01*
X151106732Y-131202388D01*
X151097860Y-131198192D01*
X151089443Y-131193147D01*
X151081561Y-131187301D01*
X151074289Y-131180711D01*
X151067699Y-131173439D01*
X151061853Y-131165557D01*
X151056808Y-131157140D01*
X151052612Y-131148268D01*
X151049306Y-131139028D01*
X151046921Y-131129509D01*
X151045482Y-131119802D01*
X151045000Y-131110000D01*
X151045000Y-130910000D01*
X151045482Y-130900198D01*
X151046921Y-130890491D01*
X151049306Y-130880972D01*
X151052612Y-130871732D01*
X151056808Y-130862860D01*
X151061853Y-130854443D01*
X151067699Y-130846561D01*
X151074289Y-130839289D01*
X151081561Y-130832699D01*
X151089443Y-130826853D01*
X151097860Y-130821808D01*
X151106732Y-130817612D01*
X151115972Y-130814306D01*
X151125491Y-130811921D01*
X151135198Y-130810482D01*
X151145000Y-130810000D01*
X152445000Y-130810000D01*
X152454802Y-130810482D01*
X152454802Y-130810482D01*
G37*
D17*
X151795000Y-131010000D03*
%TD*%
M02*
