%TF.GenerationSoftware,KiCad,Pcbnew,(5.0.0)*%
%TF.CreationDate,2020-03-23T14:28:17+01:00*%
%TF.ProjectId,Schaltplan_Modul4,536368616C74706C616E5F4D6F64756C,rev?*%
%TF.SameCoordinates,Original*%
%TF.FileFunction,Legend,Top*%
%TF.FilePolarity,Positive*%
%FSLAX46Y46*%
G04 Gerber Fmt 4.6, Leading zero omitted, Abs format (unit mm)*
G04 Created by KiCad (PCBNEW (5.0.0)) date 03/23/20 14:28:17*
%MOMM*%
%LPD*%
G01*
G04 APERTURE LIST*
%ADD10C,0.300000*%
%ADD11C,0.200000*%
%ADD12C,0.120000*%
%ADD13C,0.150000*%
%ADD14C,0.254000*%
G04 APERTURE END LIST*
D10*
X118771428Y-145357142D02*
X118771428Y-142357142D01*
X119771428Y-144500000D01*
X120771428Y-142357142D01*
X120771428Y-145357142D01*
X122628571Y-145357142D02*
X122342857Y-145214285D01*
X122200000Y-145071428D01*
X122057142Y-144785714D01*
X122057142Y-143928571D01*
X122200000Y-143642857D01*
X122342857Y-143500000D01*
X122628571Y-143357142D01*
X123057142Y-143357142D01*
X123342857Y-143500000D01*
X123485714Y-143642857D01*
X123628571Y-143928571D01*
X123628571Y-144785714D01*
X123485714Y-145071428D01*
X123342857Y-145214285D01*
X123057142Y-145357142D01*
X122628571Y-145357142D01*
X126200000Y-145357142D02*
X126200000Y-142357142D01*
X126200000Y-145214285D02*
X125914285Y-145357142D01*
X125342857Y-145357142D01*
X125057142Y-145214285D01*
X124914285Y-145071428D01*
X124771428Y-144785714D01*
X124771428Y-143928571D01*
X124914285Y-143642857D01*
X125057142Y-143500000D01*
X125342857Y-143357142D01*
X125914285Y-143357142D01*
X126200000Y-143500000D01*
X128914285Y-143357142D02*
X128914285Y-145357142D01*
X127628571Y-143357142D02*
X127628571Y-144928571D01*
X127771428Y-145214285D01*
X128057142Y-145357142D01*
X128485714Y-145357142D01*
X128771428Y-145214285D01*
X128914285Y-145071428D01*
X130771428Y-145357142D02*
X130485714Y-145214285D01*
X130342857Y-144928571D01*
X130342857Y-142357142D01*
X135485714Y-143357142D02*
X135485714Y-145357142D01*
X134771428Y-142214285D02*
X134057142Y-144357142D01*
X135914285Y-144357142D01*
D11*
X103500000Y-147576000D02*
G75*
G03X103500000Y-147576000I-1000000J0D01*
G01*
X198576000Y-147576000D02*
G75*
G03X198576000Y-147576000I-1000000J0D01*
G01*
X198576000Y-52500000D02*
G75*
G03X198576000Y-52500000I-1000000J0D01*
G01*
X103500000Y-52500000D02*
G75*
G03X103500000Y-52500000I-1000000J0D01*
G01*
X100000000Y-50000000D02*
X100000000Y-150000000D01*
X100000000Y-150000000D02*
X200000000Y-150000000D01*
X200000000Y-50000000D02*
X200000000Y-150000000D01*
X100000000Y-50000000D02*
X200000000Y-50000000D01*
D12*
%TO.C,R4*%
X129262000Y-94454578D02*
X129262000Y-93937422D01*
X130682000Y-94454578D02*
X130682000Y-93937422D01*
%TO.C,R1*%
X154910000Y-85958578D02*
X154910000Y-85441422D01*
X153490000Y-85958578D02*
X153490000Y-85441422D01*
%TO.C,R2*%
X147798000Y-85896078D02*
X147798000Y-85378922D01*
X146378000Y-85896078D02*
X146378000Y-85378922D01*
%TO.C,C1*%
X162902000Y-86096078D02*
X162902000Y-85578922D01*
X161482000Y-86096078D02*
X161482000Y-85578922D01*
%TO.C,C2*%
X151534000Y-85917578D02*
X151534000Y-85400422D01*
X150114000Y-85917578D02*
X150114000Y-85400422D01*
%TO.C,C3*%
X159178000Y-85917578D02*
X159178000Y-85400422D01*
X157758000Y-85917578D02*
X157758000Y-85400422D01*
%TO.C,C4*%
X155699922Y-130974000D02*
X156217078Y-130974000D01*
X155699922Y-129554000D02*
X156217078Y-129554000D01*
%TO.C,C5*%
X164178922Y-105066000D02*
X164696078Y-105066000D01*
X164178922Y-103646000D02*
X164696078Y-103646000D01*
%TO.C,C6*%
X131823922Y-105574000D02*
X132341078Y-105574000D01*
X131823922Y-104154000D02*
X132341078Y-104154000D01*
D11*
%TO.C,J4*%
X187216000Y-139176000D02*
X171926000Y-139176000D01*
X171926000Y-139176000D02*
X171926000Y-148126000D01*
X171926000Y-148126000D02*
X192546000Y-148126000D01*
X192546000Y-148126000D02*
X192546000Y-142456000D01*
%TO.C,J5*%
X164864000Y-139176000D02*
X149574000Y-139176000D01*
X149574000Y-139176000D02*
X149574000Y-148126000D01*
X149574000Y-148126000D02*
X170194000Y-148126000D01*
X170194000Y-148126000D02*
X170194000Y-142456000D01*
D12*
%TO.C,R3*%
X134238000Y-94454578D02*
X134238000Y-93937422D01*
X132818000Y-94454578D02*
X132818000Y-93937422D01*
%TD*%
%TO.C,R4*%
D13*
X128774380Y-94362666D02*
X128298190Y-94696000D01*
X128774380Y-94934095D02*
X127774380Y-94934095D01*
X127774380Y-94553142D01*
X127822000Y-94457904D01*
X127869619Y-94410285D01*
X127964857Y-94362666D01*
X128107714Y-94362666D01*
X128202952Y-94410285D01*
X128250571Y-94457904D01*
X128298190Y-94553142D01*
X128298190Y-94934095D01*
X128107714Y-93505523D02*
X128774380Y-93505523D01*
X127726761Y-93743619D02*
X128441047Y-93981714D01*
X128441047Y-93362666D01*
%TO.C,R1*%
X153002380Y-85866666D02*
X152526190Y-86200000D01*
X153002380Y-86438095D02*
X152002380Y-86438095D01*
X152002380Y-86057142D01*
X152050000Y-85961904D01*
X152097619Y-85914285D01*
X152192857Y-85866666D01*
X152335714Y-85866666D01*
X152430952Y-85914285D01*
X152478571Y-85961904D01*
X152526190Y-86057142D01*
X152526190Y-86438095D01*
X153002380Y-84914285D02*
X153002380Y-85485714D01*
X153002380Y-85200000D02*
X152002380Y-85200000D01*
X152145238Y-85295238D01*
X152240476Y-85390476D01*
X152288095Y-85485714D01*
%TO.C,R2*%
X145890380Y-85804166D02*
X145414190Y-86137500D01*
X145890380Y-86375595D02*
X144890380Y-86375595D01*
X144890380Y-85994642D01*
X144938000Y-85899404D01*
X144985619Y-85851785D01*
X145080857Y-85804166D01*
X145223714Y-85804166D01*
X145318952Y-85851785D01*
X145366571Y-85899404D01*
X145414190Y-85994642D01*
X145414190Y-86375595D01*
X144985619Y-85423214D02*
X144938000Y-85375595D01*
X144890380Y-85280357D01*
X144890380Y-85042261D01*
X144938000Y-84947023D01*
X144985619Y-84899404D01*
X145080857Y-84851785D01*
X145176095Y-84851785D01*
X145318952Y-84899404D01*
X145890380Y-85470833D01*
X145890380Y-84851785D01*
%TO.C,C1*%
X160899142Y-86004166D02*
X160946761Y-86051785D01*
X160994380Y-86194642D01*
X160994380Y-86289880D01*
X160946761Y-86432738D01*
X160851523Y-86527976D01*
X160756285Y-86575595D01*
X160565809Y-86623214D01*
X160422952Y-86623214D01*
X160232476Y-86575595D01*
X160137238Y-86527976D01*
X160042000Y-86432738D01*
X159994380Y-86289880D01*
X159994380Y-86194642D01*
X160042000Y-86051785D01*
X160089619Y-86004166D01*
X160994380Y-85051785D02*
X160994380Y-85623214D01*
X160994380Y-85337500D02*
X159994380Y-85337500D01*
X160137238Y-85432738D01*
X160232476Y-85527976D01*
X160280095Y-85623214D01*
%TO.C,C2*%
X149531142Y-85825666D02*
X149578761Y-85873285D01*
X149626380Y-86016142D01*
X149626380Y-86111380D01*
X149578761Y-86254238D01*
X149483523Y-86349476D01*
X149388285Y-86397095D01*
X149197809Y-86444714D01*
X149054952Y-86444714D01*
X148864476Y-86397095D01*
X148769238Y-86349476D01*
X148674000Y-86254238D01*
X148626380Y-86111380D01*
X148626380Y-86016142D01*
X148674000Y-85873285D01*
X148721619Y-85825666D01*
X148721619Y-85444714D02*
X148674000Y-85397095D01*
X148626380Y-85301857D01*
X148626380Y-85063761D01*
X148674000Y-84968523D01*
X148721619Y-84920904D01*
X148816857Y-84873285D01*
X148912095Y-84873285D01*
X149054952Y-84920904D01*
X149626380Y-85492333D01*
X149626380Y-84873285D01*
%TO.C,C3*%
X157175142Y-85825666D02*
X157222761Y-85873285D01*
X157270380Y-86016142D01*
X157270380Y-86111380D01*
X157222761Y-86254238D01*
X157127523Y-86349476D01*
X157032285Y-86397095D01*
X156841809Y-86444714D01*
X156698952Y-86444714D01*
X156508476Y-86397095D01*
X156413238Y-86349476D01*
X156318000Y-86254238D01*
X156270380Y-86111380D01*
X156270380Y-86016142D01*
X156318000Y-85873285D01*
X156365619Y-85825666D01*
X156270380Y-85492333D02*
X156270380Y-84873285D01*
X156651333Y-85206619D01*
X156651333Y-85063761D01*
X156698952Y-84968523D01*
X156746571Y-84920904D01*
X156841809Y-84873285D01*
X157079904Y-84873285D01*
X157175142Y-84920904D01*
X157222761Y-84968523D01*
X157270380Y-85063761D01*
X157270380Y-85349476D01*
X157222761Y-85444714D01*
X157175142Y-85492333D01*
%TO.C,C4*%
X155791833Y-129097142D02*
X155744214Y-129144761D01*
X155601357Y-129192380D01*
X155506119Y-129192380D01*
X155363261Y-129144761D01*
X155268023Y-129049523D01*
X155220404Y-128954285D01*
X155172785Y-128763809D01*
X155172785Y-128620952D01*
X155220404Y-128430476D01*
X155268023Y-128335238D01*
X155363261Y-128240000D01*
X155506119Y-128192380D01*
X155601357Y-128192380D01*
X155744214Y-128240000D01*
X155791833Y-128287619D01*
X156648976Y-128525714D02*
X156648976Y-129192380D01*
X156410880Y-128144761D02*
X156172785Y-128859047D01*
X156791833Y-128859047D01*
%TO.C,C5*%
X164270833Y-103063142D02*
X164223214Y-103110761D01*
X164080357Y-103158380D01*
X163985119Y-103158380D01*
X163842261Y-103110761D01*
X163747023Y-103015523D01*
X163699404Y-102920285D01*
X163651785Y-102729809D01*
X163651785Y-102586952D01*
X163699404Y-102396476D01*
X163747023Y-102301238D01*
X163842261Y-102206000D01*
X163985119Y-102158380D01*
X164080357Y-102158380D01*
X164223214Y-102206000D01*
X164270833Y-102253619D01*
X165175595Y-102158380D02*
X164699404Y-102158380D01*
X164651785Y-102634571D01*
X164699404Y-102586952D01*
X164794642Y-102539333D01*
X165032738Y-102539333D01*
X165127976Y-102586952D01*
X165175595Y-102634571D01*
X165223214Y-102729809D01*
X165223214Y-102967904D01*
X165175595Y-103063142D01*
X165127976Y-103110761D01*
X165032738Y-103158380D01*
X164794642Y-103158380D01*
X164699404Y-103110761D01*
X164651785Y-103063142D01*
%TO.C,C6*%
X131915833Y-103571142D02*
X131868214Y-103618761D01*
X131725357Y-103666380D01*
X131630119Y-103666380D01*
X131487261Y-103618761D01*
X131392023Y-103523523D01*
X131344404Y-103428285D01*
X131296785Y-103237809D01*
X131296785Y-103094952D01*
X131344404Y-102904476D01*
X131392023Y-102809238D01*
X131487261Y-102714000D01*
X131630119Y-102666380D01*
X131725357Y-102666380D01*
X131868214Y-102714000D01*
X131915833Y-102761619D01*
X132772976Y-102666380D02*
X132582500Y-102666380D01*
X132487261Y-102714000D01*
X132439642Y-102761619D01*
X132344404Y-102904476D01*
X132296785Y-103094952D01*
X132296785Y-103475904D01*
X132344404Y-103571142D01*
X132392023Y-103618761D01*
X132487261Y-103666380D01*
X132677738Y-103666380D01*
X132772976Y-103618761D01*
X132820595Y-103571142D01*
X132868214Y-103475904D01*
X132868214Y-103237809D01*
X132820595Y-103142571D01*
X132772976Y-103094952D01*
X132677738Y-103047333D01*
X132487261Y-103047333D01*
X132392023Y-103094952D01*
X132344404Y-103142571D01*
X132296785Y-103237809D01*
%TO.C,J4*%
D14*
X191016666Y-139220523D02*
X191016666Y-140127666D01*
X190956190Y-140309095D01*
X190835238Y-140430047D01*
X190653809Y-140490523D01*
X190532857Y-140490523D01*
X192165714Y-139643857D02*
X192165714Y-140490523D01*
X191863333Y-139160047D02*
X191560952Y-140067190D01*
X192347142Y-140067190D01*
%TO.C,J5*%
X168664666Y-139220523D02*
X168664666Y-140127666D01*
X168604190Y-140309095D01*
X168483238Y-140430047D01*
X168301809Y-140490523D01*
X168180857Y-140490523D01*
X169874190Y-139220523D02*
X169269428Y-139220523D01*
X169208952Y-139825285D01*
X169269428Y-139764809D01*
X169390380Y-139704333D01*
X169692761Y-139704333D01*
X169813714Y-139764809D01*
X169874190Y-139825285D01*
X169934666Y-139946238D01*
X169934666Y-140248619D01*
X169874190Y-140369571D01*
X169813714Y-140430047D01*
X169692761Y-140490523D01*
X169390380Y-140490523D01*
X169269428Y-140430047D01*
X169208952Y-140369571D01*
%TO.C,R3*%
D13*
X132330380Y-94362666D02*
X131854190Y-94696000D01*
X132330380Y-94934095D02*
X131330380Y-94934095D01*
X131330380Y-94553142D01*
X131378000Y-94457904D01*
X131425619Y-94410285D01*
X131520857Y-94362666D01*
X131663714Y-94362666D01*
X131758952Y-94410285D01*
X131806571Y-94457904D01*
X131854190Y-94553142D01*
X131854190Y-94934095D01*
X131330380Y-94029333D02*
X131330380Y-93410285D01*
X131711333Y-93743619D01*
X131711333Y-93600761D01*
X131758952Y-93505523D01*
X131806571Y-93457904D01*
X131901809Y-93410285D01*
X132139904Y-93410285D01*
X132235142Y-93457904D01*
X132282761Y-93505523D01*
X132330380Y-93600761D01*
X132330380Y-93886476D01*
X132282761Y-93981714D01*
X132235142Y-94029333D01*
%TD*%
M02*
