M48
;DRILL file {KiCad (5.0.0)} date 03/23/20 14:28:19
;FORMAT={-:-/ absolute / inch / decimal}
FMAT,2
INCH,TZ
T1C0.0157
T2C0.0402
T3C0.0433
%
G90
G05
M72
T1
X5.114Y-3.9165
X5.117Y-3.6085
X5.157Y-3.8285
X5.1632Y-4.0623
X5.2244Y-3.811
X5.2969Y-3.8286
X5.3009Y-4.1285
X5.8356Y-5.1971
X5.938Y-3.2765
X5.9762Y-5.1977
X6.037Y-5.1085
X6.097Y-5.3885
X6.117Y-5.0285
X6.197Y-5.0285
X6.237Y-5.3685
X6.2494Y-5.1285
X6.3189Y-3.3355
X6.377Y-4.1085
X6.3855Y-3.4763
X6.5108Y-4.0347
X6.577Y-5.0685
X6.6966Y-5.1681
X6.697Y-5.3285
X6.7162Y-3.9069
X6.7162Y-3.9581
X6.877Y-5.0685
X7.237Y-5.0685
X7.357Y-5.0685
T2
X5.757Y-3.1485
X5.857Y-3.1485
X5.957Y-3.1485
X6.057Y-3.1485
T3
X6.0907Y-5.6085
X6.0907Y-5.7085
X6.1907Y-5.6085
X6.1907Y-5.7085
X6.2907Y-5.6085
X6.2907Y-5.7085
X6.3907Y-5.6085
X6.3907Y-5.7085
X6.4907Y-5.6085
X6.4907Y-5.7085
X6.9707Y-5.6085
X6.9707Y-5.7085
X7.0707Y-5.6085
X7.0707Y-5.7085
X7.1707Y-5.6085
X7.1707Y-5.7085
X7.2707Y-5.6085
X7.2707Y-5.7085
X7.3707Y-5.6085
X7.3707Y-5.7085
T0
M30
